<svg width="1280" height="359" viewBox="0 0 1280 359" fill="none" xmlns="http://www.w3.org/2000/svg">
<g opacity="0.8">
<path opacity="0.05" d="M0 325.611C213.333 73.1689 426.667 27.6518 640 189.06C853.333 350.468 1066.67 395.985 1280 325.611" stroke="url(#paint0_linear_24_143)" stroke-width="1.5" stroke-linecap="round" stroke-dasharray="3 1"/>
<path opacity="0.08" d="M0 314.958C213.333 69.6178 426.667 27.6518 640 189.06C853.333 350.468 1066.67 392.434 1280 314.958" stroke="url(#paint1_linear_24_143)" stroke-width="1.5" stroke-linecap="round" stroke-dasharray="2 1"/>
<path opacity="0.11" d="M0 304.305C213.333 66.0669 426.667 27.6518 640 189.06C853.333 350.468 1066.67 388.883 1280 304.305" stroke="url(#paint2_linear_24_143)" stroke-width="1.5" stroke-linecap="round" stroke-dasharray="1 1"/>
<path opacity="0.15" d="M0 293.652C213.333 62.5159 426.667 27.6518 640 189.06C853.333 350.468 1066.67 385.332 1280 293.652" stroke="url(#paint3_linear_24_143)" stroke-width="1.5" stroke-linecap="round"/>
<path opacity="0.18" d="M0 282.999C213.333 58.965 426.667 27.6518 640 189.06C853.333 350.468 1066.67 381.781 1280 282.999" stroke="url(#paint4_linear_24_143)" stroke-width="1.5" stroke-linecap="round"/>
<path opacity="0.21" d="M0 272.346C213.333 55.414 426.667 27.6518 640 189.06C853.333 350.468 1066.67 378.23 1280 272.346" stroke="url(#paint5_linear_24_143)" stroke-width="1.5" stroke-linecap="round" stroke-dasharray="1 2"/>
<path opacity="0.24" d="M0 261.693C213.333 51.863 426.667 27.6518 640 189.06C853.333 350.468 1066.67 374.679 1280 261.693" stroke="url(#paint6_linear_24_143)" stroke-width="1.5" stroke-linecap="round" stroke-dasharray="2 3"/>
<path opacity="0.27" d="M0 251.04C213.333 48.312 426.667 27.6518 640 189.06C853.333 350.468 1066.67 371.128 1280 251.04" stroke="url(#paint7_linear_24_143)" stroke-width="1.5" stroke-linecap="round" stroke-dasharray="3 1"/>
<path opacity="0.3" d="M0 240.388C213.333 44.761 426.667 27.6518 640 189.06C853.333 350.468 1066.67 367.577 1280 240.388" stroke="url(#paint8_linear_24_143)" stroke-width="1.5" stroke-linecap="round" stroke-dasharray="3 3"/>
<path opacity="0.33" d="M0 229.735C213.333 41.21 426.667 27.6518 640 189.06C853.333 350.468 1066.67 364.026 1280 229.735" stroke="url(#paint9_linear_24_143)" stroke-width="1.5" stroke-linecap="round"/>
<path opacity="0.37" d="M0 219.082C213.333 37.6591 426.667 27.6518 640 189.06C853.333 350.468 1066.67 360.475 1280 219.082" stroke="url(#paint10_linear_24_143)" stroke-width="1.5" stroke-linecap="round"/>
<path opacity="0.4" d="M0 208.429C213.333 34.1081 426.667 27.6518 640 189.06C853.333 350.468 1066.67 356.924 1280 208.429" stroke="url(#paint11_linear_24_143)" stroke-width="1.5" stroke-linecap="round" stroke-dasharray="1 3"/>
<path opacity="0.43" d="M0 197.776C213.333 30.5571 426.667 27.6517 640 189.06C853.333 350.468 1066.67 353.373 1280 197.776" stroke="url(#paint12_linear_24_143)" stroke-width="1.5" stroke-linecap="round" stroke-dasharray="1 3"/>
<path opacity="0.46" d="M0 187.123C213.333 27.0061 426.667 27.6518 640 189.06C853.333 350.468 1066.67 349.822 1280 187.123" stroke="url(#paint13_linear_24_143)" stroke-width="1.5" stroke-linecap="round" stroke-dasharray="2 1"/>
<path opacity="0.49" d="M0 176.47C213.333 23.4551 426.667 27.6518 640 189.06C853.333 350.468 1066.67 346.271 1280 176.47" stroke="url(#paint14_linear_24_143)" stroke-width="1.5" stroke-linecap="round" stroke-dasharray="2 1"/>
<path opacity="0.53" d="M0 165.817C213.333 19.9042 426.667 27.6518 640 189.06C853.333 350.468 1066.67 342.72 1280 165.817" stroke="url(#paint15_linear_24_143)" stroke-width="1.5" stroke-linecap="round"/>
<path opacity="0.56" d="M0 155.164C213.333 16.3532 426.667 27.6518 640 189.06C853.333 350.468 1066.67 339.169 1280 155.164" stroke="url(#paint16_linear_24_143)" stroke-width="1.5" stroke-linecap="round"/>
<path opacity="0.59" d="M0 144.511C213.333 12.8022 426.667 27.6518 640 189.06C853.333 350.468 1066.67 335.618 1280 144.511" stroke="url(#paint17_linear_24_143)" stroke-width="1.5" stroke-linecap="round" stroke-dasharray="2 1"/>
<path opacity="0.62" d="M0 133.858C213.333 9.25125 426.667 27.6518 640 189.06C853.333 350.468 1066.67 332.067 1280 133.858" stroke="url(#paint18_linear_24_143)" stroke-width="1.5" stroke-linecap="round" stroke-dasharray="1 2"/>
<path opacity="0.65" d="M0 123.205C213.333 5.70025 426.667 27.6517 640 189.06C853.333 350.468 1066.67 328.516 1280 123.205" stroke="url(#paint19_linear_24_143)" stroke-width="1.5" stroke-linecap="round" stroke-dasharray="3 3"/>
<path opacity="0.68" d="M0 112.552C213.333 2.14929 426.667 27.6518 640 189.06C853.333 350.468 1066.67 324.965 1280 112.552" stroke="url(#paint20_linear_24_143)" stroke-width="1.5" stroke-linecap="round" stroke-dasharray="3 1"/>
<path opacity="0.71" d="M0 101.899C213.333 -1.40168 426.667 27.6518 640 189.06C853.333 350.468 1066.67 321.414 1280 101.899" stroke="url(#paint21_linear_24_143)" stroke-width="1.5" stroke-linecap="round" stroke-dasharray="1 1"/>
<path opacity="0.75" d="M0 91.2465C213.333 -4.95265 426.667 27.6518 640 189.06C853.333 350.468 1066.67 317.863 1280 91.2465" stroke="url(#paint22_linear_24_143)" stroke-width="1.5" stroke-linecap="round"/>
<path opacity="0.78" d="M0 80.5936C213.333 -8.50364 426.667 27.6518 640 189.06C853.333 350.468 1066.67 314.312 1280 80.5936" stroke="url(#paint23_linear_24_143)" stroke-width="1.5" stroke-linecap="round" stroke-dasharray="1 2"/>
<path opacity="0.81" d="M0 69.9407C213.333 -12.0546 426.667 27.6518 640 189.06C853.333 350.468 1066.67 310.761 1280 69.9407" stroke="url(#paint24_linear_24_143)" stroke-width="1.5" stroke-linecap="round"/>
<path opacity="0.84" d="M0 59.2877C213.333 -15.6056 426.667 27.6518 640 189.06C853.333 350.468 1066.67 307.21 1280 59.2877" stroke="url(#paint25_linear_24_143)" stroke-width="1.5" stroke-linecap="round" stroke-dasharray="1 2"/>
<path opacity="0.87" d="M0 48.6348C213.333 -19.1566 426.667 27.6518 640 189.06C853.333 350.468 1066.67 303.66 1280 48.6348" stroke="url(#paint26_linear_24_143)" stroke-width="1.5" stroke-linecap="round" stroke-dasharray="1 3"/>
<path opacity="0.91" d="M0 37.9819C213.333 -22.7075 426.667 27.6518 640 189.06C853.333 350.468 1066.67 300.109 1280 37.9819" stroke="url(#paint27_linear_24_143)" stroke-width="1.5" stroke-linecap="round" stroke-dasharray="3 2"/>
<path opacity="0.94" d="M0 27.329C213.333 -26.2585 426.667 27.6518 640 189.06C853.333 350.468 1066.67 296.558 1280 27.329" stroke="url(#paint28_linear_24_143)" stroke-width="1.5" stroke-linecap="round" stroke-dasharray="2 1"/>
<path opacity="0.97" d="M0 16.676C213.333 -29.8095 426.667 27.6518 640 189.06C853.333 350.468 1066.67 293.007 1280 16.676" stroke="url(#paint29_linear_24_143)" stroke-width="1.5" stroke-linecap="round" stroke-dasharray="1 2"/>
</g>
<defs>
<linearGradient id="paint0_linear_24_143" x1="64000" y1="94.6323" x2="64000" y2="26397.6" gradientUnits="userSpaceOnUse">
<stop stop-color="#29FFBF"/>
<stop offset="1" stop-color="#8730DF"/>
</linearGradient>
<linearGradient id="paint1_linear_24_143" x1="64000" y1="92.9836" x2="64000" y2="26059.5" gradientUnits="userSpaceOnUse">
<stop stop-color="#29FFBF"/>
<stop offset="1" stop-color="#8730DF"/>
</linearGradient>
<linearGradient id="paint2_linear_24_143" x1="64000" y1="91.2763" x2="64000" y2="25756.2" gradientUnits="userSpaceOnUse">
<stop stop-color="#29FFBF"/>
<stop offset="1" stop-color="#8730DF"/>
</linearGradient>
<linearGradient id="paint3_linear_24_143" x1="64000" y1="89.5071" x2="64000" y2="25485.6" gradientUnits="userSpaceOnUse">
<stop stop-color="#29FFBF"/>
<stop offset="1" stop-color="#8730DF"/>
</linearGradient>
<linearGradient id="paint4_linear_24_143" x1="64000" y1="87.6729" x2="64000" y2="25245.7" gradientUnits="userSpaceOnUse">
<stop stop-color="#29FFBF"/>
<stop offset="1" stop-color="#8730DF"/>
</linearGradient>
<linearGradient id="paint5_linear_24_143" x1="64000" y1="85.7697" x2="64000" y2="25035.1" gradientUnits="userSpaceOnUse">
<stop stop-color="#29FFBF"/>
<stop offset="1" stop-color="#8730DF"/>
</linearGradient>
<linearGradient id="paint6_linear_24_143" x1="64000" y1="83.7937" x2="64000" y2="24852.3" gradientUnits="userSpaceOnUse">
<stop stop-color="#29FFBF"/>
<stop offset="1" stop-color="#8730DF"/>
</linearGradient>
<linearGradient id="paint7_linear_24_143" x1="64000" y1="81.7406" x2="64000" y2="24696.2" gradientUnits="userSpaceOnUse">
<stop stop-color="#29FFBF"/>
<stop offset="1" stop-color="#8730DF"/>
</linearGradient>
<linearGradient id="paint8_linear_24_143" x1="64000" y1="79.6059" x2="64000" y2="24565.9" gradientUnits="userSpaceOnUse">
<stop stop-color="#29FFBF"/>
<stop offset="1" stop-color="#8730DF"/>
</linearGradient>
<linearGradient id="paint9_linear_24_143" x1="64000" y1="77.3845" x2="64000" y2="24460.6" gradientUnits="userSpaceOnUse">
<stop stop-color="#29FFBF"/>
<stop offset="1" stop-color="#8730DF"/>
</linearGradient>
<linearGradient id="paint10_linear_24_143" x1="64000" y1="75.0711" x2="64000" y2="24379.7" gradientUnits="userSpaceOnUse">
<stop stop-color="#29FFBF"/>
<stop offset="1" stop-color="#8730DF"/>
</linearGradient>
<linearGradient id="paint11_linear_24_143" x1="64000" y1="72.6598" x2="64000" y2="24322.7" gradientUnits="userSpaceOnUse">
<stop stop-color="#29FFBF"/>
<stop offset="1" stop-color="#8730DF"/>
</linearGradient>
<linearGradient id="paint12_linear_24_143" x1="64000" y1="70.1442" x2="64000" y2="24289.2" gradientUnits="userSpaceOnUse">
<stop stop-color="#29FFBF"/>
<stop offset="1" stop-color="#8730DF"/>
</linearGradient>
<linearGradient id="paint13_linear_24_143" x1="64000" y1="67.5176" x2="64000" y2="24279.1" gradientUnits="userSpaceOnUse">
<stop stop-color="#29FFBF"/>
<stop offset="1" stop-color="#8730DF"/>
</linearGradient>
<linearGradient id="paint14_linear_24_143" x1="64000" y1="64.7723" x2="64000" y2="24292.4" gradientUnits="userSpaceOnUse">
<stop stop-color="#29FFBF"/>
<stop offset="1" stop-color="#8730DF"/>
</linearGradient>
<linearGradient id="paint15_linear_24_143" x1="64000" y1="61.9001" x2="64000" y2="24329" gradientUnits="userSpaceOnUse">
<stop stop-color="#29FFBF"/>
<stop offset="1" stop-color="#8730DF"/>
</linearGradient>
<linearGradient id="paint16_linear_24_143" x1="64000" y1="58.892" x2="64000" y2="24389.3" gradientUnits="userSpaceOnUse">
<stop stop-color="#29FFBF"/>
<stop offset="1" stop-color="#8730DF"/>
</linearGradient>
<linearGradient id="paint17_linear_24_143" x1="64000" y1="55.7382" x2="64000" y2="24473.6" gradientUnits="userSpaceOnUse">
<stop stop-color="#29FFBF"/>
<stop offset="1" stop-color="#8730DF"/>
</linearGradient>
<linearGradient id="paint18_linear_24_143" x1="64000" y1="52.4277" x2="64000" y2="24582.4" gradientUnits="userSpaceOnUse">
<stop stop-color="#29FFBF"/>
<stop offset="1" stop-color="#8730DF"/>
</linearGradient>
<linearGradient id="paint19_linear_24_143" x1="64000" y1="48.9486" x2="64000" y2="24716.4" gradientUnits="userSpaceOnUse">
<stop stop-color="#29FFBF"/>
<stop offset="1" stop-color="#8730DF"/>
</linearGradient>
<linearGradient id="paint20_linear_24_143" x1="64000" y1="45.2878" x2="64000" y2="24876.4" gradientUnits="userSpaceOnUse">
<stop stop-color="#29FFBF"/>
<stop offset="1" stop-color="#8730DF"/>
</linearGradient>
<linearGradient id="paint21_linear_24_143" x1="64000" y1="41.4305" x2="64000" y2="25063.4" gradientUnits="userSpaceOnUse">
<stop stop-color="#29FFBF"/>
<stop offset="1" stop-color="#8730DF"/>
</linearGradient>
<linearGradient id="paint22_linear_24_143" x1="64000" y1="37.3605" x2="64000" y2="25278.5" gradientUnits="userSpaceOnUse">
<stop stop-color="#29FFBF"/>
<stop offset="1" stop-color="#8730DF"/>
</linearGradient>
<linearGradient id="paint23_linear_24_143" x1="64000" y1="33.0598" x2="64000" y2="25523.3" gradientUnits="userSpaceOnUse">
<stop stop-color="#29FFBF"/>
<stop offset="1" stop-color="#8730DF"/>
</linearGradient>
<linearGradient id="paint24_linear_24_143" x1="64000" y1="28.508" x2="64000" y2="25799.3" gradientUnits="userSpaceOnUse">
<stop stop-color="#29FFBF"/>
<stop offset="1" stop-color="#8730DF"/>
</linearGradient>
<linearGradient id="paint25_linear_24_143" x1="64000" y1="23.6827" x2="64000" y2="26108.4" gradientUnits="userSpaceOnUse">
<stop stop-color="#29FFBF"/>
<stop offset="1" stop-color="#8730DF"/>
</linearGradient>
<linearGradient id="paint26_linear_24_143" x1="64000" y1="18.5584" x2="64000" y2="26452.9" gradientUnits="userSpaceOnUse">
<stop stop-color="#29FFBF"/>
<stop offset="1" stop-color="#8730DF"/>
</linearGradient>
<linearGradient id="paint27_linear_24_143" x1="64000" y1="13.1063" x2="64000" y2="26835.3" gradientUnits="userSpaceOnUse">
<stop stop-color="#29FFBF"/>
<stop offset="1" stop-color="#8730DF"/>
</linearGradient>
<linearGradient id="paint28_linear_24_143" x1="64000" y1="7.294" x2="64000" y2="27258.5" gradientUnits="userSpaceOnUse">
<stop stop-color="#29FFBF"/>
<stop offset="1" stop-color="#8730DF"/>
</linearGradient>
<linearGradient id="paint29_linear_24_143" x1="64000" y1="1.08463" x2="64000" y2="27726" gradientUnits="userSpaceOnUse">
<stop stop-color="#29FFBF"/>
<stop offset="1" stop-color="#8730DF"/>
</linearGradient>
</defs>
</svg>
