<svg width="2635" height="719" viewBox="0 0 2635 719" fill="none" xmlns="http://www.w3.org/2000/svg">
<path d="M87.1255 533.998C118.163 569.813 108.019 693.348 211.277 677.258C314.535 661.168 390.311 499.763 500.158 469.638C610.006 439.513 541.025 586.444 650.667 556.758C760.308 527.071 828.877 381.017 938.724 350.892C1048.57 320.767 988.033 449.716 1090.06 436.257C1192.08 422.799 1240.88 318.851 1346.81 297.059C1452.75 275.267 1407.66 371.321 1513.8 349.091C1619.94 326.86 1663.38 234.315 1771.38 208.138C1879.37 181.96 1835.51 275.382 1945.77 244.38C2056.03 213.377 2114.92 87.9376 2212.41 84.1285C2309.91 80.3194 2235.99 237.777 2335.74 229.143C2435.5 220.51 2542.52 94.4811 2611.45 49.5937" stroke="url(#paint0_linear_285_300)" stroke-linecap="round"/>
<path d="M106.484 523.33C135.851 559.324 122.277 682.497 223.952 667.306C325.628 652.114 404.641 491.704 513.188 462.564C621.734 433.424 549.807 579.45 658.139 550.746C766.47 522.041 837.968 376.888 946.515 347.747C1055.06 318.607 991.937 446.761 1092.32 434.185C1192.71 421.609 1243.6 318.302 1348.07 297.444C1452.53 276.586 1405.51 372.047 1510.19 350.753C1614.87 329.459 1660.18 237.485 1766.79 212.268C1873.41 187.051 1827.67 279.897 1936.65 249.885C2045.63 219.873 2107.03 95.2067 2202.7 92.2205C2298.36 89.2342 2221.28 245.721 2319.31 237.94C2417.33 230.159 2525.93 105.307 2594.8 61.0961" stroke="url(#paint1_linear_285_300)" stroke-linecap="round"/>
<path d="M125.92 512.828C153.641 548.982 136.716 671.751 236.803 657.445C336.889 643.139 419.035 483.768 526.265 455.603C633.494 427.438 558.714 572.518 665.72 544.786C772.727 517.055 847.06 372.842 954.29 344.677C1061.52 316.512 995.891 443.836 1094.64 432.128C1193.38 420.42 1246.29 317.782 1349.28 297.846C1452.27 277.909 1403.38 372.752 1506.59 352.383C1609.8 332.014 1656.9 240.635 1762.12 216.368C1867.34 192.101 1819.8 284.346 1927.47 255.315C2035.15 226.285 2098.99 102.426 2192.83 100.245C2286.66 98.0651 2206.52 253.538 2302.82 246.594C2399.11 239.65 2509.2 116.001 2577.99 72.4693" stroke="url(#paint2_linear_285_300)" stroke-linecap="round"/>
<path d="M145.424 502.496C171.523 538.792 151.332 661.114 249.822 647.679C348.312 634.244 433.488 475.956 539.384 448.757C645.281 421.558 567.743 565.652 673.408 538.883C779.073 512.114 856.148 368.88 962.045 341.681C1067.94 314.482 999.893 440.941 1096.99 430.087C1194.1 419.233 1248.95 317.292 1350.45 298.265C1451.95 279.239 1401.26 373.437 1502.99 353.98C1604.72 334.524 1653.56 243.766 1757.37 220.438C1861.19 197.11 1811.89 288.728 1918.24 260.669C2024.6 232.61 2090.8 109.592 2182.81 108.201C2274.82 106.81 2191.73 261.227 2286.28 255.104C2380.84 248.981 2492.34 126.559 2561.03 83.7106" stroke="url(#paint3_linear_285_300)" stroke-linecap="round"/>
<path d="M164.987 492.335C189.49 528.754 166.113 650.586 263 638.009C359.888 625.432 447.99 468.269 552.538 442.026C657.087 415.782 576.886 558.851 681.196 533.035C785.505 507.218 865.227 365.003 969.776 338.76C1074.33 312.516 1003.94 438.075 1099.39 428.06C1194.84 418.045 1251.58 316.829 1351.58 298.7C1451.58 280.571 1399.15 374.099 1499.39 355.543C1599.63 336.987 1650.15 246.875 1752.54 224.475C1854.93 202.075 1803.94 293.041 1908.97 265.943C2014 238.845 2082.47 116.703 2172.65 116.084C2262.83 115.465 2176.89 268.783 2269.71 263.466C2362.52 258.149 2475.37 136.978 2543.92 94.8153" stroke="url(#paint4_linear_285_300)" stroke-linecap="round"/>
<path d="M184.601 482.349C207.534 518.871 181.052 640.174 276.333 628.44C371.613 616.706 462.536 460.712 565.722 435.413C668.909 410.114 586.14 552.12 689.079 527.245C792.019 502.371 874.294 361.213 977.48 335.914C1080.67 310.616 1008.03 435.242 1101.83 426.051C1195.62 416.861 1254.18 316.397 1352.67 299.152C1451.16 281.908 1397.06 374.741 1495.8 357.073C1594.53 339.404 1646.67 249.962 1747.63 228.479C1848.59 206.995 1795.97 297.285 1899.65 271.139C2003.33 244.992 2073.99 123.758 2162.35 123.893C2250.72 124.028 2162.02 276.207 2253.1 271.68C2344.18 267.152 2458.28 147.257 2526.67 105.783" stroke="url(#paint5_linear_285_300)" stroke-linecap="round"/>
<path d="M204.261 472.537C225.65 509.146 196.148 629.877 289.816 618.972C383.485 608.067 477.123 453.282 578.934 428.918C680.745 404.554 595.503 545.459 697.059 521.515C798.615 497.571 883.348 357.508 985.159 333.144C1086.97 308.779 1012.16 432.439 1104.3 424.058C1196.44 415.677 1256.75 315.992 1353.73 299.62C1450.7 283.247 1394.98 375.361 1492.21 358.568C1589.44 341.774 1643.13 253.025 1742.65 232.447C1842.17 211.868 1787.97 301.458 1890.29 276.253C1992.61 251.047 2065.38 130.752 2151.93 131.625C2238.47 132.497 2147.12 283.497 2236.46 279.742C2325.81 275.988 2441.09 157.391 2509.3 116.608" stroke="url(#paint6_linear_285_300)" stroke-linecap="round"/>
<path d="M223.956 462.904C243.827 499.581 211.388 619.701 303.44 609.611C395.492 599.521 491.743 445.985 592.164 422.544C692.586 399.104 604.967 538.871 705.127 515.847C805.287 492.824 892.383 353.891 992.805 330.45C1093.23 307.009 1016.33 429.67 1106.81 422.084C1197.3 414.497 1259.28 315.617 1354.74 300.103C1450.19 284.59 1392.91 375.96 1488.62 360.029C1584.34 344.098 1639.52 256.065 1737.59 236.38C1835.66 216.694 1779.95 305.561 1880.89 281.285C1981.84 257.01 2056.64 137.686 2141.37 139.278C2226.1 140.871 2132.2 290.651 2219.81 287.654C2307.41 284.656 2423.8 167.38 2491.79 127.289" stroke="url(#paint7_linear_285_300)" stroke-linecap="round"/>
<path d="M243.676 453.452C262.056 490.178 226.764 609.647 317.196 600.357C407.629 591.067 506.386 438.821 605.406 416.292C704.427 393.764 614.525 532.357 713.277 510.242C812.029 488.127 901.394 350.361 1000.41 327.833C1099.43 305.304 1020.54 426.935 1109.36 420.128C1198.18 413.32 1261.78 315.27 1355.7 300.602C1449.62 285.934 1390.85 376.537 1485.04 361.455C1579.23 346.374 1635.86 259.08 1732.46 240.275C1829.07 221.47 1771.91 309.591 1871.46 286.235C1971.02 262.879 2047.77 144.557 2130.69 146.851C2213.61 149.145 2117.27 297.668 2203.14 295.411C2289.01 293.154 2406.41 177.221 2474.17 137.824" stroke="url(#paint8_linear_285_300)" stroke-linecap="round"/>
<path d="M263.421 444.181C280.337 480.939 242.275 599.718 331.086 591.213C419.896 582.709 521.056 431.791 618.663 410.163C716.27 388.535 624.181 525.919 721.513 504.702C818.845 483.484 910.384 346.92 1007.99 325.292C1105.6 303.664 1024.78 424.234 1111.94 418.19C1199.1 412.146 1264.25 314.952 1356.64 301.116C1449.02 287.28 1388.82 377.093 1481.48 362.847C1574.14 348.601 1632.14 262.069 1727.27 244.132C1822.4 226.195 1763.85 313.547 1862.01 291.099C1960.17 268.651 2038.78 151.361 2119.9 154.34C2201.01 157.318 2102.33 304.545 2186.46 303.012C2270.6 301.48 2388.95 186.91 2456.45 148.209" stroke="url(#paint9_linear_285_300)" stroke-linecap="round"/>
<path d="M283.173 435.095C298.653 471.867 257.906 589.917 345.092 582.183C432.279 574.448 535.736 424.896 631.918 404.158C728.101 383.419 633.921 519.56 729.822 499.228C825.724 478.895 919.341 343.567 1015.52 322.828C1111.71 302.089 1029.05 421.568 1114.55 416.273C1200.05 410.977 1266.68 314.662 1357.52 301.645C1448.36 288.627 1386.79 377.627 1477.92 364.203C1569.04 350.78 1628.36 265.031 1722.01 247.95C1815.66 230.868 1755.78 317.43 1852.53 295.878C1949.27 274.327 2029.67 158.099 2108.99 161.743C2188.3 165.388 2087.38 311.283 2169.78 310.457C2252.19 309.632 2371.41 196.445 2438.62 158.441" stroke="url(#paint10_linear_285_300)" stroke-linecap="round"/>
<path d="M302.935 426.194C317.006 462.962 273.659 580.247 359.219 573.268C444.78 566.289 550.43 418.139 645.177 398.278C739.925 378.416 643.749 513.28 738.21 493.821C832.67 474.362 928.272 340.303 1023.02 320.441C1117.77 300.58 1033.36 418.938 1117.2 414.375C1201.04 409.811 1269.08 314.4 1358.37 302.187C1447.66 289.974 1384.79 378.139 1474.37 365.524C1563.95 352.909 1624.53 267.965 1716.69 251.726C1808.85 235.488 1747.7 321.237 1843.03 300.571C1938.35 279.904 2020.46 164.766 2097.98 169.059C2175.5 173.352 2072.43 317.878 2153.11 317.743C2233.79 317.608 2353.8 205.824 2420.7 168.518" stroke="url(#paint11_linear_285_300)" stroke-linecap="round"/>
<path d="M322.691 417.481C335.381 454.228 289.518 570.71 373.452 564.47C457.387 558.231 565.125 411.521 658.428 392.524C751.73 373.528 653.654 507.082 746.664 488.484C839.674 469.886 937.165 337.129 1030.47 318.132C1123.77 299.136 1037.7 416.344 1119.87 412.497C1202.05 408.65 1271.44 314.166 1359.18 302.744C1446.92 291.322 1382.8 378.63 1470.84 366.81C1558.87 354.989 1620.64 270.87 1711.31 255.461C1801.98 240.053 1739.62 324.969 1833.51 305.175C1927.4 285.381 2011.13 171.362 2086.86 176.285C2162.6 181.209 2057.5 324.331 2136.45 324.869C2215.41 325.407 2336.13 215.046 2402.69 178.438" stroke="url(#paint12_linear_285_300)" stroke-linecap="round"/>
<path d="M342.436 408.959C353.774 445.667 305.481 561.309 387.789 555.794C470.097 550.279 579.818 405.043 671.667 386.899C763.516 368.755 663.633 500.967 755.184 483.218C846.735 465.468 946.021 334.046 1037.87 315.902C1129.72 297.758 1042.06 413.788 1122.58 410.642C1203.1 407.495 1273.76 313.96 1359.95 303.314C1446.13 292.669 1380.83 379.1 1467.31 368.06C1553.8 357.02 1616.71 273.746 1705.87 259.154C1795.04 244.562 1731.53 328.625 1823.98 309.691C1916.42 290.758 2001.69 177.884 2075.65 183.42C2149.61 188.956 2042.57 330.64 2119.81 331.834C2197.05 333.029 2318.41 224.107 2384.61 188.198" stroke="url(#paint13_linear_285_300)" stroke-linecap="round"/>
<path d="M362.164 400.627C372.179 437.28 321.54 552.046 402.222 547.24C482.904 542.434 594.505 398.707 684.891 381.403C775.278 364.099 673.684 494.937 763.767 478.024C853.851 461.11 954.837 331.053 1045.22 313.749C1135.61 296.445 1046.45 411.27 1125.31 408.807C1204.18 406.345 1276.05 313.781 1360.67 303.898C1445.3 294.014 1378.88 379.548 1463.81 369.274C1548.74 359 1612.73 276.591 1700.38 262.802C1788.04 249.013 1723.45 332.203 1814.44 314.118C1905.43 296.032 1992.16 184.331 2064.35 190.461C2136.55 196.591 2027.67 336.803 2103.2 338.636C2178.73 340.47 2300.65 233.005 2366.46 197.795" stroke="url(#paint14_linear_285_300)" stroke-linecap="round"/>
<path d="M381.865 392.489C390.584 429.069 337.687 542.924 416.744 538.811C495.801 534.698 609.177 392.513 698.093 376.036C787.009 359.559 683.8 488.994 772.408 472.903C861.016 456.813 963.609 328.151 1052.52 311.674C1141.44 295.197 1050.86 408.79 1128.07 406.995C1205.28 405.201 1278.3 313.63 1361.36 304.494C1444.42 295.359 1376.95 379.974 1460.32 370.452C1543.69 360.929 1608.7 279.405 1694.84 266.405C1780.98 253.406 1715.36 335.703 1804.89 318.453C1894.43 301.203 1982.54 190.701 2052.97 197.406C2123.4 204.112 2012.8 342.819 2086.62 345.275C2160.44 347.73 2282.84 241.739 2348.25 207.227" stroke="url(#paint15_linear_285_300)" stroke-linecap="round"/>
<path d="M401.532 384.545C408.987 421.036 353.915 533.946 431.35 530.51C508.784 527.074 623.831 386.464 711.269 370.801C798.708 355.138 693.977 483.139 781.103 467.858C868.229 452.577 972.334 325.34 1059.77 309.677C1147.21 294.014 1055.3 406.35 1130.86 405.206C1206.41 404.063 1280.51 313.507 1362.01 305.104C1443.5 296.701 1375.04 380.379 1456.85 371.594C1538.66 362.808 1604.63 282.187 1689.25 269.963C1773.87 257.739 1707.28 339.124 1795.35 322.697C1883.41 306.27 1972.82 196.991 2041.5 204.254C2110.18 211.517 1997.95 348.688 2070.07 351.748C2142.19 354.807 2265 250.306 2329.98 216.492" stroke="url(#paint16_linear_285_300)" stroke-linecap="round"/>
<path d="M421.16 376.797C427.378 413.182 370.219 525.113 446.033 522.338C521.846 519.563 638.461 380.56 724.415 365.697C810.369 350.835 704.212 477.374 789.849 462.889C875.486 448.405 981.01 322.622 1066.96 307.76C1152.92 292.897 1059.75 403.949 1133.67 403.441C1207.58 402.932 1282.68 313.411 1362.61 305.725C1442.55 298.04 1373.15 380.762 1453.4 372.699C1533.65 364.636 1600.51 284.936 1683.61 273.473C1766.72 262.01 1699.22 342.466 1785.81 326.849C1872.4 311.231 1963.02 203.201 2029.97 211.002C2096.91 218.804 1983.14 354.408 2053.57 358.054C2124 361.701 2247.15 258.705 2311.67 225.588" stroke="url(#paint17_linear_285_300)" stroke-linecap="round"/>
<path d="M440.737 369.247C445.749 405.509 386.588 516.428 460.784 514.298C534.981 512.168 653.059 374.801 737.523 360.727C821.987 346.652 714.497 471.7 798.64 457.998C882.784 444.297 989.631 319.995 1074.1 305.92C1158.56 291.845 1064.23 401.589 1136.5 401.699C1208.77 401.808 1284.81 313.341 1363.18 306.359C1441.55 299.376 1371.28 381.124 1449.97 373.768C1528.66 366.412 1596.36 287.651 1677.93 276.935C1759.51 266.22 1691.17 345.728 1776.27 330.907C1861.38 316.085 1953.14 209.328 2018.36 217.649C2083.57 225.971 1968.38 359.978 2037.12 364.194C2105.86 368.41 2229.27 266.933 2293.32 234.512" stroke="url(#paint18_linear_285_300)" stroke-linecap="round"/>
<path d="M460.256 361.895C464.091 398.019 403.014 507.893 475.597 506.391C548.179 504.89 667.618 369.19 750.586 355.889C833.555 342.588 724.827 466.119 807.471 453.186C890.115 440.253 998.194 317.46 1081.16 304.159C1164.13 290.858 1068.71 399.27 1139.35 399.981C1209.98 400.692 1286.9 313.298 1363.7 307.003C1440.51 300.708 1369.43 381.464 1446.55 374.8C1523.68 368.136 1592.16 290.331 1672.21 280.348C1752.26 270.365 1683.13 348.909 1766.74 334.87C1850.36 320.831 1943.19 215.369 2006.68 224.193C2070.18 233.016 1953.66 365.397 2020.72 370.164C2087.79 374.932 2211.39 274.988 2274.94 243.262" stroke="url(#paint19_linear_285_300)" stroke-linecap="round"/>
<path d="M479.715 354.743C482.404 390.712 419.497 499.51 490.47 498.62C561.444 497.731 682.14 363.728 763.608 351.186C845.077 338.645 735.204 460.631 816.345 448.454C897.485 436.277 1006.7 315.018 1088.17 302.476C1169.64 289.935 1073.21 396.992 1142.22 398.288C1211.22 399.583 1288.96 313.282 1364.19 307.659C1439.43 302.036 1367.6 381.783 1443.17 375.796C1518.73 369.809 1587.94 292.975 1666.45 283.711C1744.97 274.446 1675.11 352.008 1757.23 338.738C1839.36 325.468 1933.16 221.324 1994.95 230.631C2056.74 239.938 1939 370.664 2004.39 375.966C2069.79 381.267 2193.5 282.869 2256.54 251.836" stroke="url(#paint20_linear_285_300)" stroke-linecap="round"/>
<path d="M499.099 347.793C500.671 383.592 436.02 491.282 505.389 490.989C574.758 490.695 696.609 358.416 776.574 346.62C856.539 334.824 745.614 455.241 825.248 443.805C904.881 432.368 1015.14 312.669 1095.11 300.873C1175.07 289.078 1077.72 394.757 1145.11 396.621C1212.49 398.484 1290.96 313.293 1364.64 308.327C1438.31 303.36 1365.8 382.081 1439.8 376.755C1513.8 371.43 1583.67 295.585 1660.65 287.024C1737.64 278.463 1667.11 355.027 1747.74 342.512C1828.37 329.997 1923.06 227.193 1983.16 236.964C2043.26 246.735 1924.39 375.78 1988.13 381.597C2051.87 387.415 2175.62 290.574 2238.12 260.233" stroke="url(#paint21_linear_285_300)" stroke-linecap="round"/>
<path d="M518.406 341.045C518.893 376.658 452.585 483.21 520.355 483.496C588.125 483.782 711.029 353.253 789.486 342.188C867.944 331.124 756.061 449.947 834.184 439.237C912.307 428.527 1023.52 310.413 1101.98 299.349C1180.44 288.284 1082.25 392.565 1148.01 394.979C1213.78 397.393 1292.93 313.329 1365.04 309.004C1437.16 304.679 1364.01 382.357 1436.46 377.677C1508.91 372.997 1579.38 298.156 1654.83 290.284C1730.28 282.411 1659.14 357.962 1738.27 346.188C1817.39 334.414 1912.91 232.971 1971.33 243.188C2029.75 253.405 1909.85 380.741 1971.94 387.057C2034.03 393.373 2157.76 298.102 2219.7 268.45" stroke="url(#paint22_linear_285_300)" stroke-linecap="round"/>
<path d="M537.629 334.501C537.061 369.912 469.181 475.296 535.358 476.144C601.536 476.993 725.391 348.241 802.338 337.893C879.286 327.545 766.537 444.751 843.148 434.754C919.759 424.756 1031.83 308.249 1108.78 297.902C1185.73 287.554 1086.78 390.415 1150.94 393.363C1215.1 396.31 1294.86 313.391 1365.41 309.691C1435.97 305.991 1362.26 382.612 1433.15 378.562C1504.04 374.512 1575.05 300.69 1648.97 293.491C1722.89 286.292 1651.2 360.814 1728.82 349.767C1806.44 338.719 1902.7 238.657 1959.45 249.301C2016.21 259.945 1895.38 385.548 1955.84 392.344C2016.29 399.14 2139.92 305.449 2201.28 276.485" stroke="url(#paint23_linear_285_300)" stroke-linecap="round"/>
<path d="M556.758 328.161C555.166 363.355 485.8 467.544 550.391 468.938C614.983 470.331 739.688 343.382 815.123 333.736C890.559 324.091 777.036 439.656 852.133 430.356C927.229 421.055 1040.07 306.18 1115.51 296.534C1190.94 286.889 1091.32 388.311 1153.87 391.774C1216.43 395.238 1296.75 313.479 1365.74 310.389C1434.74 307.298 1360.53 382.846 1429.86 379.411C1499.2 375.975 1570.7 303.186 1643.08 296.645C1715.47 290.104 1643.29 363.583 1719.4 353.248C1795.52 342.913 1892.43 244.251 1947.54 255.303C2002.64 266.356 1880.99 390.201 1939.82 397.46C1998.65 404.718 2122.1 312.617 2182.86 284.336" stroke="url(#paint24_linear_285_300)" stroke-linecap="round"/>
<path d="M575.785 322.027C573.201 356.989 502.434 459.953 565.447 461.875C628.46 463.798 753.915 338.674 827.837 329.716C901.759 320.759 787.554 434.662 861.135 426.044C934.717 417.426 1048.24 304.203 1122.16 295.245C1196.08 286.287 1095.86 386.25 1156.82 390.212C1217.79 394.175 1298.59 313.592 1366.03 311.095C1433.48 308.597 1358.82 383.059 1426.6 380.221C1494.39 377.384 1566.32 305.642 1637.17 299.744C1708.03 293.846 1635.41 366.268 1710.02 356.63C1784.62 346.992 1882.12 249.749 1935.59 261.192C1989.06 272.635 1866.67 394.698 1923.89 402.401C1981.11 410.103 2104.32 319.602 2164.46 292.002" stroke="url(#paint25_linear_285_300)" stroke-linecap="round"/>
<path d="M594.707 316.099C591.161 350.815 519.081 452.527 580.524 454.961C641.966 457.395 768.069 334.121 840.477 325.836C912.885 317.55 798.09 429.77 870.155 421.819C942.22 413.869 1056.33 302.319 1128.74 294.034C1201.15 285.749 1100.4 384.234 1159.79 388.678C1219.17 393.122 1300.39 313.731 1366.28 311.81C1432.18 309.889 1357.14 383.251 1423.38 380.995C1489.62 378.74 1561.92 308.058 1631.24 302.788C1700.57 297.517 1627.58 368.869 1700.67 359.913C1773.76 350.958 1871.77 255.152 1923.62 266.966C1975.46 278.78 1852.44 399.039 1908.06 407.168C1963.68 415.297 2086.58 326.403 2146.08 299.482" stroke="url(#paint26_linear_285_300)" stroke-linecap="round"/>
<path d="M613.514 310.379C609.038 344.833 535.729 445.267 595.61 448.196C655.49 451.124 782.142 329.722 853.036 322.094C923.93 314.466 808.635 424.982 879.184 417.684C949.734 410.386 1064.34 300.53 1135.23 292.902C1206.13 285.274 1104.94 382.264 1162.76 387.172C1220.57 392.08 1302.14 313.894 1366.5 312.535C1430.85 311.175 1355.48 383.422 1420.18 381.733C1484.88 380.043 1557.49 310.434 1625.29 305.775C1693.09 301.117 1619.78 371.385 1691.36 363.097C1762.94 354.809 1861.38 260.459 1911.62 272.625C1961.86 284.79 1838.31 403.224 1892.34 411.761C1946.37 420.298 2068.89 333.02 2127.74 306.773" stroke="url(#paint27_linear_285_300)" stroke-linecap="round"/>
<path d="M632.198 304.866C626.823 339.045 552.371 438.174 610.699 441.581C669.026 444.987 796.129 325.477 865.509 318.492C934.889 311.506 819.184 420.299 888.219 413.638C957.254 406.977 1072.27 298.833 1141.65 291.848C1211.03 284.862 1109.48 380.339 1165.74 385.694C1221.99 391.049 1303.85 314.083 1366.67 313.267C1429.49 312.452 1353.85 383.573 1417.01 382.433C1480.17 381.292 1553.05 312.769 1619.32 308.706C1685.59 304.643 1612.03 373.816 1682.1 366.181C1752.17 358.545 1850.95 265.665 1899.6 278.165C1948.26 290.664 1824.27 407.251 1876.72 416.178C1929.18 425.106 2051.25 339.45 2109.43 313.874" stroke="url(#paint28_linear_285_300)" stroke-linecap="round"/>
<path d="M650.753 299.562C644.512 333.451 569.002 431.251 625.786 435.117C682.571 438.984 810.024 321.388 877.892 315.028C945.76 308.669 829.735 415.72 897.257 409.681C964.778 403.641 1080.11 297.229 1147.98 290.87C1215.84 284.511 1114.02 378.461 1168.73 384.245C1223.43 390.029 1305.52 314.294 1366.8 314.007C1428.09 313.719 1352.24 383.702 1413.88 383.095C1475.51 382.488 1548.59 315.061 1613.34 311.578C1678.09 308.095 1604.32 376.16 1672.88 369.162C1741.44 362.164 1840.49 270.771 1887.58 283.586C1934.67 296.4 1810.33 411.12 1861.23 420.419C1912.12 429.718 2033.68 345.691 2091.17 320.782" stroke="url(#paint29_linear_285_300)" stroke-linecap="round"/>
<path d="M669.176 294.467C662.099 328.052 585.616 424.498 640.868 428.808C696.12 433.118 823.827 317.454 890.184 311.706C956.541 305.958 840.286 411.25 906.296 405.817C972.305 400.383 1087.87 295.72 1154.22 289.972C1220.58 284.224 1118.55 376.629 1171.72 382.825C1224.89 389.021 1307.14 314.531 1366.9 314.754C1426.67 314.978 1350.67 383.811 1410.78 383.72C1470.89 383.63 1544.11 317.312 1607.34 314.393C1670.58 311.473 1596.66 378.42 1663.71 372.044C1730.76 365.667 1830.01 275.776 1875.55 288.887C1921.08 301.997 1796.5 414.832 1845.85 424.485C1895.21 434.138 2016.18 351.745 2072.96 327.499" stroke="url(#paint30_linear_285_300)" stroke-linecap="round"/>
<path d="M687.456 289.582C679.575 322.85 602.204 417.919 655.934 422.654C709.664 427.39 837.528 313.677 902.377 308.524C967.225 303.372 850.828 406.888 915.329 402.044C979.831 397.201 1095.53 294.303 1160.38 289.15C1225.23 283.998 1123.08 374.845 1174.72 381.434C1226.37 388.024 1308.72 314.79 1366.96 315.509C1425.21 316.228 1349.12 383.899 1407.71 384.309C1466.31 384.718 1539.62 319.519 1601.34 317.147C1663.06 314.776 1589.06 380.594 1654.6 374.823C1720.14 369.053 1819.52 280.678 1863.52 294.065C1907.52 307.453 1782.78 418.385 1830.61 428.374C1878.43 438.363 1998.76 357.609 2054.81 334.02" stroke="url(#paint31_linear_285_300)" stroke-linecap="round"/>
<path d="M705.586 284.907C696.935 317.844 618.759 411.513 670.979 416.657C723.199 421.801 851.122 310.056 914.466 305.483C977.81 300.91 861.358 402.635 924.354 398.365C987.35 394.096 1103.11 292.979 1166.45 288.406C1229.79 283.833 1127.59 373.108 1177.73 380.074C1227.86 387.04 1310.25 315.074 1366.99 316.27C1423.73 317.467 1347.6 383.967 1404.69 384.86C1461.77 385.753 1535.12 321.682 1595.33 319.842C1655.55 318.002 1581.51 382.681 1645.55 377.5C1709.58 372.32 1809 285.475 1851.49 299.121C1893.98 312.768 1769.18 421.78 1815.49 432.086C1861.8 442.392 1981.42 363.281 2036.73 340.346" stroke="url(#paint32_linear_285_300)" stroke-linecap="round"/>
<path d="M723.559 280.442C714.168 313.036 635.273 405.282 685.995 410.817C736.716 416.353 864.603 306.592 926.446 302.583C988.288 298.574 871.869 398.492 933.364 394.781C994.859 391.07 1110.58 291.748 1172.42 287.739C1234.27 283.73 1132.1 371.419 1180.73 378.744C1229.37 386.068 1311.73 315.38 1366.97 317.038C1422.21 318.696 1346.1 384.015 1401.69 385.375C1457.28 386.734 1530.6 323.801 1589.32 322.476C1648.03 321.151 1574.01 384.681 1636.55 380.075C1699.09 375.47 1798.48 290.167 1839.47 304.053C1880.46 317.94 1755.7 425.016 1800.51 435.622C1845.33 446.227 1964.17 368.762 2018.72 346.476" stroke="url(#paint33_linear_285_300)" stroke-linecap="round"/>
<path d="M741.374 276.189C731.276 308.426 651.745 399.229 700.981 405.137C750.217 411.046 877.973 303.286 938.318 299.824C998.664 296.362 882.364 394.46 942.362 391.291C1002.36 388.122 1117.97 290.61 1178.31 287.149C1238.66 283.687 1136.59 369.778 1183.74 377.444C1230.9 385.11 1313.17 315.71 1366.92 317.812C1420.67 319.914 1344.64 384.043 1398.74 385.852C1452.84 387.662 1526.09 325.875 1583.31 325.049C1640.53 324.223 1566.58 386.595 1627.62 382.548C1688.66 378.5 1787.95 294.751 1827.47 308.859C1866.98 322.967 1742.35 428.093 1785.69 438.98C1829.02 449.867 1947.02 374.05 2000.8 352.407" stroke="url(#paint34_linear_285_300)" stroke-linecap="round"/>
<path d="M759.017 272.146C748.244 304.014 668.16 393.353 715.924 399.618C763.688 405.883 891.218 300.137 950.071 297.206C1008.92 294.276 892.83 390.54 951.337 387.897C1009.84 385.254 1125.24 289.565 1184.1 286.635C1242.95 283.704 1141.07 368.186 1186.75 376.176C1232.43 384.165 1314.57 316.062 1366.84 318.591C1419.1 321.121 1343.21 384.051 1395.82 386.293C1448.44 388.535 1521.56 327.904 1577.3 327.559C1633.03 327.215 1559.22 388.422 1618.76 384.917C1678.31 381.412 1777.42 299.228 1815.48 313.539C1853.54 327.85 1729.13 431.011 1771 442.161C1812.87 453.311 1929.98 379.145 1982.97 358.14" stroke="url(#paint35_linear_285_300)" stroke-linecap="round"/>
<path d="M776.487 268.315C765.071 299.801 684.518 387.657 730.823 394.26C777.128 400.864 904.339 297.145 961.706 294.73C1019.07 292.315 903.269 386.733 960.29 384.599C1017.31 382.466 1132.42 288.612 1189.79 286.196C1247.16 283.781 1145.53 366.643 1189.76 374.938C1233.99 383.233 1315.91 316.436 1366.71 319.376C1417.51 322.315 1341.81 384.039 1392.95 386.697C1444.1 389.355 1517.04 329.886 1571.29 330.007C1625.55 330.129 1551.92 390.162 1609.97 387.183C1668.03 384.204 1766.9 303.596 1803.52 318.091C1840.15 332.587 1716.05 433.769 1756.48 445.164C1796.9 456.559 1913.05 384.045 1965.24 363.672" stroke="url(#paint36_linear_285_300)" stroke-linecap="round"/>
<path d="M793.773 264.695C781.746 295.788 700.807 382.141 745.667 389.066C790.527 395.991 917.328 294.312 973.214 292.395C1029.1 290.478 913.671 383.039 969.213 381.399C1024.75 379.759 1139.49 287.75 1195.38 285.834C1251.27 283.917 1149.97 365.15 1192.76 373.732C1235.55 382.315 1317.21 316.832 1366.55 320.165C1415.89 323.498 1340.43 384.008 1390.12 387.065C1439.8 390.121 1512.5 331.822 1565.29 332.392C1618.07 332.962 1544.68 391.814 1601.26 389.345C1657.83 386.876 1756.38 307.853 1791.59 322.515C1826.8 337.176 1703.1 436.368 1742.11 447.991C1781.11 459.613 1896.23 388.75 1947.6 369.003" stroke="url(#paint37_linear_285_300)" stroke-linecap="round"/>
<path d="M810.872 261.287C798.267 291.974 717.023 376.806 760.454 384.035C803.884 391.264 930.181 291.636 984.594 290.202C1039.01 288.767 924.036 379.461 978.105 378.297C1032.17 377.133 1146.46 286.981 1200.87 285.546C1255.29 284.112 1154.39 363.706 1195.76 372.559C1237.13 381.412 1318.47 317.249 1366.36 320.959C1414.25 324.668 1339.09 383.957 1387.32 387.396C1435.56 390.834 1507.98 333.711 1559.3 334.713C1610.62 335.715 1537.52 393.38 1592.62 391.404C1647.72 389.428 1745.88 312 1779.7 326.809C1813.52 341.618 1690.31 438.809 1727.9 450.64C1765.5 462.471 1879.54 393.26 1930.08 374.133" stroke="url(#paint38_linear_285_300)" stroke-linecap="round"/>
<path d="M827.778 258.089C814.627 288.359 733.16 371.654 775.176 379.168C817.192 386.683 942.895 289.118 995.842 288.148C1048.79 287.179 934.358 375.996 986.963 375.292C1039.57 374.588 1153.32 286.302 1206.26 285.333C1259.21 284.364 1158.78 362.31 1198.75 371.416C1238.72 380.522 1319.67 317.687 1366.13 321.755C1412.59 325.824 1337.78 383.886 1384.58 387.689C1431.37 391.492 1503.45 335.551 1553.32 336.968C1603.19 338.385 1530.44 394.857 1584.07 393.357C1637.7 391.858 1735.39 316.032 1767.84 330.971C1800.29 345.909 1677.66 441.089 1713.87 453.111C1750.08 465.133 1862.98 397.572 1912.68 379.059" stroke="url(#paint39_linear_285_300)" stroke-linecap="round"/>
<path d="M844.481 255.104C830.817 284.945 749.208 366.686 789.826 374.469C830.443 382.253 955.462 286.758 1006.95 286.238C1058.44 285.718 944.631 372.649 995.78 372.388C1046.93 372.127 1160.06 285.715 1211.55 285.195C1263.03 284.675 1163.16 360.967 1201.73 370.307C1240.31 379.648 1320.83 318.147 1365.86 322.557C1410.9 326.967 1336.5 383.797 1381.87 387.948C1427.24 392.098 1498.93 337.345 1547.36 339.16C1595.79 340.975 1523.43 396.248 1575.59 395.208C1627.76 394.169 1724.92 319.953 1756.03 335.003C1787.13 350.052 1665.17 443.211 1700.01 455.406C1734.86 467.601 1846.55 401.689 1895.4 383.783" stroke="url(#paint40_linear_285_300)" stroke-linecap="round"/>
<path d="M860.981 252.329C846.836 281.731 765.167 361.902 804.402 369.936C843.637 377.971 967.883 284.556 1017.92 284.468C1067.96 284.38 954.857 369.418 1004.56 369.583C1054.26 369.749 1166.69 285.218 1216.73 285.13C1266.77 285.042 1167.51 359.672 1204.71 369.23C1241.92 378.788 1321.94 318.627 1365.57 323.362C1409.19 328.096 1335.25 383.688 1379.21 388.169C1423.17 392.65 1494.41 339.089 1541.41 341.285C1588.41 343.482 1516.5 397.551 1567.21 396.955C1617.93 396.359 1714.49 323.759 1744.27 338.901C1774.05 354.044 1652.84 445.174 1686.34 457.524C1719.84 469.875 1830.27 405.608 1878.25 388.302" stroke="url(#paint41_linear_285_300)" stroke-linecap="round"/>
<path d="M877.266 249.765C862.672 278.717 781.021 357.303 818.891 365.572C856.761 373.84 980.145 282.512 1028.74 282.839C1077.34 283.166 965.023 366.304 1013.29 366.879C1061.55 367.454 1173.2 284.812 1221.8 285.139C1270.4 285.466 1171.82 358.429 1207.68 368.187C1243.54 377.944 1323 319.127 1365.23 324.169C1407.46 329.211 1334.03 383.561 1376.59 388.355C1419.16 393.149 1489.9 340.785 1535.48 343.345C1581.07 345.905 1509.65 398.767 1558.92 398.597C1608.19 398.428 1704.08 327.45 1732.56 342.667C1761.04 357.884 1640.68 446.979 1672.85 459.466C1705.02 471.954 1814.14 409.329 1861.24 392.617" stroke="url(#paint42_linear_285_300)" stroke-linecap="round"/>
<path d="M893.335 247.411C878.325 275.902 796.774 352.89 833.295 361.375C869.817 369.859 992.253 280.625 1039.42 281.35C1086.59 282.075 975.133 363.308 1021.97 364.275C1068.8 365.243 1179.6 284.495 1226.76 285.22C1273.93 285.945 1176.12 357.236 1210.64 367.176C1245.17 377.115 1324.02 319.646 1364.87 324.978C1405.71 330.311 1332.85 383.415 1374.03 388.505C1415.21 393.595 1485.41 342.43 1529.58 345.338C1573.76 348.245 1502.89 399.895 1550.72 400.135C1598.56 400.375 1693.71 331.024 1720.92 346.298C1748.12 361.572 1628.68 448.625 1659.55 461.232C1690.41 473.838 1798.17 412.852 1844.38 396.726" stroke="url(#paint43_linear_285_300)" stroke-linecap="round"/>
<path d="M909.18 245.269C893.786 273.289 812.412 348.665 847.603 357.348C882.795 366.032 1004.2 278.896 1049.95 280.002C1095.69 281.108 985.177 360.431 1030.6 361.774C1076.01 363.117 1185.87 284.268 1231.62 285.374C1277.37 286.481 1180.38 356.095 1213.59 366.199C1246.8 376.303 1324.99 320.185 1364.47 325.791C1403.95 331.396 1331.7 383.251 1371.51 388.62C1411.32 393.988 1480.93 344.027 1523.71 347.264C1566.48 350.502 1496.22 400.936 1542.62 401.569C1589.03 402.202 1683.38 334.482 1709.34 349.795C1735.29 365.109 1616.86 450.114 1646.44 462.822C1676.02 475.531 1782.36 416.178 1827.67 400.63" stroke="url(#paint44_linear_285_300)" stroke-linecap="round"/>
<path d="M924.793 243.336C909.047 270.875 827.929 344.627 861.809 353.492C895.688 362.357 1015.97 277.324 1060.31 278.794C1104.65 280.265 995.152 357.672 1039.16 359.374C1083.18 361.075 1192.02 284.13 1236.36 285.601C1280.7 287.071 1184.6 355.005 1216.52 365.256C1248.44 375.507 1325.9 320.744 1364.03 326.605C1402.16 332.466 1330.58 383.069 1369.03 388.699C1407.49 394.329 1476.46 345.574 1517.85 349.124C1559.25 352.674 1489.63 401.891 1534.62 402.899C1579.61 403.908 1673.1 337.823 1697.82 353.157C1722.55 368.492 1605.21 451.445 1633.53 464.238C1661.85 477.03 1766.72 419.306 1811.11 404.328" stroke="url(#paint45_linear_285_300)" stroke-linecap="round"/>
<path d="M940.172 241.611C924.106 268.66 843.322 340.777 875.908 349.805C908.495 358.834 1027.58 275.908 1070.52 277.725C1113.46 279.543 1005.06 355.033 1047.67 357.076C1090.29 359.119 1198.05 284.079 1240.99 285.897C1283.93 287.715 1188.79 353.965 1219.44 364.346C1250.08 374.727 1326.77 321.32 1363.57 327.419C1400.36 333.519 1329.49 382.869 1366.61 388.742C1403.73 394.616 1472 347.069 1512.03 350.914C1552.06 354.76 1483.14 402.758 1526.72 404.125C1570.31 405.492 1662.86 341.044 1686.39 356.382C1709.91 371.72 1593.74 452.618 1620.83 465.478C1647.91 478.337 1751.25 422.234 1794.73 407.819" stroke="url(#paint46_linear_285_300)" stroke-linecap="round"/>
<path d="M955.31 240.096C938.956 266.644 858.583 337.115 889.895 346.29C921.208 355.466 1039 274.648 1080.56 276.796C1122.11 278.943 1014.88 352.513 1056.12 354.88C1097.35 357.248 1203.95 284.117 1245.5 286.264C1287.06 288.412 1192.95 352.978 1222.34 363.47C1251.73 373.963 1327.59 321.915 1363.07 328.235C1398.54 334.555 1328.44 382.65 1364.23 388.751C1400.03 394.851 1467.57 348.513 1506.24 352.637C1544.92 356.761 1476.74 403.539 1518.93 405.247C1561.13 406.955 1652.68 344.146 1675.03 359.47C1697.38 374.795 1582.46 453.635 1608.33 466.544C1634.2 479.452 1735.96 424.964 1778.51 411.104" stroke="url(#paint47_linear_285_300)" stroke-linecap="round"/>
<path d="M970.204 238.788C953.595 264.828 873.709 333.643 903.767 342.947C933.826 352.252 1050.25 273.545 1090.44 276.005C1130.62 278.465 1024.63 350.114 1064.5 352.788C1104.36 355.462 1209.72 284.241 1249.9 286.702C1290.08 289.162 1197.07 352.042 1225.23 362.629C1253.39 373.217 1328.37 322.528 1362.54 329.052C1396.71 335.576 1327.43 382.415 1361.91 388.725C1396.4 395.035 1463.16 349.907 1500.49 354.292C1537.83 358.677 1470.44 404.233 1511.25 406.265C1552.07 408.298 1642.55 347.129 1663.75 362.422C1684.95 377.715 1571.37 454.496 1596.05 467.437C1620.73 480.377 1720.87 427.496 1762.47 414.183" stroke="url(#paint48_linear_285_300)" stroke-linecap="round"/>
<path d="M984.842 237.688C968.01 263.21 888.687 330.36 917.511 339.776C946.335 349.193 1061.32 272.597 1100.14 275.353C1138.96 278.108 1034.29 347.836 1072.8 350.799C1111.31 353.763 1215.36 284.452 1254.18 287.208C1293 289.964 1201.14 351.157 1228.09 361.822C1255.04 372.487 1329.09 323.158 1361.98 329.868C1394.87 336.579 1326.44 382.162 1359.64 388.664C1392.84 395.166 1458.76 351.249 1494.77 355.878C1530.79 360.507 1464.23 404.841 1503.68 407.18C1543.13 409.519 1632.49 349.991 1652.57 365.235C1672.64 380.48 1560.47 455.202 1583.98 468.157C1607.5 481.111 1705.96 429.83 1746.62 417.054" stroke="url(#paint49_linear_285_300)" stroke-linecap="round"/>
<path d="M999.226 236.794C982.202 261.79 903.517 327.267 931.128 336.778C958.739 346.289 1072.19 271.804 1109.67 274.838C1147.15 277.872 1043.87 345.678 1081.03 348.914C1118.2 352.15 1220.87 284.749 1258.34 287.783C1295.82 290.817 1205.18 350.324 1230.94 361.05C1256.7 371.775 1329.77 323.805 1361.39 330.685C1393.01 337.564 1325.49 381.891 1357.42 388.569C1389.35 395.246 1454.4 352.538 1489.1 357.394C1523.8 362.25 1458.13 405.362 1496.23 407.991C1534.32 410.62 1622.49 352.732 1641.47 367.911C1660.45 383.089 1549.77 455.753 1572.14 468.705C1594.51 481.656 1691.25 431.965 1730.95 419.718" stroke="url(#paint50_linear_285_300)" stroke-linecap="round"/>
<path d="M1013.35 236.105C996.162 260.567 918.189 324.364 944.608 333.953C971.027 343.541 1082.88 271.165 1119.02 274.46C1155.17 277.755 1053.35 343.641 1089.19 347.133C1125.03 350.624 1226.24 285.131 1262.39 288.426C1298.53 291.721 1209.17 349.544 1233.77 360.312C1258.36 371.081 1330.4 324.469 1360.77 331.501C1391.14 338.532 1324.58 381.604 1355.25 388.439C1385.92 395.275 1450.06 353.776 1483.47 358.841C1516.87 363.906 1452.14 405.798 1488.89 408.7C1525.64 411.601 1612.57 355.352 1630.48 370.447C1648.39 385.543 1539.27 456.149 1560.52 469.082C1581.77 482.014 1676.74 433.902 1715.48 422.176" stroke="url(#paint51_linear_285_300)" stroke-linecap="round"/>
<path d="M1027.2 235.622C1009.89 259.542 932.702 321.652 957.95 331.301C983.199 340.95 1093.37 270.68 1128.2 274.218C1163.02 277.757 1062.73 341.726 1097.26 345.455C1131.79 349.185 1231.48 285.598 1266.31 289.136C1301.14 292.675 1213.12 348.815 1236.58 359.61C1260.03 370.404 1330.98 325.149 1360.12 332.316C1389.26 339.482 1323.7 381.301 1353.14 388.276C1382.58 395.252 1445.74 354.961 1477.88 360.219C1510.01 365.476 1446.24 406.148 1481.67 409.305C1517.1 412.462 1602.72 357.85 1619.59 372.845C1636.45 387.841 1528.98 456.393 1549.14 469.288C1569.29 482.183 1662.45 435.642 1700.22 424.426" stroke="url(#paint52_linear_285_300)" stroke-linecap="round"/>
<path d="M1040.78 235.342C1023.37 258.712 947.045 319.129 971.144 328.822C995.244 338.515 1103.66 270.347 1137.18 274.112C1170.71 277.877 1072.02 339.932 1105.25 343.882C1138.48 347.832 1236.58 286.148 1270.11 289.913C1303.64 293.678 1217.03 348.138 1239.36 358.942C1261.69 369.746 1331.51 325.844 1359.44 333.129C1387.37 340.413 1322.85 380.98 1351.08 388.08C1379.3 395.179 1441.46 356.094 1472.33 361.526C1503.21 366.958 1440.46 406.414 1474.58 409.808C1508.69 413.203 1592.95 360.225 1608.8 375.104C1624.65 389.983 1518.89 456.483 1537.98 469.325C1557.07 482.167 1648.37 437.184 1685.16 426.47" stroke="url(#paint53_linear_285_300)" stroke-linecap="round"/>
<path d="M1054.09 235.265C1036.61 258.078 961.214 316.798 984.188 326.517C1007.16 336.236 1113.74 270.167 1145.98 274.141C1178.22 278.115 1081.2 338.26 1113.15 342.413C1145.1 346.567 1241.55 286.781 1273.79 290.755C1306.03 294.729 1220.88 347.513 1242.12 358.309C1263.35 369.106 1331.99 326.556 1358.73 333.941C1385.47 341.326 1322.04 380.644 1349.07 387.85C1376.1 395.056 1437.21 357.174 1466.84 362.763C1496.48 368.353 1434.79 406.594 1467.61 410.209C1500.43 413.824 1583.26 362.477 1598.12 377.223C1612.99 391.969 1509.01 456.423 1527.06 469.194C1545.11 481.965 1634.51 438.53 1670.32 428.308" stroke="url(#paint54_linear_285_300)" stroke-linecap="round"/>
<path d="M1067.11 235.388C1049.6 257.638 975.203 314.657 997.073 324.385C1018.94 334.114 1123.62 270.138 1154.59 274.304C1185.56 278.47 1090.27 336.709 1120.96 341.048C1151.65 345.388 1246.37 287.496 1277.34 291.662C1308.31 295.828 1224.69 346.939 1244.85 357.711C1265.01 368.483 1332.43 327.281 1357.99 334.75C1383.56 342.219 1321.27 380.292 1347.12 387.587C1372.97 394.882 1432.99 358.2 1461.4 363.93C1489.81 369.66 1429.23 406.69 1460.77 410.508C1492.31 414.326 1573.66 364.606 1587.56 379.202C1601.47 393.799 1499.35 456.21 1516.39 468.895C1533.42 481.579 1620.87 439.678 1655.7 429.939" stroke="url(#paint55_linear_285_300)" stroke-linecap="round"/>
<path d="M1079.85 235.713C1062.34 257.392 989.009 312.706 1009.8 322.428C1030.59 332.15 1133.29 270.26 1163.01 274.601C1192.73 278.941 1099.24 335.281 1128.68 339.789C1158.12 344.297 1251.05 288.294 1280.77 292.634C1310.49 296.974 1228.44 346.419 1247.56 357.149C1266.67 367.88 1332.81 328.022 1357.23 335.558C1381.65 343.093 1320.53 379.924 1345.23 387.292C1369.92 394.659 1428.81 359.173 1456.02 365.027C1483.22 370.881 1423.78 406.703 1454.06 410.707C1484.34 414.71 1564.15 366.611 1577.13 381.042C1590.1 395.473 1489.91 455.849 1505.96 468.43C1522 481.011 1607.47 440.632 1641.31 431.366" stroke="url(#paint56_linear_285_300)" stroke-linecap="round"/>
<path d="M1092.29 236.237C1074.81 257.339 1002.62 310.946 1022.35 320.645C1042.09 330.343 1142.74 270.532 1171.22 275.029C1199.71 279.526 1108.08 333.974 1136.29 338.633C1164.5 343.293 1255.59 289.171 1284.07 293.668C1312.56 298.166 1232.14 345.949 1250.23 356.622C1268.32 367.296 1333.15 328.776 1356.44 336.362C1379.72 343.947 1319.82 379.541 1343.39 386.964C1366.95 394.386 1424.66 360.093 1450.68 366.053C1476.71 372.013 1418.45 406.631 1447.48 410.804C1476.51 414.976 1554.74 368.493 1566.81 382.742C1578.89 396.991 1480.69 455.338 1495.78 467.8C1510.86 480.261 1594.3 441.39 1627.14 432.586" stroke="url(#paint57_linear_285_300)" stroke-linecap="round"/>
<path d="M1104.45 236.958C1087.02 257.477 1016.04 309.377 1034.74 319.035C1053.44 328.693 1151.98 270.953 1179.25 275.59C1206.51 280.227 1116.81 332.789 1143.81 337.583C1170.81 342.377 1259.98 290.129 1287.25 294.766C1314.52 299.403 1235.79 345.532 1252.89 356.131C1269.98 366.731 1333.44 329.545 1355.62 337.163C1377.8 344.781 1319.16 379.143 1341.61 386.604C1364.06 394.065 1420.56 360.959 1445.41 367.008C1470.27 373.057 1413.24 406.478 1441.04 410.801C1468.84 415.124 1545.43 370.25 1556.63 384.301C1567.83 398.352 1471.7 454.68 1485.85 467.006C1500 479.331 1581.38 441.953 1613.22 433.602" stroke="url(#paint58_linear_285_300)" stroke-linecap="round"/>
<path d="M1116.3 237.875C1098.96 257.806 1029.25 307.997 1046.94 317.598C1064.64 327.199 1160.99 271.521 1187.06 276.28C1213.13 281.04 1125.42 331.725 1151.22 336.636C1177.03 341.547 1264.22 291.164 1290.29 295.924C1316.36 300.684 1239.38 345.166 1255.5 355.675C1271.62 366.184 1333.68 330.326 1354.77 337.96C1375.87 345.595 1318.53 378.729 1339.88 386.212C1361.24 393.695 1416.49 361.771 1440.2 367.892C1463.91 374.014 1408.14 406.241 1434.74 410.698C1461.33 415.155 1536.21 371.883 1546.57 385.72C1556.93 399.558 1462.93 453.875 1476.17 466.048C1489.41 478.221 1568.69 442.322 1599.53 434.414" stroke="url(#paint59_linear_285_300)" stroke-linecap="round"/>
<path d="M1127.85 238.989C1110.63 258.325 1042.26 306.807 1058.97 316.335C1075.68 325.864 1169.78 272.236 1194.67 277.101C1219.57 281.966 1133.9 330.785 1158.53 335.795C1183.17 340.806 1268.32 292.279 1293.21 297.144C1318.1 302.009 1242.92 344.853 1258.09 355.255C1273.27 365.658 1333.87 331.121 1353.9 338.754C1373.94 346.388 1317.93 378.302 1338.22 385.79C1358.51 393.278 1412.47 362.53 1435.05 368.706C1457.64 374.883 1403.17 405.923 1428.58 410.496C1453.98 415.07 1527.11 373.392 1536.66 387.001C1546.21 400.609 1454.4 452.925 1466.76 464.93C1479.12 476.936 1556.27 442.5 1586.1 435.023" stroke="url(#paint60_linear_285_300)" stroke-linecap="round"/>
<path d="M1139.09 240.294C1122.02 259.032 1055.06 305.806 1070.81 315.245C1086.56 324.684 1178.35 273.097 1202.08 278.05C1225.81 283.003 1142.25 329.964 1165.73 335.057C1189.21 340.151 1272.27 293.47 1296 298.423C1319.73 303.376 1246.4 344.59 1260.65 354.87C1274.9 365.15 1334.02 331.926 1353.01 339.543C1372 347.16 1317.37 377.86 1336.62 385.336C1355.86 392.812 1408.49 363.234 1429.97 369.449C1451.46 375.663 1398.33 405.522 1422.56 410.195C1446.79 414.868 1518.12 374.775 1526.89 388.139C1535.65 401.504 1446.11 451.829 1457.61 463.651C1469.12 475.473 1544.09 442.484 1572.92 435.428" stroke="url(#paint61_linear_285_300)" stroke-linecap="round"/>
<path d="M1150.01 241.792C1133.12 259.926 1067.64 304.994 1082.45 314.328C1097.27 323.661 1186.68 274.102 1209.27 279.126C1231.86 284.15 1150.47 329.265 1172.81 334.424C1195.16 339.583 1276.07 294.737 1298.66 299.761C1321.25 304.785 1249.82 344.379 1263.17 354.52C1276.53 364.662 1334.12 332.745 1352.09 340.327C1370.06 347.91 1316.85 377.403 1335.07 384.852C1353.28 392.3 1404.55 363.884 1424.96 370.12C1445.36 376.356 1393.6 405.041 1416.68 409.796C1439.76 414.551 1509.25 376.035 1517.26 389.139C1525.27 402.243 1438.04 450.591 1448.73 462.214C1459.41 473.837 1532.18 442.277 1560 435.631" stroke="url(#paint62_linear_285_300)" stroke-linecap="round"/>
<path d="M1160.63 243.48C1143.95 261.005 1079.99 304.371 1093.9 313.583C1107.81 322.795 1194.78 275.251 1216.25 280.329C1237.73 285.406 1158.55 328.687 1179.78 333.894C1201.02 339.102 1279.72 296.079 1301.19 301.157C1322.66 306.235 1253.17 344.219 1265.66 354.206C1278.15 364.194 1334.17 333.574 1351.15 341.107C1368.13 348.639 1316.37 376.933 1333.58 384.337C1350.8 391.74 1400.67 364.48 1420.01 370.721C1439.35 376.961 1389.01 404.48 1410.95 409.3C1432.9 414.119 1500.49 377.169 1507.78 389.999C1515.07 402.828 1430.22 449.21 1440.11 460.619C1450 472.027 1520.53 441.879 1547.34 435.633" stroke="url(#paint63_linear_285_300)" stroke-linecap="round"/>
<path d="M1170.92 245.357C1154.48 262.27 1092.12 303.935 1105.15 313.01C1118.17 322.086 1202.65 276.542 1223.02 281.657C1243.39 286.771 1166.49 328.231 1186.63 333.469C1206.77 338.708 1283.22 297.496 1303.59 302.611C1323.96 307.725 1256.47 344.111 1268.12 353.928C1279.77 363.746 1334.17 334.415 1350.18 341.881C1366.19 349.347 1315.92 376.451 1332.16 383.793C1348.4 391.135 1396.83 365.022 1415.14 371.251C1433.44 377.479 1384.55 403.84 1405.38 408.707C1426.21 413.575 1491.86 378.179 1498.46 390.72C1505.06 403.26 1422.65 447.69 1431.77 458.869C1440.89 470.048 1509.16 441.294 1534.95 435.435" stroke="url(#paint64_linear_285_300)" stroke-linecap="round"/>
<path d="M1180.89 247.42C1164.71 263.717 1104.01 303.687 1116.18 312.61C1128.35 321.532 1210.27 277.974 1229.57 283.109C1248.86 288.243 1174.29 327.895 1193.36 333.148C1212.43 338.401 1286.56 298.986 1305.85 304.12C1325.14 309.255 1259.7 344.054 1270.53 353.686C1281.37 363.318 1334.12 335.266 1349.19 342.65C1364.25 350.033 1315.5 375.955 1330.79 383.22C1346.08 390.485 1393.04 365.51 1410.34 371.71C1427.63 377.91 1380.21 403.121 1399.95 408.019C1419.69 412.917 1483.35 379.065 1489.29 391.301C1495.23 403.537 1415.31 446.03 1423.7 456.964C1432.08 467.898 1498.05 440.52 1522.83 435.038" stroke="url(#paint65_linear_285_300)" stroke-linecap="round"/>
<path d="M1190.53 249.669C1174.65 265.346 1115.67 303.626 1127.01 312.38C1138.35 321.134 1217.66 279.546 1235.89 284.683C1254.13 289.821 1181.94 327.679 1199.96 332.929C1217.98 338.18 1289.74 300.548 1307.98 305.685C1326.22 310.822 1262.86 344.047 1272.91 353.479C1282.96 362.911 1334.03 336.128 1348.18 343.412C1362.32 350.697 1315.13 375.446 1329.48 382.617C1343.84 389.789 1389.31 365.944 1405.61 372.098C1421.91 378.253 1376.01 402.324 1394.68 407.235C1413.34 412.147 1474.98 379.826 1480.28 391.744C1485.59 403.662 1408.23 444.232 1415.91 454.907C1423.58 465.582 1487.22 439.559 1511 434.443" stroke="url(#paint66_linear_285_300)" stroke-linecap="round"/>
<path d="M1199.84 252.099C1184.29 267.154 1127.09 303.75 1137.63 312.32C1148.17 320.889 1224.8 281.255 1242 286.379C1259.2 291.502 1189.44 327.582 1206.44 332.813C1223.44 338.044 1292.78 302.18 1309.98 307.303C1327.19 312.426 1265.96 344.091 1275.25 353.307C1284.54 362.523 1333.9 336.997 1347.14 344.167C1360.39 351.337 1314.79 374.923 1328.24 381.985C1341.7 389.047 1385.63 366.322 1400.96 372.415C1416.29 378.508 1371.94 401.448 1389.56 406.356C1407.18 411.264 1466.73 380.461 1471.44 392.047C1476.15 403.632 1401.4 442.297 1408.4 452.698C1415.4 463.099 1476.68 438.412 1499.44 433.65" stroke="url(#paint67_linear_285_300)" stroke-linecap="round"/>
<path d="M1208.82 254.712C1193.62 269.142 1138.25 304.06 1148.02 312.43C1157.78 320.801 1231.69 283.103 1247.88 288.195C1264.07 293.288 1196.8 327.606 1212.79 332.801C1228.78 337.996 1295.66 303.883 1311.85 308.975C1328.04 314.068 1269 344.186 1277.56 353.171C1286.12 362.156 1333.71 337.878 1346.09 344.917C1358.47 351.956 1314.48 374.39 1327.06 381.327C1339.64 388.263 1382.01 366.648 1396.4 372.663C1410.78 378.677 1368.01 400.497 1384.6 405.385C1401.19 410.272 1458.63 380.974 1462.77 392.213C1466.91 403.452 1394.82 440.229 1401.17 450.341C1407.52 460.453 1466.43 437.082 1488.18 432.662" stroke="url(#paint68_linear_285_300)" stroke-linecap="round"/>
<path d="M1217.46 257.504C1202.65 271.305 1149.17 304.553 1158.19 312.71C1167.21 320.866 1238.34 285.085 1253.54 290.13C1268.74 295.175 1203.99 327.747 1219 332.89C1234.01 338.032 1298.38 305.654 1313.58 310.699C1328.78 315.744 1271.96 344.33 1279.82 353.07C1287.68 361.81 1333.48 338.766 1345.02 345.658C1356.55 352.551 1314.22 373.844 1325.94 380.64C1337.67 387.435 1378.45 366.919 1391.91 372.839C1405.38 378.759 1364.21 399.47 1379.8 404.32C1395.39 409.171 1450.67 381.362 1454.27 392.241C1457.88 403.12 1388.49 438.026 1394.23 447.836C1399.96 457.645 1456.46 435.568 1477.21 431.479" stroke="url(#paint69_linear_285_300)" stroke-linecap="round"/>
<path d="M1225.77 260.472C1211.36 273.643 1159.83 305.229 1168.13 313.157C1176.43 321.084 1244.73 287.2 1258.96 292.181C1273.2 297.162 1211.03 328.007 1225.08 333.08C1239.14 338.153 1300.94 307.492 1315.18 312.473C1329.42 317.454 1274.85 344.524 1282.04 353.004C1289.22 361.483 1333.21 339.662 1343.92 346.392C1354.63 353.122 1313.99 373.287 1324.89 379.925C1335.78 386.563 1374.94 367.135 1387.51 372.945C1400.08 378.754 1360.55 398.366 1375.16 403.163C1389.77 407.96 1442.85 381.626 1445.95 392.132C1449.05 402.637 1382.43 435.692 1387.57 445.184C1392.72 454.677 1446.79 433.872 1466.53 430.102" stroke="url(#paint70_linear_285_300)" stroke-linecap="round"/>
<path d="M1233.73 263.616C1219.75 276.155 1170.23 306.089 1177.84 313.772C1185.45 321.455 1250.86 289.449 1264.16 294.349C1277.46 299.249 1217.91 328.385 1231.03 333.372C1244.15 338.36 1303.34 309.398 1316.64 314.298C1329.94 319.198 1277.67 344.768 1284.22 352.973C1290.76 361.178 1332.89 340.566 1342.81 347.118C1352.73 353.671 1313.8 372.718 1323.89 379.184C1333.99 385.649 1371.5 367.298 1383.2 372.981C1394.89 378.664 1357.03 397.189 1370.68 401.915C1384.34 406.642 1435.18 381.767 1437.81 391.886C1440.44 402.004 1376.62 433.228 1381.21 442.39C1385.79 451.551 1437.42 431.997 1456.15 428.533" stroke="url(#paint71_linear_285_300)" stroke-linecap="round"/>
<path d="M1241.34 266.932C1227.83 278.838 1180.36 307.129 1187.31 314.553C1194.25 321.978 1256.75 291.828 1269.13 296.631C1281.51 301.434 1224.62 328.881 1236.83 333.765C1249.04 338.65 1305.59 311.368 1317.97 316.171C1330.35 320.974 1280.42 345.061 1286.35 352.977C1292.28 360.894 1332.52 341.477 1341.68 347.836C1350.83 354.196 1313.64 372.138 1322.96 378.416C1332.29 384.694 1368.12 367.407 1378.97 372.947C1389.82 378.488 1353.65 395.938 1366.37 400.578C1379.09 405.217 1427.66 381.785 1429.85 391.504C1432.04 401.223 1371.08 430.635 1375.14 439.453C1379.19 448.27 1428.35 429.944 1446.08 426.774" stroke="url(#paint72_linear_285_300)" stroke-linecap="round"/>
<path d="M1248.61 270.419C1235.59 281.69 1190.23 308.349 1196.54 315.501C1202.85 322.652 1262.37 294.337 1273.85 299.026C1285.34 303.716 1231.16 329.492 1242.49 334.259C1253.81 339.025 1307.67 313.403 1319.16 318.092C1330.64 322.782 1283.1 345.403 1288.44 353.017C1293.78 360.63 1332.11 342.394 1340.52 348.546C1348.94 354.697 1313.52 371.548 1322.1 377.623C1330.67 383.697 1364.8 367.462 1374.83 372.844C1384.86 378.226 1350.41 394.615 1362.22 399.151C1374.03 403.686 1420.29 381.68 1422.07 390.986C1423.86 400.292 1365.79 427.916 1369.36 436.375C1372.92 444.835 1419.58 427.713 1436.32 424.826" stroke="url(#paint73_linear_285_300)" stroke-linecap="round"/>
<path d="M1255.52 274.075C1243.02 284.709 1199.82 309.748 1205.52 316.613C1211.23 323.478 1267.73 296.973 1278.35 301.533C1288.97 306.093 1237.54 330.22 1248 334.852C1258.47 339.484 1309.59 315.5 1320.21 320.06C1330.83 324.62 1285.7 345.795 1290.48 353.091C1295.27 360.388 1331.65 343.319 1339.36 349.247C1347.06 355.175 1313.44 370.948 1321.29 376.804C1329.15 382.66 1361.54 367.464 1370.78 372.672C1380.02 377.88 1347.32 393.22 1358.24 397.636C1369.17 402.052 1413.08 381.453 1414.49 390.334C1415.9 399.216 1360.78 425.072 1363.88 433.161C1366.97 441.25 1411.13 425.308 1426.88 422.69" stroke="url(#paint74_linear_285_300)" stroke-linecap="round"/>
<path d="M1262.08 277.896C1250.13 287.894 1209.13 311.325 1214.26 317.888C1219.39 324.452 1272.83 299.735 1282.61 304.149C1292.38 308.563 1243.74 331.063 1253.37 335.544C1263 340.025 1311.36 317.659 1321.14 322.073C1330.91 326.487 1288.22 346.234 1292.48 353.2C1296.74 360.166 1331.15 344.248 1338.17 349.938C1345.19 355.628 1313.39 370.337 1320.55 375.96C1327.72 381.583 1358.36 367.411 1366.83 372.43C1375.3 377.448 1344.37 391.754 1354.44 396.034C1364.5 400.313 1406.03 381.104 1407.1 389.548C1408.16 397.992 1356.03 422.104 1358.69 429.809C1361.36 437.514 1402.98 422.728 1417.75 420.368" stroke="url(#paint75_linear_285_300)" stroke-linecap="round"/>
<path d="M1268.29 281.881C1256.9 291.242 1218.16 313.079 1222.74 319.327C1227.33 325.575 1277.66 302.621 1286.62 306.873C1295.58 311.125 1249.76 332.021 1258.59 336.335C1267.41 340.65 1312.96 319.879 1321.92 324.131C1330.88 328.383 1290.67 346.721 1294.43 353.343C1298.19 359.966 1330.61 345.183 1336.97 350.62C1343.33 356.057 1313.38 369.717 1319.88 375.092C1326.38 380.467 1355.24 367.306 1362.97 372.119C1370.7 376.933 1341.56 390.219 1350.8 394.346C1360.03 398.473 1399.15 380.634 1399.9 388.629C1400.66 396.623 1351.55 419.016 1353.81 426.324C1356.07 433.633 1395.15 419.978 1408.94 417.862" stroke="url(#paint76_linear_285_300)" stroke-linecap="round"/>
<path d="M1274.14 286.027C1263.35 294.752 1226.91 315.008 1230.97 320.927C1235.04 326.846 1282.23 305.63 1290.4 309.704C1298.57 313.778 1255.61 333.092 1263.65 337.224C1271.69 341.356 1314.4 322.158 1322.57 326.232C1330.74 330.306 1293.04 347.256 1296.33 353.521C1299.63 359.787 1330.02 346.123 1335.75 351.292C1341.49 356.462 1313.4 369.088 1319.26 374.2C1325.13 379.312 1352.19 367.148 1359.2 371.741C1366.22 376.334 1338.9 388.614 1347.33 392.573C1355.75 396.532 1392.43 380.043 1392.91 387.577C1393.38 395.11 1347.34 415.808 1349.23 422.707C1351.12 429.607 1387.65 417.057 1400.45 415.174" stroke="url(#paint77_linear_285_300)" stroke-linecap="round"/>
<path d="M1279.63 290.332C1269.46 298.421 1235.37 317.11 1238.94 322.687C1242.52 328.264 1286.53 308.759 1293.94 312.639C1301.35 316.52 1261.28 334.276 1268.57 338.21C1275.85 342.144 1315.68 324.494 1323.08 328.375C1330.49 332.256 1295.33 347.838 1298.19 353.733C1301.05 359.628 1329.39 347.067 1334.53 351.955C1339.66 356.842 1313.47 368.45 1318.72 373.285C1323.97 378.12 1349.21 366.936 1355.54 371.294C1361.87 375.652 1336.39 386.942 1344.04 390.716C1351.68 394.491 1385.89 379.332 1386.11 386.393C1386.34 393.454 1343.41 412.482 1344.95 418.96C1346.5 425.438 1380.46 413.969 1392.3 412.305" stroke="url(#paint78_linear_285_300)" stroke-linecap="round"/>
<path d="M1284.75 294.792C1275.23 302.246 1243.53 319.384 1246.65 324.606C1249.77 329.827 1290.57 312.006 1297.23 315.678C1303.9 319.35 1266.76 335.572 1273.32 339.292C1279.88 343.013 1316.79 326.887 1323.46 330.559C1330.13 334.23 1297.54 348.467 1299.99 353.979C1302.45 359.491 1328.72 348.014 1333.28 352.606C1337.84 357.198 1313.56 367.803 1318.24 372.347C1322.91 376.89 1346.3 366.672 1351.97 370.78C1357.64 374.887 1334.03 385.202 1340.92 388.777C1347.81 392.352 1379.51 378.502 1379.53 385.079C1379.54 391.657 1339.74 409.041 1340.98 415.086C1342.22 421.131 1373.6 410.715 1384.47 409.258" stroke="url(#paint79_linear_285_300)" stroke-linecap="round"/>
<path d="M1289.51 299.407C1280.66 306.225 1251.4 321.829 1254.09 326.682C1256.78 331.535 1294.33 315.37 1300.28 318.817C1306.24 322.265 1272.06 336.979 1277.92 340.47C1283.77 343.962 1317.75 329.335 1323.7 332.782C1329.66 336.229 1299.66 349.143 1301.74 354.259C1303.82 359.375 1328 348.965 1332.02 353.247C1336.04 357.529 1313.7 367.148 1317.82 371.386C1321.94 375.624 1343.47 366.355 1348.5 370.198C1353.54 374.04 1331.81 383.396 1337.97 386.756C1344.13 390.115 1373.31 377.552 1373.15 383.635C1372.98 389.718 1336.36 405.487 1337.31 411.086C1338.27 416.686 1367.06 407.296 1376.98 406.033" stroke="url(#paint80_linear_285_300)" stroke-linecap="round"/>
<path d="M1293.91 304.171C1285.75 310.357 1258.97 324.443 1261.26 328.915C1263.56 333.386 1297.82 318.849 1303.09 322.057C1308.36 325.264 1277.17 338.497 1282.36 341.743C1287.54 344.99 1318.54 331.836 1323.81 335.043C1329.08 338.251 1301.71 349.864 1303.45 354.572C1305.18 359.281 1327.25 349.919 1330.75 353.876C1334.26 357.834 1313.87 366.485 1317.47 370.403C1321.06 374.321 1340.71 365.987 1345.14 369.549C1349.58 373.112 1329.75 381.526 1335.21 384.654C1340.67 387.782 1367.29 376.485 1366.98 382.062C1366.67 387.639 1333.25 401.82 1333.96 406.963C1334.67 412.106 1360.86 403.716 1369.83 402.633" stroke="url(#paint81_linear_285_300)" stroke-linecap="round"/>
<path d="M1297.94 309.085C1290.5 314.639 1266.23 327.225 1268.16 331.303C1270.09 335.38 1301.03 322.441 1305.65 325.394C1310.27 328.346 1282.1 340.124 1286.63 343.111C1291.16 346.098 1319.16 334.39 1323.78 337.343C1328.4 340.295 1303.68 350.631 1305.1 354.919C1306.52 359.207 1326.45 350.875 1329.47 354.495C1332.49 358.115 1314.07 365.815 1317.18 369.4C1320.28 372.985 1338.02 365.566 1341.88 368.835C1345.74 372.103 1327.83 379.592 1332.62 382.474C1337.4 385.356 1361.45 375.3 1361.03 380.362C1360.6 385.423 1330.41 398.045 1330.91 402.72C1331.4 407.395 1354.99 399.976 1363.01 399.061" stroke="url(#paint82_linear_285_300)" stroke-linecap="round"/>
<path d="M1301.6 314.144C1294.9 319.069 1273.19 330.173 1274.78 333.844C1276.37 337.514 1303.97 326.144 1307.96 328.826C1311.95 331.508 1286.82 341.859 1290.74 344.571C1294.65 347.284 1319.63 336.996 1323.62 339.678C1327.61 342.36 1305.56 351.443 1306.7 355.299C1307.84 359.155 1325.61 351.833 1328.18 355.102C1330.74 358.371 1314.31 365.137 1316.95 368.375C1319.59 371.613 1335.42 365.094 1338.73 368.054C1342.05 371.014 1326.07 377.595 1330.21 380.215C1334.35 382.836 1355.8 373.999 1355.29 378.535C1354.78 383.071 1327.85 394.163 1328.17 398.358C1328.48 402.554 1349.45 396.078 1356.55 395.318" stroke="url(#paint83_linear_285_300)" stroke-linecap="round"/>
<path d="M1304.9 319.345C1298.95 323.643 1279.84 333.285 1281.13 336.536C1282.41 339.788 1306.64 329.956 1310.03 332.353C1313.42 334.75 1291.36 343.701 1294.68 346.124C1298.01 348.548 1319.93 339.65 1323.32 342.047C1326.71 344.444 1307.35 352.3 1308.24 355.712C1309.13 359.124 1324.73 352.792 1326.87 355.696C1329.01 358.601 1314.59 364.453 1316.79 367.331C1319 370.208 1332.89 364.571 1335.69 367.208C1338.49 369.845 1324.46 375.537 1327.98 377.88C1331.5 380.224 1350.33 372.582 1349.77 376.582C1349.21 380.582 1325.58 390.175 1325.74 393.881C1325.9 397.587 1344.25 392.025 1350.43 391.407" stroke="url(#paint84_linear_285_300)" stroke-linecap="round"/>
<path d="M1307.82 324.685C1302.66 328.359 1286.18 336.558 1287.19 339.379C1288.2 342.201 1309.03 333.874 1311.85 335.971C1314.66 338.068 1295.7 345.648 1298.46 347.768C1301.22 349.888 1320.07 342.353 1322.89 344.45C1325.71 346.547 1309.07 353.2 1309.73 356.157C1310.4 359.114 1323.82 353.751 1325.56 356.279C1327.3 358.806 1314.9 363.761 1316.7 366.266C1318.5 368.771 1330.45 363.996 1332.75 366.297C1335.06 368.598 1323.01 373.418 1325.94 375.47C1328.87 377.522 1345.06 371.05 1344.48 374.505C1343.9 377.96 1323.58 386.083 1323.62 389.289C1323.67 392.495 1339.4 387.819 1344.66 387.329" stroke="url(#paint85_linear_285_300)" stroke-linecap="round"/>
<path d="M1310.37 330.163C1306.02 333.215 1292.21 339.992 1292.97 342.371C1293.73 344.75 1311.14 337.896 1313.41 339.679C1315.69 341.462 1299.84 347.702 1302.07 349.503C1304.3 351.305 1320.05 345.103 1322.32 346.886C1324.6 348.669 1310.69 354.145 1311.17 356.635C1311.65 359.126 1322.86 354.712 1324.23 356.849C1325.61 358.986 1315.25 363.065 1316.67 365.183C1318.1 367.301 1328.08 363.371 1329.93 365.322C1331.78 367.272 1321.7 371.24 1324.07 372.985C1326.44 374.731 1339.97 369.404 1339.41 372.305C1338.84 375.205 1321.86 381.892 1321.82 384.587C1321.77 387.283 1334.88 383.462 1339.24 383.087" stroke="url(#paint86_linear_285_300)" stroke-linecap="round"/>
<path d="M1312.54 335.774C1309.02 338.208 1297.91 343.585 1298.46 345.51C1299.01 347.435 1312.97 342.021 1314.73 343.475C1316.49 344.929 1303.78 349.858 1305.5 351.327C1307.23 352.796 1319.86 347.897 1321.62 349.351C1323.39 350.806 1312.23 355.131 1312.55 357.145C1312.87 359.158 1321.86 355.671 1322.9 357.405C1323.94 359.139 1315.63 362.361 1316.71 364.08C1317.79 365.8 1325.8 362.695 1327.21 364.282C1328.63 365.869 1320.55 369.003 1322.39 370.427C1324.23 371.852 1335.08 367.645 1334.56 369.982C1334.05 372.319 1320.42 377.601 1320.33 379.776C1320.23 381.951 1330.71 378.956 1334.17 378.683" stroke="url(#paint87_linear_285_300)" stroke-linecap="round"/>
<path d="M1314.34 341.518C1311.67 343.337 1303.3 347.334 1303.66 348.794C1304.02 350.255 1314.52 346.246 1315.8 347.358C1317.08 348.47 1307.52 352.118 1308.77 353.241C1310.01 354.363 1319.51 350.736 1320.79 351.848C1322.07 352.96 1313.68 356.162 1313.87 357.687C1314.06 359.213 1320.83 356.631 1321.56 357.95C1322.3 359.268 1316.05 361.654 1316.81 362.961C1317.57 364.269 1323.59 361.971 1324.61 363.18C1325.63 364.39 1319.56 366.71 1320.89 367.8C1322.22 368.889 1330.38 365.774 1329.95 367.54C1329.51 369.305 1319.27 373.215 1319.15 374.86C1319.03 376.505 1326.88 374.305 1329.46 374.121" stroke="url(#paint88_linear_285_300)" stroke-linecap="round"/>
<path d="M1315.77 347.387C1313.97 348.596 1308.36 351.237 1308.57 352.221C1308.78 353.205 1315.79 350.569 1316.62 351.324C1317.44 352.078 1311.05 354.479 1311.85 355.241C1312.66 356.002 1319 353.617 1319.83 354.371C1320.65 355.126 1315.04 357.233 1315.14 358.26C1315.24 359.287 1319.75 357.589 1320.21 358.48C1320.67 359.371 1316.5 360.94 1316.98 361.823C1317.45 362.707 1321.48 361.195 1322.13 362.015C1322.78 362.834 1318.71 364.36 1319.57 365.101C1320.43 365.841 1325.89 363.792 1325.56 364.977C1325.24 366.161 1318.4 368.733 1318.28 369.839C1318.17 370.945 1323.41 369.51 1325.11 369.4" stroke="url(#paint89_linear_285_300)" stroke-linecap="round"/>
<path d="M1316.82 353.383C1315.91 353.985 1313.09 355.294 1313.18 355.791C1313.27 356.288 1316.79 354.988 1317.18 355.372C1317.58 355.756 1314.38 356.94 1314.76 357.328C1315.15 357.715 1318.33 356.539 1318.73 356.923C1319.12 357.307 1316.32 358.346 1316.35 358.865C1316.38 359.383 1318.64 358.546 1318.86 358.997C1319.07 359.448 1316.98 360.222 1317.2 360.67C1317.43 361.118 1319.44 360.372 1319.75 360.788C1320.06 361.204 1318.03 361.957 1318.44 362.334C1318.86 362.711 1321.59 361.7 1321.41 362.297C1321.24 362.893 1317.81 364.161 1317.73 364.719C1317.66 365.276 1320.28 364.574 1321.12 364.526" stroke="url(#paint90_linear_285_300)" stroke-linecap="round"/>
<defs>
<linearGradient id="paint0_linear_285_300" x1="126381" y1="-23852.8" x2="122531" y2="-43657.2" gradientUnits="userSpaceOnUse">
<stop offset="0.45" stop-color="#2BFDBE"/>
<stop offset="1" stop-color="#2BFDBE" stop-opacity="0.06"/>
</linearGradient>
<linearGradient id="paint1_linear_285_300" x1="124604" y1="-22753.9" x2="120895" y2="-42448.6" gradientUnits="userSpaceOnUse">
<stop offset="0.45" stop-color="#2BFDBE"/>
<stop offset="1" stop-color="#2BFDBE" stop-opacity="0.06"/>
</linearGradient>
<linearGradient id="paint2_linear_285_300" x1="122814" y1="-21669.6" x2="119247" y2="-41255.4" gradientUnits="userSpaceOnUse">
<stop offset="0.45" stop-color="#2BFDBE"/>
<stop offset="1" stop-color="#2BFDBE" stop-opacity="0.06"/>
</linearGradient>
<linearGradient id="paint3_linear_285_300" x1="121014" y1="-20600.2" x2="117587" y2="-40077.8" gradientUnits="userSpaceOnUse">
<stop offset="0.45" stop-color="#2BFDBE"/>
<stop offset="1" stop-color="#2BFDBE" stop-opacity="0.06"/>
</linearGradient>
<linearGradient id="paint4_linear_285_300" x1="119203" y1="-19545.9" x2="115916" y2="-38915.9" gradientUnits="userSpaceOnUse">
<stop offset="0.45" stop-color="#2BFDBE"/>
<stop offset="1" stop-color="#2BFDBE" stop-opacity="0.06"/>
</linearGradient>
<linearGradient id="paint5_linear_285_300" x1="117382" y1="-18506.9" x2="114234" y2="-37769.9" gradientUnits="userSpaceOnUse">
<stop offset="0.45" stop-color="#2BFDBE"/>
<stop offset="1" stop-color="#2BFDBE" stop-opacity="0.06"/>
</linearGradient>
<linearGradient id="paint6_linear_285_300" x1="115553" y1="-17483.7" x2="112544" y2="-36640.1" gradientUnits="userSpaceOnUse">
<stop offset="0.45" stop-color="#2BFDBE"/>
<stop offset="1" stop-color="#2BFDBE" stop-opacity="0.06"/>
</linearGradient>
<linearGradient id="paint7_linear_285_300" x1="113715" y1="-16476.3" x2="110845" y2="-35526.6" gradientUnits="userSpaceOnUse">
<stop offset="0.45" stop-color="#2BFDBE"/>
<stop offset="1" stop-color="#2BFDBE" stop-opacity="0.06"/>
</linearGradient>
<linearGradient id="paint8_linear_285_300" x1="111870" y1="-15485.1" x2="109139" y2="-34429.6" gradientUnits="userSpaceOnUse">
<stop offset="0.45" stop-color="#2BFDBE"/>
<stop offset="1" stop-color="#2BFDBE" stop-opacity="0.06"/>
</linearGradient>
<linearGradient id="paint9_linear_285_300" x1="110019" y1="-14510.2" x2="107425" y2="-33349.3" gradientUnits="userSpaceOnUse">
<stop offset="0.45" stop-color="#2BFDBE"/>
<stop offset="1" stop-color="#2BFDBE" stop-opacity="0.06"/>
</linearGradient>
<linearGradient id="paint10_linear_285_300" x1="108162" y1="-13551.9" x2="105706" y2="-32285.9" gradientUnits="userSpaceOnUse">
<stop offset="0.45" stop-color="#2BFDBE"/>
<stop offset="1" stop-color="#2BFDBE" stop-opacity="0.06"/>
</linearGradient>
<linearGradient id="paint11_linear_285_300" x1="106300" y1="-12610.5" x2="103982" y2="-31239.5" gradientUnits="userSpaceOnUse">
<stop offset="0.45" stop-color="#2BFDBE"/>
<stop offset="1" stop-color="#2BFDBE" stop-opacity="0.06"/>
</linearGradient>
<linearGradient id="paint12_linear_285_300" x1="104434" y1="-11686.1" x2="102253" y2="-30210.3" gradientUnits="userSpaceOnUse">
<stop offset="0.45" stop-color="#2BFDBE"/>
<stop offset="1" stop-color="#2BFDBE" stop-opacity="0.06"/>
</linearGradient>
<linearGradient id="paint13_linear_285_300" x1="102564" y1="-10779" x2="100521" y2="-29198.3" gradientUnits="userSpaceOnUse">
<stop offset="0.45" stop-color="#2BFDBE"/>
<stop offset="1" stop-color="#2BFDBE" stop-opacity="0.06"/>
</linearGradient>
<linearGradient id="paint14_linear_285_300" x1="100692" y1="-9889.32" x2="98786.3" y2="-28203.8" gradientUnits="userSpaceOnUse">
<stop offset="0.45" stop-color="#2BFDBE"/>
<stop offset="1" stop-color="#2BFDBE" stop-opacity="0.06"/>
</linearGradient>
<linearGradient id="paint15_linear_285_300" x1="98818" y1="-9017.32" x2="97049.6" y2="-27226.8" gradientUnits="userSpaceOnUse">
<stop offset="0.45" stop-color="#2BFDBE"/>
<stop offset="1" stop-color="#2BFDBE" stop-opacity="0.06"/>
</linearGradient>
<linearGradient id="paint16_linear_285_300" x1="96942.8" y1="-8163.19" x2="95311.9" y2="-26267.5" gradientUnits="userSpaceOnUse">
<stop offset="0.45" stop-color="#2BFDBE"/>
<stop offset="1" stop-color="#2BFDBE" stop-opacity="0.06"/>
</linearGradient>
<linearGradient id="paint17_linear_285_300" x1="95067.1" y1="-7327.1" x2="93574" y2="-25326" gradientUnits="userSpaceOnUse">
<stop offset="0.45" stop-color="#2BFDBE"/>
<stop offset="1" stop-color="#2BFDBE" stop-opacity="0.06"/>
</linearGradient>
<linearGradient id="paint18_linear_285_300" x1="93191.9" y1="-6509.24" x2="91836.7" y2="-24402.3" gradientUnits="userSpaceOnUse">
<stop offset="0.45" stop-color="#2BFDBE"/>
<stop offset="1" stop-color="#2BFDBE" stop-opacity="0.06"/>
</linearGradient>
<linearGradient id="paint19_linear_285_300" x1="91317.8" y1="-5709.78" x2="90100.7" y2="-23496.5" gradientUnits="userSpaceOnUse">
<stop offset="0.45" stop-color="#2BFDBE"/>
<stop offset="1" stop-color="#2BFDBE" stop-opacity="0.06"/>
</linearGradient>
<linearGradient id="paint20_linear_285_300" x1="89445.6" y1="-4928.88" x2="88366.9" y2="-22608.8" gradientUnits="userSpaceOnUse">
<stop offset="0.45" stop-color="#2BFDBE"/>
<stop offset="1" stop-color="#2BFDBE" stop-opacity="0.06"/>
</linearGradient>
<linearGradient id="paint21_linear_285_300" x1="87576" y1="-4166.72" x2="86636" y2="-21739.1" gradientUnits="userSpaceOnUse">
<stop offset="0.45" stop-color="#2BFDBE"/>
<stop offset="1" stop-color="#2BFDBE" stop-opacity="0.06"/>
</linearGradient>
<linearGradient id="paint22_linear_285_300" x1="85709.8" y1="-3423.44" x2="84908.9" y2="-20887.6" gradientUnits="userSpaceOnUse">
<stop offset="0.45" stop-color="#2BFDBE"/>
<stop offset="1" stop-color="#2BFDBE" stop-opacity="0.06"/>
</linearGradient>
<linearGradient id="paint23_linear_285_300" x1="83847.8" y1="-2699.19" x2="83186.3" y2="-20054.2" gradientUnits="userSpaceOnUse">
<stop offset="0.45" stop-color="#2BFDBE"/>
<stop offset="1" stop-color="#2BFDBE" stop-opacity="0.06"/>
</linearGradient>
<linearGradient id="paint24_linear_285_300" x1="81990.6" y1="-1994.11" x2="81469" y2="-19239" gradientUnits="userSpaceOnUse">
<stop offset="0.45" stop-color="#2BFDBE"/>
<stop offset="1" stop-color="#2BFDBE" stop-opacity="0.06"/>
</linearGradient>
<linearGradient id="paint25_linear_285_300" x1="80139" y1="-1308.34" x2="79757.8" y2="-18442.1" gradientUnits="userSpaceOnUse">
<stop offset="0.45" stop-color="#2BFDBE"/>
<stop offset="1" stop-color="#2BFDBE" stop-opacity="0.06"/>
</linearGradient>
<linearGradient id="paint26_linear_285_300" x1="78293.7" y1="-642.002" x2="78053.4" y2="-17663.3" gradientUnits="userSpaceOnUse">
<stop offset="0.45" stop-color="#2BFDBE"/>
<stop offset="1" stop-color="#2BFDBE" stop-opacity="0.06"/>
</linearGradient>
<linearGradient id="paint27_linear_285_300" x1="76455.4" y1="4.78082" x2="76356.6" y2="-16902.8" gradientUnits="userSpaceOnUse">
<stop offset="0.45" stop-color="#2BFDBE"/>
<stop offset="1" stop-color="#2BFDBE" stop-opacity="0.06"/>
</linearGradient>
<linearGradient id="paint28_linear_285_300" x1="74625" y1="631.888" x2="74668.1" y2="-16160.4" gradientUnits="userSpaceOnUse">
<stop offset="0.45" stop-color="#2BFDBE"/>
<stop offset="1" stop-color="#2BFDBE" stop-opacity="0.06"/>
</linearGradient>
<linearGradient id="paint29_linear_285_300" x1="72803" y1="1239.22" x2="72988.7" y2="-15436.2" gradientUnits="userSpaceOnUse">
<stop offset="0.45" stop-color="#2BFDBE"/>
<stop offset="1" stop-color="#2BFDBE" stop-opacity="0.06"/>
</linearGradient>
<linearGradient id="paint30_linear_285_300" x1="70990.1" y1="1826.67" x2="71319.1" y2="-14730.1" gradientUnits="userSpaceOnUse">
<stop offset="0.45" stop-color="#2BFDBE"/>
<stop offset="1" stop-color="#2BFDBE" stop-opacity="0.06"/>
</linearGradient>
<linearGradient id="paint31_linear_285_300" x1="69187.2" y1="2394.15" x2="69660" y2="-14042.1" gradientUnits="userSpaceOnUse">
<stop offset="0.45" stop-color="#2BFDBE"/>
<stop offset="1" stop-color="#2BFDBE" stop-opacity="0.06"/>
</linearGradient>
<linearGradient id="paint32_linear_285_300" x1="67394.9" y1="2941.56" x2="68012.2" y2="-13372" gradientUnits="userSpaceOnUse">
<stop offset="0.45" stop-color="#2BFDBE"/>
<stop offset="1" stop-color="#2BFDBE" stop-opacity="0.06"/>
</linearGradient>
<linearGradient id="paint33_linear_285_300" x1="65613.8" y1="3468.84" x2="66376.3" y2="-12719.8" gradientUnits="userSpaceOnUse">
<stop offset="0.45" stop-color="#2BFDBE"/>
<stop offset="1" stop-color="#2BFDBE" stop-opacity="0.06"/>
</linearGradient>
<linearGradient id="paint34_linear_285_300" x1="63844.8" y1="3975.9" x2="64753" y2="-12085.4" gradientUnits="userSpaceOnUse">
<stop offset="0.45" stop-color="#2BFDBE"/>
<stop offset="1" stop-color="#2BFDBE" stop-opacity="0.06"/>
</linearGradient>
<linearGradient id="paint35_linear_285_300" x1="62088.3" y1="4462.68" x2="63143" y2="-11468.6" gradientUnits="userSpaceOnUse">
<stop offset="0.45" stop-color="#2BFDBE"/>
<stop offset="1" stop-color="#2BFDBE" stop-opacity="0.06"/>
</linearGradient>
<linearGradient id="paint36_linear_285_300" x1="60345.2" y1="4929.12" x2="61547" y2="-10869.4" gradientUnits="userSpaceOnUse">
<stop offset="0.45" stop-color="#2BFDBE"/>
<stop offset="1" stop-color="#2BFDBE" stop-opacity="0.06"/>
</linearGradient>
<linearGradient id="paint37_linear_285_300" x1="58616.1" y1="5375.17" x2="59965.6" y2="-10287.5" gradientUnits="userSpaceOnUse">
<stop offset="0.45" stop-color="#2BFDBE"/>
<stop offset="1" stop-color="#2BFDBE" stop-opacity="0.06"/>
</linearGradient>
<linearGradient id="paint38_linear_285_300" x1="56901.7" y1="5800.77" x2="58399.4" y2="-9722.86" gradientUnits="userSpaceOnUse">
<stop offset="0.45" stop-color="#2BFDBE"/>
<stop offset="1" stop-color="#2BFDBE" stop-opacity="0.06"/>
</linearGradient>
<linearGradient id="paint39_linear_285_300" x1="55202.5" y1="6205.9" x2="56849.1" y2="-9175.24" gradientUnits="userSpaceOnUse">
<stop offset="0.45" stop-color="#2BFDBE"/>
<stop offset="1" stop-color="#2BFDBE" stop-opacity="0.06"/>
</linearGradient>
<linearGradient id="paint40_linear_285_300" x1="53519.3" y1="6590.5" x2="55315.3" y2="-8644.43" gradientUnits="userSpaceOnUse">
<stop offset="0.45" stop-color="#2BFDBE"/>
<stop offset="1" stop-color="#2BFDBE" stop-opacity="0.06"/>
</linearGradient>
<linearGradient id="paint41_linear_285_300" x1="51852.7" y1="6954.58" x2="53798.5" y2="-8130.23" gradientUnits="userSpaceOnUse">
<stop offset="0.45" stop-color="#2BFDBE"/>
<stop offset="1" stop-color="#2BFDBE" stop-opacity="0.06"/>
</linearGradient>
<linearGradient id="paint42_linear_285_300" x1="50203.4" y1="7298.09" x2="52299.3" y2="-7632.4" gradientUnits="userSpaceOnUse">
<stop offset="0.45" stop-color="#2BFDBE"/>
<stop offset="1" stop-color="#2BFDBE" stop-opacity="0.06"/>
</linearGradient>
<linearGradient id="paint43_linear_285_300" x1="48571.9" y1="7621.04" x2="50818.2" y2="-7150.69" gradientUnits="userSpaceOnUse">
<stop offset="0.45" stop-color="#2BFDBE"/>
<stop offset="1" stop-color="#2BFDBE" stop-opacity="0.06"/>
</linearGradient>
<linearGradient id="paint44_linear_285_300" x1="46958.9" y1="7923.41" x2="49355.8" y2="-6684.84" gradientUnits="userSpaceOnUse">
<stop offset="0.45" stop-color="#2BFDBE"/>
<stop offset="1" stop-color="#2BFDBE" stop-opacity="0.06"/>
</linearGradient>
<linearGradient id="paint45_linear_285_300" x1="45365" y1="8205.21" x2="47912.6" y2="-6234.55" gradientUnits="userSpaceOnUse">
<stop offset="0.45" stop-color="#2BFDBE"/>
<stop offset="1" stop-color="#2BFDBE" stop-opacity="0.06"/>
</linearGradient>
<linearGradient id="paint46_linear_285_300" x1="43790.8" y1="8466.44" x2="46488.9" y2="-5799.52" gradientUnits="userSpaceOnUse">
<stop offset="0.45" stop-color="#2BFDBE"/>
<stop offset="1" stop-color="#2BFDBE" stop-opacity="0.06"/>
</linearGradient>
<linearGradient id="paint47_linear_285_300" x1="42236.8" y1="8707.12" x2="45085.3" y2="-5379.44" gradientUnits="userSpaceOnUse">
<stop offset="0.45" stop-color="#2BFDBE"/>
<stop offset="1" stop-color="#2BFDBE" stop-opacity="0.06"/>
</linearGradient>
<linearGradient id="paint48_linear_285_300" x1="40703.8" y1="8927.28" x2="43702.1" y2="-4973.95" gradientUnits="userSpaceOnUse">
<stop offset="0.45" stop-color="#2BFDBE"/>
<stop offset="1" stop-color="#2BFDBE" stop-opacity="0.06"/>
</linearGradient>
<linearGradient id="paint49_linear_285_300" x1="39192.2" y1="9126.94" x2="42339.7" y2="-4582.71" gradientUnits="userSpaceOnUse">
<stop offset="0.45" stop-color="#2BFDBE"/>
<stop offset="1" stop-color="#2BFDBE" stop-opacity="0.06"/>
</linearGradient>
<linearGradient id="paint50_linear_285_300" x1="37702.6" y1="9306.14" x2="40998.4" y2="-4205.37" gradientUnits="userSpaceOnUse">
<stop offset="0.45" stop-color="#2BFDBE"/>
<stop offset="1" stop-color="#2BFDBE" stop-opacity="0.06"/>
</linearGradient>
<linearGradient id="paint51_linear_285_300" x1="36235.7" y1="9464.92" x2="39678.5" y2="-3841.52" gradientUnits="userSpaceOnUse">
<stop offset="0.45" stop-color="#2BFDBE"/>
<stop offset="1" stop-color="#2BFDBE" stop-opacity="0.06"/>
</linearGradient>
<linearGradient id="paint52_linear_285_300" x1="34791.8" y1="9603.33" x2="38380.2" y2="-3490.77" gradientUnits="userSpaceOnUse">
<stop offset="0.45" stop-color="#2BFDBE"/>
<stop offset="1" stop-color="#2BFDBE" stop-opacity="0.06"/>
</linearGradient>
<linearGradient id="paint53_linear_285_300" x1="33371.7" y1="9721.42" x2="37103.8" y2="-3152.73" gradientUnits="userSpaceOnUse">
<stop offset="0.45" stop-color="#2BFDBE"/>
<stop offset="1" stop-color="#2BFDBE" stop-opacity="0.06"/>
</linearGradient>
<linearGradient id="paint54_linear_285_300" x1="31975.8" y1="9819.26" x2="35849.3" y2="-2826.98" gradientUnits="userSpaceOnUse">
<stop offset="0.45" stop-color="#2BFDBE"/>
<stop offset="1" stop-color="#2BFDBE" stop-opacity="0.06"/>
</linearGradient>
<linearGradient id="paint55_linear_285_300" x1="30604.6" y1="9896.92" x2="34616.9" y2="-2513.09" gradientUnits="userSpaceOnUse">
<stop offset="0.45" stop-color="#2BFDBE"/>
<stop offset="1" stop-color="#2BFDBE" stop-opacity="0.06"/>
</linearGradient>
<linearGradient id="paint56_linear_285_300" x1="29258.7" y1="9954.47" x2="33406.6" y2="-2210.65" gradientUnits="userSpaceOnUse">
<stop offset="0.45" stop-color="#2BFDBE"/>
<stop offset="1" stop-color="#2BFDBE" stop-opacity="0.06"/>
</linearGradient>
<linearGradient id="paint57_linear_285_300" x1="27938.6" y1="9991.99" x2="32218.4" y2="-1919.25" gradientUnits="userSpaceOnUse">
<stop offset="0.45" stop-color="#2BFDBE"/>
<stop offset="1" stop-color="#2BFDBE" stop-opacity="0.06"/>
</linearGradient>
<linearGradient id="paint58_linear_285_300" x1="26644.7" y1="10009.6" x2="31052.2" y2="-1638.45" gradientUnits="userSpaceOnUse">
<stop offset="0.45" stop-color="#2BFDBE"/>
<stop offset="1" stop-color="#2BFDBE" stop-opacity="0.06"/>
</linearGradient>
<linearGradient id="paint59_linear_285_300" x1="25377.6" y1="10007.3" x2="29907.8" y2="-1367.86" gradientUnits="userSpaceOnUse">
<stop offset="0.45" stop-color="#2BFDBE"/>
<stop offset="1" stop-color="#2BFDBE" stop-opacity="0.06"/>
</linearGradient>
<linearGradient id="paint60_linear_285_300" x1="24137.7" y1="9985.35" x2="28784.9" y2="-1107.09" gradientUnits="userSpaceOnUse">
<stop offset="0.45" stop-color="#2BFDBE"/>
<stop offset="1" stop-color="#2BFDBE" stop-opacity="0.06"/>
</linearGradient>
<linearGradient id="paint61_linear_285_300" x1="22925.5" y1="9943.73" x2="27683.4" y2="-855.792" gradientUnits="userSpaceOnUse">
<stop offset="0.45" stop-color="#2BFDBE"/>
<stop offset="1" stop-color="#2BFDBE" stop-opacity="0.06"/>
</linearGradient>
<linearGradient id="paint62_linear_285_300" x1="21741.5" y1="9882.61" x2="26602.8" y2="-613.607" gradientUnits="userSpaceOnUse">
<stop offset="0.45" stop-color="#2BFDBE"/>
<stop offset="1" stop-color="#2BFDBE" stop-opacity="0.06"/>
</linearGradient>
<linearGradient id="paint63_linear_285_300" x1="20586.1" y1="9802.08" x2="25542.7" y2="-380.27" gradientUnits="userSpaceOnUse">
<stop offset="0.45" stop-color="#2BFDBE"/>
<stop offset="1" stop-color="#2BFDBE" stop-opacity="0.06"/>
</linearGradient>
<linearGradient id="paint64_linear_285_300" x1="19459.7" y1="9702.3" x2="24502.5" y2="-155.535" gradientUnits="userSpaceOnUse">
<stop offset="0.45" stop-color="#2BFDBE"/>
<stop offset="1" stop-color="#2BFDBE" stop-opacity="0.06"/>
</linearGradient>
<linearGradient id="paint65_linear_285_300" x1="18362.8" y1="9583.38" x2="23481.5" y2="60.7989" gradientUnits="userSpaceOnUse">
<stop offset="0.45" stop-color="#2BFDBE"/>
<stop offset="1" stop-color="#2BFDBE" stop-opacity="0.06"/>
</linearGradient>
<linearGradient id="paint66_linear_285_300" x1="17295.8" y1="9445.48" x2="22479.3" y2="268.814" gradientUnits="userSpaceOnUse">
<stop offset="0.45" stop-color="#2BFDBE"/>
<stop offset="1" stop-color="#2BFDBE" stop-opacity="0.06"/>
</linearGradient>
<linearGradient id="paint67_linear_285_300" x1="16259" y1="9288.73" x2="21494.9" y2="468.539" gradientUnits="userSpaceOnUse">
<stop offset="0.45" stop-color="#2BFDBE"/>
<stop offset="1" stop-color="#2BFDBE" stop-opacity="0.06"/>
</linearGradient>
<linearGradient id="paint68_linear_285_300" x1="15252.9" y1="9113.29" x2="20527.5" y2="659.909" gradientUnits="userSpaceOnUse">
<stop offset="0.45" stop-color="#2BFDBE"/>
<stop offset="1" stop-color="#2BFDBE" stop-opacity="0.06"/>
</linearGradient>
<linearGradient id="paint69_linear_285_300" x1="14278" y1="8919.31" x2="19576.2" y2="842.72" gradientUnits="userSpaceOnUse">
<stop offset="0.45" stop-color="#2BFDBE"/>
<stop offset="1" stop-color="#2BFDBE" stop-opacity="0.06"/>
</linearGradient>
<linearGradient id="paint70_linear_285_300" x1="13334.4" y1="8706.98" x2="18640.1" y2="1016.66" gradientUnits="userSpaceOnUse">
<stop offset="0.45" stop-color="#2BFDBE"/>
<stop offset="1" stop-color="#2BFDBE" stop-opacity="0.06"/>
</linearGradient>
<linearGradient id="paint71_linear_285_300" x1="12422.6" y1="8476.44" x2="17718.2" y2="1181.29" gradientUnits="userSpaceOnUse">
<stop offset="0.45" stop-color="#2BFDBE"/>
<stop offset="1" stop-color="#2BFDBE" stop-opacity="0.06"/>
</linearGradient>
<linearGradient id="paint72_linear_285_300" x1="11543" y1="8227.89" x2="16809.5" y2="1335.98" gradientUnits="userSpaceOnUse">
<stop offset="0.45" stop-color="#2BFDBE"/>
<stop offset="1" stop-color="#2BFDBE" stop-opacity="0.06"/>
</linearGradient>
<linearGradient id="paint73_linear_285_300" x1="10695.9" y1="7961.51" x2="15912.8" y2="1479.95" gradientUnits="userSpaceOnUse">
<stop offset="0.45" stop-color="#2BFDBE"/>
<stop offset="1" stop-color="#2BFDBE" stop-opacity="0.06"/>
</linearGradient>
<linearGradient id="paint74_linear_285_300" x1="9881.54" y1="7677.48" x2="15027.3" y2="1612.27" gradientUnits="userSpaceOnUse">
<stop offset="0.45" stop-color="#2BFDBE"/>
<stop offset="1" stop-color="#2BFDBE" stop-opacity="0.06"/>
</linearGradient>
<linearGradient id="paint75_linear_285_300" x1="9100.34" y1="7376" x2="14151.9" y2="1731.77" gradientUnits="userSpaceOnUse">
<stop offset="0.45" stop-color="#2BFDBE"/>
<stop offset="1" stop-color="#2BFDBE" stop-opacity="0.06"/>
</linearGradient>
<linearGradient id="paint76_linear_285_300" x1="8352.57" y1="7057.26" x2="13285.7" y2="1837.14" gradientUnits="userSpaceOnUse">
<stop offset="0.45" stop-color="#2BFDBE"/>
<stop offset="1" stop-color="#2BFDBE" stop-opacity="0.06"/>
</linearGradient>
<linearGradient id="paint77_linear_285_300" x1="7638.52" y1="6721.49" x2="12427.9" y2="1926.83" gradientUnits="userSpaceOnUse">
<stop offset="0.45" stop-color="#2BFDBE"/>
<stop offset="1" stop-color="#2BFDBE" stop-opacity="0.06"/>
</linearGradient>
<linearGradient id="paint78_linear_285_300" x1="6958.47" y1="6368.88" x2="11577.7" y2="1999.15" gradientUnits="userSpaceOnUse">
<stop offset="0.45" stop-color="#2BFDBE"/>
<stop offset="1" stop-color="#2BFDBE" stop-opacity="0.06"/>
</linearGradient>
<linearGradient id="paint79_linear_285_300" x1="6312.69" y1="5999.65" x2="10734.7" y2="2052.18" gradientUnits="userSpaceOnUse">
<stop offset="0.45" stop-color="#2BFDBE"/>
<stop offset="1" stop-color="#2BFDBE" stop-opacity="0.06"/>
</linearGradient>
<linearGradient id="paint80_linear_285_300" x1="5701.43" y1="5614.04" x2="9898.38" y2="2083.84" gradientUnits="userSpaceOnUse">
<stop offset="0.45" stop-color="#2BFDBE"/>
<stop offset="1" stop-color="#2BFDBE" stop-opacity="0.06"/>
</linearGradient>
<linearGradient id="paint81_linear_285_300" x1="5124.95" y1="5212.26" x2="9068.71" y2="2091.94" gradientUnits="userSpaceOnUse">
<stop offset="0.45" stop-color="#2BFDBE"/>
<stop offset="1" stop-color="#2BFDBE" stop-opacity="0.06"/>
</linearGradient>
<linearGradient id="paint82_linear_285_300" x1="4583.46" y1="4794.55" x2="8245.8" y2="2074.14" gradientUnits="userSpaceOnUse">
<stop offset="0.45" stop-color="#2BFDBE"/>
<stop offset="1" stop-color="#2BFDBE" stop-opacity="0.06"/>
</linearGradient>
<linearGradient id="paint83_linear_285_300" x1="4077.2" y1="4361.15" x2="7430.07" y2="2028.03" gradientUnits="userSpaceOnUse">
<stop offset="0.45" stop-color="#2BFDBE"/>
<stop offset="1" stop-color="#2BFDBE" stop-opacity="0.06"/>
</linearGradient>
<linearGradient id="paint84_linear_285_300" x1="3606.37" y1="3912.31" x2="6622.23" y2="1951.15" gradientUnits="userSpaceOnUse">
<stop offset="0.45" stop-color="#2BFDBE"/>
<stop offset="1" stop-color="#2BFDBE" stop-opacity="0.06"/>
</linearGradient>
<linearGradient id="paint85_linear_285_300" x1="3171.17" y1="3448.26" x2="5823.34" y2="1841.04" gradientUnits="userSpaceOnUse">
<stop offset="0.45" stop-color="#2BFDBE"/>
<stop offset="1" stop-color="#2BFDBE" stop-opacity="0.06"/>
</linearGradient>
<linearGradient id="paint86_linear_285_300" x1="2771.77" y1="2969.28" x2="5034.79" y2="1695.32" gradientUnits="userSpaceOnUse">
<stop offset="0.45" stop-color="#2BFDBE"/>
<stop offset="1" stop-color="#2BFDBE" stop-opacity="0.06"/>
</linearGradient>
<linearGradient id="paint87_linear_285_300" x1="2408.36" y1="2475.61" x2="4258.26" y2="1511.71" gradientUnits="userSpaceOnUse">
<stop offset="0.45" stop-color="#2BFDBE"/>
<stop offset="1" stop-color="#2BFDBE" stop-opacity="0.06"/>
</linearGradient>
<linearGradient id="paint88_linear_285_300" x1="2081.08" y1="1967.53" x2="3495.83" y2="1288.07" gradientUnits="userSpaceOnUse">
<stop offset="0.45" stop-color="#2BFDBE"/>
<stop offset="1" stop-color="#2BFDBE" stop-opacity="0.06"/>
</linearGradient>
<linearGradient id="paint89_linear_285_300" x1="1790.09" y1="1445.3" x2="2749.79" y2="1022.53" gradientUnits="userSpaceOnUse">
<stop offset="0.45" stop-color="#2BFDBE"/>
<stop offset="1" stop-color="#2BFDBE" stop-opacity="0.06"/>
</linearGradient>
<linearGradient id="paint90_linear_285_300" x1="1535.53" y1="909.198" x2="2022.73" y2="713.451" gradientUnits="userSpaceOnUse">
<stop offset="0.45" stop-color="#2BFDBE"/>
<stop offset="1" stop-color="#2BFDBE" stop-opacity="0.06"/>
</linearGradient>
</defs>
</svg>
