<svg xmlns="http://www.w3.org/2000/svg" version="1.1" xmlns:xlink="http://www.w3.org/1999/xlink" xmlns:svgjs="http://svgjs.dev/svgjs" viewBox="0 0 800 800" opacity="0.28"><defs><linearGradient x1="50%" y1="0%" x2="50%" y2="100%" id="wwwhirl-grad"><stop stop-color="#29FFBF" stop-opacity="1" offset="45%"></stop><stop stop-color="#04161A" stop-opacity="1" offset="100%"></stop></linearGradient></defs><g stroke-width="1" stroke="url(#wwwhirl-grad)" fill="none" stroke-linecap="round"><path d="M9.000000745773349 430.6056327709606C22.03333447685246 414.83529895635485 61.13333567008982 325.4103378939883 87.20000313224804 335.9836298833262C113.26667059440626 346.55692187266413 139.3333380565645 498.88400985465125 165.4000055187227 494.0453847069881C191.46667298088096 489.20675955932506 217.53334044303915 309.64000407938255 243.60000790519746 306.9518789973475C269.66667536735565 304.2637539153124 295.7333428295139 473.794842422324 321.80001029167215 477.9166342147778C347.86667775383034 482.03842600723146 373.93334521598854 338.6717549653613 400.0000126781468 331.6826297520701C426.066680140305 324.69350453877894 452.13334760246335 432.39771615898394 478.20001506462154 435.98188293503074C504.26668252677973 439.5660497110775 530.3333499889379 349.96188030990857 556.4000174510962 353.1876304083506C582.4666849132544 356.4133805067927 608.5333523754126 463.221550432986 634.6000198375709 455.33638352568323C660.6666872997291 447.4512166183803 686.7333547618873 308.20633736896383 712.8000222240456 305.87662896453344C738.8666896862037 303.54692056010305 777.9666908794411 418.77788241000627 791.0000246105203 441.3581330991008 " transform="rotate(93.5, 400, 400)"></path><path d="M20.500000723838838 429.70544107152745C33.15000110988622 414.39894060441014 71.10000226802835 327.6041254556426 96.40000304012307 337.8664382688235C121.70000381221786 348.12875108200444 147.0000045843126 495.97563059393315 172.30000535640733 491.27931795061306C197.6000061285021 486.583005307293 222.90000690059685 312.29762498852523 248.20000767269164 309.68856240890295C273.5000084447864 307.07949982928073 298.8000092168811 471.62437985079197 324.10000998897584 475.6249424728794C349.40001076107063 479.6255050949669 374.7000115331653 340.4755008484458 400.0000123052601 333.69193814142784C425.30001307735483 326.90837543440995 450.60001384944957 431.44481612460896 475.9000146215444 434.923566230772C501.2000153936391 438.40231633693503 526.500016165734 351.4335636828593 551.8000169378287 354.56443877840604C577.1000177099235 357.6953138739528 602.4000184820181 461.362067037611 627.7000192541129 453.7088168040524C653.0000200262076 446.0555665704937 678.3000207983024 310.90612494606 703.6000215703972 308.6449373770541C728.9000223424919 306.3837498080481 766.8500235006342 418.22556572118947 779.5000238866814 440.14169139001655 " transform="rotate(90.75, 400, 400)"></path><path d="M32.00000070190433 428.8052570014888C44.266667742919964 413.9625898818599 81.06666886596689 329.7979206466914 105.60000294799815 339.74925428371535C130.13333703002942 349.7005879207393 154.66667111206067 493.0672589626095 179.20000519409197 488.51325882363244C203.73333927612325 483.9592586846554 228.26667335815455 314.9552535270625 252.80000744018582 312.425253449853C277.3333415222171 309.89525337264354 301.86667560424837 469.45392490865447 326.40000968627965 473.3332583603756C350.9333437683109 477.2125918120968 375.46667785034214 342.2792543609248 400.0000119323734 335.70125416018016C424.5333460144047 329.12325395943554 449.06668009643596 430.4919237196285 473.6000141784673 433.8652571559078C498.13334826049856 437.2385905921871 522.6666823425298 352.9052546852046 547.2000164245611 355.941254777856C571.7333505065924 358.97725487050735 596.2666845886237 459.5025912716305 620.8000186706549 452.081257711816C645.3333527526862 444.65992415200157 669.8666868347175 313.60592015255077 694.4000209167488 311.4132534189692C718.93335499878 309.2205866853877 755.733356121827 417.67325666176714 768.0000231628427 438.92525731032674 " transform="rotate(88, 400, 400)"></path><path d="M43.500000679969816 427.905126337212C55.38333437595372 413.52629256507146 91.03333546390542 331.99176924350195 114.8000028558732 341.6321237043689C138.566670247841 351.27247816523584 162.33333763980878 490.15894073704766 186.1000050317766 485.74725310241365C209.8666724237444 481.3355654677796 233.6333398157122 317.6129354713614 257.40000720768 315.16199789656474C281.16667459964776 312.71106032176806 304.9333419916156 467.28352337227864 328.7000093835834 471.04162765363355C352.4666767755512 474.7997319349885 376.23334416751896 344.0830612791656 400.0000115594868 337.7106235846942C423.76667895145454 331.3381858902228 447.53334634342235 429.53908472040973 471.3000137353901 432.80700148680535C495.0666811273579 436.07491825320096 518.8333485193258 354.3769990933116 542.6000159112936 357.31812418306765C566.3666833032613 360.25924927282364 590.1333506952292 457.6431689114117 613.9000180871969 450.4537520253415C637.6666854791648 443.26433513927117 661.4333528711326 316.3057687648032 685.2000202631003 314.1816228666461C708.9666876550682 312.05747696848897 744.61668874302 417.1210010081066 756.5000224390037 437.7088766363987 " transform="rotate(85.25, 400, 400)"></path><path d="M55.000000658035304 427.0049422671734C66.50000100898747 413.0899418425213 101.00000206184396 334.18556443455077 124.00000276374828 343.5149397192607C147.00000346565258 352.8443150039707 170.00000416755688 487.250569105724 193.0000048694612 482.98119397543303C216.00000557136553 478.71181884514203 239.00000627326983 320.27056400989864 262.0000069751742 317.89868893751475C285.00000767707854 315.52681386513086 308.00000837898284 465.1130684301411 331.00000908088714 468.7499435411297C354.0000097827915 472.38681865211834 377.00001048469574 345.8868147916446 400.0000111866001 339.7199396034465C423.0000118885044 333.5530644152484 446.00001259040874 428.5861923154293 469.00001329231304 431.74869241194114C492.00001399421734 434.911192508453 515.0000146961218 355.84869009565693 538.000015398026 358.69494018251754C561.0000160999303 361.5411902693782 584.0000168018347 455.78369314543113 607.0000175037391 448.82619293310506C630.0000182056433 441.86869272077905 653.0000189075477 319.0055639712939 676.000019609452 316.9499389085612C699.0000203113563 314.8943138458285 733.5000213642128 416.5686919486843 745.000021715165 436.4924425567089 " transform="rotate(82.5, 400, 400)"></path><path d="M66.5000006361008 426.10479634410746C77.61666764202121 412.65362926694377 110.9666686597825 336.37939777257225 133.20000267162334 345.3977938811252C155.43333668346418 354.4161899896781 177.66667069530502 484.34223562137305 199.90000470714585 480.21517299542506C222.1333387189867 476.08811036947714 244.36667273082753 322.92823069540856 266.60000674266837 320.63541812543747C288.8333407545092 318.3426055554664 311.06667476635005 462.94265163497624 333.30000877819094 466.4582975755986C355.5333427900318 469.97394351622086 377.76667680187256 347.6906064510963 400.0000108137134 341.7292937691715C422.23334482555424 335.76798108724665 444.4666788373951 427.6333380574215 466.700012849236 430.69042148404964C488.9333468610768 433.7475049106778 511.1666808729176 357.32041924497486 533.4000148847585 360.07179432894014C555.6333488965993 362.8231694129055 577.8666829084402 453.9242555264233 600.1000169202811 447.19867198784146C622.3333509321219 440.4730884492596 644.5666849439627 321.7053973247573 666.8000189558036 319.718293097449C689.0333529676444 317.7311888701407 722.3833539854057 416.01642103623465 733.5000209913261 435.2760466239918 " transform="rotate(79.75, 400, 400)"></path><path d="M78.00000061416628 425.20461227406884C88.73333427505497 412.2172785443936 120.93333525772103 338.57319296362107 142.4000025794984 347.28060989601704C163.86666990127574 355.98802682841296 185.3333372230531 481.4338639900494 206.80000454483047 477.44911386844456C228.26667186660782 473.4643637468396 249.7333391883852 325.58585923394577 271.20000651016255 323.3721091663875C292.66667383193993 321.1583590988292 314.1333411537173 460.77219669283875 335.6000084754947 464.1666134630948C357.06667579727207 467.56103023335083 378.5333431190494 349.49435996357533 400.00001044082677 343.7386097879238C421.4666777626041 337.9828596122722 442.9333450843815 426.68044565244105 464.40001240615885 429.6321124091854C485.86667972793623 432.58377916592985 507.3333470497136 358.7921102473201 528.800014371491 361.4486103283901C550.2666816932683 364.10511040946005 571.7333490150456 452.0647797604428 593.2000163368231 445.5711128956051C614.6666836586004 439.0774460307675 636.1333509803778 324.405192531248 657.6000183021551 322.4866091393642C679.0666856239326 320.5680257474803 711.2666866065986 415.4641119768124 722.0000202674872 434.059612544302 " transform="rotate(77, 400, 400)"></path><path d="M89.50000059223177 424.30445109221387C99.85000090808872 411.78095071002696 130.90000185565955 340.7670110428535 151.60000248737344 349.16344879909246C172.3000031190873 357.5598865553314 193.0000037508012 478.52551524690944 213.7000043825151 474.6830776296475C234.40000501422898 470.8406400123856 255.10000564594287 328.24351066066663 275.80000627765673 326.10882309552113C296.50000690937065 323.97413553037563 317.2000075410846 458.60176463888484 337.9000081727985 461.87495223877454C358.6000088045123 465.1481398386643 379.30000943622616 351.29813636423796 400.0000100679401 345.74794869485964C420.70001069965394 340.1977610254814 441.40001133136786 425.7275761356442 462.1000119630818 428.57382622250486C482.8000125947956 431.4200763093655 503.5000132265095 360.26382413784904 524.2000138582234 362.8254492160236C544.9000144899373 365.3870742941982 565.6000151216513 450.20532688264586 586.3000157533651 443.94357669155244C607.000016385079 437.68182650045895 627.7000170167929 327.1050106259223 648.4000176485068 325.2549480694629C669.1000182802208 323.4048855130035 700.1500192277915 414.9118258055737 710.5000195436485 432.84320135279586 " transform="rotate(74.25, 400, 400)"></path><path d="M101.00000057029726 423.40428228096437C110.96666754112248 411.34461524626585 140.8666684535981 342.9608214926914 160.8000023952485 351.04628007277336C180.7333363368989 359.1317386528553 200.6666702785493 475.6171588743749 220.6000042201997 471.917033761456C240.53333816185014 468.2169086485372 260.4666721035005 330.9011544579929 280.400006045151 328.8455293952602C300.3333399868014 326.7899043325275 320.2666739284518 456.4313249555364 340.2000078701022 459.5832833850599C360.13334181175264 462.73524181458333 380.066675753403 353.10190513550606 400.0000096950534 347.757279972401C419.9333436367038 342.412654809296 439.86667757835426 424.7746989894528 459.80001152000466 427.51553240642977C479.73334546165506 430.25636582340667 499.66667940330547 361.73553039898337 519.6000133449559 364.20228047426264C539.5333472866063 366.66903054954184 559.4666812282567 448.3458663754544 579.4000151699072 442.3160328581052C599.3333491115575 436.2861993407559 619.266683053208 329.80482109120214 639.2000169948584 328.02327937016713C659.1333509365088 326.2417376491321 689.0333518489844 414.3595320049405 699.0000188198096 431.6267825318951 " transform="rotate(71.5, 400, 400)"></path><path d="M112.50000054836275 422.5041287285039C122.08333417415622 410.90829504129374 150.83333505153664 345.15464720131837 170.00000230312355 352.9291266052433C189.1666695547105 360.70360600916825 208.3333368062974 472.70881776062936 227.50000405788433 469.1510051520536C246.6666713094713 465.5931925434777 265.8333385610582 333.55881351410824 285.00000581264516 331.5822509537884C304.1666730642321 329.6056883934684 323.333340315819 454.260900530977 342.500007567406 457.29162979013415C361.6666748189929 460.3223590492913 380.83334207057976 354.9056891655632 400.0000093221667 349.76662650873146C419.1666765737537 344.6275638518997 438.33334382534065 423.82183710205044 457.50001107692754 426.4572538491437C476.6666783285145 429.09267059623687 495.83334558010137 363.20725191890676 515.0000128316883 365.57912699129065C534.1666800832753 367.95100206367454 553.3333473348623 446.486421127052 572.5000145864492 440.68850428344695C591.6666818380361 434.8905874398419 610.8333490896231 332.504646815271 630.00001634121 330.7916259296604C649.1666835927969 329.0786050440498 677.9166844701773 413.8072534630963 687.5000180959707 430.4103789697835 " transform="rotate(68.75, 400, 400)"></path><path d="M124.00000052642824 421.60396754664885C133.20000080718998 410.47196720692716 160.80000164947518 347.3484652805508 179.2000022109986 354.81196550831874C197.6000027725221 362.2754657360867 216.00000333404552 469.8004690174894 234.40000389556894 466.38496891325656C252.80000445709243 462.9694688090238 271.2000050186159 336.2164649408291 289.60000558013934 334.318964882922C308.0000061416628 332.4214648250149 326.40000670318625 452.090468477023 344.80000726470973 454.9999685658139C363.2000078262332 457.90946865460484 381.6000083877566 356.70946556622584 400.0000089492801 351.7759654156674C418.40000951080356 346.8424652651089 436.800010072327 422.8689675852536 455.2000106338504 425.39896766246306C473.6000111953739 427.92896773967254 492.0000117568974 364.6789658094357 510.40001231842086 366.9559658789242C528.8000128799442 369.23296594841275 547.2000134414677 444.62696824925507 565.6000140029912 439.06096807939423C584.0000145645147 433.4949679095334 602.4000151260382 335.2044649099453 620.8000156875617 333.55996485975913C639.200016249085 331.915464809573 666.8000170913703 413.2549672918576 676.000017372132 429.1939677782773 " transform="rotate(66, 400, 400)"></path><path d="M135.50000050449373 420.70381017949114C144.31666744022374 410.03564318725785 170.7666682474137 349.54228717448046 188.40000211887366 356.6948082260914C206.03333599033365 363.8473292777024 223.6666698617936 466.89212408904666 241.30000373325362 463.61893648915685C258.9333376047136 460.3457488892671 276.56667147617355 338.87412018224717 294.2000053476336 337.05568262675285C311.83333921909355 335.23724507125854 329.4666730905535 449.9200402377664 347.1000069620135 452.70831115619103C364.73334083347345 455.4965820746156 382.3666747049334 358.51324578158574 400.0000085763934 353.7853081373005C417.6333424478534 349.0573704930153 435.2666763193134 421.916101883154 452.90001019077334 424.34068529047977C470.5333440622333 426.7652686978055 488.1666779336933 366.1506835146618 505.8000118051533 368.332808581255C523.4333456766133 370.5149336478482 541.0666795480732 442.7675191861554 558.7000134195332 437.4334356900388C576.3333472909932 432.09935219392213 593.9666811624531 337.9042868193169 611.6000150339132 336.3283076045551C629.2333489053731 334.75232838979343 655.6833497125631 412.70268493531614 664.5000166482931 427.9775604014684 " transform="rotate(63.25, 400, 400)"></path><path d="M146.99998522377018 419.8036489976361C155.4333188144684 409.59931535289127 180.73331958656317 351.7361052537129 197.59998676795965 358.57764712916685C214.46665394935616 365.41918900462076 231.33332113075267 463.9837753459066 248.19998831214917 460.8529002503599C265.0666554935457 457.72202515481314 281.93332267494213 341.53177160896803 298.7999898563387 339.7923965558865C315.66665703773515 338.053021502805 332.53332421913166 447.7496081838125 349.39999140052817 450.4166499318708C366.2666585819247 453.0836916799291 383.1333257633212 360.31702218224837 399.99999294471763 355.7946470442364C416.8666601261142 351.2722719062245 433.73332730751065 420.96323236635715 450.5999944889072 423.28239910379915C467.46666167030367 425.6015658412412 484.3333288517002 367.6223974051907 501.1999960330967 369.70964746888853C518.0666632144932 371.79689753258634 534.9333303958897 440.9080663083585 551.7999975772863 435.80589948598606C568.6666647586826 430.7037326636136 585.5333319400793 340.6041049139912 602.3999991214757 339.09664653465387C619.2666663028722 337.58918815531655 644.566667074967 412.15039876407747 653.0000006656653 426.7611492099622 " transform="rotate(60.5, 400, 400)"></path><path d="M158.49998520183567 418.9034496688085C166.54998544750217 409.16294937155203 190.6999861845017 353.92988518597264 206.79998667583473 360.4604478852696C222.89998716716775 366.99101058456654 238.99998765850074 461.0753884557939 255.0999881498338 458.08682586459025C271.19998864116684 455.0982632733865 287.29998913249983 344.1893848887162 303.3999896238329 342.52907233804746C319.49999011516593 340.86875978737874 335.5999906064989 445.57913798288587 351.6999910978319 448.12495056057793C367.79999158916496 450.67076313826993 383.899992080498 362.12076043593834 399.999992571831 357.80394780419965C416.09999306316405 353.48713517246097 432.19999355449704 420.01032470258764 448.2999940458301 422.22407477014593C464.39999453716314 424.4378248377042 480.49999502849613 369.09407314874693 496.5999955198292 371.0864482095494C512.6999960111623 373.07882327035185 528.7999965024951 439.04857528358895 544.8999969938283 434.1783251349607C560.9999974851612 429.30807498633243 577.0999979764943 343.30388486169284 593.1999984678273 341.86494731778C609.2999989591603 340.42600977386707 633.4499996961599 411.59807444586613 641.4999999418264 425.5446998714834 " transform="rotate(57.75, 400, 400)"></path><path d="M169.99998517990116 418.00329230165073C177.66665208053593 408.72662535188266 200.66665278244022 356.1237070799023 215.99998658370978 362.3432906030423C231.33332038497934 368.56287412618224 246.66665418624888 458.16704352735115 261.9999879875184 455.3207934404905C277.33332178878794 452.4745433536298 292.66665559005753 346.84704013013425 307.99998939132706 345.2657900818783C323.3333231925966 343.6845400336224 338.6666569938661 443.40870974362923 353.9999907951357 445.83329315095494C369.3333245964053 448.2578765582807 384.6666583976747 363.92454065129823 399.99999219894437 359.8132905258328C415.33332600021384 355.7020404003674 430.66665980148343 419.05745900048805 445.99999360275297 421.1657923981626C461.3333274040225 423.27412579583716 476.6666612052921 370.5657908539731 491.9999950065616 372.4632909118802C507.33332880783115 374.36079096978733 522.6666626091007 437.18912622048924 537.9999964103703 432.55079274560524C553.3333302116398 427.9124592707212 568.6666640129095 346.00370677106446 583.9999978141789 344.63329006257595C599.3333316154485 343.2628733540875 622.3333323173529 411.04579208932466 629.9999992179876 424.32829249467443 " transform="rotate(55, 400, 400)"></path><path d="M181.49998515796665 417.10315400797936C188.78331871356966 408.2903204056997 210.6333193803788 358.3175480473184 225.19998649158484 364.2261523943013C239.7666536027909 370.13475674128426 254.33332071399695 455.25871767239477 268.899987825203 452.5547800898771C283.4666549364091 449.8508425073595 298.0333220476152 349.5047144450387 312.59998915882124 348.0025268991956C327.1666562700274 346.50033935335244 341.7333233812334 441.2383005778589 356.29999049243946 443.54165481481834C370.86665760364554 445.8450090517778 385.43332471485155 365.72833994014445 399.9999918260577 361.82265232095233C414.5666589372637 357.9169647017602 429.1333260484698 418.10461237187474 443.6999931596759 420.1075290996656C458.26666027088197 422.11044582745643 472.83332738208804 372.03752763268557 487.39999449329406 373.84015268769735C501.96666160450013 375.6427777427091 516.5333287157063 435.3296962308759 531.0999958269124 430.9232794297361C545.6666629381184 426.51686262859624 560.2333300493244 348.70354775392235 574.7999971605306 347.4016518808583C589.3666642717367 346.09975600779427 611.2166649385457 410.4935288062696 618.4999984941487 423.11190419135187 " transform="rotate(52.25, 400, 400)"></path><path d="M192.99998513603214 416.202973752638C199.89998534660342 407.85397349784677 220.5999859783173 360.51134705306447 234.3999863994599 366.1089722238904C248.19998682060248 371.70659739471637 261.9999872417451 452.3503498557684 275.79998766288765 449.7887247775938C289.59998808403026 447.2270996994192 303.39998850517287 352.1623467982732 317.1999889263154 350.73922175484284C330.99998934745804 349.3160967114125 344.79998976860065 439.06784945041863 358.59999018974327 441.2499745170118C372.3999906108858 443.432099583605 386.1999910320284 367.53209726732075 399.999991453171 363.8319721544019C413.7999918743136 360.131847041483 427.59999229545616 417.15172378159156 441.3999927165988 419.04922383949867C455.1999931377414 420.9467238974058 468.99999355888394 373.5092224497281 482.79999398002656 375.2169725018445C496.59999440116917 376.9247225539609 510.3999948223117 433.4702242795927 524.1999952434544 429.29572415219707C537.999995664597 425.12122402480145 551.7999960857396 351.4033467751103 565.5999965068821 350.16997173747075C579.3999969280247 348.9365966998311 600.0999975597385 409.9412235615446 606.9999977703098 421.89547392635933 " transform="rotate(49.5, 400, 400)"></path><path d="M204.49998511409763 415.3028049413885C211.01665197963717 407.41763803408566 230.56665257625585 362.70515750290235 243.59998630733497 367.9918034975713C256.63332003841407 373.27844949224027 269.66665376949317 449.44199348323383 282.6999875005723 447.02268090940225C295.7333212316514 444.60336833557074 308.7666549627305 354.8199905955995 321.79998869380967 353.4759280545819C334.83332242488876 352.13186551356443 347.8666561559679 436.8974097670702 360.899989887047 438.9583056632971C373.9333236181261 441.01920155952394 386.9666573492052 369.33586603858885 399.9999910802843 365.84130343194323C413.0333248113634 362.3467408252977 426.0666585424426 416.1988466354002 439.0999922735217 417.9909300234236C452.1333260046008 419.783013411447 465.1666597356799 374.9809287108625 478.19999346675905 376.5938037600835C491.23332719783815 378.20667880930455 504.26666092891725 431.61076377240124 517.2999946599964 427.6681803187498C530.3333283910755 423.72559686509834 543.3666621221546 354.10315724039015 556.3999958532338 352.9383030381749C569.4333295843128 351.7734488359597 588.9833301809315 409.38892976091137 595.4999970464711 420.6790551054586 " transform="rotate(46.75, 400, 400)"></path><path d="M215.99998509216312 414.40263613013894C222.1333186126709 406.9813025703245 240.5333191741944 364.89896795274024 252.79998621521003 369.8746347712522C265.06665325622566 374.8503015897642 277.33332029724124 446.53363711069926 289.59998733825694 444.25663704121075C301.8666543792726 441.97963697172224 314.1333214202882 357.4776343929258 326.39998846130385 356.21263435432104C338.6666555023195 354.9476343157163 350.9333225433351 434.72697008372177 363.19998958435076 436.6666368095823C375.4666566253664 438.6063035354429 387.73332366638203 371.13963480985694 399.9999907073976 367.8506347094846C412.2666577484133 364.5616346091123 424.5333247894289 415.2459694892088 436.7999918304446 416.9326362073484C449.0666588714602 418.6193029254881 461.33332591247586 376.4526349719968 473.5999929534915 377.9706350183225C485.86665999450713 379.4886350646482 498.13332703552277 429.7513032652098 510.3999940765384 426.04063648530257C522.666661117554 422.32996970539534 534.9333281585697 356.8029677056699 547.1999951995854 355.70663433887916C559.466662240601 354.61030097208834 577.8666628021244 408.8366359602781 583.9999963226323 419.4626362845579 " transform="rotate(44, 400, 400)"></path><path d="M227.4999850702286 413.5024825776785C233.24998524570466 406.54498236535244 250.4999857721329 367.0927936613672 261.9999861230851 371.75748130372216C273.4999864740372 376.42216894607714 284.9999868249894 443.6252959969538 296.49998717594156 441.4906084318083C307.99998752689373 439.3559208666628 319.49998787784585 360.1352934490411 330.99998822879803 358.94935591284917C342.4999885797502 357.7634183766572 353.99998893070233 432.55654565916234 365.4999892816545 434.37498321465665C376.9999896326067 436.19342077015096 388.4999899835588 372.9434188399141 399.999990334511 369.85998124581505C411.4999906854631 366.776543651716 422.9999910364153 414.29310760180647 434.49999138736746 415.8743576500624C445.99999173831964 417.4556076983183 457.4999920892718 377.92435649192026 468.99999244022393 379.3474815353506C480.4999927911761 380.7706065787809 491.9999931421283 427.89185801680736 503.49999349308047 424.4131079106443C514.9999938440326 420.9343578044813 526.4999941949848 359.50279342973874 537.9999945459369 358.4749808983724C549.4999948968891 357.44716836700604 566.7499954233174 408.28435741843396 572.4999955987935 418.2462327224463 " transform="rotate(41.25, 400, 400)"></path><path d="M238.9999850482941 412.60231376642895C244.36665187873842 406.1086469015913 260.4666523700714 369.28660411120507 271.19998603096013 373.64031257740305C281.9333196918488 377.99402104360104 292.6666533527375 440.71693962441924 303.3999870136262 438.7245645636168C314.13332067451483 436.7321895028143 324.86665433540355 362.7929372463674 335.5999879962922 361.6860622125883C346.33332165718093 360.57918717880915 357.0666553180696 430.3861059758139 367.79998897895825 432.0833143609419C378.533322639847 433.78052274606995 389.26665630073563 374.7471876111822 399.99998996162435 371.8693125233564C410.733323622513 368.99143743553066 421.4666572834017 413.340230455615 432.19999094429033 414.81606383398724C442.93332460517905 416.29189721235946 453.66665826606777 379.3960627530546 464.39999192695643 380.72431279358955C475.1333255878451 382.05256283412456 485.86665924873375 426.0323975096159 496.5999929096225 422.7855640771971C507.33332657051113 419.5387306447783 518.0666602313999 362.20260389501857 528.7999938922885 361.2433121990766C539.5333275531773 360.2840205031347 555.6333280445102 407.73206361780075 560.9999948749546 417.02981390154554 " transform="rotate(38.5, 400, 400)"></path><path d="M250.49998502635958 411.702152584574C255.48331851177215 405.67231906722475 270.43331896801 371.4804221904375 280.3999859388352 375.5231514804785C290.3666529096604 379.56588077051947 300.3333198804856 437.80859088127926 310.2999868513108 435.9585283248198C320.266653822136 434.10846576836036 330.2333207929612 365.45058867308825 340.19998776378645 364.4227761417219C350.1666547346116 363.39496361035555 360.13332170543686 428.21567392186 370.099988676262 429.79165313662173C380.06665564708726 431.36763235138346 390.0333226179124 376.5509640118448 399.99998958873766 373.8786514302923C409.9666565595628 371.2063388487398 419.93332353038807 412.38736093881823 429.89999050121327 413.7577776473067C439.86665747203847 415.12819435579513 449.83332444286367 380.8677766435835 459.7999914136889 382.1011516812231C469.7666583845141 383.3345267188627 479.7333253553393 424.172944631819 489.69999232616453 421.15802787314436C499.6666592969897 418.1431111144698 509.63332626781494 364.90242198969287 519.5999932386401 364.01165112917533C529.5666602094653 363.12088026865786 544.5166606657031 407.179777446562 549.4999941511157 415.8134027100394 " transform="rotate(35.75, 400, 400)"></path><path d="M261.99998500442507 410.8019837733244C266.59998514480594 405.2359836034636 280.39998556594855 373.67423264027536 289.59998584671024 377.40598275415937C298.799986127472 381.1377328680434 307.99998640823367 434.9002345087447 317.1999866889954 433.1924844566283C326.39998696975715 431.48473440451187 335.5999872505189 368.1082324704146 344.79998753128064 367.159482441461C353.9999878120424 366.21073241250747 363.19998809280406 426.0452342385115 372.3999883735658 427.49998428290695C381.59998865432755 428.9547343273024 390.79998893508923 378.3547327831129 399.999989215851 375.88798270783366C409.1999894966127 373.42123263255445 418.39998977737446 411.4344837926268 427.59999005813614 412.69948383123153C436.7999903388979 413.9644838698363 445.9999906196596 382.33948290471784 455.19999090042137 383.4779829394621C464.39999118118305 384.61648297420635 473.5999914619448 422.31348412462756 482.79999174270654 419.5304840396971C491.9999920234683 416.7474839547667 501.19999230423 367.60223245497264 510.39999258499176 366.77998242987957C519.5999928657534 365.9577324047865 533.399993286896 406.6274836459288 537.9999934272769 414.59698388913864 " transform="rotate(33, 400, 400)"></path><path d="M273.49998498249056 409.9018244988181C277.7166517778397 404.79965767644563 290.36665216388707 375.8680526268564 298.7999857545853 379.2888235645834C307.2333193452836 382.7095945023104 315.6666529359818 431.9918876729533 324.09998652668 430.42645012517994C332.5333201173783 428.86101257740654 340.96665370807654 370.765885804484 349.3999872987748 369.89619827794326C357.83332088947304 369.0265107514025 366.26665448017127 423.87480409190624 374.69998807086955 425.2083249659354C383.13332166156783 426.54184583996454 391.56665525226606 380.1585110911242 399.9999888429643 377.8973235221182C408.43332243366257 375.6361359531122 416.8666560243608 410.4816161831786 425.2999896150591 411.6411995518996C433.7333232057573 412.8007829206206 442.1666567964555 383.81119870259533 450.5999903871538 384.85482373444427C459.0333239778521 385.8984487662932 467.4666575685503 420.4540331541792 475.8999911592486 417.90294974299303C484.33332474994677 415.35186633180683 492.7666583406451 370.3020524569956 501.19999193134333 369.54832326732696C509.63332552204156 368.7945940776583 522.283325908089 406.0751993820387 526.4999927034381 413.3805746049811 " transform="rotate(30.25, 400, 400)"></path><path d="M285.0000002193451 409.0016537802199C288.83333366966247 404.3633203053359 300.33333402061464 378.0618611693457 308.0000009212494 381.1716529309157C315.6666678218842 384.28144469248565 323.333334722519 429.0835293930701 331.0000016231537 427.6604043496398C338.66666852378853 426.2372793062094 346.3333354244233 373.42352769446165 354.00000232505806 372.6329026703337C361.66666922569283 371.84227764620573 369.3333361263276 421.7043625012092 377.0000030269624 422.91665420487203C384.6666699275972 424.1289459085349 392.3333368282319 381.96227795504365 400.0000037288667 379.90665289231094C407.6666706295015 377.85102782957824 415.33333753013625 409.52873712963856 423.000004430771 410.5829038284758C430.6666713314058 411.6370705273131 438.33333823204055 385.2829030563811 446.00000513267537 386.23165308533464C453.6666720333101 387.1804031142882 461.3333389339449 418.59457073963915 469.00000583457967 416.27540400219715C476.66667273521443 413.95623726475515 484.33333963584926 373.00186101492676 492.00000653648397 372.3166526606825C499.6666734371188 371.6314443064383 511.16667378807097 405.52290367405686 515.0000072383883 412.16415387673175 " transform="rotate(27.5, 400, 400)"></path><path d="M296.5000001974106 408.10148687631903C299.95000030269625 403.92698674892335 310.3000006185532 380.25567352653223 317.20000082912446 383.0544861119452C324.10000103969577 385.8532986973582 331.0000012502671 426.1751749278842 337.9000014608383 424.8943623887969C344.80000167140963 423.6135498497096 351.70000188198094 376.08117339913656 358.60000209255224 375.36961087742145C365.50000230312355 374.6580483557062 372.40000251369486 419.5339247252093 379.30000272426616 420.62498725850594C386.20000293483747 421.7160497918025 393.1000031454087 383.7660486336604 400.00000335598 381.91598607720096C406.90000356655133 380.06592352074153 413.8000037771226 408.5758618907958 420.7000039876939 409.52461191974936C427.6000041982652 410.4733619487029 434.5000044088365 386.75461122486405 441.4000046194078 387.6084862509223C448.3000048299791 388.46236127698046 455.2000050405504 416.73511213979634 462.10000525112173 414.64786207609853C469.00000546169304 412.5606120124007 475.90000567226434 375.70167338755516 482.8000058828356 375.0849858687354C489.7000060934069 374.46829834991553 500.0500064092638 404.9706117807723 503.50000651454945 410.9477369631797 " transform="rotate(24.75, 400, 400)"></path><path d="M308.0000001754761 407.20132187976674C311.06666693573 403.4906550998595 320.2666672164917 382.4494877910674 326.4000007369996 384.93732120032337C332.53333425750736 387.42515460957935 338.66666777801515 423.2668223700469 344.800001298523 422.12832233530264C350.93333481903085 420.9898223005584 357.06666833953864 378.73882101116016 363.2000018600464 378.1063209918578C369.3333353805543 377.4738209725554 375.4666689010621 417.36348885655815 381.6000024215699 418.3333222194884C387.7333359420777 419.30315558241875 393.86666946258555 385.56982121962574 400.00000298309334 383.9253211694396C406.1333365036012 382.2808211192534 412.266670024109 407.6229885593017 418.4000035446168 408.4663219183715C424.53333706512467 409.3096552774413 430.66667058563246 388.2263213006957 436.80000410614025 388.98532132385856C442.9333376266481 389.74432134702135 449.06667114715594 414.87565544730217 455.20000466766373 413.02032205734855C461.3333381881715 411.16498866739494 467.46667170867937 378.40148766753225 473.6000052291872 377.8533209841368C479.733338749695 377.30515430074144 488.93333903045675 404.41832179483634 492.0000057907107 409.7313219569762 " transform="rotate(22, 400, 400)"></path><path d="M319.49999252414705 406.3011454391227C322.1833259393692 403.05431200670387 330.2333261850357 384.64329061151074 335.5999930154801 386.82014484460973C340.96665984592437 388.9969990777087 346.33332667636876 420.35845836811785 351.6999935068131 419.3622708377166C357.0666603372574 418.36608330731536 362.4333271677018 381.3964571790919 367.7999939981461 380.8430196622023C373.16666082859047 380.28958214531275 378.5333276590348 415.1930415438152 383.8999944894791 416.04164573637917C389.2666613199235 416.89024992894315 394.6333281503678 387.3735823614993 399.9999949808122 385.93464481758645C405.3666618112565 384.49570727367353 410.73332864170084 406.6701037837157 416.09999547214517 407.40802047290185C421.4666623025895 408.14593716208793 426.8333291330339 389.6980199324355 432.1999959634782 390.362144952703C437.56666279392255 391.02626997297045 442.9333296243669 413.0161873107162 448.2999964548112 411.39277059450677C453.6666632852556 409.76935387829735 459.0333301156999 381.1012905034175 464.39999694614426 380.6216446554465C469.76666377658864 380.14199880747555 477.8166640222551 403.86602036480855 480.4999974374773 408.514895506681 " transform="rotate(19.25, 400, 400)"></path><path d="M330.99999250221254 405.40099379401084C333.29999257240297 402.61799370908045 340.1999927829743 386.8371182274863 344.79999292335515 388.7029932844283C349.399993063736 390.5688683413703 353.99999320411683 417.450119161721 358.5999933444977 416.5962441356628C363.1999934848786 415.74236910960457 367.79999362525945 384.0541181425559 372.3999937656403 383.57974312807914C376.9999939060212 383.10536811360237 381.599994046402 413.0226190266044 386.1999941867829 413.74999404880214C390.79999432716374 414.4773690709998 395.3999944675446 389.1773682989051 399.9999946079255 387.94399326126546C404.59999474830636 386.71061822362583 409.19999488868723 405.71724380366203 413.7999950290681 406.3497438229644C418.39999516944897 406.98224384226677 422.99999530982984 391.1697433597076 427.5999954502107 391.7389933770797C432.1999955905915 392.30824339445184 436.7999957309724 411.1567439696624 441.39999587135327 409.76524392719716C445.99999601173414 408.373743884732 450.599996152115 383.80111813483495 455.1999962924959 383.3899931222884C459.7999964328767 382.9788681097419 466.699996643448 403.31374373031304 468.99999671363844 407.29849385191795 " transform="rotate(16.5, 400, 400)"></path><path d="M342.4999962949753 404.50081735336676C344.41666302013397 402.18165061592475 350.16666319561006 389.03092104792967 353.99999664592747 390.5858169287147C357.8333300962448 392.14071280949963 361.66666354656223 414.5417551597919 365.4999969968796 413.8301926380767C369.333330447197 413.11863011636154 373.16666389751435 386.71175431048766 376.99999734783177 386.3164417984237C380.8333307981492 385.9211292863597 384.66666424846653 410.8521717138614 388.49999769878394 411.4583175656928C392.33333114910135 412.0644634175243 396.1666645994187 390.98112944077866 399.99999804973606 389.9533169094123C403.8333315000535 388.92550437804596 407.6666649503709 404.7643590280761 411.49999840068824 405.2914423774947C415.3333318510056 405.8185257269134 419.166665301323 392.6414419914474 422.9999987516404 393.11581700592416C426.8333322019578 393.59019202040093 430.6666656522752 409.2972758330764 434.4999991025926 408.1376924643554C438.33333255290995 406.9781090956344 442.16666600322736 386.50092097072024 445.9999994535447 386.1583167935981C449.83333290386213 385.815712616476 455.5833330793382 402.7614423002853 457.4999998044969 406.0820674016227 " transform="rotate(13.75, 400, 400)"></path><path d="M353.9999962730408 403.6006676156036C355.5333296531677 401.74533422564997 360.13332979354857 391.22475057125394 363.1999965538025 392.4686672758819C366.2666633140564 393.71258398050986 369.3333300743103 411.6334178607437 372.39999683456426 411.06416784337154C375.46666359481816 410.49491782599944 378.53333035507205 389.36941718130026 381.59999711532595 389.0531671716491C384.66666387557984 388.7369171619979 387.7333306358338 408.6817511039993 390.7999973960877 409.1666677854644C393.8666641563416 409.6515844669296 396.93333091659554 392.7849172855331 399.9999976768494 391.96266726044C403.0666644371033 391.14041723534694 406.1333311973572 403.81150095537106 409.1999979576111 404.23316763490595C412.26666471786507 404.65483431444085 415.33333147811896 394.11316732606804 418.39999823837286 394.4926673376495C421.4666649986268 394.8721673492309 424.5333317588807 407.4378343993713 427.5999985191346 406.51016770439446C430.6666652793885 405.5825010094177 433.7333320396424 389.20075050948634 436.79999879989634 388.92666716778865C439.86666556015024 388.6525838260909 444.4666657005311 402.20916757313836 445.9999990806581 404.8656676542083 " transform="rotate(11, 400, 400)"></path><path d="M365.49999625110627 402.70049117495955C366.6499962862015 401.3089911324943 370.09999639148714 393.4185533916973 372.3999964616776 394.35149092016826C374.699996531868 395.28442844863923 376.99999660205845 408.7250538588146 379.2999966722489 408.2981163457855C381.5999967424393 407.8711788327564 383.89999681262975 392.02705334923206 386.1999968828202 391.7898658419937C388.4999969530106 391.5526783347553 390.799997023201 406.5113037912563 393.09999709339144 406.87499130235517C395.3999971635819 407.23867881345404 397.6999972337723 394.58867842740665 399.99999730396274 393.9719909085868C402.2999973741532 393.355303389767 404.5999974443436 402.85861617978514 406.89999751453405 403.17486618943633C409.1999975847245 403.4911161990875 411.4999976549149 395.5848659578079 413.79999772510536 395.8694909664939C416.09999779529574 396.15411597518 418.39999786548617 405.5783662627853 420.6999979356766 404.8826162415527C422.99999800586704 404.1868662203201 425.2999980760575 391.9005533453716 427.5999981462479 391.6949908390983C429.89999821643835 391.489428332825 433.349998321724 401.6568661431106 434.4999983568192 403.6492412039131 " transform="rotate(8.25, 400, 400)"></path><path d="M377.000000043869 401.8003299931045C377.7666667339325 400.8726632981277 380.0666668041229 395.6123714709297 381.6000001842499 396.2343298232437C383.1333335643768 396.85628817555767 384.6666669445038 405.81670511567455 386.20000032463076 405.5320801069885C387.7333337047577 405.24745509830245 389.26666708488466 394.68470477595287 390.80000046501164 394.5265797711273C392.33333384513855 394.3684547663017 393.86666722526553 404.3408717373024 395.4000006053925 404.5833300780349C396.9333339855194 404.8257884187675 398.4666673656464 396.3924548280693 400.0000007457733 395.9813298155227C401.5333341259003 395.5702048029762 403.0666675060272 401.90574666298824 404.6000008861542 402.1165800027557C406.13333426628117 402.3274133425232 407.6666676464081 397.05657984833675 409.20000102653506 397.24632985412745C410.73333440666204 397.4360798599182 412.26666778678896 403.71891338498835 413.80000116691593 403.25508003749997C415.3333345470429 402.7912466900116 416.86666792716983 394.6003714400459 418.4000013072968 394.46332976919706C419.9333346874238 394.3262880983482 422.2333347576142 401.10457997187194 423.0000014476777 402.4328300124069 " transform="rotate(5.5, 400, 400)"></path><path d="M388.5000000219345 400.90016499655223C388.88333336696627 400.43633164906385 390.03333340206143 397.80618573546485 390.80000009212495 398.11716491162184C391.5666667821884 398.42814408777883 392.33333347225187 402.9083525578373 393.1000001623154 402.76604005349424C393.86666685237884 402.6237275491512 394.6333335424423 397.34235238797646 395.4000002325058 397.2632898855636C396.1666669225693 397.18422738315087 396.93333361263274 402.17043586865117 397.70000030269625 402.29166503901746C398.4666669927597 402.41289420938375 399.2333336828232 398.19622741403464 400.0000003728867 397.99066490776136C400.76666706295015 397.7851024014881 401.5333337530136 400.9528733314941 402.3000004430771 401.0582900013778C403.0666671331406 401.1637066712616 403.83333382320404 398.52828992416835 404.60000051326756 398.6231649270637C405.366667203331 398.7180399299591 406.1333338933945 401.8594566924942 406.900000583458 401.62754001875C407.66666727352145 401.3956233450058 408.4333339635849 397.30018572002297 409.20000065364843 397.23166488459856C409.9666673437119 397.1631440491741 411.1166673788071 400.55228998593594 411.50000072383887 401.2164150062034 " transform="rotate(2.75, 400, 400)"></path></g></svg>