<svg xmlns="http://www.w3.org/2000/svg" version="1.1" xmlns:xlink="http://www.w3.org/1999/xlink" xmlns:svgjs="http://svgjs.dev/svgjs" viewBox="0 0 800 800"><defs><linearGradient x1="50%" y1="0%" x2="50%" y2="100%" id="ccchaos-grad"><stop stop-color="hsl(180, 69%, 40%)" stop-opacity="1" offset="0%"></stop><stop stop-color="hsl(180, 69%, 60%)" stop-opacity="1" offset="100%"></stop></linearGradient></defs><g stroke-width="1" stroke="url(#ccchaos-grad)" fill="none" stroke-linecap="round"><path d="M379.81 92.52C373.96 80.15 393.55 85.13 414.09 101.27Q427.52 111.49 440.76 121.85 453.21 132.33 464.35 142.91 473.71 153.59 480.92 164.34 485.77 175.14 488.17 185.98 488.21 196.83 486.13 207.68 482.31 218.49 477.26 229.26 471.57 239.94 465.88 250.53 460.85 260.99 457.11 271.31 455.22 281.46 455.61 291.42 458.58 301.18 464.27 310.72 472.65 320.02 483.5 329.08 496.45 337.87 510.97 346.39 526.43 354.64 542.13 362.61 557.34 370.31 571.34 377.74 583.5 384.9 593.28 391.8 602.81 404.79 603.54 417.15 592.4 428.7 577.51 439.91 563.95 450.87 555.68 461.89 561.42 473.34 576.86 485.26 589.86 491.57 605.2 498.14 622.2 504.99 640.07 512.15 657.94 519.64 674.95 527.49 690.27 535.71 703.15 544.33 713.03 553.34 719.51 562.77 722.4 572.6 721.76 582.85 717.87 593.51 711.23 604.57 702.51 616.02 692.54 627.84 682.23 640.01 672.54 652.51C661.51 671.02 640.34 676.8 627.18 665.4Q610.96 657.37 594.73 654.46 586.62 656.14 578.51 659.57 570.4 664.62 562.29 671.1 554.17 678.77 546.06 687.36 537.95 696.56 529.84 706.02 521.73 715.41 513.62 724.37 505.5 732.59 497.39 739.76 489.28 745.62 481.17 749.95 464.95 752.57 448.72 749.83 440.61 745.44 432.5 739.53 424.39 732.32 416.28 724.07 408.16 715.08 400.05 705.69 391.94 696.23 383.83 687.05 375.72 678.48 367.61 670.84 359.49 664.41 351.38 659.42 335.16 655.34 318.93 656.61 310.82 660.32 302.71 665.62 294.6 672.32 286.49 680.17 278.38 688.89 270.26 698.15 262.15 707.63 254.04 716.97 245.93 725.83 237.82 733.89 229.7 740.85 221.59 746.47 205.37 751.99 189.15 752.2 181.03 749.2 172.92 744.53 164.81 738.39 156.7 730.98 148.59 722.59 140.47 713.51 132.36 704.08 124.25 694.64 116.14 685.54 108.03 677.11C94.87 665.64 88.16 645.81 96.81 637.14Q110.31 626.21 124.25 615.95 137.18 606.41 148.47 597.04 159.22 580.12 163.37 567.31 164.89 555.75 167.2 543.34 173.05 529.34 181.98 514.33 188.35 506.22 195.72 497.76 203.94 488.96 212.79 479.82 221.99 470.36 231.24 460.6 240.2 450.54 248.58 440.2 256.08 429.62 262.46 418.81 267.55 407.81 271.26 396.62 273.59 385.29 274.64 373.85 274.58 362.31 273.66 350.72 272.23 339.1 270.64 327.48 269.29 315.88 268.57 304.34 268.83 292.87 270.37 281.51 273.43 270.27 278.13 259.18 284.5 248.25 292.46 237.49 301.82 226.93 312.28 216.56 323.48 206.41 335 196.46 346.37 186.74 357.13 177.23 366.85 167.93 375.15 158.85 381.74 149.97 386.43 141.28 389.16 124.52 386.87 108.23 381.71 96.42 379.81 92.52" stroke-dasharray="0 0" transform="rotate(0, 400, 400)" opacity="0.05"></path><path d="M386.56 99.06C380.43 87.02 399.87 92.02 420.56 107.82Q433.52 117.83 445.88 127.97 457.13 138.23 466.82 148.59 474.58 159.04 480.15 169.56 483.42 180.14 484.41 190.76 483.28 201.4 480.33 212.03 475.97 222.64 470.72 233.2 465.16 243.7 459.89 254.11 455.52 264.4 452.59 274.57 451.59 284.58 452.87 294.41 456.66 304.06 463.04 313.5 471.92 322.72 483.05 331.71 496.06 340.44 510.43 348.93 525.56 357.15 540.79 365.1 555.44 372.79 568.86 380.21 580.47 387.38 589.78 394.28 598.87 407.27 599.6 419.61 589.01 431.06 574.72 442.12 561.24 452.8 552.47 463.43 556.62 474.31 569.96 485.53 581.78 491.42 596 497.51 612.03 503.85 629.18 510.46 646.67 517.35 663.68 524.56 679.42 532.11 693.17 540.02 704.32 548.29 712.4 556.95 717.15 566 718.49 575.45 716.57 585.3 711.72 595.54 704.48 606.17 695.52 617.18 685.66 628.56 675.74 640.29C663.16 657.73 638.65 664.11 625.7 654.62Q609.74 648.3 593.78 648.67 577.82 655.7 561.86 668.41 545.9 685.04 529.94 703.3 513.98 720.66 498.02 734.73 482.06 743.56 466.1 745.93 450.14 741.52 434.18 730.93 418.22 715.63 402.26 697.73 386.3 679.7 370.34 664.04 354.38 652.9 338.42 647.84 322.46 649.53 306.5 657.77 290.54 671.39 274.58 688.53 258.62 706.81 242.66 723.71 226.7 736.9 210.73 744.55 194.77 745.6 178.81 739.91 162.85 728.27 146.89 712.28 130.93 694.16 114.97 676.4C102.02 663.97 96.16 643.42 105.19 635.66Q118.82 625.72 132.54 616.25 144.69 607.18 155 598.12 164.09 581.14 167.42 568.11 168.83 556.21 171.28 543.44 177.48 529.07 186.72 513.7 193.19 505.43 200.61 496.82 208.81 487.9 217.59 478.66 226.68 469.13 235.77 459.31 244.57 449.23 252.78 438.9 260.14 428.36 266.4 417.61 271.43 406.69 275.12 395.62 277.47 384.44 278.57 373.16 278.57 361.81 277.72 350.43 276.3 339.03 274.67 327.66 273.2 316.32 272.24 305.05 272.16 293.87 273.24 282.8 275.73 271.86 279.77 261.06 285.43 250.43 292.67 239.98 301.33 229.71 311.2 219.64 321.94 209.78 333.17 200.12 344.48 190.68 355.43 181.44 365.59 172.41 374.57 163.59 382.06 154.95 387.81 146.51 392.82 130.21 392.59 114.36 388.28 102.86 386.56 99.06" stroke-dasharray="0 0" transform="rotate(3.9285714285714284, 400, 400)" opacity="0.07"></path><path d="M393.18 105.6C387.31 93.89 406.6 98.9 426.89 114.36Q439.06 124.15 450.31 134.08 460.18 144.11 468.32 154.25 474.45 164.47 478.44 174.77 480.24 185.12 479.96 195.52 477.83 205.93 474.19 216.35 469.48 226.75 464.2 237.11 458.91 247.42 454.17 257.64 450.51 267.76 448.43 277.77 448.31 287.63 450.46 297.34 455.02 306.87 462.02 316.21 471.34 325.34 482.7 334.25 495.71 342.92 509.89 351.36 524.66 359.55 539.4 367.48 553.49 375.16 566.34 382.58 577.41 389.74 586.27 396.65 594.92 409.65 595.65 421.99 585.6 433.38 571.9 444.33 558.57 454.79 549.38 465.11 552.03 475.5 563.36 486.11 574 491.63 587.07 497.31 602.08 503.18 618.41 509.28 635.36 515.63 652.2 522.26 668.17 529.18 682.57 536.42 694.78 543.99 704.29 551.92 710.76 560.21 714.02 568.87 714.08 577.92 711.14 587.34 705.59 597.15 697.97 607.34 688.95 617.89 679.3 628.81C665.92 645.12 638.89 652.24 626.12 644.77Q610.38 640.98 594.64 643.62 578.9 652.34 563.16 665.99 547.42 682.76 531.68 700.46 515.94 716.75 500.19 729.48 484.45 736.98 468.71 738.26 452.97 733.15 437.23 722.32 421.49 707.2 405.75 689.79 390.01 672.37 374.27 657.24 358.53 646.39 342.79 641.26 327.05 642.51 311.31 649.99 295.57 662.71 279.82 678.99 264.08 696.68 248.34 713.47 232.6 727.13 216.86 735.87 201.12 738.53 185.38 734.77 169.64 725.08 153.9 710.74 138.16 693.63 122.42 676.01C109.65 662.95 104.54 641.88 113.86 634.87Q127.45 625.72 140.76 616.85 152.02 608.08 161.27 599.16 168.78 581.94 171.38 568.58 172.78 556.31 175.42 543.14 181.97 528.4 191.53 512.69 198.09 504.27 205.54 495.54 213.72 486.52 222.42 477.2 231.38 467.61 240.32 457.77 248.95 447.69 256.99 437.39 264.2 426.9 270.36 416.23 275.31 405.43 278.98 394.49 281.35 383.47 282.5 372.37 282.57 361.23 281.78 350.07 280.4 338.92 278.74 327.8 277.16 316.73 276.01 305.74 275.61 294.85 276.26 284.08 278.2 273.44 281.61 262.95 286.57 252.62 293.07 242.47 301.02 232.5 310.23 222.73 320.43 213.16 331.29 203.79 342.42 194.62 353.42 185.66 363.88 176.89 373.42 168.32 381.68 159.94 388.41 151.73 395.7 135.89 397.71 120.48 394.59 109.29 393.18 105.6" stroke-dasharray="0 0" transform="rotate(7.857142857142857, 400, 400)" opacity="0.10"></path><path d="M399.45 112.15C394.33 100.77 413.46 105.77 432.82 120.9Q443.95 130.48 453.88 140.18 462.25 149.99 468.79 159.9 473.32 169.9 475.8 179.97 476.26 190.1 474.88 200.26 471.93 210.46 467.79 220.66 462.9 230.84 457.74 241 452.85 251.1 448.72 261.14 445.84 271.09 444.63 280.93 445.4 290.64 448.37 300.2 453.66 309.61 461.22 318.84 470.91 327.87 482.43 336.7 495.4 345.31 509.35 353.69 523.73 361.84 537.97 369.75 551.5 377.41 563.77 384.82 574.31 391.99 582.73 398.91 590.96 411.92 591.7 424.27 582.18 435.64 569.07 446.53 555.91 456.82 546.38 466.89 547.65 476.88 557.05 486.98 566.54 492.17 578.45 497.48 592.38 502.95 607.8 508.6 624.1 514.45 640.6 520.54 656.6 526.88 671.44 533.5 684.49 540.42 695.23 547.66 703.26 555.22 708.32 563.13 710.32 571.4 709.35 580.03 705.64 589.02 699.6 598.38 691.78 608.11 682.83 618.19C669.41 633.33 640.75 641.27 628.14 635.85Q612.58 634.53 597.03 639.24 581.47 649.41 565.92 663.75 550.36 680.46 534.81 697.46 519.25 712.6 503.7 723.99 488.14 730.19 472.59 730.44 457.03 724.7 441.48 713.68 425.92 698.78 410.37 681.86 394.81 665.04 379.26 650.44 363.7 639.88 348.15 634.69 332.59 635.52 317.04 642.27 301.48 654.09 285.93 669.49 270.37 686.56 254.82 703.13 239.26 717.14 223.71 726.83 208.15 730.98 192.6 729.07 177.04 721.34 161.49 708.76 145.93 692.91 130.38 675.78C117.76 662.43 113.29 641.05 122.79 634.65Q136.15 626.08 148.88 617.62 159.14 608.99 167.29 600.07 173.31 582.44 175.28 568.67 176.73 556 179.63 542.44 182.37 535.12 186.04 527.48 190.72 519.54 196.41 511.3 203.05 502.75 210.52 493.92 218.67 484.81 227.28 475.44 236.1 465.82 244.88 455.98 253.33 445.92 261.21 435.67 268.27 425.26 274.31 414.7 279.19 404.03 282.84 393.25 285.23 382.4 286.43 371.51 286.57 360.59 285.85 349.67 284.51 338.77 282.85 327.92 281.19 317.13 279.86 306.43 279.18 295.83 279.43 285.36 280.86 275.03 283.66 264.84 287.92 254.82 293.69 244.98 300.9 235.32 309.41 225.84 319.01 216.56 329.39 207.48 340.24 198.59 351.16 189.9 361.79 181.39 371.73 173.08 380.65 164.94 388.24 156.98 397.74 141.59 402.1 126.61 400.44 115.74 399.45 112.15" stroke-dasharray="0 0" transform="rotate(11.785714285714285, 400, 400)" opacity="0.12"></path><path d="M405.14 118.7C401.18 107.64 420.15 112.65 438.1 127.43Q447.98 136.8 456.45 146.28 463.25 155.86 468.19 165.55 471.19 175.31 472.27 185.15 471.55 195.05 469.25 204.99 465.68 214.96 461.22 224.94 456.32 234.91 451.44 244.85 447.05 254.76 443.62 264.6 441.56 274.37 441.22 284.03 442.85 293.59 446.62 303.01 452.57 312.28 460.63 321.39 470.62 330.32 482.25 339.06 495.13 347.6 508.8 355.92 522.77 364.02 536.5 371.9 549.47 379.54 561.18 386.94 571.2 394.1 579.19 401.02 587.01 414.06 587.75 426.44 578.74 437.81 566.22 448.66 553.29 458.84 543.49 468.73 543.48 478.39 551.06 488.07 559.42 492.98 570.17 497.98 582.99 503.1 597.43 508.35 612.95 513.76 628.96 519.37 644.82 525.19 659.88 531.24 673.56 537.56 685.32 544.15 694.71 551.04 701.43 558.24 704.88 573.79 700.22 590.37 693.88 599.27 686 608.52C673.2 622.46 643.84 631.3 631.36 627.92Q615.96 628.92 600.57 635.5 585.18 646.86 569.79 661.65 554.39 678.11 539 694.27 523.61 708.21 508.22 718.25 492.83 723.21 477.43 722.49 462.04 716.18 446.65 705.02 431.26 690.36 415.86 673.94 400.47 657.71 385.08 643.63 369.69 633.36 354.3 628.13 338.9 628.57 323.51 634.62 308.12 645.56 292.73 660.09 277.34 676.47 261.94 692.75 246.55 706.98 231.16 717.48 215.77 722.97 200.38 722.82 184.99 717.03 169.59 706.3 154.2 691.91 138.81 675.58C126.33 662.25 122.35 640.79 131.89 634.83Q144.82 626.65 156.8 618.41 170.6 602.84 176.8 590.88 178.31 579.98 179.12 568.32 180.7 555.24 183.9 541.28 186.83 533.78 190.7 525.99 195.54 517.9 201.35 509.52 208.05 500.87 215.54 491.96 223.63 482.79 232.14 473.39 240.83 463.77 249.44 453.94 257.72 443.94 265.42 433.77 272.32 423.46 278.25 413.03 283.06 402.51 286.68 391.91 289.09 381.26 290.35 370.58 290.57 359.89 289.92 349.22 288.64 338.59 286.99 328.02 285.27 317.52 283.79 307.11 282.85 296.82 282.74 286.65 283.69 276.63 285.9 266.75 289.5 257.04 294.54 247.5 301 238.14 308.78 228.97 317.71 219.98 327.54 211.18 337.99 202.57 348.72 194.15 359.37 185.91 369.57 177.85 379 169.96 387.32 162.23 398.9 147.29 405.61 132.75 405.62 122.19 405.14 118.7" stroke-dasharray="0 0" transform="rotate(15.714285714285714, 400, 400)" opacity="0.14"></path><path d="M410.06 125.26C407.61 114.53 426.36 119.52 442.52 133.96Q450.99 143.11 457.92 152.37 463.13 161.73 466.53 171.18 468.1 180.72 467.93 190.32 466.2 199.99 463.17 209.7 459.17 219.44 454.58 229.19 449.82 238.94 445.34 248.68 441.56 258.38 438.89 268.02 437.67 277.6 438.2 287.09 440.66 296.48 445.17 305.75 451.72 314.88 460.22 323.86 470.45 332.69 482.12 341.33 494.86 349.79 508.23 358.04 521.77 366.09 534.98 373.93 547.38 381.54 558.54 388.92 568.06 396.08 575.63 403.01 583.05 416.07 583.8 428.47 575.29 439.87 563.35 450.72 550.68 460.82 540.68 470.59 539.51 480 545.37 489.34 552.62 494.02 562.22 498.76 573.91 503.57 587.31 508.48 601.96 513.51 617.34 518.69 632.88 524.04 647.97 529.59 662.06 535.36 674.61 541.36 685.16 547.62 693.36 554.16 700.47 568.26 699.61 583.32 694.97 591.41 688.48 599.85C676.91 612.58 647.72 622.36 635.35 620.96Q620.11 624.12 604.87 632.32 589.63 644.62 574.39 659.64 559.15 675.66 543.91 690.88 528.67 703.56 513.43 712.28 498.19 716.04 482.95 714.42 467.71 707.6 452.47 696.35 437.23 681.95 421.99 666.03 406.75 650.4 391.51 636.82 376.27 626.84 361.03 621.59 345.8 621.65 330.56 627.03 315.32 637.12 300.08 650.76 284.84 666.43 269.6 682.33 254.36 696.67 239.12 707.82 223.88 714.52 208.64 716.01 193.4 712.13 178.16 703.3 162.92 690.53 147.68 675.28C135.31 662.25 131.66 640.93 141.08 635.25Q153.4 627.28 164.49 619.11 176.34 603.2 181.32 590.86 182.33 579.57 182.93 567.49 184.71 554.01 188.25 539.67 191.39 532 195.44 524.06 200.44 515.84 206.36 507.36 213.12 498.63 220.6 489.66 228.64 480.46 237.04 471.05 245.58 461.45 254.01 451.68 262.11 441.75 269.63 431.68 276.39 421.5 282.2 411.22 286.94 400.87 290.53 390.46 292.96 380.03 294.27 369.58 294.56 359.15 294 348.74 292.78 338.39 291.16 328.1 289.4 317.9 287.8 307.79 286.65 297.81 286.2 287.95 286.71 278.24 288.37 268.68 291.32 259.28 295.64 250.05 301.35 240.99 308.38 232.11 316.59 223.41 325.81 214.9 335.76 206.57 346.17 198.41 356.7 190.43 367.02 182.62 376.8 174.98 385.72 167.49 393.5 160.15 399.93 152.94 408.71 132.1 410.06 125.26" stroke-dasharray="0 0" transform="rotate(19.642857142857142, 400, 400)" opacity="0.16"></path><path d="M414.03 131.82C413.36 121.41 431.85 126.39 445.9 140.49Q458.22 158.45 463.82 176.8 462.87 195.48 456.76 214.39 447.96 233.42 439.53 252.47 434.57 271.4 435.58 290.1 444.03 308.42 459.98 326.26 482.05 343.51 507.64 360.06 533.4 375.83 555.85 390.77 572.05 404.84 580.15 418.04 579.83 430.37 572.37 441.89 560.46 452.67 547.69 462.81 537.95 472.44 534.63 481.7 539.98 490.75 554.64 499.77 577.5 508.94 605.84 518.46 635.82 528.51 663.22 539.26 684.17 550.88 695.96 563.5 697.59 577.25 689.94 592.21C680.14 603.77 651.93 614.49 639.69 614.97Q624.6 620.08 609.51 629.65 594.43 642.63 579.34 657.64 564.25 673.07 549.16 687.25 534.08 698.66 518.99 706.07 503.9 708.69 488.81 706.24 473.73 698.98 458.64 687.68 443.55 673.57 428.46 658.16 413.38 643.11 398.29 630.03 383.2 620.34 368.11 615.06 353.02 614.78 337.94 619.52 322.85 628.77 307.76 641.54 292.67 656.45 277.59 671.9 262.5 686.23 247.41 697.91 232.32 705.66 217.23 708.67 202.15 706.61 187.06 699.69 171.97 688.67 156.88 674.73C144.64 662.29 141.15 641.31 150.3 635.79Q162.07 627.91 171.88 619.6 179.09 610.67 183.54 600.98 185.63 590.39 186.27 578.8 186.75 566.16 188.47 552.42 192.7 537.6 200.28 521.71 211.44 504.83 225.71 487.04 241.96 468.45 258.59 449.2 273.85 429.43 286.15 409.29 294.37 388.94 298.19 368.54 298.08 348.23 295.35 328.17 291.89 308.48 289.8 289.27 291.05 270.62 297.01 252.61 308.23 235.27 324.22 218.63 343.58 202.69 364.15 187.41 383.48 172.76 399.22 158.67 411.85 138.44 414.03 131.82" stroke-dasharray="0 0" transform="rotate(23.57142857142857, 400, 400)" opacity="0.19"></path><path d="M416.91 138.38C418.19 128.3 436.39 133.25 448.1 147Q457.32 164.51 460.15 182.4 457.18 200.61 450.13 219.05 441.47 237.62 434.08 256.22 430.68 274.73 433.37 293.04 443.18 311.03 459.89 328.58 482.01 345.58 507 361.95 531.77 377.6 553.13 392.47 568.45 406.52 576.12 419.72 575.87 432.1 568.87 443.66 557.55 454.48 545.18 464.64 535.31 474.23 531.13 483.37 534.89 492.23 547.43 500.94 568.04 509.67 594.51 518.61 623.54 527.92 651.26 537.78 673.95 548.34 688.73 559.76 694.08 572.15 690.14 585.63C682.52 596.05 656.04 607.67 643.93 609.9Q629.01 616.72 614.08 627.39 599.16 640.8 584.23 655.6 569.31 670.28 554.38 683.35 539.46 693.47 524.53 699.61 509.61 701.15 494.68 697.93 479.76 690.29 464.83 678.99 449.91 665.19 434.99 650.29 420.06 635.81 405.14 623.23 390.21 613.82 375.29 608.54 360.36 607.94 345.44 612.07 330.51 620.51 315.59 632.4 300.66 646.53 285.74 661.47 270.81 675.69 255.89 687.74 240.96 696.4 226.04 700.78 211.11 700.45 196.18 695.42 181.26 686.22 166.33 673.79C154.23 662.18 150.7 641.73 159.42 636.24Q170.27 628.27 178.92 619.74 184.94 610.49 188.37 600.4 189.74 589.38 190.06 577.35 190.57 564.29 192.59 550.18 197.24 535.05 205.21 518.94 216.59 501.92 230.86 484.1 246.9 465.59 263.19 446.51 278.08 427.02 290.09 407.24 298.21 387.33 302.09 367.44 302.15 347.7 299.57 328.24 296.04 309.17 293.54 290.59 293.94 272.57 298.65 255.18 308.36 238.44 322.86 222.38 341.03 206.97 361.06 192.21 380.69 178.03 397.66 164.39 413.5 144.79 416.91 138.38" stroke-dasharray="0 0" transform="rotate(27.5, 400, 400)" opacity="0.21"></path><path d="M418.61 144.96C421.92 135.19 439.75 140.11 449.01 153.51Q455.23 170.57 455.56 187.99 450.99 205.73 443.38 223.7 435.18 241.8 429.01 259.95 427.25 278.04 431.56 295.95 442.62 313.58 459.96 330.82 482.01 347.57 506.35 363.74 530.09 379.25 550.37 394.03 564.84 408.04 572.09 421.25 571.91 433.65 565.35 445.27 554.61 456.14 542.66 466.33 532.73 475.92 527.81 485.01 530.1 493.73 540.61 502.22 558.97 510.61 583.45 519.07 611.23 527.77 638.85 536.86 662.82 546.49 680.17 556.82 689.01 567.98 688.86 580.09C683.72 589.44 659.58 601.9 647.63 605.69Q632.89 613.97 618.15 625.46 603.41 639.06 588.66 653.46 573.92 667.27 559.18 679.16 544.44 687.99 529.7 692.9 514.96 693.43 500.22 689.52 485.47 681.55 470.73 670.28 455.99 656.81 441.25 642.43 426.51 628.52 411.77 616.42 397.03 607.3 382.29 602.03 367.54 601.13 352.8 604.68 338.06 612.34 323.32 623.36 308.58 636.7 293.84 651.06 279.1 665.06 264.36 677.36 249.62 686.77 234.87 692.38 220.13 693.65 205.39 690.47 190.65 683.14 175.91 672.35C163.96 661.79 160.21 642.04 168.35 636.48Q178.14 628.29 185.58 619.42 190.43 609.78 192.91 599.25 193.69 587.78 193.78 575.33 194.42 561.87 196.8 547.43 201.88 532.04 210.22 515.75 221.81 498.67 236.05 480.88 251.85 462.5 267.78 443.65 282.29 424.48 294.03 405.11 302.04 385.68 305.99 366.33 306.23 347.17 303.8 328.32 300.25 309.89 297.41 291.95 297.04 274.56 300.57 257.79 308.8 241.65 321.74 226.15 338.6 211.28 357.83 197.02 377.45 183.33 395.3 170.13 414.05 151.16 418.61 144.96" stroke-dasharray="0 0" transform="rotate(31.428571428571427, 400, 400)" opacity="0.23"></path><path d="M419.08 151.53C424.39 142.08 441.8 146.97 448.61 160.02Q452.02 176.62 450.2 193.58 444.43 210.84 436.65 228.33 429.19 245.96 424.41 263.65 424.3 281.3 430.15 298.81 442.32 316.07 460.15 332.99 482.02 349.47 505.64 365.42 528.35 380.76 547.57 395.44 561.22 409.39 568.06 422.59 567.93 435.02 561.81 446.69 551.65 457.63 540.13 467.87 530.21 477.49 524.65 486.57 525.6 495.22 534.18 503.55 550.31 511.69 572.69 519.78 598.97 527.97 626.12 536.41 650.89 545.25 670.34 554.63 682.36 564.69 685.94 575.55C683.45 583.91 662.16 597.11 650.38 602.27Q635.85 611.74 621.33 623.79 606.8 637.34 592.27 651.17 577.74 664 563.21 674.67 548.69 682.22 534.16 685.95 519.63 685.54 505.1 681 490.57 672.77 476.05 661.58 461.52 648.46 446.99 634.59 432.46 621.24 417.93 609.62 403.4 600.78 388.88 595.54 374.35 594.36 359.82 597.36 345.29 604.25 330.76 614.43 316.23 626.95 301.71 640.68 287.18 654.38 272.65 666.79 258.12 676.8 243.59 683.48 229.06 686.24 214.54 684.81 200.01 679.34 185.48 670.32C173.7 660.95 169.57 642.08 177.01 636.34Q185.62 627.82 191.81 618.56 195.55 608.47 197.19 597.49 197.49 585.57 197.49 572.7 198.34 558.89 201.11 544.16 206.65 528.56 215.34 512.17 227.1 495.08 241.28 477.38 256.83 459.19 272.38 440.63 286.52 421.82 297.97 402.9 305.87 383.98 309.88 365.19 310.3 346.64 308.05 328.42 304.53 310.63 301.4 293.33 300.34 276.58 302.77 260.42 309.56 244.88 320.93 229.94 336.33 215.61 354.55 201.86 373.84 188.63 392.23 175.88 407.81 163.54 419.08 151.53 419.08 151.53 419.08 151.53" stroke-dasharray="0 0" transform="rotate(35.357142857142854, 400, 400)" opacity="0.25"></path><path d="M418.3 158.12C425.51 148.97 442.45 153.83 446.89 166.52Q447.76 182.67 444.2 199.16 437.65 215.94 430.05 232.94 423.58 250.1 420.29 267.32 421.83 284.53 429.13 301.62 442.27 318.5 460.45 335.08 482.05 351.27 504.89 366.98 526.56 382.15 544.73 396.7 557.58 410.58 564.03 423.75 563.95 436.2 558.24 447.91 548.66 458.91 537.59 469.22 527.73 478.9 521.64 488 521.37 496.63 528.13 504.87 542.09 512.84 562.3 520.66 586.87 528.46 613.18 536.38 638.28 544.55 659.36 553.12 674.14 562.21 681.27 571.95C681.5 579.42 663.4 593.25 651.81 599.57Q637.54 609.94 623.26 622.29 608.98 635.59 594.7 648.68 580.42 660.44 566.14 669.87 551.86 676.16 537.58 678.78 523.3 677.48 509.02 672.4 494.74 663.96 480.47 652.88 466.19 640.12 451.91 626.77 437.63 613.97 423.35 602.82 409.07 594.27 394.79 589.06 380.51 587.63 366.23 590.11 351.96 596.28 337.68 605.62 323.4 617.31 309.12 630.38 294.84 643.68 280.56 656.09 266.28 666.54 252.01 674.13 237.73 678.22 223.45 678.45 209.17 674.81 194.89 667.6C183.31 659.56 178.67 641.67 185.3 635.7Q192.66 626.77 197.63 617.06 200.32 606.51 201.24 595.06 201.2 582.72 201.21 569.47 202.34 555.34 205.56 540.38 211.54 524.64 220.57 508.2 232.46 491.16 246.55 473.62 261.82 455.67 276.99 437.45 290.74 419.06 301.91 400.62 309.69 382.25 313.76 364.05 314.36 346.11 312.31 328.54 308.85 311.39 305.51 294.74 303.85 278.63 305.25 263.09 310.67 248.13 320.46 233.76 334.33 219.96 351.33 206.7 370 193.95 388.56 181.64 405.19 169.72 418.3 158.12 418.3 158.12 418.3 158.12" stroke-dasharray="0 0" transform="rotate(39.285714285714285, 400, 400)" opacity="0.28"></path><path d="M416.32 164.7C425.25 155.87 441.65 160.68 443.89 173.02Q442.59 188.7 437.71 204.72 430.79 221.02 423.71 237.54 418.43 254.22 416.71 270.97 419.86 287.72 428.49 304.38 442.46 320.87 460.85 337.1 482.07 352.98 504.09 368.44 524.71 383.4 541.86 397.8 553.93 411.58 560 424.71 559.98 437.16 554.67 448.91 545.64 459.97 535.05 470.35 525.31 480.1 518.78 489.26 517.42 497.91 522.48 506.12 534.33 513.98 552.35 521.62 575.04 529.13 600.19 536.64 625.18 544.28 647.37 552.17 664.46 560.44 674.83 569.21C677.7 575.9 662.99 590.23 651.64 597.48Q637.65 608.46 623.67 620.87 609.68 633.7 595.69 645.93 581.7 656.56 567.71 664.74 553.72 669.8 539.74 671.36 525.75 669.26 511.76 663.7 497.77 655.1 483.78 644.17 469.8 631.79 455.81 618.96 441.82 606.7 427.83 596.01 413.84 587.75 399.85 582.58 385.87 580.93 371.88 582.92 357.89 588.39 343.9 596.9 329.91 607.77 315.93 620.12 301.94 632.96 287.95 645.25 273.96 656 259.98 664.34 245.99 669.6 232 671.37 218.01 669.48 204.02 664.11C192.68 657.47 187.39 640.7 193.14 634.41Q199.2 625.03 202.99 614.84 204.75 603.82 205.09 591.93 204.82 579.19 204.95 565.61 206.44 551.23 210.12 536.1 216.55 520.29 225.89 503.88 237.88 486.96 251.86 469.63 266.83 451.99 281.6 434.15 294.96 416.22 305.85 398.3 313.5 380.5 317.62 362.91 318.41 345.61 316.57 328.68 313.21 312.19 309.71 296.19 307.54 280.71 308.02 265.78 312.13 251.41 320.36 237.6 332.63 224.33 348.26 211.56 366.04 199.27 384.42 187.41 401.71 175.9 416.32 164.7 416.32 164.7 416.32 164.7" stroke-dasharray="0 0" transform="rotate(43.214285714285715, 400, 400)" opacity="0.30"></path><path d="M413.25 171.28C423.62 162.77 439.44 167.52 439.74 179.5Q436.67 194.73 430.91 210.27 424 226.08 417.73 242.11 413.8 258.3 413.69 274.58 418.37 290.87 428.19 307.09 442.84 323.18 461.31 339.04 482.07 354.59 503.23 369.78 522.79 384.52 538.94 398.75 550.26 412.41 555.96 425.48 556 437.9 551.08 449.67 542.6 460.79 532.49 471.24 522.92 481.07 516.05 490.31 513.73 499.01 517.22 507.24 527.04 515.07 542.86 522.59 563.54 529.91 587.25 537.12 611.72 544.35 634.53 551.7 653.42 559.29 666.63 567.24C671.99 573.25 660.73 587.93 649.65 595.87Q635.99 607.19 622.34 619.42 608.69 631.62 595.03 642.87 581.38 652.32 567.72 659.25 554.07 663.15 540.41 663.71 526.76 660.89 513.1 654.91 499.45 646.22 485.8 635.47 472.14 623.48 458.49 611.17 444.83 599.44 431.18 589.21 417.53 581.23 403.87 576.12 390.22 574.26 376.56 575.78 362.91 580.59 349.25 588.3 335.6 598.35 321.95 609.96 308.29 622.26 294.64 634.32 280.98 645.23 267.33 654.16 253.68 660.43 240.02 663.58 226.37 663.35 212.72 659.78C201.64 654.6 195.65 639.01 200.45 632.38Q205.24 622.51 207.92 611.85 208.88 600.37 208.77 588.08 208.42 575 208.76 561.14 210.66 546.57 214.84 531.35 221.7 515.53 231.31 499.22 243.37 482.48 257.2 465.43 271.86 448.15 286.23 430.74 299.19 413.31 309.78 395.95 317.31 378.74 321.48 361.78 322.45 345.13 320.83 328.86 317.61 313.02 314.02 297.67 311.42 282.82 311.07 268.5 313.96 254.72 320.68 241.46 331.32 228.71 345.44 216.44 362.09 204.61 379.96 193.18 397.53 182.09 413.25 171.28 413.25 171.28 413.25 171.28" stroke-dasharray="0 0" transform="rotate(47.14285714285714, 400, 400)" opacity="0.32"></path><path d="M409.18 177.88C420.7 169.68 435.89 174.37 434.55 185.99Q430.16 200.75 423.95 215.81 417.43 231.14 412.2 246.68 409.75 262.37 411.24 278.17 417.36 293.99 428.24 309.76 443.41 325.43 461.83 340.91 482.04 356.12 502.3 371.01 520.81 385.5 535.98 399.54 546.58 413.07 551.93 426.04 552.01 438.43 547.46 450.2 539.52 461.35 529.9 471.88 520.55 481.79 513.44 491.12 510.27 499.9 512.33 508.18 520.23 516.03 533.88 523.51 552.47 530.72 574.51 537.73 598.08 544.66 621.01 551.59 641.17 558.65 656.73 565.92C664.35 571.35 656.45 586.24 645.68 594.63Q632.4 606.03 619.12 617.86 605.85 629.27 592.57 639.46 579.3 647.71 566.02 653.42 552.75 656.19 539.47 655.84 526.19 652.37 512.92 646.05 499.64 637.31 486.37 626.78 473.09 615.2 459.82 603.39 446.54 592.2 433.26 582.41 419.99 574.71 406.71 569.66 393.44 567.62 380.16 568.71 366.89 572.88 353.61 579.82 340.33 589.05 327.06 599.9 313.78 611.61 300.51 623.34 287.23 634.28 273.95 643.63 260.68 650.74 247.4 655.11 234.13 656.42 220.85 654.58C210.07 650.86 203.34 636.51 207.2 629.53Q210.76 619.17 212.46 608.05 212.75 596.15 212.34 583.51 212.03 570.13 212.68 556.08 215.05 541.39 219.71 526.14 226.99 510.4 236.85 494.25 248.94 477.76 262.59 461.04 276.9 444.18 290.86 427.25 303.42 410.36 313.72 393.58 321.11 376.99 325.33 360.67 326.48 344.68 325.1 329.08 322.04 313.9 318.42 299.2 315.48 284.98 314.39 271.27 316.16 258.06 321.43 245.35 330.44 233.11 342.96 221.33 358.28 209.96 375.33 198.96 392.77 188.29 409.18 177.88 409.18 177.88 409.18 177.88" stroke-dasharray="0 0" transform="rotate(51.07142857142858, 400, 400)" opacity="0.34"></path><path d="M404.3 184.48C416.61 176.58 431.16 181.21 428.52 192.47Q423.26 206.76 417.02 221.35 411.21 236.18 407.23 251.22 406.32 266.42 409.36 281.72 416.81 297.07 428.6 312.39 444.14 327.62 462.39 342.7 481.97 357.56 501.29 372.13 518.77 386.36 532.98 400.17 542.88 413.54 547.89 426.4 548.02 438.72 543.83 450.48 536.43 461.65 527.31 472.23 518.22 482.22 510.94 491.64 507.05 500.52 507.81 508.88 513.91 516.79 525.45 524.29 541.89 531.45 562.07 538.35 584.41 545.08 607.01 551.72 627.91 558.37 645.31 565.12C654.84 570.09 650.08 585.05 639.66 593.65Q626.8 604.89 613.95 616.13 601.1 626.63 588.24 635.69 575.39 642.72 562.53 647.24 549.68 648.96 536.83 647.77 523.97 643.73 511.12 637.13 498.26 628.39 485.41 618.1 472.55 606.94 459.7 595.64 446.85 584.96 433.99 575.61 421.14 568.2 408.28 563.23 395.43 561.02 382.57 561.72 369.72 565.28 356.87 571.48 344.01 579.89 331.16 589.96 318.3 601.03 305.45 612.35 292.59 623.19 279.74 632.81 266.88 640.59 254.03 646.01 241.17 648.7 228.32 648.5C217.9 646.2 210.42 633.11 213.34 625.77Q215.76 614.95 216.61 603.4 216.4 591.15 215.83 578.21 215.69 564.62 216.72 550.44 219.59 535.71 224.75 520.52 232.42 504.92 242.49 489 254.57 472.83 268.01 456.51 281.97 440.1 295.49 423.7 307.66 407.37 317.65 391.2 324.91 375.26 329.16 359.6 330.49 344.27 329.35 329.34 326.49 314.83 322.9 300.77 319.69 287.18 317.98 274.07 318.72 261.43 322.63 249.26 330.04 237.54 340.9 226.24 354.73 215.33 370.68 204.76 387.63 194.5 404.3 184.48 404.3 184.48 404.3 184.48" stroke-dasharray="0 0" transform="rotate(55, 400, 400)" opacity="0.37"></path><path d="M398.82 191.09C411.55 183.49 425.42 188.05 421.85 198.94Q416.19 212.77 410.3 226.87 405.47 241.21 402.89 255.75 403.54 270.45 408.07 285.26 416.71 300.12 429.24 314.97 445 329.76 462.98 344.43 481.86 358.91 500.22 373.15 516.66 387.08 529.95 400.66 539.17 413.83 543.86 426.55 544.03 438.79 540.18 450.5 533.29 461.67 524.68 472.29 515.9 482.35 508.53 491.86 506.07 509.06 517.6 524.85 531.87 532.03 550.07 538.9 570.89 545.53 592.74 551.98 613.85 558.35 632.52 564.71C643.6 569.33 641.68 584.18 631.62 592.78Q619.23 603.62 606.84 614.11 594.45 623.6 582.05 631.5 569.66 637.32 557.27 640.7 544.87 641.44 532.48 639.48 520.09 634.95 507.7 628.13 495.3 619.44 482.91 609.42 470.52 598.68 458.12 587.9 445.73 577.73 433.34 568.81 420.95 561.68 408.55 556.79 396.16 554.44 383.77 554.77 371.37 557.77 358.98 563.24 346.59 570.86 334.19 580.15 321.8 590.53 309.41 601.36 297.01 611.99 284.62 621.73 272.23 630.01 259.83 636.3 247.44 640.21 235.05 641.51C224.99 640.57 216.83 628.74 218.87 621.07Q220.28 609.83 220.43 597.92 219.88 585.36 219.31 572.21 219.44 558.49 220.92 544.26 224.32 529.58 229.97 514.52 237.99 499.14 248.22 483.52 260.26 467.74 273.46 451.86 287.04 435.96 300.13 420.11 311.89 404.39 321.58 388.85 328.7 373.56 332.98 358.57 334.49 343.93 333.59 329.66 330.95 315.81 327.44 302.4 324.05 289.43 321.82 276.91 321.66 264.84 324.29 253.21 330.16 241.99 339.34 231.17 351.56 220.71 366.19 210.57 382.31 200.71 398.82 191.09 398.82 191.09 398.82 191.09" stroke-dasharray="0 0" transform="rotate(58.92857142857143, 400, 400)" opacity="0.39"></path><path d="M392.93 197.7C405.73 190.41 418.9 194.88 414.81 205.41Q409.16 218.77 403.97 232.38 400.33 246.22 399.24 260.26 401.44 274.46 407.35 288.77 417.03 303.14 430.14 317.52 445.98 331.85 463.56 346.09 481.69 360.18 499.08 374.07 514.49 387.69 526.87 401 535.45 413.95 539.83 426.5 540.03 438.62 536.51 450.26 530.13 461.41 522.03 472.04 513.58 482.16 506.2 491.75 501.99 509.15 510.32 525.14 522.47 532.39 538.59 539.29 557.67 545.88 578.39 552.24 599.22 558.44 618.6 564.53C630.81 568.9 631.32 583.5 621.67 591.9Q609.77 602.15 597.88 611.76 585.98 620.16 574.08 626.87 562.19 631.51 550.29 633.81 538.39 633.63 526.5 631 514.6 626.05 502.7 619.08 490.81 610.48 478.91 600.75 467.01 590.45 455.12 580.17 443.22 570.5 431.32 562 419.43 555.15 407.53 550.36 395.63 547.89 383.74 547.88 371.84 550.35 359.94 555.14 348.05 561.98 336.15 570.48 324.25 580.14 312.36 590.42 300.46 600.72 288.57 610.45 276.67 619.06 264.77 626.03 252.88 630.99 240.98 633.63C231.33 633.97 222.56 623.36 223.8 615.4Q224.37 603.8 224 591.59 223.27 578.83 222.84 565.54 223.33 551.77 225.32 537.58 229.25 523.03 235.37 508.18 243.71 493.1 254.06 477.85 266.01 462.49 278.94 447.11 292.13 431.76 304.77 416.51 316.12 401.42 325.51 386.54 332.48 371.92 336.78 357.61 338.46 343.64 337.82 330.05 335.42 316.85 332.03 304.08 328.55 291.72 325.89 279.79 324.94 268.28 326.41 257.18 330.81 246.47 338.34 236.12 348.87 226.11 361.99 216.39 376.99 206.94 392.93 197.7 392.93 197.7 392.93 197.7" stroke-dasharray="0 0" transform="rotate(62.857142857142854, 400, 400)" opacity="0.41"></path><path d="M386.89 204.32C399.38 197.32 411.88 201.72 407.62 211.88Q402.4 224.76 398.18 237.88 395.9 251.23 396.34 264.76 400.02 278.45 407.19 292.25 417.74 306.12 431.26 320.02 447.04 333.89 464.13 347.69 481.45 361.37 497.84 374.88 512.25 388.17 523.75 401.19 531.71 413.89 535.79 426.25 536.03 438.21 532.82 449.76 526.92 460.85 519.34 471.48 511.25 481.62 503.94 491.28 498.23 508.89 503.63 525.1 513.71 532.45 527.71 539.42 544.88 546.05 564.16 552.4 584.26 558.52 603.8 564.46C616.74 568.67 619.21 582.89 609.99 590.89Q598.62 600.39 587.25 609 575.88 616.26 564.51 621.79 553.13 625.29 541.76 626.58 530.39 625.58 519.02 622.35 507.65 617.06 496.28 609.99 484.91 601.53 473.54 592.11 462.16 582.25 450.79 572.47 439.42 563.29 428.05 555.21 416.68 548.64 405.31 543.94 393.94 541.37 382.56 541.06 371.19 543.03 359.82 547.16 348.45 553.25 337.08 560.96 325.71 569.89 314.34 579.56 302.96 589.45 291.59 599.03 280.22 607.81 268.85 615.29 257.48 621.1 246.11 624.91C236.89 626.4 227.64 616.98 228.2 608.77Q228.09 596.88 227.39 584.46 226.65 571.57 226.47 558.24 227.41 544.51 229.94 530.45 234.41 516.11 240.96 501.55 249.58 486.83 260 472 271.82 457.14 284.46 442.31 297.23 427.55 309.42 412.92 320.36 398.48 329.44 384.27 336.25 370.33 340.57 356.71 342.41 343.42 342.02 330.5 339.89 317.96 336.67 305.81 333.16 294.07 330.18 282.72 328.56 271.76 329 261.19 332.03 250.97 337.94 241.09 346.77 231.52 358.25 222.22 379.38 208.74 386.89 204.32" stroke-dasharray="0 0" transform="rotate(66.78571428571429, 400, 400)" opacity="0.43"></path><path d="M380.94 210.93C392.8 204.24 404.62 208.54 400.56 218.33Q396.1 230.73 393.09 243.37 392.26 256.22 394.22 269.24 399.29 282.42 407.55 295.71 418.8 309.08 432.57 322.48 448.16 335.88 464.66 349.22 481.12 362.48 496.52 375.59 509.94 388.52 520.6 401.22 527.96 413.66 531.75 425.79 532.02 437.58 529.12 448.99 523.7 460 516.62 470.59 508.93 480.73 501.74 490.42 494.79 508.21 497.55 524.65 505.64 532.12 517.52 539.19 532.67 545.91 550.25 552.31 569.23 558.43 588.41 564.32C601.64 568.46 605.59 582.16 596.8 589.63Q585.98 598.23 575.16 605.77 564.33 611.87 553.51 616.24 542.69 618.65 531.86 619 521.04 617.25 510.22 613.51 499.39 607.95 488.57 600.85 477.74 592.55 466.92 583.48 456.1 574.06 445.27 564.78 434.45 556.08 423.63 548.4 412.8 542.11 401.98 537.53 391.16 534.88 380.33 534.29 369.51 535.79 358.68 539.3 347.86 544.66 337.04 551.6 326.21 559.77 315.39 568.78 304.57 578.18 293.74 587.5 282.92 596.29 272.09 604.12 261.27 610.58 250.45 615.38C241.66 617.88 232.09 609.58 232.1 601.17Q231.51 589.09 230.65 576.56 230.06 563.64 230.25 550.36 231.71 536.77 234.81 522.92 239.79 508.87 246.75 494.67 255.59 480.38 266.05 466.04 277.7 451.72 290 437.47 302.35 423.33 314.08 409.36 324.59 395.59 333.37 382.06 340.02 368.82 344.34 355.88 346.33 343.27 346.2 331.02 344.35 319.13 341.34 307.61 337.86 296.46 334.66 285.69 332.5 275.28 332.03 265.22 333.82 255.49 338.2 246.07 345.33 236.93 355.09 228.05 374.05 215.17 380.94 210.93" stroke-dasharray="0 0" transform="rotate(70.71428571428571, 400, 400)" opacity="0.46"></path><path d="M375.32 217.56C386.26 211.18 397.41 215.38 393.87 224.78Q390.45 236.71 388.79 248.86 389.47 261.2 392.88 273.71 399.21 286.38 408.41 299.15 420.19 312.01 434.05 324.91 449.31 337.82 465.15 350.7 480.71 363.52 495.12 376.22 507.57 388.77 517.41 401.13 524.2 413.27 527.72 425.14 528.02 436.71 525.41 447.96 520.43 458.85 513.86 469.37 506.59 479.48 499.59 489.19 493.83 498.47 490.2 507.32 489.44 515.75 492.05 523.76 498.28 531.35 508.1 538.56 521.15 545.4 536.86 551.89 554.38 558.08 572.73 563.99C585.85 568.12 590.76 581.2 582.44 587.99Q572.18 595.59 561.91 602.01 551.65 606.95 541.39 610.19 531.13 611.59 520.87 611.08 510.6 608.69 500.34 604.52 490.08 598.76 479.82 591.67 469.55 583.58 459.29 574.86 449.03 565.9 438.77 557.1 428.51 548.88 418.24 541.6 407.98 535.59 397.72 531.12 387.46 528.41 377.19 527.57 366.93 528.64 356.67 531.57 346.41 536.24 336.14 542.42 325.88 549.83 315.62 558.15 305.36 566.98 295.09 575.94 284.83 584.61 274.57 592.59 264.3 599.53 254.04 605.11C245.72 608.46 236 601.2 235.6 592.68Q234.73 580.5 233.9 567.97 233.59 555.11 234.25 541.97 236.26 528.61 239.93 515.06 245.42 501.38 252.73 487.61 261.74 473.81 272.17 460.01 283.62 446.28 295.57 432.65 307.46 419.16 318.73 405.86 328.83 392.78 337.29 379.95 343.77 367.39 348.09 355.14 350.23 343.21 350.35 331.62 348.78 320.37 346.01 309.47 342.64 298.92 339.32 288.71 336.73 278.84 335.5 269.29 336.17 260.04 339.14 251.08 344.62 242.38 352.63 233.91 369.16 221.6 375.32 217.56" stroke-dasharray="0 0" transform="rotate(74.64285714285714, 400, 400)" opacity="0.48"></path><path d="M370.25 224.19C380.05 218.1 390.57 222.2 387.78 231.24Q385.62 242.68 385.41 254.33 387.57 266.17 392.34 278.17 399.77 290.31 409.72 302.57 421.84 314.91 435.64 327.31 450.46 339.72 465.57 352.13 480.21 364.48 493.61 376.75 505.12 388.9 514.18 400.9 520.43 412.71 523.68 424.29 524 435.63 521.66 446.67 517.13 457.41 511.06 467.82 504.21 477.87 497.45 487.56 491.62 496.85 487.53 505.76 488.74 522.19 499.46 537.45 510.43 544.42 524.13 551.04 539.94 557.34 557.06 563.35C569.71 567.5 575.1 579.86 567.23 585.88Q557.54 592.4 547.84 597.68 538.15 601.49 528.45 603.67 518.76 604.13 509.06 602.86 499.37 599.9 489.67 595.38 479.98 589.49 470.29 582.47 460.59 574.62 450.9 566.27 441.2 557.76 431.51 549.45 421.81 541.68 412.12 534.79 402.42 529.06 392.73 524.72 383.03 521.96 373.34 520.9 363.64 521.58 353.95 523.97 344.25 527.97 334.56 533.41 324.86 540.07 315.17 547.67 305.47 555.89 295.78 564.38 286.08 572.8 276.39 580.8 266.69 588.02 257 594.19C249.13 598.22 239.46 591.9 238.82 583.34Q237.87 571.18 237.23 558.73 237.33 546.04 238.52 533.15 241.13 520.09 245.36 506.92 251.3 493.68 258.92 480.41 268.05 467.15 278.4 453.95 289.6 440.84 301.16 427.86 312.6 415.05 323.4 402.44 333.07 390.05 341.21 377.92 347.52 366.07 351.83 354.5 354.1 343.25 354.46 332.31 353.19 321.69 350.7 311.4 347.49 301.43 344.13 291.78 341.23 282.44 339.37 273.39 339.08 264.62 340.76 256.11 344.69 247.83 350.98 239.77 364.92 228.05 370.25 224.19" stroke-dasharray="0 0" transform="rotate(78.57142857142857, 400, 400)" opacity="0.50"></path><path d="M365.95 230.83C374.44 225.03 384.35 229.02 382.51 237.68Q381.74 248.65 383.01 259.8 386.58 271.13 392.57 282.61 400.92 294.23 411.43 305.97 423.72 317.79 437.31 329.67 451.58 341.58 465.9 353.49 479.59 365.37 492.01 377.2 502.61 388.93 510.91 400.54 516.64 411.99 519.65 423.26 519.99 434.32 517.91 445.13 513.8 455.68 508.22 465.94 501.82 475.89 495.34 485.52 489.52 494.8 485.08 503.72 484.17 520.3 491.65 535.78 500.58 542.89 512.22 549.66 526.13 556.1 541.71 562.23C553.55 566.46 558.98 578.03 551.57 583.21Q542.44 588.62 533.31 592.76 524.18 595.48 515.05 596.67 505.92 596.28 496.79 594.34 487.66 590.9 478.53 586.12 469.4 580.16 460.28 573.26 451.15 565.68 442.02 557.7 432.89 549.65 423.76 541.81 414.63 534.5 405.5 527.99 396.37 522.53 387.24 518.33 378.11 515.55 368.99 514.3 359.86 514.62 350.73 516.5 341.6 519.87 332.47 524.61 323.34 530.52 314.21 537.39 305.08 544.95 295.96 552.91 286.83 560.97 277.7 568.82 268.57 576.15 259.44 582.7C252.03 587.26 242.59 581.77 241.87 573.25Q241.03 561.2 240.73 548.95 241.33 536.52 243.11 523.96 246.32 511.3 251.08 498.58 257.43 485.85 265.3 473.13 274.48 460.46 284.71 447.89 295.62 435.44 306.78 423.14 317.75 411.02 328.06 399.11 337.31 387.43 345.13 376 351.26 364.84 355.54 353.96 357.93 343.37 358.54 333.08 357.57 323.09 355.37 313.4 352.37 304 349.06 294.9 344.24 277.65 343.06 261.15 345.56 253.3 350.21 245.65 361.5 234.5 365.95 230.83" stroke-dasharray="0 0" transform="rotate(82.5, 400, 400)" opacity="0.53"></path><path d="M362.6 237.48C369.67 231.97 379 235.84 378.24 244.12Q378.92 254.6 381.62 265.25 386.48 276.07 393.53 287.04 402.61 298.14 413.49 309.34 425.78 320.64 439.02 332 452.66 343.4 466.13 354.81 478.87 366.21 490.32 377.57 500.02 388.86 507.61 400.05 512.84 411.13 515.61 422.05 515.98 432.8 514.13 443.35 510.43 453.67 505.33 463.75 499.39 473.55 493.23 483.08 487.51 492.3 482.84 501.21 480.13 517.87 484.69 533.53 491.66 540.77 501.24 547.68 513.14 554.27 526.93 560.54C537.71 564.88 542.75 575.59 535.8 579.88Q518.66 587.22 501.52 589.19 484.38 585.52 467.23 576.73 450.09 564.03 432.95 549.16 415.81 534.19 398.66 521.19 381.52 511.94 364.38 507.74 347.23 509.15 330.09 515.98 312.95 527.3 295.81 541.53 278.66 556.71 261.52 570.74C254.57 575.65 245.55 570.89 244.88 562.49Q244.33 550.68 244.49 538.71 245.66 526.64 248.07 514.5 251.86 502.31 257.11 490.12 263.82 477.95 271.86 465.83 281.05 453.81 291.1 441.89 301.68 430.12 312.41 418.52 322.89 407.11 332.73 395.91 341.55 384.94 349.05 374.21 354.99 363.74 359.23 353.54 361.74 343.61 362.57 333.95 361.9 324.57 360.02 315.47 357.27 306.64 354.08 298.07 348.69 281.81 346.03 266.23 356.99 244.55 362.6 237.48" stroke-dasharray="0 0" transform="rotate(86.42857142857143, 400, 400)" opacity="0.55"></path><path d="M360.34 244.12C365.95 238.9 374.73 242.65 375.13 250.55Q377.24 260.54 381.27 270.7 387.27 281.01 395.17 291.45 404.78 302.02 415.84 312.7 427.96 323.46 440.73 334.3 453.66 345.17 466.25 356.07 478.02 366.98 488.52 377.86 497.37 388.69 504.27 399.45 509.03 410.12 511.57 420.67 511.95 431.08 510.34 441.33 507.02 451.39 502.38 461.24 496.9 470.86 491.11 480.24 485.54 489.36 480.76 498.21 476.56 514.88 478.55 530.65 483.7 537.99 491.28 545.03 501.13 551.76 512.98 558.19C522.5 562.63 526.83 572.46 520.33 575.85Q504.27 581.04 488.21 581.25 472.16 576.45 456.1 567.24 440.04 554.79 423.99 540.65 407.93 526.59 391.87 514.38 375.82 505.56 359.76 501.22 343.7 501.92 327.65 507.56 311.59 517.44 295.53 530.31 279.48 544.57 263.42 558.43C256.91 563.52 248.48 559.38 248.02 551.18Q247.9 539.69 248.62 528.12 250.42 516.49 253.44 504.84 257.78 493.2 263.48 481.58 270.47 470.03 278.63 458.56 287.75 447.21 297.57 435.99 307.8 424.92 318.07 414.03 328.06 403.34 337.4 392.85 345.8 382.59 352.97 372.56 358.72 362.77 362.91 353.23 365.5 343.95 366.55 334.92 364.18 317.74 359.17 301.3 353.43 286 349.63 271.31 356.35 250.81 360.34 244.12" stroke-dasharray="0 0" transform="rotate(90.35714285714286, 400, 400)" opacity="0.57"></path><path d="M359.26 250.77C363.43 245.84 371.73 249.46 373.26 256.98Q376.72 266.48 381.94 276.14 388.89 285.94 397.43 295.86 407.37 305.9 418.42 316.05 430.23 326.28 442.41 336.57 454.56 346.92 466.24 357.3 477.05 367.7 486.62 378.08 494.65 388.44 500.9 398.75 505.21 408.99 507.54 419.14 507.93 429.18 506.52 439.09 503.57 448.84 499.39 458.43 494.37 467.82 488.96 477.02 483.62 485.99 478.82 494.73 473.46 511.32 473.24 527.12 476.72 534.53 482.41 541.66 490.25 548.51 500.08 555.09C508.23 559.64 511.58 568.55 505.48 571.06Q490.48 574.23 475.47 572.86 460.46 567.12 445.45 557.66 430.44 545.55 415.43 532.16 400.42 519 385.42 507.58 370.41 499.18 355.4 494.76 340.39 494.81 325.38 499.34 310.37 507.82 295.36 519.3 280.35 532.48 265.34 545.86C259.24 551 251.57 547.37 251.41 539.44Q251.83 528.38 253.19 517.28 255.62 506.18 259.24 495.09 264.09 484.04 270.16 473.06 277.37 462.17 285.57 451.39 294.56 440.73 304.11 430.22 313.94 419.87 323.74 409.7 333.22 399.73 342.07 389.95 350.04 380.39 356.88 371.05 362.43 361.94 366.56 353.06 369.82 336.11 369.19 319.84 364.14 304.68 358.24 290.14 354.33 276.51 353.54 263.35 357.42 253.89 359.26 250.77" stroke-dasharray="0 0" transform="rotate(94.28571428571428, 400, 400)" opacity="0.59"></path><path d="M359.44 257.43C362.26 252.78 370.09 256.27 372.7 263.41Q383.58 281.57 400.23 300.26 421.16 319.38 444.03 338.83 466.08 358.49 484.62 378.25 497.48 397.95 503.5 417.46 502.69 436.63 496.35 455.33 486.78 473.42 476.99 490.78 470.07 507.31 468.72 522.92 474.67 537.55 488.4 551.16C495.1 555.82 497.32 563.83 491.63 565.49Q477.62 566.8 463.61 564.07 449.6 557.59 435.59 548.02 421.59 536.33 407.58 523.71 393.57 511.44 379.56 500.78 365.55 492.81 351.54 488.35 337.53 487.83 323.52 491.33 309.51 498.48 295.5 508.55 281.49 520.53 267.48 533.18C261.79 538.21 254.97 534.99 255.21 527.4Q258.27 506.3 265.51 485.33 277.17 464.63 292.68 444.35 310.71 424.63 329.42 405.56 346.75 387.23 360.8 369.71 370.19 353.02 374.36 337.17 373.68 322.15 369.42 307.92 363.57 294.42 358.5 281.57 357.98 263.35 359.44 257.43" stroke-dasharray="0 0" transform="rotate(98.21428571428571, 400, 400)" opacity="0.62"></path><path d="M360.88 264.1C362.47 259.73 369.86 263.07 373.44 269.83Q386.12 287 403.49 304.65 424 322.7 445.54 341.06 465.78 359.65 482.51 378.36 494.04 397.06 499.47 415.64 498.85 433.99 493.25 451.97 484.56 469.46 475.24 486.37 467.9 502.6 464.93 518.05 468.06 532.66 478.07 546.39C483.32 551.1 484.31 558.23 479.01 559.11Q465.95 558.75 452.89 554.88 439.83 547.86 426.77 538.31 413.7 527.12 400.64 515.28 387.58 503.89 374.52 493.98 361.46 486.44 348.4 481.97 335.34 480.96 322.27 483.52 309.21 489.4 296.15 498.08 283.09 508.77 270.03 520.48C264.73 525.29 258.85 522.38 259.55 515.2Q263.93 495.31 272.26 475.65 284.49 456.34 299.95 437.51 317.37 419.25 335.11 401.63 351.42 384.71 364.7 368.54 373.79 353.12 378.17 338.46 378.09 324.54 374.51 311.32 369.04 298.74 363.65 286.73 360.61 269.66 360.88 264.1" stroke-dasharray="0 0" transform="rotate(102.14285714285715, 400, 400)" opacity="0.64"></path><path d="M363.54 270.77C364.07 266.68 371.06 269.88 375.44 276.25Q389.45 292.42 407.09 309.03 426.85 326 446.91 343.28 465.31 360.78 480.3 378.41 490.56 396.09 495.43 413.7 494.98 431.16 490.09 448.35 482.27 465.17 473.52 481.54 466.02 497.35 461.81 512.53 462.54 527.01 469.16 540.74C473.04 545.48 472.78 551.75 467.85 551.92Q455.68 550.12 443.52 545.34 431.35 537.95 419.18 528.56 407.02 517.92 394.85 506.89 382.69 496.36 370.52 487.17 358.35 480.07 346.19 475.63 334.02 474.21 321.86 475.92 309.69 480.62 297.52 487.93 285.36 497.28 273.19 507.89C268.26 512.36 263.36 509.69 264.56 502.96Q270.23 484.38 279.5 466.12 292.13 448.27 307.38 430.91 324.08 414.11 340.82 397.92 356.1 382.39 368.61 367.54 377.37 353.36 381.93 339.86 382.41 327.01 379.55 314.77 374.6 303.1 369.16 291.92 364.24 275.97 363.54 270.77" stroke-dasharray="0 0" transform="rotate(106.07142857142858, 400, 400)" opacity="0.66"></path><path d="M367.34 277.44C367.02 273.63 373.62 276.68 378.6 282.65Q393.45 297.83 410.92 313.39 429.66 329.29 448.09 345.47 464.66 361.87 477.97 378.42 487.05 395.04 491.39 411.65 491.1 428.17 486.88 444.5 479.92 460.57 471.83 476.29 464.38 491.58 459.3 506.37 458.07 520.6 461.72 534.2C464.33 538.93 462.88 544.4 458.29 543.94Q446.97 540.95 435.65 535.47 424.33 527.9 413.01 518.79 401.69 508.76 390.36 498.54 379.04 488.85 367.72 480.37 356.4 473.71 345.07 469.34 333.75 467.56 322.43 468.52 311.11 472.12 299.78 478.14 288.46 486.12 277.14 495.52C272.55 499.58 268.64 497.07 270.32 490.82Q277.18 473.66 287.22 456.85 300.05 440.48 314.94 424.6 330.83 409.25 346.52 394.47 360.78 380.3 372.52 366.72 380.93 353.76 385.61 341.38 386.62 329.57 384.49 318.28 380.18 307.49 374.93 297.12 368.77 282.28 367.34 277.44" stroke-dasharray="0 0" transform="rotate(110, 400, 400)" opacity="0.68"></path><path d="M372.17 284.13C371.19 280.59 377.41 283.47 382.79 289.06Q397.97 303.23 414.89 317.74 432.35 332.56 449.07 347.65 463.82 362.94 475.54 378.39 483.5 393.93 487.36 409.5 487.21 425.03 483.61 440.45 477.5 455.68 470.14 470.67 462.93 485.34 457.31 499.62 454.58 513.46 455.72 526.81C457.2 531.47 454.71 536.2 450.44 535.23Q439.91 531.28 429.39 525.33 418.86 517.75 408.33 509.01 397.81 499.64 387.28 490.23 376.76 481.36 366.23 473.57 355.7 467.36 345.18 463.09 334.65 461.04 324.12 461.33 313.6 463.94 303.07 468.72 292.54 475.37 282.02 483.47C277.75 487.06 274.79 484.65 276.93 478.92Q284.82 463.23 295.4 447.91 308.24 433.02 322.61 418.6 337.62 404.69 352.23 391.29 365.46 378.43 376.42 366.1 384.46 354.3 389.22 343.01 390.72 332.21 389.31 321.86 385.72 311.92 380.9 302.35 374.08 288.62 372.17 284.13" stroke-dasharray="0 0" transform="rotate(113.92857142857143, 400, 400)" opacity="0.71"></path><path d="M377.84 290.82C376.42 287.54 382.28 290.27 387.84 295.46Q402.87 308.63 418.88 322.1 434.87 335.84 449.83 349.82 462.8 364 473.01 378.34 479.92 392.78 483.32 407.28 483.29 421.77 480.26 436.22 474.98 450.55 468.38 464.71 461.59 478.65 455.75 492.31 451.94 505.64 451.07 518.59C451.62 523.15 448.24 527.19 444.28 525.81Q434.51 521.16 424.74 514.95 414.97 507.5 405.2 499.22 395.43 490.55 385.65 481.95 375.88 473.88 366.11 466.77 356.34 460.99 346.57 456.87 336.8 454.6 327.02 454.33 317.25 456.06 307.48 459.7 297.71 465.05 287.94 471.83C283.98 474.91 281.9 472.57 284.44 467.37Q293.14 453.17 304.04 439.35 316.68 425.95 330.4 412.97 344.43 400.46 357.95 388.4 370.14 376.81 380.33 365.68 387.96 355.01 392.76 344.77 394.69 334.94 393.99 325.49 391.16 316.4 386.93 307.61 380.01 294.96 377.84 290.82" stroke-dasharray="0 0" transform="rotate(117.85714285714286, 400, 400)" opacity="0.73"></path><path d="M384.16 297.52C382.52 294.51 388.01 297.06 393.53 301.86Q407.97 314.02 422.78 326.44 437.15 339.11 450.32 351.98 461.57 365.05 470.36 378.26 476.31 391.58 479.28 404.98 479.35 418.41 476.87 431.83 472.36 445.2 466.57 458.46 460.33 471.57 454.53 484.5 450.05 497.19 447.69 509.6C447.49 514 443.44 517.43 439.76 515.74Q430.71 510.64 421.66 504.36 412.62 497.19 403.57 489.45 394.52 481.51 385.47 473.71 376.42 466.42 367.37 459.96 358.32 454.64 349.27 450.68 340.22 448.27 331.17 447.53 322.13 448.48 313.08 451.08 304.03 455.21 294.98 460.69C291.3 463.24 290 460.94 292.86 456.28Q302.12 443.59 313.09 431.25 325.33 419.3 338.26 407.73 351.25 396.57 363.65 385.8 374.83 375.44 384.23 365.46 391.44 355.87 396.22 346.64 397.48 329.34 392.93 312.9 386.38 301.31 384.16 297.52" stroke-dasharray="0 0" transform="rotate(121.78571428571429, 400, 400)" opacity="0.75"></path><path d="M390.91 304.22C389.24 301.47 394.34 303.84 399.64 308.26Q413.1 319.41 426.47 330.78 439.13 342.37 450.53 354.14 460.15 366.08 467.61 378.17 472.67 390.36 475.24 402.65 475.4 414.98 473.4 427.33 469.64 439.67 464.65 451.96 459.05 464.17 453.53 476.25 448.77 488.18 445.41 499.93C444.65 504.11 440.16 507 436.76 505.13Q428.41 499.8 420.06 493.63 411.71 486.86 403.36 479.73 395.01 472.53 386.66 465.52 378.3 458.99 369.95 453.17 361.6 448.29 353.25 444.53 336.55 441.63 319.84 442.89 311.49 445.91 303.14 450.14C299.75 452.17 299.1 449.88 302.17 445.76Q311.71 434.56 322.5 423.67 334.15 413.12 346.18 402.91 358.08 393.04 369.35 383.51 379.51 374.32 388.13 365.45 394.89 356.9 399.61 348.64 401.86 333.07 398.8 318.21 393 307.68 390.91 304.22" stroke-dasharray="0 0" transform="rotate(125.71428571428571, 400, 400)" opacity="0.77"></path><path d="M397.84 310.92C396.3 308.44 401.01 310.63 405.91 314.64Q418.08 324.78 429.84 335.11 440.76 345.62 450.43 356.3 458.52 367.12 464.76 378.07 469.01 389.13 471.21 400.27 471.43 411.48 469.87 422.74 466.8 434 462.6 445.26 457.73 456.48 452.66 467.63 447.93 478.7 444.02 489.65C442.92 493.56 438.21 495.98 435.1 494.02Q419.77 482.79 404.43 470.04 389.09 457.37 373.76 446.36 358.42 438.41 343.09 434.5 327.75 435.12 312.41 440.21C309.3 441.74 309.16 439.47 312.33 435.89Q321.86 426.12 332.23 416.64 343.12 407.44 354.14 398.52 364.91 389.89 375.05 381.54 384.18 373.46 392.02 365.64 402.02 350.87 406.81 336.77 400.86 317.26 397.84 310.92" stroke-dasharray="0 0" transform="rotate(129.64285714285714, 400, 400)" opacity="0.80"></path><path d="M404.72 317.63C403.41 315.41 407.74 317.41 412.1 321.03Q432.81 339.44 450.02 358.45 461.8 377.97 467.17 397.89 466.27 418.08 460.41 438.41 451.82 458.72 443.34 478.87C442.06 482.47 437.37 484.49 434.54 482.53Q420.56 471.9 406.58 460.41 392.61 449.26 378.63 439.56 364.65 432.31 350.68 428.24 336.7 427.78 322.72 430.96C319.88 432.03 320.11 429.81 323.26 426.73Q342.21 410.19 362.12 394.58 380.73 379.88 395.91 366.04 406.11 353 410.61 340.65 407.22 323.27 404.72 317.63" stroke-dasharray="0 0" transform="rotate(133.57142857142858, 400, 400)" opacity="0.82"></path><path d="M411.3 324.35C410.31 322.39 414.21 324.19 417.96 327.42Q435.29 343.77 449.27 360.61 458.74 377.88 463.13 395.5 462.61 413.39 458.04 431.45 450.91 449.59 443.12 467.7C441.81 470.94 437.35 472.61 434.8 470.75Q422.19 460.99 409.59 450.86 396.98 441.19 384.37 432.75 371.77 426.23 359.16 422.16 346.55 420.85 333.94 422.42C331.39 423.08 331.83 420.92 334.85 418.33Q352.37 404.35 370.09 391.1 386.39 378.55 399.8 366.65 409.24 355.36 414.13 344.6 412.94 329.32 411.3 324.35" stroke-dasharray="0 0" transform="rotate(137.5, 400, 400)" opacity="0.84"></path><path d="M417.35 331.08C416.71 329.37 420.17 330.97 423.24 333.79Q437.18 348.09 448.18 362.77 455.58 377.8 459.1 393.12 458.88 408.69 455.48 424.45 449.83 440.32 443.13 456.25C441.92 459.11 437.84 460.51 435.57 458.8Q424.36 450.12 413.16 441.4 401.95 433.17 390.74 425.96 379.53 420.19 368.32 416.24 357.11 414.34 345.9 414.61C343.63 414.93 344.18 412.87 346.95 410.73Q362.64 399.12 378.04 388.06 392.04 377.52 403.69 367.46 412.27 357.83 417.36 348.6 418.14 335.39 417.35 331.08" stroke-dasharray="0 0" transform="rotate(141.42857142857142, 400, 400)" opacity="0.86"></path><path d="M422.64 337.81C422.34 336.35 425.36 337.74 427.74 340.17Q438.44 352.41 446.74 364.95 452.32 377.75 455.06 390.79 455.08 404.03 452.7 417.45 448.48 431 443.1 444.64C442.07 447.11 438.54 448.25 436.56 446.75Q426.79 439.32 417.02 432.02 407.26 425.2 397.49 419.15 387.72 414.17 377.96 410.46 368.19 408.21 358.42 407.51C356.43 407.57 356.96 405.66 359.41 403.92Q372.96 394.51 385.93 385.47 397.67 376.8 407.58 368.47 420.8 345.3 422.64 337.81" stroke-dasharray="0 0" transform="rotate(145.35714285714286, 400, 400)" opacity="0.89"></path><path d="M426.98 344.54C427 343.34 429.53 344.51 431.28 346.53Q439 356.73 444.94 367.13 448.96 377.72 451.03 388.5 451.21 399.43 449.7 410.51 446.78 421.71 442.82 433C442.04 435.05 439.12 435.98 437.44 434.73Q420.9 422.75 404.35 412.35 387.79 404.82 371.24 401.13C369.56 400.99 369.99 399.28 372.04 397.92Q383.21 390.5 393.75 383.33 403.28 376.39 411.47 369.67 424.47 350.71 426.98 344.54" stroke-dasharray="0 0" transform="rotate(149.28571428571428, 400, 400)" opacity="0.91"></path><path d="M430.24 351.29C430.49 350.33 432.53 351.28 433.7 352.9Q442.8 369.33 446.99 386.27 446.45 403.67 442.08 421.46C441.54 423.07 439.29 423.81 437.93 422.84Q424.47 413.6 411.02 405.54 397.57 399.31 384.11 395.42C382.75 395.17 383.03 393.7 384.64 392.68Q401.46 381.6 415.35 371.06 427.69 356.14 430.24 351.29" stroke-dasharray="0 0" transform="rotate(153.21428571428572, 400, 400)" opacity="0.93"></path><path d="M432.3 358.04C432.67 357.32 434.21 358.05 434.9 359.27Q440.31 371.55 442.96 384.13 442.96 397 440.64 410.11C440.35 411.3 438.76 411.88 437.72 411.18Q427.48 404.58 417.24 398.75 407 393.93 396.76 390.35C395.72 390.07 395.87 388.89 397.03 388.17Q409.05 380.26 419.23 372.63 429.68 361.64 432.3 358.04" stroke-dasharray="0 0" transform="rotate(157.14285714285714, 400, 400)" opacity="0.95"></path><path d="M433.09 364.8C433.47 364.32 434.49 364.81 434.83 365.63Q438.92 382.09 438.39 399.08C438.27 399.85 437.29 400.25 436.6 399.81Q422.77 391.94 408.94 385.86C408.24 385.61 408.26 384.78 408.98 384.33Q428.1 369.59 433.09 364.8" stroke-dasharray="0 0" transform="rotate(161.07142857142856, 400, 400)" opacity="0.98"></path></g></svg>