<svg width="375" height="823" viewBox="0 0 375 823" fill="none" xmlns="http://www.w3.org/2000/svg">
<path opacity="0.05" d="M170.067 28.4654C172.775 30.2391 175.432 32.102 178.035 34.0046C181.917 36.6602 189.423 41.4959 193.051 43.5768C196.629 45.1821 203.563 47.5702 206.942 48.3828C210.307 48.8584 216.951 49.5818 220.266 49.9781C223.64 50.4141 230.547 52.1284 234.125 53.5553C236.597 54.7147 239.123 56.1416 241.721 57.8658C244.401 59.7684 247.163 61.9781 250.011 64.505C252.959 67.2498 256.002 70.3117 259.145 73.6908C262.392 77.2779 265.739 81.1821 269.186 85.3637C272.727 89.7535 276.356 94.4009 280.07 99.296C287.67 109.552 295.457 120.581 303.257 132.194C310.881 144.026 318.137 156.175 324.74 168.482C327.76 174.586 330.531 180.69 333.021 186.794C335.252 192.819 337.152 198.834 338.703 204.819C339.942 210.705 340.812 216.571 341.293 222.398C341.461 228.125 341.252 233.823 340.676 239.481C339.837 245.05 338.672 250.589 337.211 256.108C335.592 261.549 333.765 266.969 331.769 272.399C329.76 277.74 327.697 283.091 325.642 288.472C323.747 293.783 321.974 299.124 320.391 304.515C318.64 312.551 317.448 328.862 318.196 337.175C319.33 342.724 320.899 348.363 322.885 354.11C325.311 359.828 328.096 365.664 331.189 371.62C334.577 377.555 338.146 383.62 341.819 389.803C345.57 395.996 349.257 402.318 352.794 408.769C356.154 415.23 359.157 421.76 361.737 428.349C363.932 434.939 365.596 441.588 366.698 448.297C367.297 455.015 367.297 461.783 366.707 468.6C365.615 475.418 363.964 482.285 361.801 489.172C359.229 496.049 356.236 502.946 352.889 509.852C349.288 516.729 345.465 523.596 341.488 530.424C337.447 537.212 333.384 543.94 329.361 550.589C325.457 557.169 321.702 563.629 318.146 569.951C314.845 576.164 311.815 582.209 309.071 588.036C306.668 593.714 304.582 599.154 302.813 604.306C299.815 617.852 298.868 633.578 299.403 637.056C300.414 637.799 293.874 636.026 290.881 637.77C288.7 639.752 286.36 642.298 283.875 645.469C281.294 649.383 278.587 653.951 275.77 659.193C272.882 665.159 269.911 671.758 266.868 678.942C263.775 686.721 260.632 694.975 257.449 703.606C254.238 712.564 251.005 721.71 247.757 730.906C244.497 740.072 241.231 749.04 237.975 757.651C234.715 765.846 231.472 773.406 228.243 780.204C225.019 786.219 221.821 791.233 218.651 795.147C215.486 798.011 212.348 799.636 209.246 799.983C206.148 799.21 203.083 797.158 200.053 793.869C197.024 789.598 194.031 784.237 191.074 777.905C188.117 770.939 185.192 763.289 182.303 755.134C179.41 746.85 176.58 738.526 173.818 730.341C171.047 722.572 168.34 715.289 165.687 708.61C163.029 702.784 160.426 697.78 157.873 693.687C154.059 689.654 146.639 688.059 143.029 690.278C140.617 692.944 138.24 696.254 135.9 700.078C133.538 704.498 131.202 709.195 128.894 714.021C126.558 719.064 124.245 723.969 121.95 728.627C119.619 733.126 117.307 737.139 115.003 740.577C111.502 744.68 104.459 748.039 100.912 747.078C98.5087 745.443 96.1052 742.926 93.7016 739.586C91.2617 735.563 88.8219 730.777 86.3865 725.297C83.9149 719.243 81.4569 712.594 79.0035 705.439C74.0466 689.961 69.1715 673.205 64.4278 655.785C59.7159 638.087 55.2171 620.548 50.9859 603.524C48.927 595.24 46.9452 587.164 45.054 579.306C43.2083 571.666 41.4577 564.263 39.8024 557.099C38.2016 550.173 36.6959 543.484 35.2946 537.013C33.9431 530.771 32.6869 524.726 31.5305 518.87C29.9024 510.457 27.1315 494.572 25.9614 486.972C24.8821 479.619 23.0137 465.172 22.2064 457.978C21.4082 450.823 19.9616 436.267 19.2994 428.795C18.6147 421.255 17.363 405.608 16.8006 397.492C16.2337 389.248 15.2905 372.135 14.9367 363.266C14.71 357.311 14.5467 351.306 14.456 345.271C14.3653 339.236 14.3517 333.172 14.4152 327.078C14.4968 321.004 14.6601 314.919 14.914 308.825C15.1952 302.761 15.5671 296.706 16.0387 290.672C16.5421 284.667 17.1408 278.691 17.8437 272.776C18.5829 266.89 19.4219 261.073 20.3607 255.336C21.3357 249.648 22.406 244.049 23.5669 238.559C24.7597 233.129 26.0385 227.828 27.3945 222.645C29.4897 215.065 34.0021 200.796 36.383 194.147C38.7775 187.795 43.6482 176.142 46.1016 170.83C48.4916 165.806 53.2081 156.69 55.5255 152.558C58.4597 147.137 61.412 142.163 64.4006 137.535C67.2305 132.541 70.1646 127.616 73.2258 122.632C75.5115 118.48 80.3277 109.522 82.8764 104.677C85.4977 99.4248 91.0894 88.2176 94.0553 82.3018C96.0825 78.1994 98.1732 74.0772 100.323 69.955C102.504 65.7535 104.744 61.6115 107.039 57.5487C109.361 53.486 111.733 49.562 114.159 45.8163C116.608 42.1598 119.098 38.7213 121.633 35.5603C124.186 32.5578 126.776 29.8626 129.397 27.5042C132.032 25.3638 134.694 23.5901 137.374 22.2028C140.068 21.0533 142.78 20.2903 145.496 19.9038C148.227 19.7651 150.961 19.9732 153.696 20.538C156.435 21.2812 159.174 22.3217 161.904 23.6495C164.634 25.0467 167.355 26.6718 170.063 28.4654" stroke="url(#paint0_linear_258_2)" stroke-width="1.5" stroke-linecap="round"/>
<path opacity="0.09" d="M178.7 40.9698C182.451 44.3072 189.778 51.0358 193.364 54.2495C196.926 57.0921 203.928 61.9946 207.379 64.0162C212.02 65.9165 216.611 67.5313 221.184 68.9746C225.884 69.8507 230.637 70.9531 235.484 72.4868C240.538 74.1205 245.774 76.6157 251.234 80.1074C256.969 84.2556 262.984 89.6373 269.291 96.284C275.854 103.773 282.669 112.491 289.659 122.309C296.715 132.82 303.752 144.194 310.592 156.223C317.1 168.561 323.065 181.245 328.251 194.102C332.619 206.847 335.876 219.507 337.847 231.986C338.726 244.084 338.254 255.893 336.469 267.407C333.892 278.497 330.409 289.372 326.326 300.098C322.391 310.579 318.628 321.095 315.468 331.779C313.591 342.446 312.985 353.47 313.861 364.932C314.967 370.728 316.456 376.64 318.314 382.686C320.561 388.77 323.113 394.979 325.925 401.325C328.996 407.69 332.212 414.176 335.507 420.773C338.861 427.379 342.153 434.075 345.297 440.848C348.274 447.607 350.928 454.347 353.197 461.06C355.116 467.731 356.561 474.352 357.493 480.916C357.973 487.423 357.905 493.859 357.298 500.225C356.23 506.512 354.646 512.723 352.578 518.852C347.308 530.882 340.618 542.563 332.995 553.837C324.999 564.817 316.972 575.326 309.342 585.238C302.517 594.793 296.658 603.588 291.899 611.453C285.952 633.762 286.854 636.329 285.474 635.072C283.831 635.751 281.391 637.614 278.182 641.121C274.457 647.054 270.041 655.149 265.037 665.51C259.655 678.249 253.83 692.819 247.691 708.683C241.369 725.345 234.894 741.795 228.379 757.057C221.866 770.462 215.434 780.86 209.167 787.399C206.078 789.235 203.039 789.926 200.054 789.444C197.105 787.943 194.21 785.289 191.377 781.512C188.572 776.855 185.824 771.223 183.126 764.714C180.45 757.653 177.816 749.972 175.22 741.82C172.626 733.559 170.094 725.248 167.612 717.063C165.118 709.244 162.662 701.838 160.239 694.973C157.788 688.849 155.365 683.464 152.957 678.885C150.515 675.265 148.082 672.531 145.666 670.692C140.697 669.975 135.772 672.393 130.878 677.318C125.828 684.643 120.829 692.81 115.896 700.878C110.852 708.741 105.893 714.858 101.022 718.615C96.0839 720.276 91.2508 718.854 86.5183 714.338C81.7596 707.305 77.1152 697.468 72.6034 685.268C68.1101 671.302 63.7829 655.792 59.6464 639.267C55.6017 622.13 51.8047 604.772 48.2933 587.585C44.9504 570.682 41.9339 554.393 39.2753 538.872C36.8133 524.045 34.7071 510.057 32.9666 496.877C31.3637 484.393 30.0726 472.551 29.0699 461.229C28.0838 450.396 27.3114 439.853 26.7299 429.457C26.0403 419.323 25.475 409.139 25.0364 398.824C24.6263 391.105 23.8786 375.381 23.5555 367.348C23.2077 359.232 22.6789 342.607 22.5208 334.091C22.3956 325.541 22.4903 308.452 22.7231 299.935C23.0682 291.465 24.2381 274.734 25.0799 266.516C26.3844 255.695 28.0884 245.182 30.1753 235.073C32.4331 225.168 35.0482 215.763 37.9775 206.921C40.9942 198.341 44.2503 190.392 47.6898 183.125C51.077 176.079 54.5567 169.713 58.084 164.009C61.4447 158.399 64.7973 153.345 68.1342 148.794C71.2582 144.073 74.3772 139.66 77.504 135.436C80.4597 130.719 83.4847 125.964 86.6095 121.074C89.6574 115.438 92.8735 109.509 96.2716 103.279C99.6896 96.268 103.338 89.0028 107.215 81.5728C111.155 73.6855 115.337 65.9333 119.726 58.5297C124.184 51.2554 128.827 44.7437 133.621 39.2375C138.452 34.4519 143.395 31.004 148.407 29.0164C152.181 28.2652 159.759 28.9724 163.556 30.3701C166.087 31.5799 168.618 33.0777 171.14 34.8424C173.664 36.6968 176.182 38.7489 178.695 40.9691" stroke="url(#paint1_linear_258_2)" stroke-width="1.5" stroke-linecap="round"/>
<path opacity="0.12" d="M187.782 54.6903C192.435 59.7778 197.014 65.0233 201.524 70.1982C206.095 74.6212 210.642 78.6969 215.177 82.3692C219.821 85.1039 224.498 87.5382 229.238 89.7713C234.124 91.418 239.12 93.2173 244.244 95.3848C249.56 97.5496 255.047 100.486 260.725 104.338C266.593 108.728 272.658 114.297 278.891 121.055C285.24 128.598 291.679 137.339 298.11 147.157C304.444 157.646 310.568 169.012 316.316 181.037C321.606 193.375 326.232 206.075 330.003 218.91C332.952 231.651 334.814 244.267 335.475 256.625C335.193 268.622 333.743 280.261 331.204 291.525C328.108 302.413 324.332 313.039 320.183 323.473C316.339 333.798 312.793 344.192 309.912 354.784C308.271 365.587 307.821 376.833 308.716 388.601C311.188 400.749 314.926 413.455 319.702 426.7C325.338 440.161 331.218 453.965 336.807 467.953C341.803 481.763 345.421 495.153 347.329 507.983C347.64 520.307 345.985 531.934 342.477 542.82C337.514 553.171 331.186 562.806 323.907 571.707C316.166 580.221 308.253 588.062 300.566 595.202C293.474 602.058 287.164 608.188 281.799 613.469C271.97 628.241 271.291 631.409 270.346 632.327C269.131 634.635 267.187 638.136 264.5 643.196C261.313 650.406 257.401 659.461 252.841 670.333C247.871 683.083 242.385 697.119 236.514 711.91C230.443 727.032 224.168 741.543 217.824 754.593C211.525 765.686 205.324 773.799 199.317 778.238C193.508 779.127 187.972 775.787 182.73 768.253C177.686 757.629 172.877 743.904 168.271 727.949C163.685 711.591 159.255 695.599 154.91 681.042C150.385 669.062 145.83 659.913 141.213 653.886C136.326 651.44 131.363 651.91 126.336 654.792C121.081 660.066 115.821 666.389 110.588 672.939C105.243 679.667 99.9987 685.144 94.8834 688.78C89.7724 690.806 84.8341 690.214 80.0938 686.891C75.428 681.35 70.9777 673.162 66.7637 662.655C62.6743 650.375 58.8332 636.389 55.2663 621.164C51.8618 605.098 48.752 588.489 45.9619 571.746C43.3687 555.001 41.1074 538.585 39.1965 522.714C37.4673 507.307 36.0697 492.599 35.0058 478.631C34.0481 465.234 33.3655 452.489 32.9335 440.35C32.4886 428.636 32.2194 417.334 32.1043 406.349C31.861 395.586 31.7149 384.951 31.6562 374.382C31.4104 363.878 31.2421 353.307 31.1754 342.646C30.9407 331.965 30.8473 321.146 30.9254 310.218C30.9452 299.273 31.2201 288.494 31.7694 277.937C32.3882 267.44 33.3606 257.219 34.6848 247.373C36.175 237.656 38.0537 228.385 40.3079 219.626C42.7332 211.059 45.5072 203.065 48.585 195.701C51.7654 188.529 55.1709 182.003 58.7552 176.131C62.3091 170.38 65.9545 165.216 69.6413 160.635C73.1856 155.991 76.7215 151.774 80.2398 147.913C83.5629 143.733 86.8665 139.717 90.1659 135.77C93.3051 131.236 96.4844 126.573 99.7356 121.712C102.906 116.096 106.208 110.2 109.664 104.039C113.114 97.167 116.757 90.1323 120.59 83.0544C124.464 75.6283 128.537 68.4518 132.783 61.7367C137.06 55.2511 141.49 49.6111 146.032 45.0445C150.573 41.2277 155.2 38.7466 159.868 37.728C164.509 37.6516 169.175 39.0224 173.842 41.7539C178.479 45.1263 183.126 49.502 187.777 54.689" stroke="url(#paint2_linear_258_2)" stroke-width="1.5" stroke-linecap="round"/>
<path opacity="0.16" d="M197.347 70.0421C201.648 75.7945 205.928 81.7099 210.208 87.5846C214.569 92.747 218.978 97.5972 223.453 102.093C228.063 105.688 232.775 108.995 237.609 112.094C242.601 114.587 247.731 117.192 253.011 120.078C258.45 122.893 264.03 126.369 269.749 130.636C275.58 135.338 281.506 141.084 287.475 147.902C293.43 155.402 299.319 163.995 305.037 173.573C310.522 183.755 315.634 194.74 320.236 206.324C324.302 218.193 327.62 230.383 330.05 242.658C331.695 254.853 332.308 266.906 331.833 278.661C330.581 290.107 328.34 301.188 325.229 311.876C321.757 322.321 317.821 332.517 313.696 342.567C309.987 352.672 306.673 362.915 304.041 373.425C302.592 384.367 302.239 395.803 303.09 407.832C305.335 420.408 308.667 433.575 312.87 447.226C317.803 461.186 322.911 475.356 327.737 489.531C332.025 503.453 335.094 516.663 336.654 528.982C336.808 540.646 335.201 551.243 331.934 560.739C327.331 569.521 321.447 577.26 314.624 583.999C307.277 590.26 299.663 595.671 292.131 600.27C285.006 604.667 278.485 608.356 272.755 611.328C267.959 614.256 264.094 616.491 261.131 618.008C257.548 621.088 256.361 624.833 255.381 628.054C254.269 631.985 252.516 637.073 250.075 643.551C247.185 651.901 243.589 661.734 239.342 672.932C234.704 685.523 229.542 698.899 223.966 712.544C218.217 726.112 212.26 738.745 206.232 749.677C200.293 758.626 194.472 764.664 188.868 767.228C183.542 766.557 178.507 762.053 173.801 753.78C169.347 742.788 165.136 729.022 161.125 713.242C157.143 697.1 153.264 681.238 149.397 666.575C145.306 654.138 141.09 644.154 136.712 636.92C131.995 632.882 127.101 631.496 122.048 632.396C116.72 635.61 111.318 640.005 105.899 644.878C100.36 650.233 94.9162 654.781 89.6199 657.959C84.3703 660.005 79.3481 659.887 74.5947 657.461C69.9949 653.162 65.704 646.473 61.7394 637.604C57.9848 627.049 54.5739 614.767 51.5135 601.125C48.6835 586.514 46.2078 571.143 44.0969 555.389C42.2117 539.404 40.6767 523.485 39.4957 507.887C38.4911 492.531 37.8025 477.702 37.4164 463.494C37.1172 449.691 37.0511 436.508 37.1978 423.917C37.308 411.663 37.5547 399.876 37.9159 388.494C38.1264 377.288 38.3966 366.33 38.7214 355.58C38.8398 344.858 39.0016 334.216 39.2298 323.655C39.2821 313.045 39.4419 302.473 39.7447 291.956C39.9809 281.408 40.4448 271.196 41.1558 261.358C41.9414 251.564 43.0503 242.219 44.4977 233.361C46.1128 224.639 48.0973 216.468 50.4359 208.911C52.9572 201.528 55.8086 194.77 58.9534 188.68C62.2152 182.723 65.7048 177.396 69.3572 172.698C73.0229 168.006 76.7779 163.84 80.5849 160.153C84.2902 156.268 87.9973 152.708 91.6833 149.371C95.2201 145.602 98.7382 141.886 102.246 138.135C105.612 133.723 109.008 129.142 112.459 124.323C115.822 118.756 119.293 112.945 122.882 106.903C126.44 100.261 130.155 93.5269 134.022 86.8516C137.888 79.943 141.905 73.396 146.063 67.4086C150.193 61.722 154.442 56.9387 158.765 53.2719C163.036 50.3604 167.36 48.7982 171.707 48.6629C175.978 49.434 180.266 51.5891 184.553 55.0793C188.791 59.1441 193.051 64.2003 197.343 70.0401" stroke="url(#paint3_linear_258_2)" stroke-width="1.5" stroke-linecap="round"/>
<path opacity="0.2" d="M207.266 87.3989C211.224 93.7322 215.215 100.25 219.247 106.773C223.383 112.628 227.621 118.237 231.979 123.538C236.492 127.987 241.155 132.178 245.967 136.161C250.95 139.538 256.082 142.974 261.35 146.628C266.751 150.125 272.254 154.157 277.826 158.859C283.434 163.84 289.042 169.705 294.571 176.489C299.987 183.791 305.198 192.037 310.099 201.134C314.671 210.7 318.751 220.955 322.223 231.703C325.123 242.681 327.24 253.902 328.474 265.174C328.988 276.377 328.557 287.419 327.166 298.165C325.153 308.698 322.333 318.905 318.836 328.783C315.154 338.559 311.177 348.167 307.16 357.729C303.636 367.518 300.557 377.547 298.162 387.931C296.867 398.92 296.564 410.481 297.326 422.649C299.294 435.518 302.194 448.944 305.82 462.809C310.054 477.025 314.409 491.334 318.5 505.462C322.119 519.303 324.664 532.184 325.91 543.925C325.919 554.874 324.394 564.49 321.393 572.725C317.186 580.115 311.797 586.211 305.519 591.087C298.675 595.414 291.496 598.746 284.287 601.206C277.317 603.492 270.788 605.121 264.888 606.134C259.733 607.322 255.378 608.039 251.827 608.35C246.114 610.299 242.288 617.097 240.834 622.457C239.533 627.797 237.682 634.242 235.232 641.877C232.398 651.088 228.929 661.415 224.856 672.702C220.456 684.942 215.561 697.509 210.282 709.925C204.891 721.954 199.316 732.77 193.687 741.754C188.216 748.757 182.878 752.939 177.783 753.876C173.015 751.915 168.559 746.462 164.438 737.643C160.606 726.47 157.019 712.791 153.605 697.296C150.234 681.476 146.909 665.839 143.536 651.179C139.915 638.427 136.089 627.762 132.023 619.47C127.57 613.998 122.857 610.898 117.919 609.904C112.656 611.129 107.256 613.577 101.795 616.687C96.1993 620.528 90.6792 623.922 85.3055 626.386C79.9986 628.14 74.951 628.189 70.2187 626.353C65.6989 623.031 61.5518 617.632 57.8001 610.272C54.3358 601.43 51.2834 590.906 48.6577 579.025C46.3202 566.137 44.3984 552.35 42.8848 538.019C41.6258 523.276 40.7415 508.402 40.2188 493.644C39.8763 478.913 39.8408 464.544 40.0859 450.633C40.3996 436.96 40.925 423.805 41.6178 411.185C42.264 398.783 43.0014 386.847 43.8162 375.34C44.4724 363.931 45.1447 352.841 45.8366 342.04C46.3153 331.213 46.8016 320.586 47.3152 310.15C47.6492 299.646 48.0573 289.3 48.5762 279.156C49.0253 268.969 49.6602 259.244 50.5124 250.032C51.44 240.856 52.658 232.247 54.18 224.244C55.8756 216.357 57.9165 209.122 60.2817 202.557C62.8443 196.143 65.7167 190.401 68.8693 185.343C72.1628 180.36 75.6745 175.993 79.3576 172.204C83.0853 168.359 86.921 164.961 90.8183 161.929C94.6637 158.639 98.5285 155.567 102.396 152.62C106.15 149.161 109.902 145.681 113.65 142.085C117.285 137.824 120.943 133.341 124.645 128.627C128.266 123.216 131.962 117.583 135.745 111.787C139.485 105.482 143.334 99.1701 147.289 93.0161C151.206 86.7253 155.226 80.878 159.33 75.6677C163.369 70.8192 167.472 66.9144 171.609 64.1414C175.646 62.1201 179.699 61.4147 183.744 62.1033C187.687 63.6347 191.623 66.5096 195.553 70.656C199.415 75.337 203.311 80.9743 207.262 87.3962" stroke="url(#paint4_linear_258_2)" stroke-width="1.5" stroke-linecap="round"/>
<path opacity="0.23" d="M217.238 106.975C220.87 113.819 224.554 120.88 228.315 127.97C232.191 134.466 236.207 140.776 240.372 146.821C244.706 152.084 249.208 157.117 253.876 161.954C258.705 166.178 263.684 170.425 268.772 174.807C273.961 178.942 279.209 183.489 284.454 188.539C289.681 193.722 294.814 199.61 299.765 206.208C304.533 213.161 308.989 220.86 313.025 229.223C316.686 237.917 319.78 247.141 322.203 256.741C324.068 266.489 325.146 276.408 325.376 286.336C324.981 296.202 323.74 305.921 321.674 315.383C319.136 324.734 315.953 333.85 312.266 342.724C308.525 351.662 304.635 360.57 300.813 369.53C297.511 378.911 294.681 388.636 292.516 398.809C291.339 409.734 291.049 421.278 291.69 433.456C293.363 446.418 295.817 459.909 298.876 473.76C302.43 488.004 306.07 502.219 309.468 516.112C312.452 529.685 314.523 542.123 315.475 553.238C315.362 563.501 313.927 572.219 311.204 579.378C307.405 585.603 302.541 590.356 296.845 593.742C290.573 596.517 283.923 598.213 277.157 598.989C270.477 599.621 264.09 599.628 258.176 599.148C252.814 598.968 248.1 598.53 244.067 597.955C239.323 598.061 233.188 600.406 231.09 603.339C229.884 606.697 228.552 610.809 226.952 615.807C225.211 622.219 223.029 629.628 220.351 638.029C217.376 647.705 213.862 658.184 209.828 669.239C205.559 680.881 200.869 692.482 195.865 703.588C190.825 714.079 185.65 723.173 180.471 730.352C175.514 735.622 170.717 738.199 166.187 737.756C162.023 734.747 158.178 728.591 154.668 719.414C151.469 708.218 148.501 694.783 145.687 679.681C142.924 664.292 140.156 648.994 137.298 634.467C134.179 621.547 130.795 610.365 127.12 601.198C123.033 594.487 118.625 589.862 113.929 587.137C108.879 586.483 103.645 587.063 98.3046 588.422C92.8048 590.678 87.3505 592.801 82.0355 594.359C76.7848 595.578 71.8052 595.534 67.1585 594.024C62.747 591.413 58.7595 587.07 55.2139 581.06C51.9952 573.799 49.249 565.011 46.9806 554.931C45.0466 543.911 43.5734 531.943 42.5428 519.318C41.7972 506.209 41.4527 492.789 41.4788 479.307C41.6908 465.717 42.2057 452.275 42.9905 439.158C43.8365 426.108 44.8674 413.432 46.0469 401.207C47.1596 389.067 48.3424 377.328 49.5664 365.988C50.624 354.667 51.6675 343.672 52.6999 332.983C53.5163 322.232 54.3078 311.726 55.0958 301.479C55.7067 291.138 56.3543 281.046 57.08 271.245C57.7373 261.391 58.5392 252.101 59.5244 243.403C60.5796 234.749 61.8848 226.75 63.4674 219.417C65.2183 212.202 67.2819 205.702 69.6456 199.905C72.2089 194.242 75.0723 189.282 78.1958 184.974C81.4824 180.729 84.9909 177.076 88.6761 173.936C92.4437 170.703 96.3317 167.857 100.306 165.308C104.279 162.443 108.295 159.726 112.336 157.061C116.317 153.877 120.308 150.605 124.312 147.186C128.238 143.119 132.185 138.836 136.166 134.338C140.077 129.208 144.039 123.907 148.06 118.505C152.017 112.697 156.04 106.959 160.125 101.46C164.136 95.9132 168.195 90.8762 172.287 86.5269C176.269 82.5651 180.261 79.5784 184.246 77.7103C188.086 76.5606 191.902 76.695 195.684 78.1695C199.328 80.4098 202.943 83.9308 206.548 88.683C210.068 93.8959 213.62 100.047 217.234 106.972" stroke="url(#paint5_linear_258_2)" stroke-width="1.5" stroke-linecap="round" stroke-dasharray="1 1"/>
<path opacity="0.27" d="M226.864 128.75C230.166 136.023 233.528 143.536 236.984 151.127C240.562 158.175 244.289 165.093 248.172 171.801C252.23 177.79 256.464 183.566 260.847 189.16C265.393 194.13 270.057 199.071 274.803 204.078C279.63 208.751 284.457 213.695 289.222 218.979C293.936 224.248 298.474 230.008 302.753 236.281C306.817 242.717 310.489 249.691 313.683 257.133C316.482 264.752 318.675 272.74 320.191 280.976C321.186 289.281 321.429 297.689 320.891 306.052C319.83 314.386 318.023 322.601 315.531 330.634C312.7 338.651 309.371 346.545 305.674 354.328C302.031 362.336 298.339 370.438 294.783 378.733C291.758 387.613 289.193 396.938 287.244 406.799C286.177 417.523 285.884 428.9 286.384 440.916C287.751 453.769 289.772 467.109 292.285 480.76C295.202 494.792 298.171 508.711 300.931 522.207C303.326 535.359 304.951 547.279 305.636 557.775C305.413 567.373 304.066 575.33 301.616 581.623C298.213 586.933 293.87 590.678 288.764 592.982C283.081 594.634 277 595.146 270.734 594.74C264.431 594.179 258.291 593.06 252.468 591.539C247.016 590.388 242.06 589.153 237.633 587.986C233.722 587.585 230.319 587.488 227.348 587.809C224.777 589.199 222.471 591.203 220.307 593.913C218.296 597.901 216.214 602.727 213.951 608.442C211.605 615.458 208.924 623.346 205.853 632.033C202.583 641.729 198.89 651.945 194.795 662.419C190.56 673.203 186.012 683.65 181.245 693.351C176.526 702.309 171.749 709.756 167.029 715.261C162.58 718.992 158.341 720.181 154.385 718.604C150.83 714.772 147.602 708.129 144.699 698.783C142.122 687.736 139.758 674.656 137.538 660.072C135.363 645.228 133.16 630.38 130.828 616.111C128.235 603.193 125.349 591.682 122.133 581.847C118.499 574.131 114.506 568.214 110.186 563.975C105.498 561.633 100.576 560.496 95.5204 560.193C90.2754 560.899 85.0493 561.708 79.9324 562.265C74.8656 562.793 70.0609 562.467 65.5895 561.052C61.3551 558.911 57.5482 555.403 54.2178 550.531C51.2216 544.689 48.7334 537.524 46.7595 529.203C45.1317 520.053 43.9959 509.985 43.3401 499.236C42.9754 487.963 43.0326 476.278 43.4705 464.39C44.0998 452.283 45.0339 440.182 46.2318 428.222C47.485 416.206 48.9149 404.421 50.4726 392.939C51.9648 381.44 53.5073 370.236 55.0686 359.362C56.4632 348.407 57.8308 337.739 59.1553 327.366C60.2714 316.871 61.3433 306.627 62.384 296.666C63.2526 286.575 64.133 276.776 65.0588 267.322C65.9157 257.792 66.8846 248.896 67.9976 240.622C69.1749 232.397 70.5713 224.864 72.2017 218.048C73.9976 211.344 76.0786 205.372 78.4324 200.122C80.9867 195.006 83.8209 190.574 86.9076 186.79C90.1723 183.055 93.6605 179.865 97.334 177.162C101.126 174.334 105.057 171.852 109.098 169.614C113.186 167.064 117.344 164.612 121.552 162.175C125.746 159.239 129.973 156.205 134.232 153.017C138.442 149.244 142.676 145.278 146.941 141.126C151.144 136.439 155.378 131.643 159.643 126.82C163.828 121.675 168.041 116.686 172.27 111.992C176.39 107.325 180.504 103.213 184.6 99.8188C188.553 96.8283 192.465 94.7927 196.313 93.8615C199.991 93.5906 203.605 94.5437 207.141 96.7717C210.52 99.6938 213.849 103.821 217.144 109.101C220.347 114.793 223.574 121.391 226.86 128.746" stroke="url(#paint6_linear_258_2)" stroke-width="1.5" stroke-linecap="round" stroke-dasharray="1 1"/>
<path opacity="0.31" d="M235.66 152.407C238.628 160.039 241.649 167.92 244.757 175.887C247.991 183.383 251.363 190.79 254.878 198.022C258.576 204.59 262.42 210.966 266.4 217.151C270.535 222.727 274.754 228.222 279.017 233.686C283.348 238.749 287.634 243.939 291.804 249.299C295.907 254.507 299.784 260.007 303.353 265.796C306.691 271.593 309.605 277.716 312.013 284.107C314.048 290.546 315.481 297.202 316.252 303.961C316.575 310.74 316.204 317.543 315.132 324.293C313.646 331.047 311.528 337.715 308.844 344.272C305.94 350.939 302.658 357.592 299.122 364.262C295.707 371.302 292.312 378.586 289.098 386.185C286.385 394.492 284.107 403.332 282.379 412.788C281.412 423.166 281.109 434.234 281.47 445.925C282.547 458.475 284.155 471.476 286.164 484.727C288.481 498.357 290.839 511.81 293.011 524.776C294.871 537.403 296.088 548.751 296.525 558.644C296.194 567.641 294.92 574.968 292.715 580.614C289.678 585.27 285.813 588.329 281.262 589.948C276.16 590.872 270.644 590.674 264.887 589.548C258.998 588.272 253.157 586.462 247.489 584.332C242.035 582.588 236.917 580.875 232.184 579.361C227.811 578.663 223.818 578.425 220.17 578.763C216.826 580.212 213.706 582.402 210.715 585.407C207.86 589.633 204.975 594.727 201.974 600.682C198.939 607.78 195.666 615.626 192.121 624.09C188.464 633.331 184.514 642.867 180.292 652.41C176.021 662.053 171.566 671.156 166.996 679.36C162.557 686.744 158.151 692.604 153.874 696.57C149.917 698.912 146.21 698.917 142.815 696.398C139.837 691.953 137.195 684.998 134.879 675.658C132.884 664.886 131.097 652.296 129.441 638.328C127.837 624.139 126.183 609.86 124.39 595.994C122.34 583.244 119.987 571.612 117.294 561.336C114.187 552.868 110.705 545.929 106.883 540.435C102.675 536.669 98.2156 534.015 93.5879 532.229C88.7502 531.488 83.8947 531.039 79.1246 530.575C74.3694 530.351 69.8522 529.591 65.651 528.117C61.6587 526.231 58.0912 523.34 54.9895 519.402C52.2097 514.766 49.9443 509.048 48.2031 502.359C46.8 494.99 45.9101 486.784 45.5063 477.919C45.393 468.557 45.7079 458.739 46.4158 448.616C47.3116 438.214 48.5145 427.677 49.9788 417.156C51.4989 406.463 53.1929 395.854 55.0098 385.416C56.7604 374.848 58.5587 364.468 60.3682 354.3C62.0141 343.983 63.6286 333.864 65.1911 323.987C66.5558 313.933 67.8647 304.095 69.1255 294.526C70.2249 284.798 71.3188 275.353 72.4333 266.255C73.4893 257.08 74.6213 248.536 75.8637 240.628C77.1626 232.762 78.6528 225.6 80.3443 219.144C82.1933 212.819 84.2922 207.21 86.6411 202.316C89.1922 197.56 92.0016 193.461 95.0533 189.98C98.3015 186.552 101.768 183.648 105.427 181.183C109.237 178.619 113.201 176.352 117.303 174.327C121.484 172.003 125.763 169.766 130.121 167.539C134.505 164.874 138.944 162.126 143.425 159.246C147.89 155.869 152.388 152.352 156.907 148.702C161.373 144.625 165.854 140.509 170.333 136.423C174.729 132.123 179.106 128.036 183.458 124.297C187.678 120.636 191.848 117.562 195.944 115.21C199.867 113.252 203.703 112.222 207.425 112.245C210.959 112.87 214.382 114.64 217.696 117.591C220.834 121.159 223.897 125.845 226.897 131.607C229.797 137.726 232.705 144.7 235.656 152.403" stroke="url(#paint7_linear_258_2)" stroke-width="1.5" stroke-linecap="round" stroke-dasharray="1 1"/>
<path opacity="0.34" d="M243.172 177.361C245.793 185.255 248.449 193.381 251.171 201.616C254.016 209.423 256.975 217.162 260.05 224.751C263.301 231.739 266.675 238.531 270.144 245.113C273.768 251.112 277.445 256.96 281.12 262.679C284.864 267.957 288.525 273.229 292.033 278.497C295.479 283.51 298.668 288.611 301.53 293.826C304.18 298.901 306.394 304.12 308.116 309.417C309.92 317.312 310.009 333.21 308.253 341.056C306.566 346.286 304.356 351.497 301.691 356.688C298.904 362.066 295.834 367.556 292.597 373.185C289.522 379.305 286.503 385.777 283.679 392.692C281.314 400.383 279.34 408.693 277.838 417.672C276.977 427.587 276.662 438.211 276.897 449.453C277.705 461.519 278.94 474.01 280.485 486.723C282.266 499.771 284.068 512.626 285.703 524.972C287.078 536.976 287.919 547.732 288.119 557.066C287.675 565.529 286.449 572.372 284.442 577.574C281.714 581.802 278.275 584.481 274.217 585.755C269.637 586.33 264.641 585.802 259.376 584.387C253.898 582.785 248.37 580.676 242.891 578.309C237.493 576.28 232.288 574.343 227.321 572.673C222.572 571.787 218.085 571.431 213.837 571.726C209.803 573.066 205.932 575.199 202.167 578.155C198.514 582.242 194.849 587.158 191.122 592.858C187.402 599.53 183.538 606.82 179.504 614.571C175.444 622.899 171.215 631.341 166.836 639.632C162.507 647.86 158.111 655.446 153.716 662.05C149.527 667.849 145.453 672.156 141.586 674.677C138.076 675.77 134.864 674.745 131.994 671.463C129.541 666.554 127.436 659.443 125.658 650.242C124.195 639.845 122.939 627.849 121.809 614.594C120.734 601.157 119.61 587.552 118.343 574.233C116.838 561.816 115.042 550.264 112.913 539.802C110.382 530.857 107.488 523.17 104.247 516.739C100.627 511.821 96.7392 507.927 92.6665 504.878C88.3588 502.873 84.0071 501.296 79.7081 499.892C75.3863 498.898 71.2645 497.658 67.4239 496.014C63.749 494.229 60.4676 491.747 57.6317 488.533C55.0761 484.879 53.0145 480.394 51.4629 475.134C50.223 469.359 49.483 462.866 49.2319 455.79C49.2473 448.267 49.6963 440.285 50.5337 431.97C51.5455 423.33 52.8726 414.468 54.4619 405.5C56.1028 396.288 57.9217 387.044 59.8659 377.826C61.7504 368.403 63.6877 359.037 65.6397 349.772C67.4448 340.29 69.2196 330.919 70.9445 321.69C72.4922 312.239 73.9853 302.948 75.4262 293.866C76.7209 284.603 78.0046 275.592 79.2997 266.884C80.5326 258.095 81.8233 249.903 83.206 242.318C84.6338 234.78 86.2227 227.906 87.9923 221.721C89.9017 215.662 92.0384 210.296 94.4008 205.609C96.9575 201.063 99.7578 197.149 102.789 193.818C106.018 190.56 109.473 187.786 113.126 185.447C116.94 183.019 120.933 180.907 125.075 179.003C129.326 176.874 133.701 174.836 138.171 172.833C142.702 170.48 147.303 168.082 151.961 165.609C156.624 162.737 161.322 159.795 166.033 156.789C170.702 153.473 175.366 150.174 180.003 146.991C184.552 143.667 189.05 140.625 193.478 137.952C197.763 135.414 201.947 133.451 206.015 132.201C209.893 131.327 213.634 131.336 217.224 132.315C220.609 133.846 223.847 136.409 226.935 140.071C229.851 144.245 232.651 149.449 235.362 155.633C237.971 162.124 240.563 169.39 243.168 177.356" stroke="url(#paint8_linear_258_2)" stroke-width="1.5" stroke-linecap="round"/>
<path opacity="0.38" d="M248.997 202.786C251.26 210.827 253.532 219.085 255.83 227.432C258.254 235.404 260.754 243.31 263.336 251.064C266.086 258.276 268.921 265.291 271.82 272.054C274.867 278.269 277.932 284.27 280.967 290.055C284.075 295.371 287.071 300.553 289.899 305.6C292.68 310.295 295.202 314.934 297.392 319.502C300.221 326 303.251 338.561 303.279 344.613C302.35 350.509 297.63 362.197 294.099 368.167C291.572 372.432 288.838 376.912 286 381.645C283.345 386.935 280.763 392.687 278.359 398.953C276.367 406.043 274.697 413.805 273.424 422.259C272.68 431.641 272.366 441.717 272.483 452.403C273.062 463.856 273.957 475.706 275.087 487.757C276.397 500.109 277.7 512.257 278.853 523.921C279.781 535.254 280.275 545.402 280.239 554.211C279.679 562.205 278.467 568.673 276.596 573.602C274.12 577.605 271.023 580.141 267.376 581.352C263.249 581.867 258.718 581.328 253.878 579.955C248.79 578.337 243.567 576.244 238.294 573.908C232.994 571.844 227.757 569.864 222.637 568.173C217.617 567.154 212.741 566.656 208.012 566.806C203.409 567.875 198.906 569.702 194.48 572.311C190.139 575.883 185.799 580.208 181.441 585.217C177.117 591.017 172.729 597.311 168.266 603.925C163.849 610.949 159.369 617.962 154.866 624.72C150.483 631.325 146.152 637.234 141.925 642.178C137.958 646.359 134.199 649.152 130.704 650.318C127.599 650.253 124.827 648.315 122.427 644.419C120.438 639.168 118.81 632.013 117.511 623.052C116.513 613.112 115.731 601.773 115.083 589.308C114.49 576.687 113.859 563.873 113.105 551.221C112.126 539.304 110.881 528.03 109.333 517.614C107.41 508.46 105.139 500.336 102.544 493.264C99.5731 487.504 96.3348 482.665 92.9109 478.631C89.2291 475.594 85.4805 473.059 81.7539 470.835C77.9591 469.137 74.3218 467.413 70.9264 465.538C67.6335 463.724 64.693 461.516 62.1526 458.82C58.9025 454.157 55.1418 441.423 54.6379 433.435C54.6885 427.587 55.1562 421.301 56.0124 414.665C57.0165 407.723 58.3329 400.497 59.9142 393.082C61.5448 385.393 63.3555 377.555 65.3067 369.642C67.1991 361.446 69.1599 353.209 71.156 344.965C73.0153 336.44 74.863 327.934 76.6788 319.475C78.3337 310.759 79.9526 302.12 81.5299 293.611C82.9745 284.912 84.4147 276.4 85.8687 268.138C87.2632 259.786 88.7039 251.963 90.2195 244.702C91.78 237.474 93.4789 230.868 95.3324 224.885C97.3179 219.044 99.5046 213.836 101.9 209.274C104.479 204.846 107.283 201.029 110.313 197.751C113.533 194.57 116.974 191.859 120.621 189.559C124.431 187.231 128.432 185.206 132.595 183.404C136.88 181.462 141.308 179.643 145.843 177.903C150.459 175.911 155.155 173.931 159.914 171.941C164.691 169.688 169.504 167.428 174.324 165.179C179.105 162.725 183.864 160.372 188.582 158.184C193.198 155.951 197.734 154.018 202.169 152.488C206.445 151.125 210.591 150.326 214.577 150.2C218.37 150.434 221.985 151.469 225.413 153.395C228.634 155.8 231.672 159.136 234.528 163.439C237.206 168.196 239.746 173.852 242.16 180.383C244.482 187.17 246.75 194.661 248.996 202.772" stroke="url(#paint9_linear_258_2)" stroke-width="1.5" stroke-linecap="round" stroke-dasharray="2 2"/>
<path opacity="0.42" d="M252.865 227.699C254.761 235.78 256.626 244.037 258.487 252.337C260.464 260.321 262.48 268.219 264.541 275.943C266.764 283.2 269.03 290.228 271.33 296.973C273.769 303.2 276.199 309.167 278.579 314.844C281.041 320.042 283.379 324.996 285.547 329.714C288.649 336.101 293.23 347.496 294.484 352.578C294.322 361.58 289.178 374.413 286.064 378.946C283.899 382.338 281.59 386.011 279.205 390.033C277.014 394.651 274.887 399.789 272.915 405.504C271.296 412.045 269.933 419.266 268.876 427.189C268.249 435.984 267.946 445.464 267.965 455.523C268.34 466.274 268.944 477.4 269.705 488.701C270.595 500.268 271.457 511.644 272.174 522.589C272.708 533.21 272.876 542.755 272.609 551.078C271.909 558.65 270.672 564.833 268.882 569.61C266.588 573.512 263.754 576.082 260.43 577.422C256.673 578.075 252.525 577.748 248.057 576.63C243.315 575.231 238.382 573.37 233.317 571.251C228.15 569.297 222.947 567.394 217.753 565.735C212.572 564.609 207.44 563.936 202.365 563.835C197.349 564.488 192.382 565.799 187.458 567.784C182.596 570.564 177.752 573.975 172.913 577.927C168.133 582.52 163.352 587.466 158.579 592.629C153.903 598.065 149.26 603.408 144.7 608.436C140.316 613.267 136.077 617.423 132.037 620.672C128.293 623.232 124.824 624.556 121.684 624.464C118.931 623.323 116.554 620.578 114.569 616.168C112.985 610.657 111.766 603.537 110.884 594.887C110.28 585.451 109.907 574.82 109.685 563.195C109.511 551.438 109.324 539.481 109.039 527.617C108.559 516.327 107.845 505.515 106.87 495.378C105.543 486.261 103.909 477.978 101.982 470.567C99.6917 464.284 97.1508 458.808 94.4205 454.067C91.4231 450.256 88.3393 446.979 85.2492 444.099C82.0484 441.787 78.965 439.631 76.07 437.502C71.941 434.549 65.5667 427.403 63.5116 422.884C62.1886 417.642 61.9614 404.735 62.9465 397.181C63.8519 391.739 65.0624 386.006 66.5289 380.036C68.0383 373.761 69.7378 367.286 71.5864 360.627C73.3851 353.678 75.2733 346.58 77.2112 339.379C79.0404 331.872 80.8783 324.279 82.7113 316.652C84.4017 308.748 86.0821 300.84 87.749 292.984C89.2958 284.917 90.8517 276.967 92.4356 269.194C93.97 261.334 95.5456 253.915 97.1906 246.988C98.8759 240.093 100.682 233.755 102.635 227.967C104.698 222.322 106.951 217.267 109.391 212.781C111.997 208.46 114.82 204.687 117.852 201.435C121.066 198.31 124.491 195.636 128.117 193.351C131.908 191.105 135.887 189.174 140.032 187.485C144.31 185.752 148.726 184.183 153.264 182.74C157.885 181.165 162.595 179.668 167.362 178.235C172.157 176.647 176.982 175.137 181.804 173.712C186.59 172.197 191.338 170.831 196.02 169.693C200.606 168.577 205.083 167.791 209.432 167.415C213.622 167.231 217.651 167.578 221.486 168.549C225.134 169.854 228.572 171.884 231.798 174.697C234.814 177.919 237.624 181.972 240.225 186.842C242.658 192.104 244.924 198.138 247.033 204.928C249.055 211.922 250.988 219.536 252.865 227.685" stroke="url(#paint10_linear_258_2)" stroke-width="1.5" stroke-linecap="round" stroke-dasharray="2 1"/>
<path opacity="0.45" d="M254.661 251.117C256.183 259.127 257.64 267.233 259.058 275.343C260.586 283.177 262.113 290.898 263.652 298.429C265.344 305.541 267.047 312.406 268.748 318.955C270.595 325.043 272.41 330.797 274.154 336.221C276.86 343.518 281.536 355.911 283.303 361.094C284.592 374.341 280.181 385.592 277.591 389.133C274.913 393.467 269.503 405.008 267.106 412.621C265.842 418.677 264.764 425.404 263.907 432.82C263.391 441.034 263.102 449.88 263.032 459.276C263.233 469.272 263.581 479.62 264.016 490.143C264.541 500.876 265.015 511.451 265.341 521.647C265.514 531.534 265.378 540.472 264.875 548.334C264.029 555.504 262.732 561.451 260.968 566.133C258.786 570.025 256.139 572.708 253.057 574.286C249.595 575.203 245.757 575.213 241.597 574.479C237.165 573.411 232.5 571.887 227.65 570.084C222.654 568.322 217.548 566.569 212.371 564.956C207.15 563.725 201.896 562.833 196.641 562.384C191.396 562.508 186.157 563.158 180.941 564.339C175.761 566.12 170.61 568.389 165.488 571.083C160.44 574.234 155.447 577.633 150.52 581.152C145.728 584.835 141.052 588.374 136.528 591.599C132.227 594.601 128.14 596.981 124.321 598.567C120.818 599.55 117.643 599.482 114.837 598.203C112.411 596.085 110.385 592.642 108.769 587.803C107.52 582.098 106.644 575.056 106.122 566.757C105.848 557.854 105.812 547.935 105.951 537.18C106.136 526.316 106.334 515.275 106.468 504.268C106.431 493.711 106.207 483.52 105.769 473.853C105.014 464.992 103.996 456.798 102.721 449.342C101.101 442.807 99.2558 436.978 97.2304 431.824C94.9341 427.486 92.5416 423.682 90.1218 420.322C86.3031 416.27 79.2591 409.566 76.3361 406.418C72.3582 399.428 70.5403 385.897 71.3569 380.14C72.6202 373.705 76.498 359.071 78.9274 350.93C80.5518 345.116 82.291 339.089 84.1041 332.888C85.8217 326.372 87.5844 319.691 89.3709 312.909C91.0398 305.837 92.7298 298.685 94.4259 291.519C96.0283 284.136 97.6634 276.793 99.3488 269.565C100.981 262.243 102.674 255.273 104.436 248.725C106.231 242.203 108.14 236.154 110.186 230.598C112.324 225.175 114.636 220.277 117.127 215.903C119.76 211.692 122.594 207.996 125.629 204.774C128.818 201.714 132.211 199.092 135.8 196.853C139.536 194.721 143.457 192.909 147.537 191.377C151.742 189.87 156.087 188.589 160.547 187.488C165.084 186.366 169.707 185.376 174.384 184.537C179.085 183.653 183.809 182.907 188.516 182.331C193.188 181.752 197.809 181.38 202.341 181.261C206.779 181.248 211.092 181.562 215.251 182.282C219.261 183.211 223.083 184.64 226.694 186.627C230.125 188.925 233.329 191.845 236.293 195.452C239.07 199.398 241.616 204.051 243.93 209.397C246.093 215.058 248.063 221.381 249.854 228.316C251.569 235.432 253.161 243.043 254.661 251.103" stroke="url(#paint11_linear_258_2)" stroke-width="1.5" stroke-linecap="round" stroke-dasharray="2 2"/>
<path opacity="0.49" d="M254.444 272.163C255.591 279.965 256.649 287.79 257.639 295.575C258.728 303.129 259.788 310.526 260.827 317.705C262.013 324.542 263.183 331.084 264.328 337.295C266.236 345.831 269.897 360.455 271.509 366.533C274.269 385.854 270.728 395.715 268.691 398.709C266.646 402.564 262.537 413.19 260.709 420.319C259.757 425.98 258.928 432.286 258.242 439.24C257.816 446.882 257.534 455.101 257.379 463.832C257.43 473.067 257.55 482.622 257.698 492.339C257.907 502.214 258.035 511.973 258.009 521.406C257.862 530.559 257.444 538.881 256.713 546.28C255.711 553.053 254.322 558.757 252.543 563.372C250.427 567.265 247.904 570.089 244.993 571.914C241.76 573.124 238.175 573.506 234.278 573.182C230.126 572.498 225.72 571.344 221.097 569.874C216.315 568.353 211.373 566.738 206.311 565.164C201.17 563.81 195.949 562.675 190.683 561.825C185.399 561.366 180.091 561.27 174.791 561.553C169.521 562.252 164.278 563.289 159.089 564.623C153.984 566.25 148.972 568.037 144.076 569.86C139.335 571.769 134.76 573.512 130.401 574.947C126.276 576.158 122.421 576.853 118.876 576.852C114.214 575.695 107.34 567.652 105.197 560.433C104.243 554.592 103.661 547.679 103.427 539.765C103.419 531.381 103.663 522.178 104.096 512.3C104.571 502.334 105.093 492.216 105.585 482.132C105.929 472.382 106.135 462.917 106.178 453.87C105.94 445.444 105.487 437.558 104.817 430.283C103.833 423.753 102.652 417.82 101.306 412.501C98.8327 405.801 93.3284 395.558 90.5756 391.603C83.2922 380.752 80.5095 368.678 81.1343 364.265C82.1323 359.273 85.3594 347.604 87.4568 340.941C88.8699 336.101 90.408 331.015 92.0516 325.712C93.6125 320.103 95.25 314.28 96.9409 308.293C98.536 302.027 100.184 295.637 101.878 289.167C103.491 282.481 105.162 275.785 106.91 269.135C108.614 262.385 110.388 255.926 112.241 249.794C114.113 243.706 116.108 238.004 118.23 232.724C120.429 227.581 122.79 222.897 125.315 218.678C127.959 214.635 130.79 211.067 133.804 207.937C136.947 204.99 140.281 202.469 143.792 200.33C147.433 198.346 151.24 196.702 155.2 195.369C159.265 194.134 163.457 193.165 167.756 192.428C172.118 191.764 176.554 191.302 181.036 191.045C185.533 190.839 190.04 190.843 194.516 191.063C198.955 191.357 203.327 191.914 207.599 192.745C211.779 193.725 215.817 195.039 219.693 196.743C223.421 198.669 226.955 201.038 230.264 203.899C233.403 207.043 236.306 210.727 238.963 214.964C241.445 219.518 243.688 224.634 245.691 230.316C247.558 236.263 249.216 242.737 250.676 249.703C252.07 256.805 253.317 264.306 254.444 272.149" stroke="url(#paint12_linear_258_2)" stroke-width="1.5" stroke-linecap="round" stroke-dasharray="1 1"/>
<path opacity="0.53" d="M252.424 290.182C253.209 297.654 253.89 305.097 254.482 312.43C255.165 319.584 255.789 326.551 256.379 333.271C257.101 339.702 257.787 345.836 258.437 351.626C259.593 359.612 261.776 373.171 262.706 378.738C263.854 395.895 260.926 404.725 259.402 407.587C257.915 411.293 254.921 421.539 253.57 428.378C252.87 433.736 252.237 439.691 251.676 446.211C251.31 453.329 251.016 460.961 250.78 469.027C250.686 477.518 250.602 486.285 250.49 495.194C250.421 504.218 250.246 513.149 249.91 521.807C249.475 530.219 248.801 537.919 247.852 544.829C246.695 551.189 245.208 556.641 243.386 561.143C241.296 564.997 238.851 567.925 236.07 569.979C233.022 571.45 229.65 572.155 225.988 572.215C222.098 571.876 217.956 571.067 213.59 569.903C209.067 568.585 204.361 567.095 199.517 565.548C194.579 564.066 189.538 562.667 184.426 561.408C179.285 560.369 174.109 559.533 168.933 558.916C163.785 558.544 158.67 558.383 153.628 558.385C148.679 558.555 143.839 558.796 139.155 559.015C134.634 559.246 130.315 559.309 126.239 559.099C122.398 558.685 118.856 557.834 115.651 556.428C111.474 553.395 105.566 542.874 103.863 535.153C103.165 529.22 102.831 522.476 102.84 514.96C103.045 507.091 103.506 498.593 104.168 489.567C104.875 480.474 105.647 471.288 106.431 462.133C107.087 453.233 107.653 444.56 108.103 436.235C108.308 428.367 108.351 420.956 108.218 414.044C107.511 404.8 104.975 389.745 103.297 383.817C99.3427 375.143 94.064 365.388 92.9081 362.667C92.3075 351.588 95.41 336.818 97.1678 331.289C99.0266 325.077 103.264 311.01 105.579 303.233C107.072 297.705 108.643 292.024 110.297 286.233C111.882 280.245 113.553 274.191 115.327 268.145C117.067 262.007 118.883 256.089 120.795 250.437C122.718 244.816 124.765 239.524 126.934 234.602C129.159 229.798 131.544 225.4 134.078 221.414C136.697 217.608 139.488 214.225 142.446 211.272C145.51 208.502 148.739 206.141 152.128 204.172C155.618 202.379 159.257 200.948 163.027 199.848C166.88 198.906 170.848 198.269 174.893 197.917C178.992 197.688 183.149 197.725 187.331 198.013C191.52 198.43 195.701 199.092 199.842 200.019C203.941 201.086 207.957 202.431 211.87 204.077C215.685 205.887 219.356 208.046 222.854 210.555C226.216 213.283 229.38 216.42 232.323 219.967C235.106 223.777 237.657 228.03 239.956 232.737C242.101 237.708 244.011 243.129 245.676 249.005C247.222 255.081 248.55 261.562 249.681 268.424C250.747 275.392 251.66 282.658 252.425 290.168" stroke="url(#paint13_linear_258_2)" stroke-width="1.5" stroke-linecap="round"/>
<path opacity="0.56" d="M248.932 304.838C249.381 311.875 249.714 318.827 249.949 325.637C250.264 332.299 250.515 338.746 250.712 344.946C251.469 356.632 252.064 367.038 252.461 375.96C253.607 386.941 254.222 401.068 253.267 405.525C252.628 408.475 251.429 411.657 249.795 415.555C248.551 420.83 247.104 427.665 245.608 436.358C244.72 447.158 243.888 459.954 243.09 474.416C242.86 482.188 242.59 490.18 242.249 498.295C241.936 506.476 241.494 514.591 240.885 522.481C240.198 530.137 239.294 537.197 238.155 543.575C236.853 549.489 235.268 554.627 233.397 558.944C229.037 565.891 223.452 569.684 216.773 570.802C209.358 570.34 201.037 568.237 192.077 565.221C182.76 562.02 173.094 558.792 163.36 555.852C153.742 553.331 144.388 551.053 135.617 548.703C127.493 546.195 120.333 542.8 114.445 537.925C109.645 531.846 106.336 523.556 104.605 512.796C104.135 506.853 104.016 500.311 104.221 493.212C104.592 485.854 105.222 478.042 106.06 469.844C106.935 461.588 107.897 453.292 108.899 445.068C109.794 437.025 110.647 429.18 111.421 421.619C112.331 407.566 112.714 395.106 112.585 384.485C111.5 375.578 110.141 368.283 108.758 362.415C106.093 355.579 103.286 344.687 103.808 338.91C104.424 334.289 105.822 328.906 107.917 322.738C109.86 315.493 112.344 307.314 115.291 298.35C116.666 293.492 118.148 288.466 119.736 283.323C121.267 277.988 122.912 272.574 124.675 267.146C126.406 261.621 128.237 256.281 130.165 251.153C132.095 246.048 134.153 241.231 136.327 236.718C140.81 228.067 145.89 220.897 151.522 215.275C157.464 210.461 163.983 207.169 170.949 205.31C178.144 204.201 185.652 204.384 193.245 205.748C200.812 207.763 208.226 210.945 215.232 215.3C221.883 220.408 227.897 226.841 233.071 234.661C237.694 243.368 241.41 253.545 244.162 265.12C245.368 271.166 246.374 277.516 247.173 284.14C247.92 290.844 248.5 297.75 248.933 304.824" stroke="url(#paint14_linear_258_2)" stroke-width="1.5" stroke-linecap="round" stroke-dasharray="1 2"/>
<path opacity="0.6" d="M244.376 316.155C244.707 329.14 244.631 341.511 244.287 352.939C244.355 363.694 244.255 373.231 243.992 381.403C244.181 391.774 243.654 405.814 242.66 410.78C242.149 414.232 241.243 417.961 240.006 422.393C239.151 428.057 238.086 435.088 236.889 443.708C236.158 454.051 235.329 466.042 234.352 479.361C233.658 493.696 232.591 508.444 230.945 522.772C229.072 536.313 226.33 547.556 222.661 556.125C218.392 562.802 213.081 566.703 206.837 568.172C200.018 568.1 192.399 566.312 184.207 563.365C175.732 559.891 166.947 555.94 158.135 551.802C149.454 547.675 141.071 543.413 133.312 538.868C126.15 534.04 119.941 528.436 114.967 521.712C110.944 514.074 108.306 504.846 107.127 493.915C106.801 481.948 107.667 468.428 109.517 453.695C111.487 438.8 113.728 424.204 115.904 410.452C117.409 397.642 118.543 386.183 119.28 376.275C119.164 367.612 118.787 360.385 118.319 354.471C116.878 347.249 115.381 336.082 115.961 330.615C116.462 326.338 117.623 321.508 119.413 316.037C121.045 309.614 123.227 302.402 125.913 294.485C128.398 285.687 131.369 276.383 134.848 266.859C138.223 256.986 142.049 247.857 146.298 239.715C150.651 231.959 155.529 225.531 160.875 220.533C166.426 216.295 172.447 213.53 178.801 212.204C185.294 211.669 191.999 212.489 198.708 214.55C205.341 217.356 211.773 221.376 217.78 226.565C223.444 232.508 228.495 239.653 232.75 248.001C236.521 257.085 239.456 267.344 241.484 278.655C243.168 290.465 244.111 303.067 244.377 316.141" stroke="url(#paint15_linear_258_2)" stroke-width="1.5" stroke-linecap="round" stroke-dasharray="2 1"/>
<path opacity="0.63" d="M239.175 324.526C238.983 336.357 238.394 347.538 237.552 357.823C237.068 367.616 236.42 376.331 235.652 383.886C235.074 393.799 233.581 408.354 232.487 414.178C231.996 418.32 231.228 422.759 230.204 427.841C229.531 433.986 228.646 441.272 227.575 449.826C226.851 459.751 225.927 470.948 224.735 483.117C223.739 496.033 222.304 509.21 220.278 521.96C218.087 534.026 215.141 544.117 211.425 551.936C207.284 558.162 202.286 561.971 196.534 563.555C190.361 563.732 183.531 562.169 176.247 559.28C168.765 555.656 161.051 551.246 153.373 546.28C145.846 541.049 138.645 535.408 132.065 529.32C126.024 522.9 120.882 515.78 116.873 507.833C113.667 499.218 111.703 489.504 111.039 478.672C111.065 467.155 112.17 454.628 114.191 441.368C116.316 427.989 118.753 415.033 121.23 402.873C123.165 391.338 124.866 380.936 126.266 371.833C126.938 363.583 127.373 356.558 127.688 350.691C127.372 343.145 127.281 331.292 128.062 325.717C128.591 321.498 129.643 316.899 131.24 311.839C132.686 305.957 134.648 299.456 137.107 292.425C139.421 284.622 142.232 276.412 145.561 268.054C148.813 259.38 152.501 251.381 156.57 244.262C160.7 237.456 165.278 231.869 170.223 227.585C175.288 223.968 180.706 221.771 186.35 220.95C192.043 220.889 197.858 222.178 203.597 224.722C209.224 228.01 214.607 232.499 219.558 238.104C224.199 244.402 228.255 251.801 231.574 260.207C234.499 269.227 236.653 279.179 237.99 289.885C239.053 300.985 239.432 312.629 239.175 324.526Z" stroke="url(#paint16_linear_258_2)" stroke-width="1.5" stroke-linecap="round" stroke-dasharray="1 1"/>
<path opacity="0.67" d="M233.703 330.632C233.077 341.216 232.095 351.202 230.883 360.393C229.967 369.263 228.914 377.236 227.769 384.269C226.589 393.862 224.237 409.235 222.955 416.01C222.367 420.853 221.583 426.006 220.606 431.693C219.927 438.262 219.045 445.734 217.946 454.142C217.106 463.6 216.005 473.973 214.586 484.98C213.29 496.518 211.55 508.141 209.239 519.299C206.818 529.891 203.764 538.766 200.102 545.695C196.151 551.331 191.528 554.856 186.331 556.389C180.856 556.674 174.886 555.261 168.602 552.471C162.202 548.872 155.673 544.271 149.248 538.908C142.987 533.114 137.074 526.71 131.751 519.789C126.896 512.489 122.856 504.581 119.816 496.05C117.425 487.051 116.113 477.308 115.92 466.891C116.27 456.022 117.564 444.55 119.678 432.716C121.877 420.788 124.411 409.36 127.041 398.695C129.253 388.392 131.34 379.058 133.215 370.784C134.491 363.05 135.575 356.327 136.523 350.57C137.194 342.815 138.517 330.166 139.638 324.307C140.309 319.968 141.386 315.431 142.904 310.595C144.281 305.072 146.115 299.128 148.406 292.826C150.585 285.873 153.24 278.676 156.381 271.429C159.47 263.897 162.941 257.002 166.74 250.938C170.564 245.099 174.742 240.359 179.192 236.818C183.69 233.849 188.431 232.173 193.292 231.791C198.143 232.1 203.016 233.68 207.757 236.471C212.359 239.918 216.689 244.518 220.596 250.158C224.226 256.393 227.314 263.598 229.747 271.656C231.853 280.205 233.284 289.485 233.999 299.342C234.495 309.466 234.386 319.982 233.703 330.632Z" stroke="url(#paint17_linear_258_2)" stroke-width="1.5" stroke-linecap="round" stroke-dasharray="1 1"/>
<path opacity="0.71" d="M228.245 335.33C227.284 344.653 226.021 353.469 224.558 361.643C223.333 369.616 221.99 376.913 220.577 383.507C219.495 389.91 218.344 395.734 217.144 401.06C216.266 406.404 215.297 411.524 214.235 416.572C213.452 421.997 212.533 427.701 211.459 433.812C210.631 440.635 209.611 448.107 208.376 456.225C207.328 465.112 206.009 474.574 204.367 484.389C202.803 494.552 200.821 504.639 198.334 514.221C195.775 523.344 192.724 530.971 189.211 536.931C185.521 541.861 181.34 544.979 176.767 546.331C172.028 546.634 166.958 545.366 161.713 542.729C156.43 539.32 151.116 534.828 145.968 529.454C140.987 523.61 136.36 517.05 132.285 509.922C128.592 502.448 125.616 494.412 123.493 485.905C121.875 477.069 121.158 467.735 121.381 458.009C122.011 448.01 123.441 437.679 125.586 427.209C127.804 416.682 130.339 406.692 133.005 397.377C135.365 388.277 137.674 379.966 139.846 372.513C141.551 365.359 143.11 359.007 144.549 353.437C146.042 345.62 148.709 332.349 150.236 326.181C151.142 321.723 152.342 317.178 153.877 312.502C155.289 307.259 157.071 301.775 159.245 296.124C161.339 289.937 163.84 283.645 166.767 277.446C169.655 270.983 172.857 265.155 176.309 260.099C179.758 255.203 183.466 251.303 187.348 248.476C191.232 246.092 195.257 244.893 199.302 244.859C203.3 245.38 207.239 247.077 211 249.876C214.617 253.223 217.95 257.619 220.875 262.953C223.567 268.769 225.773 275.437 227.404 282.818C228.772 290.566 229.566 298.921 229.747 307.712C229.758 316.693 229.252 325.969 228.245 335.33Z" stroke="url(#paint18_linear_258_2)" stroke-width="1.5" stroke-linecap="round" stroke-dasharray="1 1"/>
<path opacity="0.74" d="M222.958 339.561C221.767 347.622 220.319 355.31 218.705 362.535C217.271 369.647 215.738 376.305 214.146 382.484C212.813 388.592 211.433 394.338 210.025 399.772C208.881 405.306 207.68 410.732 206.418 416.156C205.389 421.916 204.258 427.906 203.003 434.171C201.94 440.985 200.705 448.218 199.281 455.839C197.984 463.988 196.436 472.451 194.604 481.022C192.821 489.81 190.679 498.391 188.13 506.427C185.534 514.111 182.589 520.488 179.332 525.434C175.973 529.618 172.299 532.249 168.394 533.354C164.403 533.636 160.239 532.502 156.019 530.103C151.816 527.043 147.677 522.91 143.742 517.885C139.969 512.416 136.548 506.219 133.615 499.432C130.993 492.346 128.973 484.754 127.663 476.783C126.733 468.572 126.531 460.022 127.095 451.255C127.951 442.312 129.466 433.21 131.583 424.086C133.756 414.927 136.222 406.264 138.825 398.204C141.219 390.237 143.611 382.899 145.933 376.246C147.908 369.72 149.785 363.803 151.565 358.505C153.698 350.816 157.533 337.28 159.483 330.956C160.661 326.453 162.042 321.955 163.649 317.458C165.163 312.504 166.95 307.47 169.042 302.428C171.074 296.96 173.43 291.523 176.123 286.275C178.789 280.818 181.674 275.984 184.72 271.864C187.762 267.85 190.959 264.727 194.235 262.546C197.486 260.679 200.786 259.854 204.033 260.054C207.212 260.668 210.274 262.316 213.13 264.931C215.847 267.964 218.28 271.919 220.336 276.693C222.203 281.823 223.639 287.691 224.59 294.166C225.343 300.901 225.606 308.143 225.361 315.748C224.996 323.482 224.188 331.475 222.958 339.561Z" stroke="url(#paint19_linear_258_2)" stroke-width="1.5" stroke-linecap="round"/>
<path opacity="0.78" d="M217.883 344.166C216.559 350.994 215.02 357.611 213.339 363.929C211.793 370.204 210.151 376.21 208.457 381.927C206.949 387.655 205.404 393.189 203.837 398.561C202.464 404.054 201.051 409.524 199.59 415.018C198.305 420.793 196.944 426.726 195.487 432.826C194.163 439.32 192.704 446.05 191.091 452.945C189.559 460.197 187.829 467.553 185.867 474.827C183.937 482.228 181.736 489.332 179.231 495.902C176.703 502.189 173.96 507.36 171.042 511.327C168.079 514.748 164.945 516.881 161.721 517.738C158.468 517.981 155.169 517.008 151.916 514.928C148.704 512.331 145.623 508.759 142.779 504.354C140.078 499.577 137.703 494.106 135.761 488.085C134.052 481.81 132.842 475.084 132.204 468.036C131.832 460.829 132.041 453.346 132.853 445.717C133.865 438.003 135.41 430.187 137.444 422.382C139.522 414.556 141.852 407.167 144.318 400.251C146.643 393.371 149.013 386.978 151.354 381.095C153.452 375.236 155.503 369.837 157.479 364.889C160.052 357.566 164.783 344.276 167.105 338.017C169.315 331.466 174.329 318.224 177.256 311.514C179.238 306.766 181.45 302.142 183.888 297.784C186.313 293.251 188.859 289.319 191.483 286.04C194.095 282.817 196.765 280.367 199.434 278.74C203.381 277.031 210.76 278.412 213.954 281.443C216.728 285.699 220.486 298.188 221.299 306.096C221.567 311.709 221.429 317.759 220.878 324.148C220.241 330.597 219.241 337.312 217.883 344.166Z" stroke="url(#paint20_linear_258_2)" stroke-width="1.5" stroke-linecap="round"/>
<path opacity="0.82" d="M212.933 349.759C210.252 361.074 206.937 372.024 203.38 382.32C200.334 392.772 197.092 403.117 193.762 413.37C190.9 424.444 187.726 436.059 184.178 447.765C180.838 460.315 176.855 472.503 172.159 482.968C167.414 492.637 162.291 498.361 157.16 500.041C152.047 500.013 147.221 496.115 143.248 489.176C139.731 481.109 137.521 470.755 137.065 459.092C137.319 447.009 139.336 434.095 143.06 421.12C146.91 408.114 151.443 396.4 156.075 386.206C160.096 375.93 164.057 366.805 167.844 358.818C171.072 350.231 174.432 342.172 178.01 334.773C181.373 326.352 185.233 318.372 189.594 311.481C193.923 304.06 198.368 299.026 202.607 296.563C206.729 294.548 210.432 295.473 213.308 299.08C215.842 303.389 217.315 310.175 217.454 318.855C217.219 327.897 215.712 338.412 212.933 349.759Z" stroke="url(#paint21_linear_258_2)" stroke-width="1.5" stroke-linecap="round" stroke-dasharray="2 2"/>
<path opacity="0.85" d="M207.947 356.655C205.33 365.757 202.16 374.925 198.745 383.858C195.646 392.964 192.324 402.198 188.912 411.358C185.789 421.065 182.425 431.022 178.846 440.698C175.379 450.823 171.521 460.348 167.318 468.254C163.091 475.608 158.887 479.866 154.971 481.032C151.121 481.103 147.767 478.186 145.261 472.835C143.079 466.743 142.005 458.728 142.29 449.544C143.012 440.114 145.079 429.875 148.449 419.46C151.905 409.019 155.955 399.4 160.16 390.818C164.015 382.098 167.915 374.115 171.691 366.979C175.122 359.366 178.612 352.22 182.14 345.774C185.529 338.645 189.149 332.093 192.937 326.664C196.711 320.851 200.313 317.055 203.529 315.314C207.959 314.158 212.999 323.145 212.923 332.442C212.295 339.321 210.636 347.521 207.947 356.655Z" stroke="url(#paint22_linear_258_2)" stroke-width="1.5" stroke-linecap="round"/>
<path opacity="0.89" d="M202.73 364.763C200.341 371.799 197.472 379.115 194.362 386.426C191.426 393.862 188.259 401.503 185.006 409.066C181.904 416.932 178.626 424.823 175.268 432.279C171.961 439.933 168.478 446.937 164.924 452.555C161.373 457.836 158.092 460.832 155.257 461.606C151.388 460.761 147.462 448.838 147.979 439.233C148.904 432.362 150.833 424.743 153.73 416.782C156.686 408.82 160.135 401.282 163.763 394.374C167.214 387.351 170.781 380.761 174.278 374.768C177.592 368.472 180.927 362.562 184.196 357.297C187.391 351.628 190.63 346.533 193.802 342.461C205.023 337.424 205.979 354.663 202.73 364.763Z" stroke="url(#paint23_linear_258_2)" stroke-width="1.5" stroke-linecap="round" stroke-dasharray="1 1"/>
<path opacity="0.93" d="M197.104 373.655C193.14 383.795 187.662 395.426 181.966 406.495C176.524 418.111 170.538 429.312 165 436.768C157.517 443.685 153.703 428.863 159.082 412.833C163.764 401.59 169.872 390.751 175.842 381.741C181.501 372.077 187.302 363.444 192.29 357.975C198.955 351.244 201.913 359.986 197.104 373.655Z" stroke="url(#paint24_linear_258_2)" stroke-width="1.5" stroke-linecap="round"/>
<path opacity="0.96" d="M190.958 382.547C188.01 389.022 183.942 396.551 179.714 403.606C175.554 410.82 171.132 417.513 167.344 421.742C162.401 425.776 160.787 417.477 164.693 407.738C167.98 400.765 172.329 393.683 176.659 387.634C180.898 381.361 185.204 375.834 188.701 372.454C193.249 368.442 194.569 373.895 190.958 382.547Z" stroke="url(#paint25_linear_258_2)" stroke-width="1.5" stroke-linecap="round" stroke-dasharray="1 1"/>
<defs>
<linearGradient id="paint0_linear_258_2" x1="17653" y1="19.8623" x2="17653" y2="78031.9" gradientUnits="userSpaceOnUse">
<stop stop-color="#29FFBF" stop-opacity="0.29"/>
<stop offset="1" stop-color="#29FFBF"/>
</linearGradient>
<linearGradient id="paint1_linear_258_2" x1="17005" y1="2528.7" x2="6057.54" y2="76313.5" gradientUnits="userSpaceOnUse">
<stop stop-color="#29FFBF" stop-opacity="0.29"/>
<stop offset="1" stop-color="#29FFBF"/>
</linearGradient>
<linearGradient id="paint2_linear_258_2" x1="16265.3" y1="4837.86" x2="-3750.06" y2="71977.7" gradientUnits="userSpaceOnUse">
<stop stop-color="#29FFBF" stop-opacity="0.29"/>
<stop offset="1" stop-color="#29FFBF"/>
</linearGradient>
<linearGradient id="paint3_linear_258_2" x1="15481.9" y1="6947.6" x2="-11193.2" y2="66138.8" gradientUnits="userSpaceOnUse">
<stop stop-color="#29FFBF" stop-opacity="0.29"/>
<stop offset="1" stop-color="#29FFBF"/>
</linearGradient>
<linearGradient id="paint4_linear_258_2" x1="14645.5" y1="8847.77" x2="-16239" y2="59683.3" gradientUnits="userSpaceOnUse">
<stop stop-color="#29FFBF" stop-opacity="0.29"/>
<stop offset="1" stop-color="#29FFBF"/>
</linearGradient>
<linearGradient id="paint5_linear_258_2" x1="13765.5" y1="10532.9" x2="-19231.5" y2="53360.9" gradientUnits="userSpaceOnUse">
<stop stop-color="#29FFBF" stop-opacity="0.29"/>
<stop offset="1" stop-color="#29FFBF"/>
</linearGradient>
<linearGradient id="paint6_linear_258_2" x1="12850.7" y1="11999" x2="-20664.8" y2="47602.2" gradientUnits="userSpaceOnUse">
<stop stop-color="#29FFBF" stop-opacity="0.29"/>
<stop offset="1" stop-color="#29FFBF"/>
</linearGradient>
<linearGradient id="paint7_linear_258_2" x1="11910.8" y1="13243.9" x2="-21012.2" y2="42572.1" gradientUnits="userSpaceOnUse">
<stop stop-color="#29FFBF" stop-opacity="0.29"/>
<stop offset="1" stop-color="#29FFBF"/>
</linearGradient>
<linearGradient id="paint8_linear_258_2" x1="10954.5" y1="14267" x2="-20661.1" y2="38274.8" gradientUnits="userSpaceOnUse">
<stop stop-color="#29FFBF" stop-opacity="0.29"/>
<stop offset="1" stop-color="#29FFBF"/>
</linearGradient>
<linearGradient id="paint9_linear_258_2" x1="9990.74" y1="15068.8" x2="-19897.7" y2="34632.1" gradientUnits="userSpaceOnUse">
<stop stop-color="#29FFBF" stop-opacity="0.29"/>
<stop offset="1" stop-color="#29FFBF"/>
</linearGradient>
<linearGradient id="paint10_linear_258_2" x1="9027.22" y1="15649.2" x2="-18926.9" y2="31535" gradientUnits="userSpaceOnUse">
<stop stop-color="#29FFBF" stop-opacity="0.29"/>
<stop offset="1" stop-color="#29FFBF"/>
</linearGradient>
<linearGradient id="paint11_linear_258_2" x1="8072.7" y1="16011.1" x2="-17877.6" y2="28867.6" gradientUnits="userSpaceOnUse">
<stop stop-color="#29FFBF" stop-opacity="0.29"/>
<stop offset="1" stop-color="#29FFBF"/>
</linearGradient>
<linearGradient id="paint12_linear_258_2" x1="7135.81" y1="16158.4" x2="-16769.3" y2="26498.7" gradientUnits="userSpaceOnUse">
<stop stop-color="#29FFBF" stop-opacity="0.29"/>
<stop offset="1" stop-color="#29FFBF"/>
</linearGradient>
<linearGradient id="paint13_linear_258_2" x1="6225.64" y1="16098.2" x2="-15719.3" y2="24377.4" gradientUnits="userSpaceOnUse">
<stop stop-color="#29FFBF" stop-opacity="0.29"/>
<stop offset="1" stop-color="#29FFBF"/>
</linearGradient>
<linearGradient id="paint14_linear_258_2" x1="5347.29" y1="15829.3" x2="-14730.1" y2="22411.4" gradientUnits="userSpaceOnUse">
<stop stop-color="#29FFBF" stop-opacity="0.29"/>
<stop offset="1" stop-color="#29FFBF"/>
</linearGradient>
<linearGradient id="paint15_linear_258_2" x1="4517.17" y1="15384.1" x2="-13774.4" y2="20560.6" gradientUnits="userSpaceOnUse">
<stop stop-color="#29FFBF" stop-opacity="0.29"/>
<stop offset="1" stop-color="#29FFBF"/>
</linearGradient>
<linearGradient id="paint16_linear_258_2" x1="3739.8" y1="14769.1" x2="-12851.4" y2="18780.4" gradientUnits="userSpaceOnUse">
<stop stop-color="#29FFBF" stop-opacity="0.29"/>
<stop offset="1" stop-color="#29FFBF"/>
</linearGradient>
<linearGradient id="paint17_linear_258_2" x1="3021.29" y1="13995.7" x2="-11948.1" y2="17040.4" gradientUnits="userSpaceOnUse">
<stop stop-color="#29FFBF" stop-opacity="0.29"/>
<stop offset="1" stop-color="#29FFBF"/>
</linearGradient>
<linearGradient id="paint18_linear_258_2" x1="2367.12" y1="13074.6" x2="-11047.8" y2="15318.5" gradientUnits="userSpaceOnUse">
<stop stop-color="#29FFBF" stop-opacity="0.29"/>
<stop offset="1" stop-color="#29FFBF"/>
</linearGradient>
<linearGradient id="paint19_linear_258_2" x1="1782.56" y1="12017.4" x2="-10126.6" y2="13600.1" gradientUnits="userSpaceOnUse">
<stop stop-color="#29FFBF" stop-opacity="0.29"/>
<stop offset="1" stop-color="#29FFBF"/>
</linearGradient>
<linearGradient id="paint20_linear_258_2" x1="1272.26" y1="10831.4" x2="-9150.88" y2="11872.2" gradientUnits="userSpaceOnUse">
<stop stop-color="#29FFBF" stop-opacity="0.29"/>
<stop offset="1" stop-color="#29FFBF"/>
</linearGradient>
<linearGradient id="paint21_linear_258_2" x1="842.103" y1="9534.48" x2="-8121.06" y2="10141.9" gradientUnits="userSpaceOnUse">
<stop stop-color="#29FFBF" stop-opacity="0.29"/>
<stop offset="1" stop-color="#29FFBF"/>
</linearGradient>
<linearGradient id="paint22_linear_258_2" x1="496.214" y1="8129.88" x2="-7005.8" y2="8402.42" gradientUnits="userSpaceOnUse">
<stop stop-color="#29FFBF" stop-opacity="0.29"/>
<stop offset="1" stop-color="#29FFBF"/>
</linearGradient>
<linearGradient id="paint23_linear_258_2" x1="235.366" y1="6290.44" x2="-5452.69" y2="6320.15" gradientUnits="userSpaceOnUse">
<stop stop-color="#29FFBF" stop-opacity="0.29"/>
<stop offset="1" stop-color="#29FFBF"/>
</linearGradient>
<linearGradient id="paint24_linear_258_2" x1="87.3556" y1="4702.12" x2="-4034.02" y2="4595.65" gradientUnits="userSpaceOnUse">
<stop stop-color="#29FFBF" stop-opacity="0.29"/>
<stop offset="1" stop-color="#29FFBF"/>
</linearGradient>
<linearGradient id="paint25_linear_258_2" x1="27.3677" y1="3274.33" x2="-2771.86" y2="3114.41" gradientUnits="userSpaceOnUse">
<stop stop-color="#29FFBF" stop-opacity="0.29"/>
<stop offset="1" stop-color="#29FFBF"/>
</linearGradient>
</defs>
</svg>
