<svg width="2982" height="944" viewBox="0 0 2982 944" fill="none" xmlns="http://www.w3.org/2000/svg">
<g clip-path="url(#clip0_293_288)">
<path d="M-409.682 857.868C-359.623 901.727 -362.64 1066.12 -209.446 1033.3C-56.2512 1000.48 41.4089 778.694 203.096 726.588C364.782 674.482 275.88 876.383 437.301 824.879C598.722 773.376 687.094 572.68 848.781 520.574C1010.47 468.467 932.445 645.659 1084.05 616.455C1235.65 587.251 1298.54 444.413 1455.19 403.758C1611.83 363.103 1553.72 495.092 1710.63 453.834C1867.53 412.576 1923.53 285.409 2082.83 238.727C2242.13 192.045 2185.6 320.418 2347.82 267.106C2510.04 213.794 2585.93 41.4249 2731.7 25.4801C2877.46 9.53529 2782.19 225.901 2930.87 203.327C3079.56 180.752 3227.54 2.21854 3326.43 -64.8175" stroke="url(#paint0_linear_293_288)" stroke-linecap="round"/>
<path d="M-381.716 841.603C-334.144 885.885 -342.339 1050.19 -191.428 1018.73C-40.5166 987.277 62.0945 766.44 221.928 715.781C381.762 665.122 288.353 866.156 447.908 816.098C607.463 766.039 700.315 566.205 860.149 515.546C1019.98 464.887 938.005 641.317 1087.24 613.462C1236.48 585.607 1302.57 443.383 1457.1 404.126C1611.64 364.869 1550.57 496.292 1705.39 456.435C1860.2 416.578 1919.04 289.956 2076.36 244.698C2233.69 199.44 2174.29 327.262 2334.69 275.403C2495.08 223.544 2574.82 51.9147 2717.93 37.262C2861.03 22.6093 2760.93 238.046 2907.1 216.792C3053.27 195.538 3203.73 18.3831 3302.61 -47.7533" stroke="url(#paint1_linear_293_288)" stroke-linecap="round"/>
<path d="M-353.619 825.55C-308.498 870.228 -321.754 1034.37 -173.138 1004.26C-24.5223 974.155 82.8887 754.34 240.845 705.118C398.8 655.895 301.021 855.999 458.685 807.374C616.349 758.749 713.545 559.84 871.501 510.618C1029.46 461.395 943.645 637.009 1090.51 610.485C1237.37 583.961 1306.55 442.395 1458.96 404.522C1611.37 366.649 1547.45 497.462 1700.15 458.992C1852.85 420.522 1914.44 294.486 2069.77 250.64C2225.1 206.793 2162.93 334.023 2321.47 283.606C2480.01 233.189 2563.48 62.3549 2703.93 48.972C2844.37 35.5891 2739.58 250.028 2883.24 230.075C3026.89 210.121 3179.72 34.3874 3278.54 -30.8418" stroke="url(#paint2_linear_293_288)" stroke-linecap="round"/>
<path d="M-325.403 809.713C-282.699 854.759 -300.897 1018.68 -154.588 989.9C-8.27906 961.122 103.78 742.399 259.833 694.602C415.887 646.805 313.876 845.914 469.625 798.711C625.374 751.509 726.775 553.588 882.829 505.791C1038.88 457.994 949.357 632.735 1093.84 607.523C1238.32 582.312 1310.49 441.449 1460.76 404.945C1611.02 368.441 1544.34 498.605 1694.91 461.506C1845.48 424.407 1909.73 298.998 2063.05 256.551C2216.36 214.103 2151.5 340.7 2308.16 291.715C2464.82 242.729 2551.91 72.7433 2689.7 60.6075C2827.48 48.4718 2718.16 261.845 2859.29 243.172C3000.42 224.498 3155.49 50.2277 3254.22 -14.087" stroke="url(#paint3_linear_293_288)" stroke-linecap="round"/>
<path d="M-297.08 794.094C-256.756 839.482 -279.778 1003.11 -135.786 975.645C8.20604 948.18 124.761 730.618 278.889 684.234C433.016 637.851 326.913 835.903 480.723 790.111C634.534 744.319 740.003 547.448 894.131 501.065C1048.26 454.681 955.141 628.495 1097.23 604.577C1239.32 580.659 1314.39 440.544 1462.5 405.393C1610.61 370.243 1541.24 499.716 1689.67 463.974C1838.1 428.232 1904.93 303.489 2056.2 262.426C2207.48 221.363 2140.02 347.289 2294.78 299.723C2449.54 252.157 2540.12 83.0736 2675.25 72.1622C2810.37 61.2508 2696.66 273.492 2835.27 256.078C2973.88 238.663 3131.07 65.8971 3229.68 2.50361" stroke="url(#paint4_linear_293_288)" stroke-linecap="round"/>
<path d="M-268.665 778.701C-230.685 824.402 -258.411 987.677 -116.745 961.506C24.9205 935.336 145.819 719.001 297.998 674.019C450.177 629.037 340.119 825.972 491.969 781.578C643.819 737.183 753.22 541.424 905.398 496.442C1057.58 451.46 960.989 624.292 1100.68 601.649C1240.38 579.006 1318.24 439.682 1464.18 405.869C1610.11 372.056 1538.17 500.799 1684.43 466.398C1830.7 431.998 1900.01 307.958 2049.24 268.267C2198.46 228.575 2128.48 353.79 2281.32 307.633C2434.15 261.475 2528.11 93.3452 2660.58 83.6349C2793.05 73.9247 2675.1 284.968 2811.18 268.792C2947.27 252.615 3106.47 81.3938 3204.9 18.9279" stroke="url(#paint5_linear_293_288)" stroke-linecap="round"/>
<path d="M-240.162 763.534C-204.489 809.522 -236.799 972.379 -97.4678 947.485C41.8631 922.591 166.953 707.55 317.161 663.957C467.37 620.364 353.497 816.12 503.366 773.111C653.234 730.102 766.427 535.514 916.635 491.921C1066.84 448.327 966.907 620.126 1104.2 598.738C1241.49 577.35 1322.05 438.859 1465.8 406.368C1609.55 373.878 1535.11 501.85 1679.2 468.775C1823.29 435.7 1895.01 312.402 2042.16 274.068C2189.31 235.734 2116.91 360.2 2267.79 315.438C2418.68 270.676 2515.9 103.552 2645.71 95.0199C2775.53 86.4874 2653.5 296.268 2787.05 281.308C2920.6 266.348 3081.7 96.7111 3179.92 35.1787" stroke="url(#paint6_linear_293_288)" stroke-linecap="round"/>
<path d="M-211.59 748.599C-178.185 794.847 -214.958 957.225 -77.9696 933.588C59.0192 909.952 188.147 696.271 336.365 654.053C484.582 611.835 367.033 806.355 514.9 764.718C662.766 723.081 779.613 529.723 927.83 487.505C1076.05 445.288 972.885 616 1107.77 595.848C1242.65 575.695 1325.81 438.08 1467.36 406.895C1608.91 375.71 1532.07 502.873 1673.97 471.107C1815.87 439.342 1889.91 316.823 2034.97 279.832C2180.03 242.84 2105.29 366.52 2254.21 323.141C2403.13 279.762 2503.48 113.695 2630.65 106.316C2757.81 98.938 2631.84 307.393 2762.86 293.628C2893.89 279.862 3056.77 111.848 3154.74 51.2544" stroke="url(#paint7_linear_293_288)" stroke-linecap="round"/>
<path d="M-182.963 733.9C-151.788 780.38 -192.902 942.217 -58.2622 919.819C76.3779 897.421 209.391 685.163 355.598 644.308C501.804 603.453 380.719 796.677 526.564 756.399C672.409 716.12 792.771 524.05 938.978 483.195C1085.18 442.34 978.918 611.915 1111.39 592.978C1243.86 574.041 1329.52 437.342 1468.86 407.446C1608.2 377.55 1529.05 503.866 1668.75 473.393C1808.45 442.92 1884.71 321.218 2027.67 285.554C2170.62 249.89 2093.63 372.746 2240.56 330.737C2387.49 288.728 2490.86 123.767 2615.38 117.519C2739.9 111.271 2610.14 318.338 2738.64 305.745C2867.13 293.153 3031.68 126.798 3129.37 67.1489" stroke="url(#paint8_linear_293_288)" stroke-linecap="round"/>
<path d="M-154.281 719.438C-125.298 766.124 -170.632 927.359 -38.3456 906.181C93.9404 885.002 230.686 674.231 374.863 634.724C519.04 595.217 394.557 787.088 538.362 748.154C682.167 709.221 805.907 518.495 950.084 478.989C1094.26 439.482 985.013 607.87 1115.07 590.128C1245.13 572.386 1333.19 436.645 1470.31 408.021C1607.43 379.396 1526.05 504.828 1663.54 475.631C1801.02 446.434 1879.43 325.584 2020.26 291.232C2161.1 256.88 2081.95 378.876 2226.87 338.224C2371.79 297.572 2478.06 133.766 2599.94 128.624C2721.82 123.483 2588.42 329.099 2714.39 317.657C2840.36 306.216 3006.46 141.557 3103.82 82.8568" stroke="url(#paint9_linear_293_288)" stroke-linecap="round"/>
<path d="M-125.568 705.22C-98.736 752.084 -148.167 912.658 -18.2396 892.679C111.688 872.7 252.012 663.477 394.141 625.304C536.271 587.132 408.53 777.594 550.278 739.99C692.026 702.387 819.004 513.062 961.134 474.89C1103.26 436.718 991.156 603.869 1118.8 587.302C1246.44 570.734 1336.81 435.99 1471.69 408.62C1606.58 381.25 1523.07 505.761 1658.33 477.823C1793.6 449.884 1874.06 329.922 2012.75 296.867C2151.45 263.811 2070.23 384.911 2213.12 345.602C2356.02 306.292 2465.07 143.689 2584.32 139.63C2703.57 135.57 2566.68 339.677 2690.13 329.363C2813.57 319.05 2981.11 156.122 3078.1 98.3754" stroke="url(#paint10_linear_293_288)" stroke-linecap="round"/>
<path d="M-96.8248 691.245C-72.1046 738.263 -125.509 898.114 2.05595 879.316C129.621 860.517 273.371 652.902 413.436 616.049C553.501 579.197 422.642 768.194 562.316 731.906C701.991 695.618 832.068 507.749 972.133 470.897C1112.2 434.045 997.355 599.911 1122.58 584.497C1247.8 569.083 1340.38 435.375 1473.02 409.242C1605.66 383.109 1520.12 506.662 1653.15 479.965C1786.18 453.267 1868.6 334.227 2005.15 302.453C2141.7 270.678 2058.5 390.846 2199.35 352.866C2340.19 314.885 2451.91 153.532 2568.54 150.53C2685.17 147.528 2544.93 350.065 2665.86 340.857C2786.78 331.649 2955.64 170.488 3052.24 113.698" stroke="url(#paint11_linear_293_288)" stroke-linecap="round"/>
<path d="M-68.0709 677.519C-45.4223 724.664 -102.677 883.735 22.5235 866.096C147.724 848.457 294.745 642.51 432.73 606.963C570.715 571.416 436.877 758.894 574.462 723.906C712.048 688.919 845.086 502.559 983.071 467.012C1121.06 431.464 1003.6 595.998 1126.4 581.716C1249.2 567.435 1343.89 434.801 1474.28 409.887C1604.68 384.972 1517.18 507.533 1647.98 482.059C1778.77 456.585 1863.07 338.501 1997.46 307.991C2131.85 277.48 2046.75 396.683 2185.53 360.016C2324.32 323.349 2438.58 163.293 2552.59 161.324C2666.61 159.354 2523.18 360.264 2641.59 352.139C2760 344.014 2930.07 184.652 3026.23 128.823" stroke="url(#paint12_linear_293_288)" stroke-linecap="round"/>
<path d="M-39.3142 664.046C-18.6964 711.291 -79.6768 869.525 43.1569 853.025C165.991 836.526 316.131 632.305 452.021 598.047C587.91 563.789 451.233 749.697 586.714 715.993C722.196 682.29 858.057 497.493 993.946 463.235C1129.84 428.977 1009.89 592.131 1130.27 578.961C1250.66 565.791 1347.35 434.269 1475.49 410.555C1603.63 386.841 1514.28 508.374 1642.82 484.105C1771.37 459.836 1857.45 342.743 1989.67 313.479C2121.89 284.216 2034.99 402.419 2171.69 367.051C2308.4 331.683 2425.08 172.969 2536.49 172.008C2647.9 171.046 2501.43 370.272 2617.33 363.207C2733.23 356.141 2904.4 198.61 3000.08 143.745" stroke="url(#paint13_linear_293_288)" stroke-linecap="round"/>
<path d="M-10.5643 650.828C8.06387 698.147 -56.518 855.487 63.9484 840.106C184.415 824.725 337.521 622.288 471.301 589.304C605.081 556.319 465.704 740.603 599.068 708.169C732.432 675.735 870.977 492.551 1004.76 459.567C1138.54 426.583 1016.22 588.312 1134.19 576.232C1252.16 564.151 1350.76 433.778 1476.64 411.245C1602.51 388.713 1511.4 509.185 1637.69 486.102C1763.98 463.02 1851.77 346.949 1981.8 318.915C2111.84 290.882 2023.22 408.053 2157.83 373.969C2292.44 339.884 2411.43 182.556 2520.25 182.577C2629.07 182.599 2479.71 380.085 2593.1 374.056C2706.49 368.026 2878.64 212.359 2973.82 158.46" stroke="url(#paint14_linear_293_288)" stroke-linecap="round"/>
<path d="M18.1633 637.867C34.8435 685.236 -33.2151 841.624 84.8842 827.341C202.984 813.058 358.903 612.46 490.561 580.734C622.218 549.007 480.281 731.616 611.514 700.435C742.748 669.253 883.838 487.734 1015.5 456.008C1147.15 424.281 1022.59 584.541 1138.14 573.528C1253.7 562.515 1354.12 433.326 1477.72 411.957C1601.33 390.587 1508.54 509.964 1632.57 488.049C1756.6 466.135 1846 351.118 1973.85 324.298C2101.69 297.477 2011.45 413.583 2143.95 380.767C2276.46 347.95 2397.63 192.051 2503.87 193.03C2610.1 194.01 2458 389.701 2568.89 384.684C2679.79 379.668 2852.81 225.894 2947.45 172.964" stroke="url(#paint15_linear_293_288)" stroke-linecap="round"/>
<path d="M46.861 625.168C61.6354 672.56 -9.7748 827.943 105.959 814.736C221.692 801.529 380.272 602.826 509.795 572.34C639.318 541.855 494.958 722.739 624.05 692.794C753.142 662.849 896.64 483.044 1026.16 452.559C1155.69 422.073 1028.99 580.82 1142.14 570.852C1255.29 560.885 1357.42 432.916 1478.75 412.69C1600.09 392.463 1505.72 510.713 1627.48 489.947C1749.25 469.181 1840.17 355.251 1965.82 329.625C2091.46 303.999 1999.68 419.009 2130.06 387.444C2260.45 355.878 2383.69 201.452 2487.36 203.363C2591.03 205.275 2436.32 399.119 2544.73 395.091C2653.14 391.063 2826.92 239.212 2920.99 187.253" stroke="url(#paint16_linear_293_288)" stroke-linecap="round"/>
<path d="M75.5175 612.732C88.4285 660.122 13.792 814.444 127.162 802.292C240.531 790.141 401.619 593.385 528.996 564.124C656.373 534.863 509.731 713.975 636.67 685.248C763.61 656.522 909.376 478.48 1036.75 449.219C1164.13 419.958 1035.44 577.148 1146.18 568.204C1256.92 559.26 1360.67 432.545 1479.73 413.443C1598.79 394.34 1502.92 511.431 1622.42 491.794C1741.92 472.157 1834.28 359.343 1957.72 334.894C2081.16 310.445 1987.92 424.328 2116.17 393.998C2244.42 363.667 2369.62 210.754 2470.73 213.573C2571.84 216.391 2414.69 408.335 2520.62 405.272C2626.55 402.21 2800.99 252.31 2894.44 201.322" stroke="url(#paint17_linear_293_288)" stroke-linecap="round"/>
<path d="M104.119 600.562C115.21 647.926 37.4726 801.134 148.481 790.016C259.49 778.897 422.933 584.142 548.154 556.088C673.376 528.034 524.589 705.325 649.366 677.8C774.143 650.276 922.041 474.043 1047.26 445.99C1172.48 417.936 1041.91 573.528 1150.25 565.585C1258.59 557.642 1363.86 432.215 1480.64 414.217C1597.42 396.218 1500.15 512.119 1617.38 493.591C1734.61 475.063 1828.32 363.396 1949.55 340.106C2070.77 316.815 1976.17 429.54 2102.28 400.428C2228.39 371.316 2355.41 219.957 2453.98 223.657C2552.56 227.356 2393.11 417.349 2496.57 415.227C2600.03 413.105 2775 265.184 2867.82 215.17" stroke="url(#paint18_linear_293_288)" stroke-linecap="round"/>
<path d="M132.651 588.662C141.965 635.973 61.2523 788.016 169.904 777.909C278.556 767.802 444.203 575.097 567.259 548.233C690.315 521.369 539.522 696.793 662.128 670.452C784.734 644.112 934.626 469.735 1057.68 442.871C1180.74 416.007 1048.4 569.961 1154.35 562.996C1260.3 556.031 1366.98 431.925 1481.49 415.01C1595.99 398.095 1497.41 512.775 1612.37 495.337C1727.32 477.899 1822.3 367.408 1941.3 345.257C2060.31 323.105 1964.43 434.644 2088.39 406.732C2212.34 378.821 2341.08 229.056 2437.13 233.611C2533.17 238.166 2371.58 426.158 2472.58 424.953C2573.58 423.748 2748.99 277.831 2841.13 228.791" stroke="url(#paint19_linear_293_288)" stroke-linecap="round"/>
<path d="M161.116 577.032C168.696 624.268 85.1341 775.093 191.434 765.975C297.734 756.857 465.433 566.253 586.316 540.561C707.198 514.868 554.537 688.38 674.964 663.206C795.391 638.032 947.14 465.556 1068.02 439.863C1188.91 414.171 1054.93 566.447 1158.49 560.437C1262.06 554.427 1370.06 431.673 1482.29 415.822C1594.51 399.971 1494.71 513.401 1607.39 497.032C1720.07 480.663 1816.22 371.376 1933 350.345C2049.79 329.315 1952.72 439.637 2074.51 412.909C2196.31 386.181 2326.64 238.048 2420.18 243.433C2513.72 248.817 2350.12 434.76 2448.67 434.447C2547.23 434.134 2722.96 290.248 2814.39 242.181" stroke="url(#paint20_linear_293_288)" stroke-linecap="round"/>
<path d="M189.485 565.679C195.374 612.814 109.089 762.37 213.043 754.219C316.997 746.068 486.598 557.613 605.299 533.074C724.001 508.536 569.609 680.091 687.849 656.065C806.09 632.038 959.56 461.507 1078.26 436.969C1196.96 412.43 1061.47 562.989 1162.66 557.911C1263.84 552.832 1373.07 431.463 1483.02 416.655C1592.96 401.846 1492.03 513.998 1602.44 498.677C1712.84 483.356 1810.09 375.302 1924.64 355.372C2039.19 335.443 1941.03 444.521 2060.65 418.959C2180.27 393.396 2312.08 246.934 2403.13 253.121C2494.18 259.309 2328.73 443.155 2424.85 443.71C2520.97 444.265 2696.92 302.433 2787.61 255.34" stroke="url(#paint21_linear_293_288)" stroke-linecap="round"/>
<path d="M217.761 554.6C222.005 601.61 133.123 749.848 234.738 742.642C336.352 735.435 507.704 549.176 624.218 525.773C740.732 502.369 584.746 671.926 700.795 649.029C816.844 626.131 971.898 457.587 1088.41 434.184C1204.93 410.781 1068.03 559.585 1166.85 555.415C1265.67 551.245 1376.03 431.291 1483.69 417.504C1591.36 403.717 1489.39 514.562 1597.52 500.269C1705.65 485.976 1803.9 379.181 1916.23 360.333C2028.55 341.485 1929.37 449.292 2046.82 424.877C2164.26 400.461 2297.43 255.706 2386.01 262.671C2474.59 269.636 2307.42 451.339 2401.12 452.737C2494.82 454.135 2670.88 314.38 2760.8 268.261" stroke="url(#paint22_linear_293_288)" stroke-linecap="round"/>
<path d="M245.929 543.799C248.572 590.661 157.219 737.533 256.502 731.247C355.784 724.962 528.737 540.945 643.058 518.658C757.38 496.371 599.936 663.887 713.788 642.1C827.64 620.313 984.143 453.798 1098.46 431.511C1212.79 409.224 1074.61 556.238 1171.07 552.953C1267.54 549.668 1378.92 431.157 1484.31 418.371C1589.71 405.585 1486.78 515.095 1592.64 501.809C1698.5 488.523 1797.67 383.013 1907.76 365.227C2017.85 347.44 1917.75 453.95 2033.01 430.663C2148.27 407.377 2282.69 264.363 2368.81 272.079C2454.93 279.795 2286.21 459.312 2377.5 461.527C2468.79 463.743 2644.86 326.088 2733.98 280.941" stroke="url(#paint23_linear_293_288)" stroke-linecap="round"/>
<path d="M273.978 533.281C275.064 579.971 181.366 725.427 278.325 720.04C375.284 714.654 549.689 532.923 661.813 511.734C773.938 490.544 615.172 655.978 726.823 635.283C838.474 614.587 996.291 450.141 1108.42 428.951C1220.54 407.762 1081.21 552.949 1175.32 550.525C1269.44 548.101 1381.76 431.063 1484.88 419.256C1588 407.449 1484.21 515.599 1587.8 503.298C1691.39 490.998 1791.39 386.799 1899.25 370.054C2007.11 353.309 1906.16 458.495 2019.24 436.318C2132.31 414.141 2267.85 272.905 2351.54 281.345C2435.23 289.786 2265.09 467.072 2353.99 470.08C2442.9 473.089 2618.86 337.554 2707.15 293.379" stroke="url(#paint24_linear_293_288)" stroke-linecap="round"/>
<path d="M301.893 523.044C301.469 569.539 205.551 713.534 300.196 709.022C394.841 704.511 570.549 525.11 680.473 504.998C790.397 484.887 630.445 648.2 739.892 628.576C849.338 608.952 1008.33 446.614 1118.26 426.502C1228.18 406.391 1087.81 549.716 1179.59 548.13C1271.37 546.544 1384.53 431.006 1485.38 420.157C1586.23 409.308 1481.67 516.071 1582.99 504.734C1684.32 493.398 1785.07 390.535 1890.7 374.811C1996.32 359.087 1894.62 462.925 2005.5 441.838C2116.38 420.752 2252.94 281.326 2334.21 290.465C2415.49 299.603 2244.08 474.617 2330.6 478.393C2417.13 482.169 2592.89 348.775 2680.32 305.569" stroke="url(#paint25_linear_293_288)" stroke-linecap="round"/>
<path d="M329.673 513.092C327.783 559.368 229.772 701.856 322.113 698.197C414.455 694.537 591.317 517.508 699.038 498.455C806.758 479.401 645.756 640.556 752.996 621.984C860.236 603.412 1020.28 443.219 1128 424.166C1235.72 405.113 1094.42 546.544 1183.88 545.771C1273.34 544.998 1387.24 430.987 1485.83 421.074C1584.42 411.161 1479.16 516.512 1578.23 506.118C1677.3 495.724 1778.71 394.221 1882.11 379.497C1985.5 364.773 1883.13 467.239 1991.81 447.223C2100.5 427.208 2237.95 289.625 2316.83 299.436C2395.72 309.246 2223.18 481.946 2307.35 486.464C2391.52 490.983 2566.98 359.749 2653.52 317.51" stroke="url(#paint26_linear_293_288)" stroke-linecap="round"/>
<path d="M357.3 503.428C353.99 549.463 254.011 690.399 344.06 687.568C434.109 684.737 611.979 510.12 717.495 492.105C823.011 474.09 661.091 633.048 766.123 615.508C871.155 597.968 1032.11 439.958 1137.62 421.943C1243.14 403.928 1101.04 543.432 1188.19 543.448C1275.33 543.464 1389.89 431.007 1486.22 422.008C1582.55 413.008 1476.7 516.925 1573.51 507.451C1670.33 497.977 1772.32 397.857 1873.48 384.112C1974.65 370.368 1871.69 471.437 1978.18 452.473C2084.66 433.509 2222.9 297.801 2299.41 308.256C2375.93 318.712 2202.41 489.058 2284.24 494.294C2366.07 499.53 2541.11 370.473 2626.74 329.199" stroke="url(#paint27_linear_293_288)" stroke-linecap="round"/>
<path d="M384.762 494.052C380.078 539.823 278.257 679.163 366.025 677.137C453.793 675.111 632.525 502.945 735.835 485.948C839.145 468.951 676.441 625.678 779.266 609.149C882.09 592.62 1043.82 436.829 1147.13 419.832C1250.44 402.835 1107.65 540.38 1192.51 541.162C1277.36 541.943 1392.47 431.064 1486.55 422.956C1580.63 414.848 1474.27 517.306 1568.83 508.73C1663.4 500.154 1765.88 401.44 1864.82 388.653C1963.76 375.867 1860.31 475.517 1964.59 457.585C2068.87 439.652 2207.78 305.849 2281.95 316.923C2356.12 327.997 2181.76 495.952 2261.27 501.88C2340.78 507.807 2515.31 380.944 2599.99 340.633" stroke="url(#paint28_linear_293_288)" stroke-linecap="round"/>
<path d="M412.054 484.965C406.041 530.45 302.503 668.151 388.004 666.906C473.505 665.662 652.952 495.985 754.057 479.985C855.162 463.986 691.806 618.447 792.423 602.909C893.041 587.371 1055.42 433.831 1156.53 417.832C1257.63 401.833 1114.27 537.39 1196.84 538.912C1279.42 540.433 1394.99 431.157 1486.83 423.919C1578.67 416.68 1471.87 517.656 1564.2 509.956C1656.53 502.256 1759.42 404.968 1856.14 393.119C1952.85 381.269 1848.99 479.479 1951.07 462.557C2053.15 445.636 2192.61 313.767 2264.46 325.433C2336.3 337.098 2161.24 502.625 2238.46 509.219C2315.67 515.812 2489.59 391.16 2573.3 351.807" stroke="url(#paint29_linear_293_288)" stroke-linecap="round"/>
<path d="M439.164 476.17C431.87 521.347 326.74 657.368 409.987 656.881C493.234 656.393 673.252 489.242 772.152 474.219C871.053 459.196 707.178 611.359 805.59 596.79C904.001 582.222 1066.9 430.968 1165.8 415.945C1264.7 400.923 1120.88 534.462 1201.19 536.7C1281.5 538.937 1397.44 431.288 1487.05 424.896C1576.65 418.503 1469.52 517.976 1559.62 511.13C1649.71 504.283 1752.93 408.444 1847.43 397.509C1941.93 386.574 1837.73 483.322 1937.61 467.391C2037.49 451.46 2177.39 321.554 2246.94 333.785C2316.49 346.015 2140.88 509.078 2215.81 516.312C2290.74 523.546 2463.95 401.118 2546.67 362.721" stroke="url(#paint30_linear_293_288)" stroke-linecap="round"/>
<path d="M466.085 467.668C457.555 512.516 350.958 646.816 431.966 647.062C512.973 647.307 693.418 482.716 790.117 468.649C886.816 454.582 722.552 604.414 818.761 590.794C914.969 577.174 1078.25 428.237 1174.95 414.171C1271.65 400.104 1127.49 531.597 1205.56 534.526C1283.62 537.455 1399.83 431.455 1487.21 425.886C1574.6 420.317 1467.21 518.267 1555.08 512.25C1642.96 506.234 1746.42 411.863 1838.7 401.821C1930.99 391.78 1826.55 487.046 1924.23 472.084C2021.91 457.123 2162.14 329.207 2229.42 341.976C2296.7 354.744 2120.67 515.31 2193.34 523.158C2266.01 531.007 2438.42 410.817 2520.11 373.37" stroke="url(#paint31_linear_293_288)" stroke-linecap="round"/>
<path d="M492.802 459.46C483.083 503.958 375.142 636.497 453.927 637.452C532.711 638.406 713.439 476.409 807.939 463.277C902.439 450.145 737.917 597.614 831.926 584.922C925.935 572.23 1089.47 425.641 1183.97 412.508C1278.47 399.376 1134.09 528.797 1209.93 532.392C1285.76 535.988 1402.16 431.658 1487.32 426.89C1572.49 422.121 1464.94 518.527 1550.6 513.318C1636.26 508.109 1739.88 415.226 1829.96 406.055C1920.04 396.884 1815.44 490.649 1910.92 476.636C2006.4 462.623 2146.86 336.724 2211.89 350.004C2276.93 363.284 2100.62 521.318 2171.05 529.756C2241.49 538.194 2412.99 420.255 2493.63 383.754" stroke="url(#paint32_linear_293_288)" stroke-linecap="round"/>
<path d="M519.302 451.548C508.441 495.675 399.281 626.415 475.858 628.054C552.435 629.693 733.305 470.323 825.61 458.103C917.915 445.884 753.264 590.962 845.077 579.176C936.891 567.389 1100.56 423.177 1192.86 410.957C1285.17 398.738 1140.67 526.06 1214.3 530.298C1287.93 534.535 1404.41 431.897 1487.38 427.906C1570.34 423.915 1462.7 518.757 1546.16 514.333C1629.62 509.909 1733.33 418.531 1821.21 410.209C1909.09 401.887 1804.4 494.131 1897.69 481.045C1990.98 467.96 2131.54 344.102 2194.36 357.866C2257.17 371.631 2080.73 527.103 2148.95 536.104C2217.17 545.105 2387.67 429.428 2467.25 393.87" stroke="url(#paint33_linear_293_288)" stroke-linecap="round"/>
<path d="M545.586 443.933C533.629 487.667 423.374 616.571 497.761 618.87C572.148 621.169 753.019 464.457 843.134 453.128C933.249 441.8 768.597 584.459 858.22 573.557C947.844 562.654 1111.51 420.847 1201.63 409.518C1291.74 398.19 1147.24 523.389 1218.68 528.243C1290.12 533.097 1406.6 432.171 1487.38 428.934C1568.16 425.697 1460.52 518.957 1541.79 515.294C1623.05 511.631 1726.76 421.777 1812.45 414.282C1898.14 406.786 1793.45 497.491 1884.55 485.311C1975.65 473.131 2116.22 351.339 2176.84 365.561C2237.47 379.784 2061.02 532.663 2127.05 542.202C2193.08 551.74 2362.49 438.336 2440.97 403.714" stroke="url(#paint34_linear_293_288)" stroke-linecap="round"/>
<path d="M571.634 436.617C558.629 479.938 447.401 606.969 519.616 609.904C591.831 612.838 772.563 458.813 860.493 448.354C948.424 437.895 783.899 578.108 871.339 568.067C958.779 558.027 1122.32 418.651 1210.25 408.192C1298.18 397.732 1153.79 520.785 1223.06 526.231C1292.33 531.676 1408.73 432.481 1487.32 429.974C1565.92 427.467 1458.37 519.129 1537.46 516.204C1616.55 513.278 1720.18 424.965 1803.69 418.273C1887.2 411.581 1782.59 500.731 1871.5 489.435C1960.42 478.138 2100.88 358.434 2159.34 373.088C2217.8 387.742 2041.49 538 2105.36 548.049C2169.22 558.099 2337.44 446.977 2414.8 413.286" stroke="url(#paint35_linear_293_288)" stroke-linecap="round"/>
<path d="M597.442 429.598C583.436 472.487 471.358 597.61 541.419 601.155C611.481 604.701 791.935 453.391 877.688 443.779C963.441 434.167 799.17 571.908 884.432 562.707C969.695 553.506 1132.99 416.587 1218.74 406.975C1304.49 397.363 1160.33 518.246 1227.45 524.259C1294.57 530.271 1410.78 432.824 1487.22 431.024C1563.65 429.224 1456.26 519.27 1533.19 517.059C1610.12 514.848 1713.58 428.091 1794.92 422.18C1876.26 416.268 1771.82 503.847 1858.55 493.412C1945.29 482.978 2085.53 365.384 2141.86 380.442C2198.19 395.5 2022.15 543.109 2083.88 553.644C2145.6 564.179 2312.54 455.348 2388.76 422.582" stroke="url(#paint36_linear_293_288)" stroke-linecap="round"/>
<path d="M622.996 422.879C608.037 465.317 495.231 588.497 563.159 592.629C631.087 596.76 811.125 448.193 894.708 439.405C978.292 430.618 814.398 565.863 897.493 557.479C980.587 549.095 1143.5 414.658 1227.09 405.87C1310.67 397.083 1166.83 515.775 1231.83 522.329C1296.82 528.883 1412.77 433.202 1487.06 432.085C1561.34 430.968 1454.2 519.382 1528.98 517.861C1603.76 516.341 1706.98 431.157 1786.16 426.003C1865.35 420.849 1761.14 506.84 1845.7 497.245C1930.26 487.65 2070.18 372.188 2124.41 387.623C2178.64 403.058 2003.01 547.993 2062.62 558.987C2122.23 569.982 2287.8 463.448 2362.86 431.601" stroke="url(#paint37_linear_293_288)" stroke-linecap="round"/>
<path d="M648.292 416.462C632.426 458.428 519.013 579.633 584.828 584.326C650.642 589.019 830.129 443.218 911.551 435.233C992.973 427.248 829.582 559.973 910.517 552.384C991.451 544.795 1153.87 412.861 1235.29 404.876C1316.71 396.891 1173.32 513.372 1236.21 520.442C1299.09 527.512 1414.69 433.614 1486.84 433.156C1559 432.698 1452.18 519.465 1524.83 518.611C1597.47 517.758 1700.38 434.16 1777.41 429.74C1854.45 425.321 1750.56 509.711 1832.96 500.933C1915.36 492.155 2054.85 378.843 2107.01 394.629C2159.16 410.416 1984.07 552.65 2041.59 564.078C2099.11 575.506 2263.22 471.276 2337.1 440.342" stroke="url(#paint38_linear_293_288)" stroke-linecap="round"/>
<path d="M673.318 410.343C656.593 451.819 542.694 571.017 606.416 576.246C670.139 581.476 848.939 438.467 928.209 431.261C1007.48 424.054 844.714 554.239 923.499 547.422C1002.28 540.604 1164.08 411.197 1243.35 403.99C1322.62 396.784 1179.77 511.036 1240.58 518.597C1301.39 526.158 1416.54 434.057 1486.58 434.235C1556.62 434.412 1450.21 519.518 1520.74 519.307C1591.26 519.095 1693.78 437.098 1768.68 433.39C1843.58 429.681 1740.09 512.455 1820.33 504.472C1900.57 496.489 2039.53 385.346 2089.65 401.456C2139.76 417.567 1965.34 557.078 2020.8 568.914C2076.26 580.75 2238.82 478.828 2311.5 448.799" stroke="url(#paint39_linear_293_288)" stroke-linecap="round"/>
<path d="M698.06 404.529C680.523 445.496 566.258 562.656 627.911 568.397C689.564 574.138 867.542 433.943 944.671 427.493C1021.8 421.043 859.782 548.666 936.427 542.597C1013.07 536.528 1174.12 409.667 1251.25 403.217C1328.38 396.767 1186.19 508.771 1244.94 516.798C1303.69 524.824 1418.32 434.536 1486.26 435.324C1554.2 436.113 1448.28 519.544 1516.7 519.951C1585.13 520.359 1687.18 439.975 1759.95 436.954C1832.73 433.933 1729.71 515.078 1807.81 507.867C1885.91 500.655 2024.23 391.699 2072.34 408.107C2120.45 424.515 1946.82 561.281 2000.25 573.499C2053.68 585.716 2214.61 486.107 2286.06 456.976" stroke="url(#paint40_linear_293_288)" stroke-linecap="round"/>
<path d="M722.52 399.015C704.218 439.455 589.707 554.548 649.313 560.775C708.918 567.003 885.943 429.642 960.942 423.926C1035.94 418.209 874.791 543.252 949.309 537.908C1023.83 532.565 1184.01 408.269 1259.01 402.552C1334.01 396.835 1192.59 506.574 1249.3 515.041C1306.02 523.508 1420.03 435.045 1485.89 436.421C1551.75 437.796 1446.4 519.54 1512.74 520.542C1579.08 521.544 1680.58 442.786 1751.25 440.429C1821.92 438.071 1719.46 517.576 1795.42 511.113C1871.38 504.649 2008.96 397.896 2055.1 414.575C2101.23 431.254 1928.54 565.255 1979.96 577.829C2031.39 590.402 2190.6 493.108 2260.81 464.868" stroke="url(#paint41_linear_293_288)" stroke-linecap="round"/>
<path d="M746.678 393.804C727.659 433.699 613.021 546.696 670.602 553.385C728.184 560.074 904.124 425.568 977.005 420.561C1049.89 415.554 889.723 537.999 962.126 533.357C1034.53 528.716 1193.74 407.003 1266.62 401.996C1339.5 396.989 1198.94 504.447 1253.65 513.33C1308.36 522.212 1421.67 435.587 1485.47 437.525C1549.27 439.463 1444.56 519.508 1508.84 521.081C1573.11 522.653 1673.99 445.531 1742.57 443.814C1811.15 442.096 1709.31 519.949 1783.15 514.211C1856.99 508.473 1993.72 403.939 2037.92 420.862C2082.11 437.786 1910.48 569.002 1959.93 581.905C2009.38 594.808 2166.78 499.831 2235.73 472.474" stroke="url(#paint42_linear_293_288)" stroke-linecap="round"/>
<path d="M770.534 388.895C750.845 428.228 636.197 539.1 691.779 546.226C747.361 553.352 922.087 421.719 992.863 417.398C1063.64 413.078 904.581 532.907 974.882 528.944C1045.18 524.981 1203.29 405.868 1274.07 401.547C1344.84 397.227 1205.25 502.39 1257.99 511.662C1310.72 520.934 1423.25 436.16 1485 438.635C1546.76 441.111 1442.77 519.447 1505 521.565C1567.23 523.683 1667.42 448.209 1733.92 447.108C1800.42 446.006 1699.29 522.196 1771.02 517.16C1842.74 512.124 1978.53 409.823 2020.82 426.964C2063.11 444.105 1892.66 572.519 1940.17 585.726C1987.68 598.933 2143.19 506.275 2210.86 479.791" stroke="url(#paint43_linear_293_288)" stroke-linecap="round"/>
<path d="M794.073 384.29C773.762 423.044 659.221 531.767 712.829 539.304C766.437 546.842 939.82 418.098 1008.5 414.44C1077.19 410.782 919.354 527.981 987.567 524.673C1055.78 521.365 1212.67 404.866 1281.36 401.208C1350.04 397.55 1211.52 500.406 1262.31 510.042C1313.09 519.679 1424.75 436.765 1484.48 439.754C1544.22 442.743 1441.03 519.36 1501.24 521.999C1561.44 524.639 1660.85 450.821 1725.3 450.312C1789.74 449.803 1689.39 524.32 1759.01 519.963C1828.64 515.605 1963.39 415.549 2003.81 432.882C2044.22 450.215 1875.08 575.811 1920.68 589.295C1966.28 602.78 2119.82 512.44 2186.2 486.821" stroke="url(#paint44_linear_293_288)" stroke-linecap="round"/>
<path d="M817.287 379.989C796.401 418.146 682.084 524.694 733.743 532.618C785.402 540.542 957.316 414.702 1023.92 411.684C1090.53 408.665 934.035 523.22 1000.18 520.543C1066.32 517.866 1221.88 403.995 1288.49 400.976C1355.1 397.958 1217.75 498.492 1266.61 508.468C1315.47 518.443 1426.18 437.4 1483.91 440.878C1541.65 444.357 1439.34 519.245 1497.54 522.381C1555.74 525.518 1654.31 453.365 1716.71 453.424C1779.11 453.483 1679.61 526.319 1747.15 522.617C1814.7 518.914 1948.3 421.115 1986.88 438.613C2025.46 456.112 1857.75 578.874 1901.47 592.611C1945.19 606.348 2096.68 518.324 2161.75 493.562" stroke="url(#paint45_linear_293_288)" stroke-linecap="round"/>
<path d="M840.169 375.988C818.756 413.533 704.777 517.883 754.514 526.168C804.251 534.453 974.57 411.532 1039.12 409.129C1103.66 406.725 948.619 518.623 1012.7 516.553C1076.79 514.483 1230.91 403.254 1295.46 400.85C1360 398.446 1223.93 496.649 1270.89 506.938C1317.85 517.228 1427.54 438.064 1483.3 442.007C1539.05 445.95 1437.69 519.101 1493.91 522.71C1550.12 526.318 1647.78 455.84 1708.16 456.442C1768.54 457.045 1669.96 528.192 1735.44 525.12C1800.91 522.048 1933.28 426.518 1970.05 444.155C2006.83 461.793 1840.68 581.707 1882.55 595.671C1924.42 609.634 2073.78 523.925 2137.53 500.009" stroke="url(#paint46_linear_293_288)" stroke-linecap="round"/>
<path d="M862.711 372.291C840.817 409.208 727.292 511.336 775.134 519.957C822.976 528.578 991.576 408.589 1054.08 406.776C1116.58 404.964 963.101 514.193 1025.15 512.707C1087.19 511.22 1239.75 402.643 1302.26 400.83C1364.76 399.018 1230.06 494.879 1275.16 505.457C1320.25 516.034 1428.83 438.758 1482.63 443.141C1536.43 447.523 1436.09 518.93 1490.35 522.987C1544.6 527.043 1641.27 458.245 1699.65 459.367C1758.03 460.489 1660.45 529.939 1723.87 527.475C1787.29 525.01 1918.32 431.757 1953.33 449.508C1988.34 467.259 1823.87 584.314 1863.92 598.478C1903.97 612.643 2051.14 529.244 2113.54 506.165" stroke="url(#paint47_linear_293_288)" stroke-linecap="round"/>
<path d="M884.908 368.896C862.58 405.169 749.623 505.054 795.597 513.986C841.572 522.919 1008.33 405.871 1068.81 404.626C1129.28 403.38 977.478 509.931 1037.5 509.004C1097.52 508.076 1248.42 402.161 1308.9 400.916C1369.37 399.67 1236.15 493.181 1279.4 504.022C1322.66 514.862 1430.05 439.481 1481.92 444.279C1533.79 449.077 1434.55 518.732 1486.87 523.212C1539.18 527.691 1634.8 460.58 1691.2 462.197C1747.59 463.814 1651.07 531.562 1712.45 529.68C1773.84 527.798 1903.44 436.832 1936.72 454.67C1970.01 472.508 1807.33 586.693 1845.6 601.033C1883.87 615.372 2028.76 534.279 2089.81 512.028" stroke="url(#paint48_linear_293_288)" stroke-linecap="round"/>
<path d="M906.742 365.804C884.028 401.417 771.751 499.039 815.887 508.258C860.023 517.476 1024.82 403.38 1083.29 402.678C1141.75 401.975 991.734 505.839 1049.75 505.446C1107.77 505.053 1256.9 401.809 1315.36 401.106C1373.83 400.403 1242.17 491.556 1283.62 502.634C1325.07 513.713 1431.2 440.233 1481.16 445.421C1531.12 450.609 1433.05 518.508 1483.45 523.386C1533.86 528.264 1628.35 462.845 1682.78 464.932C1737.22 467.02 1641.83 533.059 1701.2 531.736C1760.56 530.413 1888.63 441.741 1920.23 459.641C1951.83 477.54 1791.06 588.845 1827.58 603.335C1864.11 617.824 2006.64 539.032 2066.32 517.597" stroke="url(#paint49_linear_293_288)" stroke-linecap="round"/>
<path d="M928.215 363.012C905.161 397.952 793.675 493.292 836.002 502.771C878.329 512.251 1041.05 401.115 1097.52 400.93C1154 400.746 1005.87 501.916 1061.91 502.033C1117.94 502.15 1265.18 401.585 1321.66 401.4C1378.14 401.216 1248.14 490.003 1287.81 501.295C1327.49 512.586 1432.28 441.012 1480.36 446.566C1528.43 452.119 1431.6 518.257 1480.11 523.509C1528.63 528.76 1621.93 465.038 1674.42 467.572C1726.92 470.105 1632.74 534.431 1690.1 533.643C1747.46 532.854 1873.92 446.482 1903.87 464.418C1933.81 482.353 1775.08 590.771 1809.89 605.384C1844.7 619.998 1984.8 543.5 2043.11 522.871" stroke="url(#paint50_linear_293_288)" stroke-linecap="round"/>
<path d="M949.313 360.522C925.967 394.774 815.382 487.813 855.93 497.528C896.478 507.244 1057 399.075 1111.5 399.384C1166.01 399.693 1019.88 498.163 1073.95 498.766C1128.02 499.369 1273.28 401.488 1327.78 401.797C1382.29 402.107 1254.05 488.525 1291.98 500.004C1329.91 511.483 1433.29 441.819 1479.5 447.713C1525.72 453.608 1430.2 517.98 1476.85 523.58C1523.5 529.181 1615.54 467.16 1666.12 470.115C1716.7 473.069 1623.79 535.678 1679.17 535.4C1734.55 535.121 1859.3 451.055 1887.63 469.001C1915.97 486.946 1759.37 592.47 1792.51 607.182C1825.64 621.895 1963.25 547.683 2020.16 527.85" stroke="url(#paint51_linear_293_288)" stroke-linecap="round"/>
<path d="M970.034 358.333C946.442 391.882 836.868 482.604 875.667 492.53C914.465 502.457 1072.67 397.26 1125.23 398.038C1177.78 398.817 1033.76 494.581 1085.89 495.646C1138.02 496.71 1281.18 401.518 1333.73 402.297C1386.29 403.076 1259.9 487.119 1296.11 498.761C1332.33 510.402 1434.22 442.653 1478.61 448.863C1523 455.073 1428.85 517.677 1473.67 523.602C1518.48 529.526 1609.19 469.209 1657.88 472.56C1706.57 475.912 1615 536.801 1668.41 537.008C1721.83 537.215 1844.78 455.458 1871.54 473.389C1898.31 491.319 1743.97 593.944 1775.46 608.73C1806.95 623.516 1941.99 551.582 1997.51 532.533" stroke="url(#paint52_linear_293_288)" stroke-linecap="round"/>
<path d="M990.365 356.443C966.574 389.277 858.119 477.666 895.2 487.778C932.281 497.891 1088.06 395.669 1138.69 396.893C1189.32 398.116 1047.51 491.171 1097.71 492.673C1147.91 494.174 1288.88 401.675 1339.51 402.898C1390.13 404.122 1265.68 485.788 1300.22 497.567C1334.76 509.346 1435.09 443.513 1477.67 450.015C1520.26 456.516 1427.55 517.349 1470.56 523.572C1513.56 529.796 1602.88 471.185 1649.7 474.909C1696.52 478.632 1606.35 537.799 1657.83 538.467C1709.3 539.135 1830.37 459.691 1855.6 477.581C1880.83 495.471 1728.86 595.193 1758.74 610.028C1788.62 624.862 1921.04 555.197 1975.14 536.92" stroke="url(#paint53_linear_293_288)" stroke-linecap="round"/>
<path d="M1010.3 354.852C986.358 386.957 879.13 472.999 914.525 483.272C949.921 493.546 1103.16 394.302 1151.88 395.946C1200.61 397.59 1061.1 487.934 1109.41 489.847C1157.71 491.761 1296.38 401.956 1345.1 403.6C1393.82 405.244 1271.4 484.531 1304.29 496.422C1337.19 508.314 1435.88 444.399 1476.69 451.167C1517.5 457.934 1426.3 516.995 1467.53 523.493C1508.75 529.991 1596.62 473.088 1641.59 477.159C1686.57 481.23 1597.87 538.672 1647.42 539.777C1696.98 540.881 1816.07 463.752 1839.81 481.576C1863.54 499.401 1714.05 596.218 1742.36 611.076C1770.68 625.934 1900.4 558.526 1953.07 541.009" stroke="url(#paint54_linear_293_288)" stroke-linecap="round"/>
<path d="M1029.84 353.558C1005.78 384.921 899.888 468.603 933.63 479.013C967.372 489.423 1117.97 393.158 1164.8 395.198C1211.64 397.237 1074.55 484.869 1120.98 487.169C1167.41 489.47 1303.68 402.361 1350.52 404.4C1397.35 406.44 1277.04 483.347 1308.33 495.326C1339.62 507.306 1436.6 445.309 1475.66 452.319C1514.73 459.328 1425.11 516.616 1464.58 523.363C1504.05 530.111 1590.4 474.916 1633.55 479.309C1676.7 483.703 1589.54 539.421 1637.2 540.937C1684.85 542.453 1801.89 467.639 1824.17 485.373C1846.46 503.108 1699.55 597.018 1726.33 611.875C1753.12 626.732 1880.07 561.57 1931.32 544.801" stroke="url(#paint55_linear_293_288)" stroke-linecap="round"/>
<path d="M1048.96 352.562C1024.85 383.172 920.39 464.481 952.512 475.003C984.634 485.524 1132.47 392.238 1177.45 394.648C1222.43 397.058 1087.85 481.979 1132.42 484.642C1177 487.305 1310.78 402.891 1355.75 405.301C1400.73 407.711 1282.62 482.238 1312.33 494.281C1342.04 506.324 1437.26 446.245 1474.6 453.472C1511.95 460.698 1423.96 516.213 1461.71 523.186C1499.46 530.158 1584.22 476.671 1625.59 481.362C1666.95 486.054 1581.38 540.048 1627.16 541.951C1672.94 543.853 1787.84 471.354 1808.71 488.973C1829.58 506.593 1685.36 597.597 1710.65 612.428C1735.95 627.259 1860.07 564.33 1909.88 548.298" stroke="url(#paint56_linear_293_288)" stroke-linecap="round"/>
<path d="M1067.67 351.861C1043.54 381.705 940.619 460.631 971.154 471.24C1001.69 481.849 1146.67 391.539 1189.81 394.295C1232.95 397.05 1100.97 479.261 1143.72 482.262C1186.47 485.263 1317.66 403.543 1360.8 406.299C1403.94 409.054 1288.12 481.204 1316.29 493.285C1344.46 505.366 1437.83 447.205 1473.49 454.623C1509.15 462.041 1422.87 515.785 1458.92 522.958C1494.97 530.131 1578.1 478.35 1617.69 483.315C1657.29 488.279 1573.38 540.55 1617.31 542.815C1661.24 545.08 1773.91 474.894 1793.41 492.374C1812.92 509.854 1671.49 597.954 1695.33 612.735C1719.16 627.515 1840.41 566.805 1888.77 551.496" stroke="url(#paint57_linear_293_288)" stroke-linecap="round"/>
<path d="M1085.95 351.454C1061.86 380.522 960.579 457.055 989.563 467.726C1018.55 478.397 1160.56 391.061 1201.89 394.138C1243.22 397.214 1113.94 476.719 1154.89 480.032C1195.84 483.346 1324.34 404.317 1365.67 407.394C1407 410.47 1293.55 480.244 1320.22 492.339C1346.89 504.434 1438.34 448.188 1472.34 455.773C1506.34 463.359 1421.83 515.333 1456.22 522.682C1490.6 530.03 1572.03 479.955 1609.89 485.167C1647.75 490.38 1565.55 540.93 1607.65 543.532C1649.76 546.134 1760.13 478.259 1778.3 495.575C1796.48 512.891 1657.94 598.091 1680.37 612.796C1702.79 627.502 1821.09 568.997 1868 554.397" stroke="url(#paint58_linear_293_288)" stroke-linecap="round"/>
<path d="M1103.81 351.34C1079.79 379.621 980.251 453.753 1007.72 464.462C1035.18 475.171 1174.12 390.803 1213.67 394.176C1253.22 397.549 1126.74 474.35 1165.91 477.952C1205.08 481.554 1330.8 405.211 1370.35 408.584C1409.9 411.957 1298.9 479.358 1324.1 491.443C1349.3 503.527 1438.78 449.193 1471.15 456.922C1503.53 464.65 1420.84 514.858 1453.6 522.357C1486.35 529.857 1566.01 481.483 1602.16 486.919C1638.31 492.355 1557.89 541.187 1598.19 544.101C1638.5 547.015 1746.48 481.447 1763.37 498.576C1780.27 515.704 1644.72 598.008 1665.77 612.614C1686.82 627.22 1802.12 570.904 1847.56 557.001" stroke="url(#paint59_linear_293_288)" stroke-linecap="round"/>
<path d="M1121.23 351.519C1097.33 379.001 999.634 450.724 1025.62 461.447C1051.6 472.169 1187.37 390.765 1225.16 394.409C1262.95 398.053 1139.36 472.157 1176.78 476.022C1214.2 479.887 1337.06 406.225 1374.85 409.869C1412.64 413.513 1304.17 478.548 1327.94 490.598C1351.71 502.647 1439.15 450.221 1469.93 458.068C1500.71 465.915 1419.91 514.359 1451.06 521.985C1482.21 529.611 1560.06 482.936 1594.53 488.57C1629 494.205 1550.41 541.323 1588.94 544.524C1627.47 547.725 1732.99 484.46 1748.64 501.376C1764.29 518.293 1631.84 597.706 1651.55 612.189C1671.26 626.672 1783.5 572.529 1827.49 559.309" stroke="url(#paint60_linear_293_288)" stroke-linecap="round"/>
<path d="M1138.21 351.986C1114.47 378.66 1018.72 447.969 1043.26 458.681C1067.79 469.393 1200.3 390.943 1236.36 394.834C1272.42 398.724 1151.8 470.138 1187.5 474.242C1223.2 478.345 1343.1 407.357 1379.16 411.247C1415.22 415.137 1309.36 477.811 1331.74 489.802C1354.11 501.793 1439.45 451.27 1468.67 459.211C1497.89 467.151 1419.03 513.837 1448.61 521.564C1478.19 529.292 1554.16 484.311 1586.98 490.12C1619.8 495.929 1543.11 541.336 1579.89 544.8C1616.67 548.263 1719.65 487.294 1734.1 503.975C1748.56 520.656 1619.29 597.187 1637.71 611.523C1656.13 625.859 1765.26 573.87 1807.77 561.319" stroke="url(#paint61_linear_293_288)" stroke-linecap="round"/>
<path d="M1154.73 352.743C1131.21 378.598 1037.49 445.489 1060.62 456.166C1083.75 466.843 1212.89 391.339 1247.25 395.451C1281.6 399.563 1164.04 468.295 1198.05 472.612C1232.06 476.929 1348.92 408.606 1383.27 412.718C1417.63 416.829 1314.46 477.15 1335.48 489.058C1356.5 500.966 1439.67 452.341 1467.37 460.35C1495.06 468.36 1418.2 513.293 1446.24 521.098C1474.28 528.902 1548.33 485.611 1579.53 491.569C1610.73 497.527 1535.98 541.229 1571.04 544.93C1606.1 548.631 1706.47 489.952 1719.77 506.374C1733.07 522.796 1607.09 596.453 1624.25 610.618C1641.41 624.783 1747.38 574.93 1788.42 563.034" stroke="url(#paint62_linear_293_288)" stroke-linecap="round"/>
<path d="M1170.81 353.786C1147.53 378.814 1055.95 443.282 1077.71 453.9C1099.46 464.519 1225.15 391.951 1257.83 396.259C1290.52 400.567 1176.1 466.627 1208.45 471.132C1240.79 475.638 1354.52 409.972 1387.2 414.28C1419.89 418.588 1319.48 476.563 1339.18 488.365C1358.89 500.166 1439.83 453.431 1466.03 461.486C1492.22 469.541 1417.43 512.726 1443.97 520.584C1470.5 528.441 1542.57 486.833 1572.18 492.916C1601.79 498.999 1529.04 541.001 1562.41 544.915C1595.78 548.829 1693.46 492.431 1705.65 508.571C1717.84 524.711 1595.23 595.503 1611.18 609.474C1627.13 623.445 1729.88 575.709 1769.45 564.453" stroke="url(#paint63_linear_293_288)" stroke-linecap="round"/>
<path d="M1186.42 355.114C1163.44 379.307 1074.09 441.35 1094.51 451.885C1114.93 462.421 1237.06 392.777 1268.1 397.257C1299.15 401.737 1187.96 465.135 1218.67 469.804C1249.38 474.473 1359.9 411.453 1390.94 415.933C1421.98 420.412 1324.41 476.052 1342.83 487.723C1361.26 499.394 1439.92 454.542 1464.66 462.617C1489.39 470.693 1416.71 512.138 1441.77 520.025C1466.84 527.911 1536.87 487.979 1564.92 494.162C1592.98 500.345 1522.28 540.655 1553.99 544.756C1585.69 548.858 1680.61 494.732 1691.74 510.567C1702.87 526.402 1583.72 594.342 1598.5 608.095C1613.28 621.848 1712.77 576.208 1750.86 565.579" stroke="url(#paint64_linear_293_288)" stroke-linecap="round"/>
<path d="M1201.57 356.726C1178.93 380.074 1091.89 439.691 1111.01 450.12C1130.14 460.549 1248.63 393.817 1278.06 398.443C1307.49 403.07 1199.62 463.818 1228.72 468.626C1257.83 473.434 1365.05 413.048 1394.48 417.674C1423.91 422.301 1329.24 475.614 1346.43 487.132C1363.62 498.649 1439.94 455.672 1463.25 463.744C1486.55 471.816 1416.04 511.529 1439.67 519.42C1463.3 527.31 1531.24 489.048 1557.77 495.306C1584.3 501.565 1515.71 540.19 1545.78 544.454C1575.86 548.718 1667.95 496.855 1678.05 512.361C1688.16 527.868 1572.56 592.969 1586.21 606.481C1599.86 619.993 1696.04 576.428 1732.65 566.41" stroke="url(#paint65_linear_293_288)" stroke-linecap="round"/>
<path d="M1216.24 358.618C1193.99 381.115 1109.36 438.305 1127.22 448.605C1145.09 458.904 1259.86 395.068 1287.7 399.816C1315.55 404.565 1211.07 462.676 1238.6 467.598C1266.13 472.52 1369.99 414.755 1397.83 419.504C1425.68 424.252 1333.98 475.252 1349.98 486.592C1365.97 497.932 1439.89 456.82 1461.8 464.865C1483.72 472.909 1415.42 510.899 1437.65 518.77C1459.88 526.64 1525.69 490.039 1550.73 496.348C1575.76 502.658 1509.34 539.607 1537.8 544.008C1566.27 548.41 1655.47 498.798 1664.6 513.954C1673.73 529.111 1561.77 591.386 1574.33 604.635C1586.89 617.883 1679.72 576.37 1714.85 566.948" stroke="url(#paint66_linear_293_288)" stroke-linecap="round"/>
<path d="M1230.44 360.788C1208.61 382.425 1126.48 437.191 1143.13 447.337C1159.77 457.483 1270.73 396.527 1297.02 401.373C1323.32 406.219 1222.31 461.708 1248.3 466.72C1274.29 471.731 1374.7 416.572 1400.99 421.418C1427.28 426.264 1338.64 474.962 1353.47 486.102C1368.31 497.242 1439.77 457.985 1460.33 465.978C1480.9 473.971 1414.86 510.246 1435.73 518.073C1456.59 525.901 1520.21 490.95 1543.79 497.287C1567.37 503.623 1503.15 538.905 1530.05 543.419C1556.94 547.933 1643.18 500.56 1651.38 515.344C1659.58 530.128 1551.34 589.593 1562.86 602.555C1574.37 615.518 1663.8 576.033 1697.45 567.192" stroke="url(#paint67_linear_293_288)" stroke-linecap="round"/>
<path d="M1244.16 363.237C1222.8 384.008 1143.25 436.351 1158.72 446.32C1174.18 456.29 1281.24 398.197 1306.02 403.116C1330.79 408.034 1233.33 460.917 1257.81 465.993C1282.29 471.069 1379.18 418.501 1403.95 423.419C1428.72 428.338 1343.19 474.748 1356.91 485.665C1370.63 496.582 1439.58 459.169 1458.82 467.087C1478.07 475.004 1414.36 509.576 1433.89 517.335C1453.43 525.095 1514.82 491.786 1536.97 498.125C1559.13 504.464 1497.16 538.088 1522.52 542.691C1547.87 547.293 1631.08 502.145 1638.4 516.535C1645.71 530.924 1541.27 587.596 1551.79 600.25C1562.31 612.903 1648.3 575.423 1680.47 567.148" stroke="url(#paint68_linear_293_288)" stroke-linecap="round"/>
<path d="M1257.39 365.959C1236.54 385.857 1159.66 435.781 1173.99 445.551C1188.31 455.322 1291.4 400.074 1314.69 405.04C1337.97 410.005 1244.13 460.299 1267.14 465.415C1290.15 470.531 1383.43 420.538 1406.72 425.504C1430 430.47 1347.65 474.608 1360.29 485.279C1372.93 495.95 1439.32 460.369 1457.29 468.187C1475.25 476.006 1413.9 508.884 1432.15 516.552C1450.39 524.221 1509.5 492.543 1530.27 498.86C1551.04 505.177 1491.37 537.155 1515.22 541.821C1539.06 546.486 1619.18 503.549 1625.66 517.523C1632.14 531.497 1531.57 585.393 1541.14 597.716C1550.7 610.038 1633.21 574.538 1663.91 566.812" stroke="url(#paint69_linear_293_288)" stroke-linecap="round"/>
<path d="M1270.13 368.953C1249.83 387.972 1175.71 435.482 1188.93 445.03C1202.15 454.577 1301.19 402.154 1323.02 407.143C1344.86 412.132 1254.7 459.855 1276.27 464.986C1297.84 470.118 1387.45 422.68 1409.28 427.67C1431.12 432.659 1352 474.54 1363.61 484.943C1375.22 495.345 1439 461.583 1455.72 469.279C1472.44 476.975 1413.5 508.173 1430.5 515.726C1447.49 523.279 1504.27 493.221 1523.68 499.492C1543.09 505.764 1485.77 536.106 1508.15 540.811C1530.52 545.515 1607.48 504.773 1613.17 518.309C1618.86 531.846 1522.25 582.987 1530.9 594.956C1539.55 606.926 1618.55 573.379 1647.77 566.187" stroke="url(#paint70_linear_293_288)" stroke-linecap="round"/>
<path d="M1282.37 372.217C1262.66 390.352 1191.38 435.454 1203.54 444.756C1215.71 454.059 1310.61 404.439 1331.03 409.427C1351.44 414.415 1265.05 459.585 1285.21 464.708C1305.36 469.83 1391.24 424.93 1411.66 429.918C1432.07 434.905 1356.25 474.547 1366.87 484.659C1377.49 494.771 1438.6 462.814 1454.12 470.364C1469.64 477.914 1413.16 507.443 1428.93 514.858C1444.71 522.273 1499.12 493.822 1517.22 500.024C1535.31 506.225 1480.38 534.945 1501.31 539.663C1522.24 544.381 1596 505.818 1600.94 518.896C1605.88 531.974 1513.3 580.38 1521.08 591.975C1528.86 603.57 1604.31 571.95 1632.06 565.275" stroke="url(#paint71_linear_293_288)" stroke-linecap="round"/>
<path d="M1294.11 375.747C1275.04 392.992 1206.67 435.694 1217.82 444.729C1228.96 453.764 1319.66 406.925 1338.69 411.887C1357.72 416.849 1275.16 459.488 1293.94 464.577C1312.73 469.667 1394.8 427.282 1413.83 432.244C1432.86 437.206 1360.4 474.627 1370.07 484.425C1379.74 494.224 1438.15 464.059 1452.5 471.439C1466.84 478.82 1412.87 506.694 1427.46 513.947C1442.06 521.2 1494.06 494.344 1510.88 500.452C1527.69 506.559 1475.19 533.67 1494.72 538.377C1514.24 543.085 1584.73 506.683 1588.97 519.282C1593.22 531.881 1504.74 577.574 1511.69 588.773C1518.65 599.972 1590.52 570.251 1616.79 564.077" stroke="url(#paint72_linear_293_288)" stroke-linecap="round"/>
<path d="M1305.35 379.542C1286.95 395.894 1221.58 436.203 1231.75 444.948C1241.91 453.693 1328.34 409.611 1346.02 414.523C1363.7 419.435 1285.03 459.564 1302.48 464.596C1319.92 469.628 1398.12 429.738 1415.81 434.65C1433.49 439.562 1364.45 474.78 1373.2 484.244C1381.96 493.708 1437.62 465.318 1450.84 472.506C1464.06 479.694 1412.63 505.927 1426.08 512.996C1439.54 520.064 1489.09 494.788 1504.66 500.778C1520.23 506.768 1470.21 532.283 1488.36 536.956C1506.51 541.628 1573.68 507.369 1577.27 519.468C1580.86 531.567 1496.55 574.571 1502.73 585.353C1508.9 596.135 1577.16 568.284 1601.97 562.594" stroke="url(#paint73_linear_293_288)" stroke-linecap="round"/>
<path d="M1316.07 383.6C1298.39 399.053 1236.09 436.979 1245.32 445.413C1254.56 453.846 1336.63 412.495 1353 417.333C1369.37 422.171 1294.65 459.813 1310.8 464.763C1326.94 469.713 1401.21 432.295 1417.58 437.133C1433.95 441.971 1368.38 475.006 1376.27 484.114C1384.17 493.221 1437.03 466.591 1449.16 473.563C1461.29 480.536 1412.44 505.144 1424.8 512.004C1437.15 518.864 1484.21 495.155 1498.57 501.004C1512.94 506.853 1465.43 530.787 1482.24 535.4C1499.06 540.013 1562.85 507.876 1565.83 519.455C1568.82 531.035 1488.75 571.375 1494.19 581.718C1499.63 592.062 1564.24 566.052 1587.59 560.83" stroke="url(#paint74_linear_293_288)" stroke-linecap="round"/>
<path d="M1326.29 387.915C1309.35 402.466 1250.21 438.021 1258.55 446.12C1266.89 454.22 1344.55 415.574 1359.64 420.314C1374.73 425.053 1304.03 460.233 1318.92 465.077C1333.8 469.921 1404.07 434.951 1419.16 439.69C1434.26 444.429 1372.21 475.304 1379.28 484.034C1386.35 492.763 1436.37 467.875 1447.45 474.609C1458.53 481.343 1412.32 504.342 1423.61 510.971C1434.9 517.601 1479.43 495.442 1492.62 501.127C1505.82 506.811 1460.86 529.179 1476.38 533.708C1491.89 538.237 1552.25 508.203 1554.68 519.243C1557.11 530.283 1481.34 567.984 1486.09 577.869C1490.85 587.753 1551.78 563.554 1573.68 558.783" stroke="url(#paint75_linear_293_288)" stroke-linecap="round"/>
<path d="M1335.98 392.487C1319.84 406.133 1263.92 439.328 1271.41 447.072C1278.9 454.816 1352.08 418.848 1365.93 423.464C1379.78 428.081 1313.16 460.824 1326.81 465.538C1340.47 470.253 1406.69 437.705 1420.54 442.322C1434.39 446.938 1375.92 475.674 1382.22 484.005C1388.51 492.336 1435.65 469.171 1445.72 475.645C1455.79 482.119 1412.24 503.524 1422.51 509.9C1432.78 516.276 1474.74 495.652 1486.81 501.149C1498.87 506.645 1456.51 527.464 1470.76 531.885C1485 536.306 1541.88 508.352 1543.8 518.833C1545.72 529.314 1474.32 564.403 1478.43 573.809C1482.54 583.215 1539.78 560.795 1560.23 556.457" stroke="url(#paint76_linear_293_288)" stroke-linecap="round"/>
<path d="M1345.16 397.312C1329.84 410.051 1277.22 440.898 1283.9 448.266C1290.58 455.633 1359.23 422.313 1371.88 426.783C1384.52 431.253 1322.03 461.586 1334.49 466.147C1346.96 470.707 1409.07 440.556 1421.72 445.026C1434.37 449.496 1379.53 476.117 1385.09 484.028C1390.65 491.938 1434.86 470.479 1443.96 476.67C1453.07 482.86 1412.21 502.69 1421.5 508.79C1430.8 514.89 1470.16 495.785 1481.13 501.07C1492.09 506.355 1452.36 525.641 1465.38 529.93C1478.4 534.22 1531.76 508.324 1533.21 518.227C1534.67 528.13 1467.7 560.635 1471.21 569.542C1474.71 578.449 1528.23 557.776 1547.24 553.854" stroke="url(#paint77_linear_293_288)" stroke-linecap="round"/>
<path d="M1353.81 402.387C1339.36 414.215 1290.11 442.729 1296.02 449.699C1301.94 456.669 1365.98 425.966 1377.47 430.266C1388.95 434.566 1330.65 462.516 1341.96 466.9C1353.26 471.283 1411.22 443.5 1422.71 447.8C1434.19 452.1 1383.02 476.629 1387.89 484.1C1392.76 491.57 1434.01 471.797 1442.19 477.682C1450.36 483.567 1412.25 501.839 1420.6 507.641C1428.95 513.443 1465.67 495.839 1475.59 500.89C1485.5 505.94 1448.43 523.712 1460.26 527.845C1472.1 531.978 1521.87 508.116 1522.91 517.422C1523.96 526.728 1461.47 556.681 1464.43 565.069C1467.38 573.457 1517.16 554.499 1534.74 550.975" stroke="url(#paint78_linear_293_288)" stroke-linecap="round"/>
<path d="M1361.94 407.708C1348.39 418.625 1302.57 444.822 1307.76 451.373C1312.95 457.924 1372.35 429.807 1382.71 433.913C1393.06 438.02 1338.99 463.615 1349.19 467.798C1359.39 471.981 1413.13 446.538 1423.49 450.644C1433.84 454.75 1386.39 477.214 1390.62 484.223C1394.84 491.233 1433.09 473.125 1440.38 478.683C1447.67 484.241 1412.33 500.974 1419.78 506.455C1427.23 511.937 1461.29 495.815 1470.19 500.609C1479.09 505.403 1444.72 521.677 1455.4 525.631C1466.08 529.584 1512.24 507.732 1512.91 516.423C1513.58 525.114 1455.64 552.543 1458.09 560.393C1460.54 568.243 1506.55 550.966 1522.7 547.824" stroke="url(#paint79_linear_293_288)" stroke-linecap="round"/>
<path d="M1369.53 413.273C1356.93 423.276 1314.6 447.172 1319.12 453.284C1323.63 459.396 1378.32 433.832 1387.59 437.721C1396.85 441.61 1347.07 464.882 1356.2 468.84C1365.32 472.799 1414.8 449.666 1424.07 453.555C1433.34 457.444 1389.65 477.867 1393.27 484.396C1396.9 490.925 1432.11 474.461 1438.56 479.67C1445 484.879 1412.46 500.092 1419.06 505.232C1425.65 510.371 1457.01 495.713 1464.94 500.228C1472.87 504.742 1441.22 519.539 1450.78 523.289C1460.35 527.039 1502.85 507.171 1503.2 515.228C1503.56 523.285 1450.21 548.224 1452.2 555.517C1454.19 562.81 1496.42 547.179 1511.16 544.4" stroke="url(#paint80_linear_293_288)" stroke-linecap="round"/>
<path d="M1376.59 419.078C1364.97 428.167 1326.21 449.78 1330.09 455.432C1333.97 461.085 1383.89 438.039 1392.11 441.688C1400.33 445.336 1354.89 466.315 1362.97 470.026C1371.06 473.737 1416.23 452.883 1424.45 456.532C1432.68 460.18 1392.79 478.592 1395.86 484.62C1398.92 490.648 1431.08 475.806 1436.72 480.644C1442.36 485.483 1412.65 499.197 1418.43 503.973C1424.21 508.748 1452.84 495.535 1459.84 499.747C1466.84 503.959 1437.94 517.298 1446.43 520.821C1454.93 524.344 1493.72 506.434 1493.81 513.84C1493.89 521.245 1445.19 543.727 1446.76 550.444C1448.33 557.161 1486.77 543.142 1500.1 540.708" stroke="url(#paint81_linear_293_288)" stroke-linecap="round"/>
<path d="M1383.12 425.121C1372.5 433.295 1337.37 452.644 1340.66 457.816C1343.95 462.989 1389.06 442.427 1396.28 445.812C1403.49 449.196 1362.42 467.915 1369.51 471.355C1376.6 474.796 1417.42 456.189 1424.64 459.574C1431.85 462.958 1395.81 479.386 1398.37 484.894C1400.92 490.402 1429.97 477.159 1434.86 481.606C1439.74 486.052 1412.89 498.289 1417.9 502.679C1422.91 507.069 1448.77 495.28 1454.88 499.167C1460.99 503.055 1434.88 514.956 1442.34 518.229C1449.79 521.502 1484.85 505.522 1484.71 512.259C1484.57 518.996 1440.56 539.056 1441.77 545.178C1442.97 551.301 1477.59 538.857 1489.54 536.749" stroke="url(#paint82_linear_293_288)" stroke-linecap="round"/>
<path d="M1389.11 431.397C1379.54 438.656 1348.1 455.76 1350.84 460.434C1353.59 465.107 1393.84 446.991 1400.08 450.089C1406.33 453.187 1369.69 469.678 1375.82 472.825C1381.96 475.973 1418.38 459.58 1424.62 462.678C1430.87 465.776 1398.71 480.249 1400.8 485.217C1402.89 490.186 1428.81 478.519 1432.98 482.552C1437.14 486.586 1413.19 497.366 1417.46 501.35C1421.74 505.334 1444.82 494.948 1450.08 498.489C1455.34 502.03 1432.04 512.515 1438.51 515.514C1444.97 518.514 1476.25 504.435 1475.93 510.487C1475.61 516.538 1436.35 534.21 1437.23 539.721C1438.12 545.231 1468.91 534.325 1479.47 532.527" stroke="url(#paint83_linear_293_288)" stroke-linecap="round"/>
<path d="M1394.55 437.902C1386.07 444.247 1358.38 459.128 1360.62 463.282C1362.86 467.436 1398.21 451.73 1403.53 454.518C1408.84 457.307 1376.67 471.605 1381.89 474.436C1387.11 477.267 1419.1 463.054 1424.41 465.843C1429.73 468.631 1401.49 481.179 1403.16 485.59C1404.82 490 1427.59 479.885 1431.08 483.484C1434.57 487.083 1413.54 496.43 1417.12 499.987C1420.71 503.544 1440.98 494.538 1445.43 497.711C1449.89 500.883 1429.43 509.974 1434.94 512.677C1440.44 515.38 1467.92 503.174 1467.47 508.523C1467.02 513.872 1432.54 529.195 1433.15 534.074C1433.76 538.954 1460.72 529.55 1469.91 528.042" stroke="url(#paint84_linear_293_288)" stroke-linecap="round"/>
<path d="M1399.46 444.633C1392.09 450.065 1368.2 462.745 1369.99 466.361C1371.77 469.977 1402.18 456.64 1406.61 459.097C1411.04 461.553 1383.36 473.693 1387.71 476.186C1392.06 478.678 1419.57 466.61 1424 469.067C1428.43 471.523 1404.14 482.178 1405.44 486.011C1406.73 489.845 1426.31 481.256 1429.17 484.4C1432.03 487.545 1413.94 495.482 1416.88 498.591C1419.82 501.699 1437.26 494.052 1440.94 496.835C1444.63 499.617 1427.03 507.337 1431.63 509.72C1436.23 512.104 1459.86 501.739 1459.33 506.37C1458.8 511.001 1429.14 524.011 1429.53 528.243C1429.91 532.475 1453.03 524.535 1460.86 523.298" stroke="url(#paint85_linear_293_288)" stroke-linecap="round"/>
<path d="M1403.82 451.587C1397.6 456.107 1377.57 466.609 1378.94 469.668C1380.32 472.727 1405.74 461.72 1409.32 463.822C1412.91 465.924 1389.77 475.944 1393.29 478.075C1396.8 480.207 1419.81 470.247 1423.39 472.349C1426.98 474.45 1406.67 483.244 1407.63 486.482C1408.59 489.72 1424.97 482.632 1427.24 485.302C1429.51 487.972 1414.39 494.522 1416.73 497.162C1419.07 499.802 1433.65 493.491 1436.61 495.862C1439.58 498.233 1424.86 504.604 1428.59 506.646C1432.31 508.688 1452.07 500.134 1451.51 504.03C1450.95 507.926 1426.15 518.664 1426.35 522.231C1426.56 525.798 1445.83 519.282 1452.32 518.299" stroke="url(#paint86_linear_293_288)" stroke-linecap="round"/>
<path d="M1407.64 458.759C1402.6 462.37 1386.48 470.718 1387.49 473.201C1388.5 475.684 1408.89 466.966 1411.68 468.691C1414.46 470.416 1395.89 478.353 1398.62 480.101C1401.35 481.85 1419.81 473.961 1422.59 475.686C1425.37 477.411 1409.08 484.376 1409.75 487.001C1410.43 489.626 1423.57 484.012 1425.3 486.187C1427.03 488.362 1414.89 493.55 1416.68 495.701C1418.46 497.853 1430.16 492.854 1432.44 494.792C1434.73 496.73 1422.92 501.777 1425.82 503.454C1428.71 505.132 1444.56 498.356 1444.02 501.503C1443.48 504.649 1423.58 513.154 1423.65 516.04C1423.71 518.925 1439.13 513.794 1444.29 513.046" stroke="url(#paint87_linear_293_288)" stroke-linecap="round"/>
<path d="M1410.9 466.147C1407.08 468.851 1394.92 475.071 1395.61 476.96C1396.29 478.849 1411.64 472.377 1413.66 473.703C1415.68 475.029 1401.72 480.921 1403.7 482.265C1405.68 483.609 1419.56 477.752 1421.59 479.078C1423.61 480.405 1411.35 485.575 1411.79 487.57C1412.23 489.564 1422.11 485.396 1423.34 487.056C1424.57 488.717 1415.44 492.568 1416.72 494.211C1417.99 495.854 1426.79 492.143 1428.44 493.627C1430.08 495.112 1421.2 498.858 1423.31 500.149C1425.42 501.44 1437.34 496.41 1436.86 498.791C1436.38 501.173 1421.42 507.487 1421.4 509.674C1421.38 511.862 1432.94 508.076 1436.78 507.543" stroke="url(#paint88_linear_293_288)" stroke-linecap="round"/>
<path d="M1413.62 473.745C1411.04 475.544 1402.89 479.663 1403.3 480.94C1403.71 482.217 1413.97 477.947 1415.28 478.853C1416.58 479.758 1407.25 483.645 1408.52 484.562C1409.8 485.48 1419.08 481.616 1420.39 482.522C1421.69 483.427 1413.5 486.838 1413.75 488.185C1413.99 489.531 1420.6 486.782 1421.38 487.908C1422.15 489.034 1416.05 491.574 1416.85 492.689C1417.66 493.803 1423.54 491.355 1424.59 492.365C1425.65 493.375 1419.71 495.847 1421.07 496.729C1422.43 497.611 1430.4 494.293 1430.04 495.895C1429.67 497.497 1419.66 501.662 1419.6 503.136C1419.54 504.61 1427.25 502.128 1429.8 501.791" stroke="url(#paint89_linear_293_288)" stroke-linecap="round"/>
<path d="M1415.79 481.551C1414.48 482.448 1410.38 484.494 1410.57 485.141C1410.75 485.788 1415.89 483.676 1416.53 484.139C1417.16 484.603 1412.48 486.525 1413.09 486.995C1413.71 487.464 1418.36 485.553 1418.99 486.016C1419.63 486.48 1415.52 488.167 1415.62 488.848C1415.72 489.53 1419.03 488.17 1419.39 488.742C1419.76 489.315 1416.7 490.572 1417.08 491.138C1417.46 491.705 1420.41 490.494 1420.91 491.009C1421.42 491.525 1418.44 492.747 1419.1 493.199C1419.76 493.651 1423.76 492.01 1423.55 492.817C1423.34 493.625 1418.33 495.685 1418.27 496.43C1418.22 497.175 1422.07 495.955 1423.34 495.796" stroke="url(#paint90_linear_293_288)" stroke-linecap="round"/>
</g>
<defs>
<linearGradient id="paint0_linear_293_288" x1="186497" y1="-45505.3" x2="180004" y2="-71554.7" gradientUnits="userSpaceOnUse">
<stop offset="0.45" stop-color="#2BFDBE"/>
<stop offset="1" stop-color="#2BFDBE" stop-opacity="0.06"/>
</linearGradient>
<linearGradient id="paint1_linear_293_288" x1="183941" y1="-43854.1" x2="177628" y2="-69757.2" gradientUnits="userSpaceOnUse">
<stop offset="0.45" stop-color="#2BFDBE"/>
<stop offset="1" stop-color="#2BFDBE" stop-opacity="0.06"/>
</linearGradient>
<linearGradient id="paint2_linear_293_288" x1="181365" y1="-42220.9" x2="175232" y2="-67979" gradientUnits="userSpaceOnUse">
<stop offset="0.45" stop-color="#2BFDBE"/>
<stop offset="1" stop-color="#2BFDBE" stop-opacity="0.06"/>
</linearGradient>
<linearGradient id="paint3_linear_293_288" x1="178772" y1="-40606" x2="172817" y2="-66220.4" gradientUnits="userSpaceOnUse">
<stop offset="0.45" stop-color="#2BFDBE"/>
<stop offset="1" stop-color="#2BFDBE" stop-opacity="0.06"/>
</linearGradient>
<linearGradient id="paint4_linear_293_288" x1="176161" y1="-39010" x2="170384" y2="-64481.8" gradientUnits="userSpaceOnUse">
<stop offset="0.45" stop-color="#2BFDBE"/>
<stop offset="1" stop-color="#2BFDBE" stop-opacity="0.06"/>
</linearGradient>
<linearGradient id="paint5_linear_293_288" x1="173534" y1="-37433.2" x2="167934" y2="-62763.7" gradientUnits="userSpaceOnUse">
<stop offset="0.45" stop-color="#2BFDBE"/>
<stop offset="1" stop-color="#2BFDBE" stop-opacity="0.06"/>
</linearGradient>
<linearGradient id="paint6_linear_293_288" x1="170893" y1="-35876.2" x2="165468" y2="-61066.2" gradientUnits="userSpaceOnUse">
<stop offset="0.45" stop-color="#2BFDBE"/>
<stop offset="1" stop-color="#2BFDBE" stop-opacity="0.06"/>
</linearGradient>
<linearGradient id="paint7_linear_293_288" x1="168238" y1="-34339.2" x2="162988" y2="-59389.8" gradientUnits="userSpaceOnUse">
<stop offset="0.45" stop-color="#2BFDBE"/>
<stop offset="1" stop-color="#2BFDBE" stop-opacity="0.06"/>
</linearGradient>
<linearGradient id="paint8_linear_293_288" x1="165571" y1="-32822.7" x2="160495" y2="-57734.9" gradientUnits="userSpaceOnUse">
<stop offset="0.45" stop-color="#2BFDBE"/>
<stop offset="1" stop-color="#2BFDBE" stop-opacity="0.06"/>
</linearGradient>
<linearGradient id="paint9_linear_293_288" x1="162892" y1="-31327.2" x2="157991" y2="-56101.6" gradientUnits="userSpaceOnUse">
<stop offset="0.45" stop-color="#2BFDBE"/>
<stop offset="1" stop-color="#2BFDBE" stop-opacity="0.06"/>
</linearGradient>
<linearGradient id="paint10_linear_293_288" x1="160203" y1="-29852.9" x2="155475" y2="-54490.5" gradientUnits="userSpaceOnUse">
<stop offset="0.45" stop-color="#2BFDBE"/>
<stop offset="1" stop-color="#2BFDBE" stop-opacity="0.06"/>
</linearGradient>
<linearGradient id="paint11_linear_293_288" x1="157505" y1="-28400.4" x2="152950" y2="-52901.7" gradientUnits="userSpaceOnUse">
<stop offset="0.45" stop-color="#2BFDBE"/>
<stop offset="1" stop-color="#2BFDBE" stop-opacity="0.06"/>
</linearGradient>
<linearGradient id="paint12_linear_293_288" x1="154799" y1="-26969.9" x2="150416" y2="-51335.5" gradientUnits="userSpaceOnUse">
<stop offset="0.45" stop-color="#2BFDBE"/>
<stop offset="1" stop-color="#2BFDBE" stop-opacity="0.06"/>
</linearGradient>
<linearGradient id="paint13_linear_293_288" x1="152086" y1="-25561.8" x2="147876" y2="-49792.3" gradientUnits="userSpaceOnUse">
<stop offset="0.45" stop-color="#2BFDBE"/>
<stop offset="1" stop-color="#2BFDBE" stop-opacity="0.06"/>
</linearGradient>
<linearGradient id="paint14_linear_293_288" x1="149367" y1="-24176.5" x2="145329" y2="-48272.2" gradientUnits="userSpaceOnUse">
<stop offset="0.45" stop-color="#2BFDBE"/>
<stop offset="1" stop-color="#2BFDBE" stop-opacity="0.06"/>
</linearGradient>
<linearGradient id="paint15_linear_293_288" x1="146644" y1="-22814.4" x2="142778" y2="-46775.7" gradientUnits="userSpaceOnUse">
<stop offset="0.45" stop-color="#2BFDBE"/>
<stop offset="1" stop-color="#2BFDBE" stop-opacity="0.06"/>
</linearGradient>
<linearGradient id="paint16_linear_293_288" x1="143917" y1="-21475.7" x2="140224" y2="-45302.8" gradientUnits="userSpaceOnUse">
<stop offset="0.45" stop-color="#2BFDBE"/>
<stop offset="1" stop-color="#2BFDBE" stop-opacity="0.06"/>
</linearGradient>
<linearGradient id="paint17_linear_293_288" x1="141188" y1="-20160.8" x2="137667" y2="-43853.9" gradientUnits="userSpaceOnUse">
<stop offset="0.45" stop-color="#2BFDBE"/>
<stop offset="1" stop-color="#2BFDBE" stop-opacity="0.06"/>
</linearGradient>
<linearGradient id="paint18_linear_293_288" x1="138458" y1="-18870.1" x2="135109" y2="-42429.2" gradientUnits="userSpaceOnUse">
<stop offset="0.45" stop-color="#2BFDBE"/>
<stop offset="1" stop-color="#2BFDBE" stop-opacity="0.06"/>
</linearGradient>
<linearGradient id="paint19_linear_293_288" x1="135727" y1="-17603.8" x2="132551" y2="-41028.8" gradientUnits="userSpaceOnUse">
<stop offset="0.45" stop-color="#2BFDBE"/>
<stop offset="1" stop-color="#2BFDBE" stop-opacity="0.06"/>
</linearGradient>
<linearGradient id="paint20_linear_293_288" x1="132998" y1="-16362.2" x2="129994" y2="-39653.1" gradientUnits="userSpaceOnUse">
<stop offset="0.45" stop-color="#2BFDBE"/>
<stop offset="1" stop-color="#2BFDBE" stop-opacity="0.06"/>
</linearGradient>
<linearGradient id="paint21_linear_293_288" x1="130271" y1="-15145.7" x2="127440" y2="-38302" gradientUnits="userSpaceOnUse">
<stop offset="0.45" stop-color="#2BFDBE"/>
<stop offset="1" stop-color="#2BFDBE" stop-opacity="0.06"/>
</linearGradient>
<linearGradient id="paint22_linear_293_288" x1="127547" y1="-13954.6" x2="124889" y2="-36976" gradientUnits="userSpaceOnUse">
<stop offset="0.45" stop-color="#2BFDBE"/>
<stop offset="1" stop-color="#2BFDBE" stop-opacity="0.06"/>
</linearGradient>
<linearGradient id="paint23_linear_293_288" x1="124827" y1="-12789" x2="122343" y2="-35675" gradientUnits="userSpaceOnUse">
<stop offset="0.45" stop-color="#2BFDBE"/>
<stop offset="1" stop-color="#2BFDBE" stop-opacity="0.06"/>
</linearGradient>
<linearGradient id="paint24_linear_293_288" x1="122113" y1="-11649.4" x2="119803" y2="-34399.2" gradientUnits="userSpaceOnUse">
<stop offset="0.45" stop-color="#2BFDBE"/>
<stop offset="1" stop-color="#2BFDBE" stop-opacity="0.06"/>
</linearGradient>
<linearGradient id="paint25_linear_293_288" x1="119405" y1="-10535.9" x2="117270" y2="-33148.8" gradientUnits="userSpaceOnUse">
<stop offset="0.45" stop-color="#2BFDBE"/>
<stop offset="1" stop-color="#2BFDBE" stop-opacity="0.06"/>
</linearGradient>
<linearGradient id="paint26_linear_293_288" x1="116704" y1="-9448.72" x2="114745" y2="-31923.9" gradientUnits="userSpaceOnUse">
<stop offset="0.45" stop-color="#2BFDBE"/>
<stop offset="1" stop-color="#2BFDBE" stop-opacity="0.06"/>
</linearGradient>
<linearGradient id="paint27_linear_293_288" x1="114013" y1="-8388.22" x2="112229" y2="-30724.5" gradientUnits="userSpaceOnUse">
<stop offset="0.45" stop-color="#2BFDBE"/>
<stop offset="1" stop-color="#2BFDBE" stop-opacity="0.06"/>
</linearGradient>
<linearGradient id="paint28_linear_293_288" x1="111331" y1="-7354.59" x2="109724" y2="-29550.8" gradientUnits="userSpaceOnUse">
<stop offset="0.45" stop-color="#2BFDBE"/>
<stop offset="1" stop-color="#2BFDBE" stop-opacity="0.06"/>
</linearGradient>
<linearGradient id="paint29_linear_293_288" x1="108660" y1="-6348.05" x2="107231" y2="-28402.8" gradientUnits="userSpaceOnUse">
<stop offset="0.45" stop-color="#2BFDBE"/>
<stop offset="1" stop-color="#2BFDBE" stop-opacity="0.06"/>
</linearGradient>
<linearGradient id="paint30_linear_293_288" x1="106000" y1="-5368.8" x2="104750" y2="-27280.5" gradientUnits="userSpaceOnUse">
<stop offset="0.45" stop-color="#2BFDBE"/>
<stop offset="1" stop-color="#2BFDBE" stop-opacity="0.06"/>
</linearGradient>
<linearGradient id="paint31_linear_293_288" x1="103354" y1="-4417.06" x2="102283" y2="-26184" gradientUnits="userSpaceOnUse">
<stop offset="0.45" stop-color="#2BFDBE"/>
<stop offset="1" stop-color="#2BFDBE" stop-opacity="0.06"/>
</linearGradient>
<linearGradient id="paint32_linear_293_288" x1="100721" y1="-3493.02" x2="99830.3" y2="-25113.3" gradientUnits="userSpaceOnUse">
<stop offset="0.45" stop-color="#2BFDBE"/>
<stop offset="1" stop-color="#2BFDBE" stop-opacity="0.06"/>
</linearGradient>
<linearGradient id="paint33_linear_293_288" x1="98103.2" y1="-2596.85" x2="97393.9" y2="-24068.4" gradientUnits="userSpaceOnUse">
<stop offset="0.45" stop-color="#2BFDBE"/>
<stop offset="1" stop-color="#2BFDBE" stop-opacity="0.06"/>
</linearGradient>
<linearGradient id="paint34_linear_293_288" x1="95501.4" y1="-1728.75" x2="94974.5" y2="-23049.2" gradientUnits="userSpaceOnUse">
<stop offset="0.45" stop-color="#2BFDBE"/>
<stop offset="1" stop-color="#2BFDBE" stop-opacity="0.06"/>
</linearGradient>
<linearGradient id="paint35_linear_293_288" x1="92916.6" y1="-888.859" x2="92573.2" y2="-22055.7" gradientUnits="userSpaceOnUse">
<stop offset="0.45" stop-color="#2BFDBE"/>
<stop offset="1" stop-color="#2BFDBE" stop-opacity="0.06"/>
</linearGradient>
<linearGradient id="paint36_linear_293_288" x1="90349.7" y1="-77.3419" x2="90191" y2="-21087.8" gradientUnits="userSpaceOnUse">
<stop offset="0.45" stop-color="#2BFDBE"/>
<stop offset="1" stop-color="#2BFDBE" stop-opacity="0.06"/>
</linearGradient>
<linearGradient id="paint37_linear_293_288" x1="87801.8" y1="705.652" x2="87828.8" y2="-20145.5" gradientUnits="userSpaceOnUse">
<stop offset="0.45" stop-color="#2BFDBE"/>
<stop offset="1" stop-color="#2BFDBE" stop-opacity="0.06"/>
</linearGradient>
<linearGradient id="paint38_linear_293_288" x1="85273.9" y1="1460" x2="85487.8" y2="-19228.5" gradientUnits="userSpaceOnUse">
<stop offset="0.45" stop-color="#2BFDBE"/>
<stop offset="1" stop-color="#2BFDBE" stop-opacity="0.06"/>
</linearGradient>
<linearGradient id="paint39_linear_293_288" x1="82766.9" y1="2185.55" x2="83168.8" y2="-18336.9" gradientUnits="userSpaceOnUse">
<stop offset="0.45" stop-color="#2BFDBE"/>
<stop offset="1" stop-color="#2BFDBE" stop-opacity="0.06"/>
</linearGradient>
<linearGradient id="paint40_linear_293_288" x1="80281.8" y1="2882.22" x2="80873" y2="-17470.3" gradientUnits="userSpaceOnUse">
<stop offset="0.45" stop-color="#2BFDBE"/>
<stop offset="1" stop-color="#2BFDBE" stop-opacity="0.06"/>
</linearGradient>
<linearGradient id="paint41_linear_293_288" x1="77819.5" y1="3549.88" x2="78601.1" y2="-16628.7" gradientUnits="userSpaceOnUse">
<stop offset="0.45" stop-color="#2BFDBE"/>
<stop offset="1" stop-color="#2BFDBE" stop-opacity="0.06"/>
</linearGradient>
<linearGradient id="paint42_linear_293_288" x1="75381.1" y1="4188.45" x2="76354.2" y2="-15811.8" gradientUnits="userSpaceOnUse">
<stop offset="0.45" stop-color="#2BFDBE"/>
<stop offset="1" stop-color="#2BFDBE" stop-opacity="0.06"/>
</linearGradient>
<linearGradient id="paint43_linear_293_288" x1="72967.4" y1="4797.84" x2="74133.1" y2="-15019.4" gradientUnits="userSpaceOnUse">
<stop offset="0.45" stop-color="#2BFDBE"/>
<stop offset="1" stop-color="#2BFDBE" stop-opacity="0.06"/>
</linearGradient>
<linearGradient id="paint44_linear_293_288" x1="70579.3" y1="5377.96" x2="71938.7" y2="-14251.1" gradientUnits="userSpaceOnUse">
<stop offset="0.45" stop-color="#2BFDBE"/>
<stop offset="1" stop-color="#2BFDBE" stop-opacity="0.06"/>
</linearGradient>
<linearGradient id="paint45_linear_293_288" x1="68217.9" y1="5928.77" x2="69772" y2="-13506.8" gradientUnits="userSpaceOnUse">
<stop offset="0.45" stop-color="#2BFDBE"/>
<stop offset="1" stop-color="#2BFDBE" stop-opacity="0.06"/>
</linearGradient>
<linearGradient id="paint46_linear_293_288" x1="65883.9" y1="6450.18" x2="67633.6" y2="-12786.1" gradientUnits="userSpaceOnUse">
<stop offset="0.45" stop-color="#2BFDBE"/>
<stop offset="1" stop-color="#2BFDBE" stop-opacity="0.06"/>
</linearGradient>
<linearGradient id="paint47_linear_293_288" x1="63578.4" y1="6942.17" x2="65524.4" y2="-12088.6" gradientUnits="userSpaceOnUse">
<stop offset="0.45" stop-color="#2BFDBE"/>
<stop offset="1" stop-color="#2BFDBE" stop-opacity="0.06"/>
</linearGradient>
<linearGradient id="paint48_linear_293_288" x1="61302.1" y1="7404.7" x2="63445.2" y2="-11414" gradientUnits="userSpaceOnUse">
<stop offset="0.45" stop-color="#2BFDBE"/>
<stop offset="1" stop-color="#2BFDBE" stop-opacity="0.06"/>
</linearGradient>
<linearGradient id="paint49_linear_293_288" x1="59055.9" y1="7837.73" x2="61396.7" y2="-10761.9" gradientUnits="userSpaceOnUse">
<stop offset="0.45" stop-color="#2BFDBE"/>
<stop offset="1" stop-color="#2BFDBE" stop-opacity="0.06"/>
</linearGradient>
<linearGradient id="paint50_linear_293_288" x1="56840.8" y1="8241.26" x2="59379.5" y2="-10131.8" gradientUnits="userSpaceOnUse">
<stop offset="0.45" stop-color="#2BFDBE"/>
<stop offset="1" stop-color="#2BFDBE" stop-opacity="0.06"/>
</linearGradient>
<linearGradient id="paint51_linear_293_288" x1="54657.5" y1="8615.27" x2="57394.3" y2="-9523.19" gradientUnits="userSpaceOnUse">
<stop offset="0.45" stop-color="#2BFDBE"/>
<stop offset="1" stop-color="#2BFDBE" stop-opacity="0.06"/>
</linearGradient>
<linearGradient id="paint52_linear_293_288" x1="52506.9" y1="8959.78" x2="55441.6" y2="-8935.67" gradientUnits="userSpaceOnUse">
<stop offset="0.45" stop-color="#2BFDBE"/>
<stop offset="1" stop-color="#2BFDBE" stop-opacity="0.06"/>
</linearGradient>
<linearGradient id="paint53_linear_293_288" x1="50389.8" y1="9274.78" x2="53522.1" y2="-8368.69" gradientUnits="userSpaceOnUse">
<stop offset="0.45" stop-color="#2BFDBE"/>
<stop offset="1" stop-color="#2BFDBE" stop-opacity="0.06"/>
</linearGradient>
<linearGradient id="paint54_linear_293_288" x1="48307" y1="9560.3" x2="51636.1" y2="-7821.69" gradientUnits="userSpaceOnUse">
<stop offset="0.45" stop-color="#2BFDBE"/>
<stop offset="1" stop-color="#2BFDBE" stop-opacity="0.06"/>
</linearGradient>
<linearGradient id="paint55_linear_293_288" x1="46259.3" y1="9816.39" x2="49784.1" y2="-7294.08" gradientUnits="userSpaceOnUse">
<stop offset="0.45" stop-color="#2BFDBE"/>
<stop offset="1" stop-color="#2BFDBE" stop-opacity="0.06"/>
</linearGradient>
<linearGradient id="paint56_linear_293_288" x1="44247.5" y1="10043.1" x2="47966.5" y2="-6785.26" gradientUnits="userSpaceOnUse">
<stop offset="0.45" stop-color="#2BFDBE"/>
<stop offset="1" stop-color="#2BFDBE" stop-opacity="0.06"/>
</linearGradient>
<linearGradient id="paint57_linear_293_288" x1="42272.3" y1="10240.4" x2="46183.4" y2="-6294.6" gradientUnits="userSpaceOnUse">
<stop offset="0.45" stop-color="#2BFDBE"/>
<stop offset="1" stop-color="#2BFDBE" stop-opacity="0.06"/>
</linearGradient>
<linearGradient id="paint58_linear_293_288" x1="40334.6" y1="10408.5" x2="44435.1" y2="-5821.45" gradientUnits="userSpaceOnUse">
<stop offset="0.45" stop-color="#2BFDBE"/>
<stop offset="1" stop-color="#2BFDBE" stop-opacity="0.06"/>
</linearGradient>
<linearGradient id="paint59_linear_293_288" x1="38435" y1="10547.3" x2="42721.7" y2="-5365.12" gradientUnits="userSpaceOnUse">
<stop offset="0.45" stop-color="#2BFDBE"/>
<stop offset="1" stop-color="#2BFDBE" stop-opacity="0.06"/>
</linearGradient>
<linearGradient id="paint60_linear_293_288" x1="36574.2" y1="10657" x2="41043.2" y2="-4924.95" gradientUnits="userSpaceOnUse">
<stop offset="0.45" stop-color="#2BFDBE"/>
<stop offset="1" stop-color="#2BFDBE" stop-opacity="0.06"/>
</linearGradient>
<linearGradient id="paint61_linear_293_288" x1="34753.1" y1="10737.7" x2="39399.5" y2="-4500.26" gradientUnits="userSpaceOnUse">
<stop offset="0.45" stop-color="#2BFDBE"/>
<stop offset="1" stop-color="#2BFDBE" stop-opacity="0.06"/>
</linearGradient>
<linearGradient id="paint62_linear_293_288" x1="32972.2" y1="10789.4" x2="37790.4" y2="-4090.35" gradientUnits="userSpaceOnUse">
<stop offset="0.45" stop-color="#2BFDBE"/>
<stop offset="1" stop-color="#2BFDBE" stop-opacity="0.06"/>
</linearGradient>
<linearGradient id="paint63_linear_293_288" x1="31232.3" y1="10812.3" x2="36215.5" y2="-3694.56" gradientUnits="userSpaceOnUse">
<stop offset="0.45" stop-color="#2BFDBE"/>
<stop offset="1" stop-color="#2BFDBE" stop-opacity="0.06"/>
</linearGradient>
<linearGradient id="paint64_linear_293_288" x1="29534.1" y1="10806.5" x2="34674.5" y2="-3312.25" gradientUnits="userSpaceOnUse">
<stop offset="0.45" stop-color="#2BFDBE"/>
<stop offset="1" stop-color="#2BFDBE" stop-opacity="0.06"/>
</linearGradient>
<linearGradient id="paint65_linear_293_288" x1="27878.1" y1="10772.1" x2="33166.8" y2="-2942.75" gradientUnits="userSpaceOnUse">
<stop offset="0.45" stop-color="#2BFDBE"/>
<stop offset="1" stop-color="#2BFDBE" stop-opacity="0.06"/>
</linearGradient>
<linearGradient id="paint66_linear_293_288" x1="26265" y1="10709.2" x2="31691.6" y2="-2585.53" gradientUnits="userSpaceOnUse">
<stop offset="0.45" stop-color="#2BFDBE"/>
<stop offset="1" stop-color="#2BFDBE" stop-opacity="0.06"/>
</linearGradient>
<linearGradient id="paint67_linear_293_288" x1="24695.5" y1="10618.1" x2="30248.1" y2="-2240.07" gradientUnits="userSpaceOnUse">
<stop offset="0.45" stop-color="#2BFDBE"/>
<stop offset="1" stop-color="#2BFDBE" stop-opacity="0.06"/>
</linearGradient>
<linearGradient id="paint68_linear_293_288" x1="23170.1" y1="10498.8" x2="28835.3" y2="-1905.92" gradientUnits="userSpaceOnUse">
<stop offset="0.45" stop-color="#2BFDBE"/>
<stop offset="1" stop-color="#2BFDBE" stop-opacity="0.06"/>
</linearGradient>
<linearGradient id="paint69_linear_293_288" x1="21689.5" y1="10351.6" x2="27452" y2="-1582.78" gradientUnits="userSpaceOnUse">
<stop offset="0.45" stop-color="#2BFDBE"/>
<stop offset="1" stop-color="#2BFDBE" stop-opacity="0.06"/>
</linearGradient>
<linearGradient id="paint70_linear_293_288" x1="20254.1" y1="10176.6" x2="26097" y2="-1270.42" gradientUnits="userSpaceOnUse">
<stop offset="0.45" stop-color="#2BFDBE"/>
<stop offset="1" stop-color="#2BFDBE" stop-opacity="0.06"/>
</linearGradient>
<linearGradient id="paint71_linear_293_288" x1="18864.7" y1="9973.94" x2="24768.9" y2="-968.801" gradientUnits="userSpaceOnUse">
<stop offset="0.45" stop-color="#2BFDBE"/>
<stop offset="1" stop-color="#2BFDBE" stop-opacity="0.06"/>
</linearGradient>
<linearGradient id="paint72_linear_293_288" x1="17521.6" y1="9743.9" x2="23465.9" y2="-678.06" gradientUnits="userSpaceOnUse">
<stop offset="0.45" stop-color="#2BFDBE"/>
<stop offset="1" stop-color="#2BFDBE" stop-opacity="0.06"/>
</linearGradient>
<linearGradient id="paint73_linear_293_288" x1="16225.5" y1="9486.66" x2="22186.5" y2="-398.537" gradientUnits="userSpaceOnUse">
<stop offset="0.45" stop-color="#2BFDBE"/>
<stop offset="1" stop-color="#2BFDBE" stop-opacity="0.06"/>
</linearGradient>
<linearGradient id="paint74_linear_293_288" x1="14976.8" y1="9202.42" x2="20928.8" y2="-130.775" gradientUnits="userSpaceOnUse">
<stop offset="0.45" stop-color="#2BFDBE"/>
<stop offset="1" stop-color="#2BFDBE" stop-opacity="0.06"/>
</linearGradient>
<linearGradient id="paint75_linear_293_288" x1="13776.1" y1="8891.42" x2="19691" y2="124.348" gradientUnits="userSpaceOnUse">
<stop offset="0.45" stop-color="#2BFDBE"/>
<stop offset="1" stop-color="#2BFDBE" stop-opacity="0.06"/>
</linearGradient>
<linearGradient id="paint76_linear_293_288" x1="12623.7" y1="8553.87" x2="18470.9" y2="365.692" gradientUnits="userSpaceOnUse">
<stop offset="0.45" stop-color="#2BFDBE"/>
<stop offset="1" stop-color="#2BFDBE" stop-opacity="0.06"/>
</linearGradient>
<linearGradient id="paint77_linear_293_288" x1="11520.2" y1="8190.03" x2="17266.8" y2="591.775" gradientUnits="userSpaceOnUse">
<stop offset="0.45" stop-color="#2BFDBE"/>
<stop offset="1" stop-color="#2BFDBE" stop-opacity="0.06"/>
</linearGradient>
<linearGradient id="paint78_linear_293_288" x1="10466.1" y1="7800.13" x2="16076.5" y2="800.773" gradientUnits="userSpaceOnUse">
<stop offset="0.45" stop-color="#2BFDBE"/>
<stop offset="1" stop-color="#2BFDBE" stop-opacity="0.06"/>
</linearGradient>
<linearGradient id="paint79_linear_293_288" x1="9461.61" y1="7384.45" x2="14898.3" y2="990.454" gradientUnits="userSpaceOnUse">
<stop offset="0.45" stop-color="#2BFDBE"/>
<stop offset="1" stop-color="#2BFDBE" stop-opacity="0.06"/>
</linearGradient>
<linearGradient id="paint80_linear_293_288" x1="8507.3" y1="6943.23" x2="13730.3" y2="1158.23" gradientUnits="userSpaceOnUse">
<stop offset="0.45" stop-color="#2BFDBE"/>
<stop offset="1" stop-color="#2BFDBE" stop-opacity="0.06"/>
</linearGradient>
<linearGradient id="paint81_linear_293_288" x1="7603.51" y1="6476.76" x2="12571.2" y2="1301.11" gradientUnits="userSpaceOnUse">
<stop offset="0.45" stop-color="#2BFDBE"/>
<stop offset="1" stop-color="#2BFDBE" stop-opacity="0.06"/>
</linearGradient>
<linearGradient id="paint82_linear_293_288" x1="6750.62" y1="5985.33" x2="11419.5" y2="1415.73" gradientUnits="userSpaceOnUse">
<stop offset="0.45" stop-color="#2BFDBE"/>
<stop offset="1" stop-color="#2BFDBE" stop-opacity="0.06"/>
</linearGradient>
<linearGradient id="paint83_linear_293_288" x1="5948.99" y1="5469.21" x2="10274.4" y2="1498.35" gradientUnits="userSpaceOnUse">
<stop offset="0.45" stop-color="#2BFDBE"/>
<stop offset="1" stop-color="#2BFDBE" stop-opacity="0.06"/>
</linearGradient>
<linearGradient id="paint84_linear_293_288" x1="5198.93" y1="4928.72" x2="9135.53" y2="1544.95" gradientUnits="userSpaceOnUse">
<stop offset="0.45" stop-color="#2BFDBE"/>
<stop offset="1" stop-color="#2BFDBE" stop-opacity="0.06"/>
</linearGradient>
<linearGradient id="paint85_linear_293_288" x1="4500.78" y1="4364.16" x2="8002.85" y2="1551.2" gradientUnits="userSpaceOnUse">
<stop offset="0.45" stop-color="#2BFDBE"/>
<stop offset="1" stop-color="#2BFDBE" stop-opacity="0.06"/>
</linearGradient>
<linearGradient id="paint86_linear_293_288" x1="3854.84" y1="3775.84" x2="6876.99" y2="1512.63" gradientUnits="userSpaceOnUse">
<stop offset="0.45" stop-color="#2BFDBE"/>
<stop offset="1" stop-color="#2BFDBE" stop-opacity="0.06"/>
</linearGradient>
<linearGradient id="paint87_linear_293_288" x1="3261.38" y1="3164.09" x2="5759.2" y2="1424.64" gradientUnits="userSpaceOnUse">
<stop offset="0.45" stop-color="#2BFDBE"/>
<stop offset="1" stop-color="#2BFDBE" stop-opacity="0.06"/>
</linearGradient>
<linearGradient id="paint88_linear_293_288" x1="2720.67" y1="2529.25" x2="4651.42" y2="1282.64" gradientUnits="userSpaceOnUse">
<stop offset="0.45" stop-color="#2BFDBE"/>
<stop offset="1" stop-color="#2BFDBE" stop-opacity="0.06"/>
</linearGradient>
<linearGradient id="paint89_linear_293_288" x1="2232.95" y1="1871.64" x2="3556.24" y2="1082.21" gradientUnits="userSpaceOnUse">
<stop offset="0.45" stop-color="#2BFDBE"/>
<stop offset="1" stop-color="#2BFDBE" stop-opacity="0.06"/>
</linearGradient>
<linearGradient id="paint90_linear_293_288" x1="1798.46" y1="1191.63" x2="2476.91" y2="819.128" gradientUnits="userSpaceOnUse">
<stop offset="0.45" stop-color="#2BFDBE"/>
<stop offset="1" stop-color="#2BFDBE" stop-opacity="0.06"/>
</linearGradient>
<clipPath id="clip0_293_288">
<rect width="2982" height="944" fill="white"/>
</clipPath>
</defs>
</svg>
